<?xml version="1.0" encoding="iso-8859-1"?>
<!-- Generator: Adobe Illustrator 16.0.0, SVG Export Plug-In . SVG Version: 6.00 Build 0)  -->
<!DOCTYPE svg PUBLIC "-//W3C//DTD SVG 1.1//EN" "http://www.w3.org/Graphics/SVG/1.1/DTD/svg11.dtd">
<svg version="1.1" id="Capa_1" xmlns="http://www.w3.org/2000/svg" xmlns:xlink="http://www.w3.org/1999/xlink" x="0px" y="0px"
	 width="95.166px" height="95.166px" viewBox="0 0 95.166 95.166" style="enable-background:new 0 0 95.166 95.166;"
	 xml:space="preserve">
<g>
	<g>
		<path d="M93.709,61.996c-1.26-0.383-2.512-0.809-3.754-1.274c-0.71-0.267-1.114-0.664-1.35-1.435
			c-0.752-2.465-1.834-4.788-3.426-6.842c-0.955-1.23-2.068-2.265-3.531-2.901c-0.315-0.138-0.575-0.556-0.724-0.903
			c-2.188-5.121-5.026-9.813-9.012-13.753c-1.495-1.478-3.171-2.698-5.153-3.468c-0.309-0.12-0.593-0.373-0.82-0.626
			c-2.196-2.448-4.81-4.217-8.032-5.023c-0.298-0.075-0.597-0.227-0.845-0.412c-2.002-1.496-4.1-2.538-6.752-2.218
			c-0.721,0.087-1.595-0.538-2.297-0.993c-1.125-0.729-2.119-1.659-3.255-2.367c-0.914-0.57-1.952-0.792-3.024-0.226
			c-0.177,0.093-0.524-0.002-0.736-0.12c-0.755-0.419-1.458-0.913-2.232-1.29c-0.498-0.243-1.009-0.414-1.526-0.422
			c-0.882-0.014-2.063-0.214-2.781-1.09c-3.04-3.709-6.055-7.274-7.844-11.796c-0.292-0.738-0.606-1.952-0.909-1.952h-0.578
			c-0.43,0-1.073,0.597-1.24,1.133c-0.297,0.956-0.499,1.8-0.394,2.784c0.223,2.097,0.642,4.164,1.03,6.241
			c0.202,1.078,0.431,2.146,0.663,3.219c0.239,1.107,0.354,2.042,0.26,2.092c-0.094,0.05-0.722-0.645-1.4-1.551
			c-0.44-0.589-0.869-1.187-1.245-1.814c-1.186-1.978-2.196-4.062-3.38-6.041c-0.703-1.173-1.545-2.274-2.424-3.323
			C16.33,4.826,15.9,4.904,15.622,5.923c-0.316,1.156-0.645,2.406-0.516,3.564c0.233,2.087,0.668,4.177,1.273,6.19
			c0.319,1.062,0.781,2.081,1.264,3.114c0.479,1.026-0.042,2.063-1.167,2.19c-1.647,0.184-3.303,0.135-4.997-0.368
			c-1.085-0.323-1.894-0.237-1.893,0.408c0.001,0.425,0.022,0.808,0.149,1.151c0.433,1.164,1.246,1.882,2.253,2.375
			c1.017,0.498,1.363,1.404,0.699,2.321c-1.064,1.47-2.083,2.939-3.377,4.186c-0.815,0.786-0.733,1.686,0.393,1.805
			c0.76,0.08,1.514,0.036,2.272-0.094c1.116-0.191,1.986,0.417,1.988,1.549c0.002,1.76,0.005,3.49-0.006,5.22
			c-0.002,0.242-0.109,0.491-0.205,0.724c-0.907,2.221-2.009,4.38-2.666,6.673c-0.989,3.451-2.975,5.685-6.426,6.729
			C2.424,54.335,0,55.685,0,58.045v1.156c0,0.638,0.196,2.063,0.59,3.125c1.508,4.062,4.918,7.058,8.743,9.428
			c0.789,0.488,1.476,1.033,2.208,1.604c0.795,0.619,1.047,1.36,0.568,2.364c-0.583,1.22-0.475,2.435,0.444,3.504
			c1.476,1.718,3.226,1.737,4.766,0.054c0.076-0.082,0.149-0.166,0.216-0.246c0.116-0.138,0.807-0.133,1.546,0.006
			c0.457,0.088,0.903,0.154,1.35,0.154c1.369-0.004,2.545-0.559,3.05-1.93c0.52-1.412,1.528-1.855,2.917-1.82
			c0.929,0.022,1.866,0.031,2.789-0.06c2.089-0.206,3.376-1.604,3.449-3.698c0.073-2.127-0.702-4.013-1.707-5.831
			c-0.682-1.233-1.351-2.475-1.998-3.727c-0.204-0.396-0.355-0.827-0.467-1.259c-0.451-1.726,0.054-2.354,1.816-2.285
			c0.673,0.025,1.348,0.057,2.018,0.125c2.239,0.226,4.178-0.44,5.571-2.196c1.249-1.574,2.308-3.301,3.43-4.974
			c0.157-0.233,0.29-0.482,0.438-0.773c0.225-0.438,1.065-0.146,1.88,0.639c1.331,1.282,2.631,2.524,3.852,3.84
			c7.373,7.955,10.535,17.51,10.548,28.221c0,0.785-0.279,1.568-0.406,2.357c-0.25,1.562-0.387,3.106-0.405,4.633
			c-0.015,1.133,0.571,1.949,1.216,1.811c0.645-0.138,1.123-1.18,1.164-2.312c0.186-5.176,1.801-10.027,4.471-14.584
			c0.067-0.117,0.135-0.235,0.2-0.354c0.109-0.195,0.142-0.4,0.072-0.455s-1.026,0.219-1.824,1.021
			c-0.59,0.594-1.051,1.322-1.481,2.111c-0.545,0.992-1.004,0.9-1.129-0.225c-0.684-6.158-2.664-11.677-5.856-16.802
			C51.021,55.826,47.175,51.721,42.884,48c-0.302-0.262-0.496-0.767-0.543-1.181c-0.186-1.643-0.257-3.299-0.456-4.94
			c-0.024-0.205-0.136-0.399-0.27-0.59c-0.207-0.297-0.454-0.271-0.547,0.055c-0.059,0.203-0.103,0.405-0.092,0.605
			c0.252,5.028-1.805,9.161-4.999,12.827c-1.28,1.469-2.926,2.131-4.92,1.789c-0.788-0.135-1.595-0.22-2.392-0.215
			c-2.003,0.014-3.104,1.371-2.619,3.309c0.262,1.045,0.694,2.061,1.15,3.043c0.77,1.654,1.677,3.248,2.414,4.916
			c0.369,0.836,0.602,1.769,0.696,2.679c0.148,1.422-0.49,2.323-1.863,2.766c-0.694,0.224-1.436,0.339-2.165,0.407
			c-2.066,0.196-3.987,0.459-4.82,2.871c-0.379,1.102-1.356,1.212-2.347,0.707c0,0-0.526-0.206-1.164-0.191
			c0.803-3.193,2.714-5.701,6.251-6.445c1.294-0.271,0.745-2.248-0.545-1.977c-5.061,1.062-7.436,5.197-8.07,10.014
			c-0.399,0.269-0.812,0.291-1.28,0.065c-0.929-0.45-1.343-1.358-1.037-2.319c0.077-0.242,0.198-0.475,0.321-0.697
			c1.168-2.117,1.154-2.182-0.877-3.545c-0.186-0.125-0.381-0.238-0.559-0.375c-2.238-1.715-4.543-3.353-6.686-5.178
			c-1.625-1.385-2.834-3.141-3.329-5.293c-0.541-2.355,0.159-4.094,2.245-5.315c0.937-0.55,1.943-0.985,2.938-1.429
			c1.976-0.879,3.364-2.317,4.149-4.322c0.571-1.461,1.083-2.944,1.633-4.413c0.191-0.512,0.388-1.021,0.596-1.555
			c0.333-0.857,0.828-0.663,1.104,0.435c0.151,0.602,0.3,1.19,0.446,1.771c0.276,1.098,0.573,2.01,0.662,2.04
			c0.089,0.028,0.515-0.3,0.947-0.739c0.266-0.27,0.512-0.551,0.686-0.872c0.515-0.947,1.019-1.971,1.194-3.018
			c0.433-2.587,0.617-5.215,1.018-7.809c0.188-1.215,0.435-2.423,0.714-3.622c0.257-1.103-0.019-2.539,0.352-3.104
			c0.371-0.564,1.411-0.935,1.944-1.228c0.533-0.293,1.771-0.974,2.899-1.066c1.515-0.124,3,0.179,4.525,0.445
			c1.115,0.195,1.745,0.02,1.394-0.311c-0.231-0.217-0.433-0.409-0.625-0.608c-1.409-1.457-2.812-2.925-3.324-4.977
			c-0.698-2.798-1.409-5.594-2.055-8.404c-0.553-2.4-1.27-4.789-1.049-7.294c0.027-0.307,0.111-0.61,0.211-0.911
			c0.162-0.491,0.417-0.829,0.542-0.724c0.106,0.088,0.146,0.16,0.177,0.235c1.35,3.264,2.858,6.448,4.994,9.283
			c1.659,2.203,3.444,4.313,5.067,6.541c0.607,0.833,1.041,1.848,1.33,2.844c0.424,1.463-0.041,2.842-0.768,4.147
			c-0.064,0.116-0.067,0.265-0.057,0.422c0.016,0.238,0.207,0.418,0.426,0.401c0.14-0.011,0.275-0.032,0.384-0.096
			c0.184-0.107,0.356-0.232,0.513-0.355c0.271-0.212,0.911,0.42,1.439,1.421c0.886,1.678,1.776,3.357,2.637,5.052
			c1.914,3.765,3.82,7.536,5.674,11.331c0.43,0.881,0.809,1.788,1.179,2.698c0.428,1.048,0.854,1.899,0.947,1.903
			c0.094,0.004,0.373-0.887,0.623-1.99c0.18-0.783,0.358-1.579,0.545-2.4c0.25-1.104,0.891-1.19,1.424-0.192
			c0.428,0.797,0.828,1.549,1.227,2.305c1.082,2.049,2.124,4.104,1.555,6.555c-0.013,0.048-0.012,0.104,0.002,0.182
			c0.019,0.101,0.945-0.072,1.688-0.877s2.121-0.88,3.231-1.092c0.479-0.091,0.631-0.335,1.117-0.668
			C61.568,51.087,62,51.439,62,52.57v2.684c0,1.132,1.258,2.052,2.262,1.527c0.783-0.408,1.707-1.104,2.725-2.268
			c0.744-0.854,1.732-0.73,2.104,0.339c1.027,2.968,1.695,6.017,1.991,9.149c0.106,1.127,0.376,2.013,0.64,1.98
			c0.18-0.021,0.342-0.047,0.477-0.111c1.178-0.562,2.339-1.168,3.512-1.741c0.477-0.233,0.958-0.46,1.426-0.681
			c0.789-0.371,2.014,0.039,2.725,0.92c1.084,1.345,2.113,2.623,3.209,3.842c1.096,1.217,2.304,2.306,3.73,3.102
			c0.989,0.551,2.396,0.028,2.596-1.087c0.133-0.748,0.138-1.506,0.135-2.257c-0.002-0.663-0.039-1.326-0.084-1.965
			c-0.078-1.084,0.725-1.684,1.812-1.372c0.387,0.11,0.774,0.217,1.161,0.319c1.095,0.293,2.299-0.133,2.649-0.933
			C95.42,63.22,94.792,62.326,93.709,61.996z M16.164,9.03c0.058-1.131,0.379-2.061,0.477-2.106c0.098-0.044,0.64,0.712,1.21,1.69
			c1.664,2.853,3.323,5.697,4.951,8.487c0.571,0.978,0.139,1.977-0.964,2.232c-0.079,0.018-0.158,0.036-0.238,0.055
			c-1.104,0.255-2.388-0.369-2.881-1.389C17.343,15.151,15.999,12.275,16.164,9.03z M12.028,23.27
			c-0.203-0.08-0.417-0.211-0.547-0.379c-0.194-0.251-0.379-0.509-0.561-0.769c-0.301-0.431,0.313-0.435,1.425-0.22
			c0.858,0.166,1.717,0.236,2.592,0.253c1.132,0.021,1.885,0.114,1.686,0.308c-0.135,0.133-0.252,0.241-0.388,0.317
			c-0.677,0.385-0.771,1.633-1.873,1.34C13.565,23.907,12.799,23.573,12.028,23.27z M26.385,21.947
			c0.275,0.76,0.605,1.468,1.031,2.116c0.623,0.946,1.312,1.554,1.272,1.576c-0.042,0.023-0.059,0.034-0.074,0.032
			c-0.251-0.04-0.502-0.083-0.752-0.127c-2.295-0.404-4.472-0.304-6.321,1.379c-0.366,0.333-0.81,0.607-1.261,0.81
			c-0.809,0.363-1.408,0.892-1.644,1.759c-0.084,0.309-0.134,0.608-0.024,0.79c0.232,0.383,0.604,0.669,0.427,1.327
			c-0.109,0.406-0.205,0.802-0.261,1.205c-0.458,3.267-0.841,6.544-1.313,9.808c-0.076,0.523-0.151,1.063-0.344,1.572
			c-0.314,0.834-1.182,0.415-1.422-0.691c-0.777-3.568-0.954-7.13-0.703-10.738c0.079-1.13-0.423-1.848-1.175-1.608
			c-0.752,0.24-1.405,0.385-1.457,0.324c-0.052-0.061,0.224-0.972,0.701-1.999c1.896-4.078,4.697-7.342,9.276-8.935
			c0.546-0.19,1.126-0.286,1.715-0.358C25.019,20.071,26,20.882,26.385,21.947z M87.21,69.044c-0.051,0.187-0.922-0.062-1.843-0.722
			c-1.967-1.41-3.424-3.256-4.76-5.178c-0.646-0.93-1.426-1.631-1.765-1.551c-0.34,0.081-0.502-0.585-0.362-1.486
			c0.141-0.9,0.19-1.648,0.113-1.671c-0.078-0.022-0.514,0.802-1.072,1.788c-0.27,0.477-0.568,0.944-0.924,1.391
			c-0.705,0.886-1.086,0.584-0.73-0.49c0.191-0.582,0.337-1.153,0.398-1.727c0.121-1.127-0.406-1.141-0.763-0.065
			c-0.375,1.128-0.835,2.211-1.546,3.175c-0.671,0.912-1.458,1.329-1.505,1.158c-0.031-0.112-0.056-0.213-0.067-0.313
			c-0.396-3.745-1.508-7.265-3.273-10.59c-0.135-0.254-0.079-0.662,0.004-0.967c0.26-0.956,0.597-1.89,0.851-2.847
			c0.027-0.102-0.013-0.221-0.067-0.342c-0.08-0.18-0.285-0.259-0.455-0.175c-0.105,0.054-0.207,0.112-0.282,0.193
			c-0.193,0.206-0.308,0.485-0.466,0.726c-1.059,1.602-2.103,3.213-3.191,4.793c-0.136,0.199-0.322,0.364-0.542,0.547
			c-0.328,0.273-0.538-0.418-0.588-1.55c-0.113-2.516-0.665-4.833-1.694-7.007c-0.486-1.023-0.979-1.444-0.883-1.021
			c0.059,0.255,0.135,0.506,0.205,0.758c0.156,0.556,0.3,1.115,0.43,1.676c0.481,2.073,0.445,2.165-1.354,3.327
			c-0.447,0.289-0.904,0.521-1.374,0.637c-0.815,0.201-1.333-0.684-1.132-1.434c0.203-0.75,0.293-1.389,0.201-1.426
			c-0.092-0.039-0.703,0.676-1.364,1.594c-0.046,0.064-0.093,0.129-0.138,0.193c-0.662,0.918-1.268,0.745-1.402-0.379
			c-0.342-2.826-0.938-5.526-2-8.093c-0.434-1.046-0.674-0.96-0.438,0.147c0.271,1.273,0.541,2.546,0.812,3.819
			c0.236,1.107,0.396,2.004,0.357,2.003c-0.037-0.001-0.526-0.796-1.094-1.777c-0.707-1.224-1.414-2.447-2.119-3.671
			c-0.566-0.98-1.076-1.744-1.139-1.705s-0.318,0.965-0.572,2.069c-0.072,0.317-0.146,0.633-0.218,0.95
			c-0.253,1.104-0.86,1.172-1.345,0.149c-0.77-1.621-1.521-3.217-2.36-4.766c-2.26-4.171-4.617-8.29-6.915-12.441
			c-0.17-0.307-0.307-0.722-0.25-1.05c0.25-1.426-0.034-2.744-0.669-4.006c-0.212-0.421-0.433-0.837-0.656-1.253
			c-0.37-0.688-0.642-1.3-0.607-1.368c0.035-0.068,0.676,0.038,1.429,0.246c0.464,0.128,0.914,0.281,1.307,0.524
			c1.243,0.768,2.439,1.673,3.478,2.699c1.48,1.463,2.795,3.093,4.193,4.64c0.114,0.127,0.244,0.239,0.379,0.348
			c0.221,0.179,0.455,0.269,0.522,0.203c0.067-0.066-0.364-0.899-1.02-1.822c-0.965-1.359-2.03-2.666-3.216-3.954
			c-0.768-0.833-1.228-1.45-0.989-1.421c0.194,0.024,0.312,0.038,0.429,0.064c2.089,0.456,3.585,1.849,4.957,3.329
			c2.289,2.469,4.465,5.042,6.698,7.563c0.11,0.124,0.235,0.234,0.366,0.339c0.216,0.174,0.468,0.241,0.562,0.151
			c0.096-0.09-0.385-0.891-1.072-1.79c-1.291-1.686-2.593-3.39-3.951-5.166c-0.688-0.899-0.506-1.088,0.408-0.421
			c0.057,0.042,0.113,0.083,0.17,0.124c0.914,0.668,1.694,1.158,1.744,1.095c0.051-0.063-0.4-0.582-1.005-1.16
			s-0.165-1.067,0.94-0.817c1.291,0.293,2.434,0.875,3.402,1.798c1.312,1.253,2.518,2.649,3.603,4.106
			c1.377,1.849,2.577,3.829,3.872,5.741c0.086,0.126,0.195,0.236,0.312,0.342c0.189,0.172,0.41,0.259,0.491,0.196
			c0.08-0.063-0.193-0.968-0.697-1.982c-0.92-1.844-2.037-3.57-3.324-5.198c-0.703-0.888-1.164-1.552-0.982-1.493
			c0.113,0.037,0.217,0.083,0.318,0.134c2.861,1.422,4.94,3.744,6.973,6.109c1.232,1.436,2.4,2.926,3.62,4.374
			c0.093,0.111,0.217,0.196,0.349,0.275c0.213,0.126,0.445,0.168,0.521,0.096c0.076-0.072-0.357-0.905-0.969-1.858
			c-0.107-0.169-0.215-0.337-0.324-0.506c-0.609-0.954-0.408-1.126,0.416-0.351c0.824,0.775,1.619,1.577,2.369,2.419
			c3.273,3.674,5.391,8.01,7.061,12.592c0.111,0.306,0.301,0.728,0.551,0.813c2.287,0.785,3.422,2.629,4.294,4.666
			c1.718,4.011,2.292,8.258,2.427,12.58C87.27,68.809,87.244,68.918,87.21,69.044z"/>
		<path d="M27.03,37.495c0.137-0.255,0.275-0.509,0.413-0.764c0.229-0.421,0.381-0.808,0.339-0.863s-0.315-0.038-0.611,0.041
			c-0.181,0.049-0.357,0.105-0.518,0.191c-2.086,1.119-3.918,2.559-5.351,4.458c-0.366,0.486-0.654,1.06-0.853,1.636
			c-0.32,0.926-0.005,1.766,0.909,2.081c0.883,0.304,1.862,0.518,2.786,0.475c1.733-0.08,2.381-1.177,1.75-2.786
			c-0.335-0.854-0.304-1.659,0.068-2.455C26.285,38.822,26.67,38.164,27.03,37.495z M22.806,40.095
			c0.044,0.175,0.116,0.346,0.237,0.497c0.042,0.053,0.062,0.111,0.099,0.165c-0.273,0.035-0.547,0.039-0.818,0.007
			C22.472,40.529,22.635,40.309,22.806,40.095z M24.498,43.397c-0.236,0.299-0.816,0.482-1.232,0.458
			c-0.981-0.057-1.532-0.49-1.602-1.171c0.978,0.166,1.95,0.076,2.898-0.198C24.646,42.812,24.644,43.213,24.498,43.397z
			 M25.172,38.87c-0.139,0.237-0.274,0.477-0.411,0.716c-0.096-0.138-0.196-0.274-0.304-0.408c-0.122-0.152-0.297-0.222-0.482-0.256
			c0.066-0.055,0.126-0.115,0.194-0.169C25.061,38.055,25.568,38.193,25.172,38.87z"/>
		<path d="M7.016,62.546c-1.232-0.392-1.756,1.54-0.531,1.929c0.825,0.262,1.563,0.733,2.398,0.971
			c1.044,0.297,2.085-0.076,2.998-0.57c0.386-0.21,0.584-0.711,0.459-1.129c-0.88-2.949-3.225-3.885-5.949-4.698
			c-1.239-0.37-1.764,1.56-0.531,1.929c1.703,0.51,3.329,0.959,4.179,2.447C8.994,63.57,8.149,62.904,7.016,62.546z"/>
	</g>
</g>
<g>
</g>
<g>
</g>
<g>
</g>
<g>
</g>
<g>
</g>
<g>
</g>
<g>
</g>
<g>
</g>
<g>
</g>
<g>
</g>
<g>
</g>
<g>
</g>
<g>
</g>
<g>
</g>
<g>
</g>
</svg>
