<?xml version="1.0" encoding="iso-8859-1"?>
<!-- Generator: Adobe Illustrator 16.0.0, SVG Export Plug-In . SVG Version: 6.00 Build 0)  -->
<!DOCTYPE svg PUBLIC "-//W3C//DTD SVG 1.1//EN" "http://www.w3.org/Graphics/SVG/1.1/DTD/svg11.dtd">
<svg version="1.1" id="Capa_1" xmlns="http://www.w3.org/2000/svg" xmlns:xlink="http://www.w3.org/1999/xlink" x="0px" y="0px"
	 width="92.418px" height="92.418px" viewBox="0 0 92.418 92.418" style="enable-background:new 0 0 92.418 92.418;"
	 xml:space="preserve">
<g>
	<g>
		<path d="M32.104,73.635c-0.646-2.453-0.89-5.064-0.919-7.61c-0.036-3.062,0.104-6.169,0.608-9.184
			c0.662-3.962,2-7.793,4.103-11.234c2.229-3.65,5.179-6.71,8.893-8.91c2.798-1.658,5.779-3.044,8.978-3.617
			c4.544-0.815,7.157-3.966,9.668-7.33c2.986-4,3.714-8.608,3.435-13.438c-0.027-0.473-0.146-0.942-0.288-1.408
			c-0.233-0.762-0.527-1.364-0.65-1.346c-0.124,0.018-0.375,0.915-0.542,2.007c-0.422,2.755-0.862,5.524-2.61,7.917
			c-0.652,0.892-1.137,0.646-0.896-0.397c0.152-0.66,0.273-1.285,0.295-1.913c0.112-3.243-1.373-5.253-4.475-6.214
			c-1.637-0.507-3.265-0.332-4.923,0.122c-2.716,0.743-4.916,2.534-7.475,3.537c-3.211,1.259-6.559,1.88-10.037,1.093
			c-0.375-0.085-0.763-0.12-1.153-0.142c-0.642-0.036-1.175,0.063-1.191,0.217c-0.017,0.154,0.771,0.688,1.807,1.07
			c2.726,1.006,5.562,1.314,8.526,0.953c1.097-0.133,1.605,0.541,0.714,1.193c-0.613,0.449-1.321,0.723-2.029,0.979
			c-2.537,0.919-5.075,1.845-7.652,2.639c-3.266,1.007-6.612,1.766-9.85,2.852c-4.57,1.532-8.845,3.636-12.12,7.348
			c-1.736,1.968-2.959,4.247-3.936,6.653c-0.153,0.378-0.228,0.789-0.28,1.207c-0.086,0.681-0.091,1.25-0.017,1.268
			c0.073,0.019,0.579-0.723,1.136-1.654c0.338-0.565,0.69-1.118,1.093-1.631c1.38-1.756,2.942-3.348,5.146-4.089
			c1.01-0.34,2.234-0.615,2.91,0.255c0.789,1.014,0.018,2.231-0.626,3.055c-1.435,1.837-3.043,3.545-4.643,5.246
			c-2.263,2.407-4.668,4.685-6.857,7.157c-3.078,3.477-4.881,7.634-5.663,12.178c-0.4,2.323-0.426,4.712-0.58,7.074
			c-0.014,0.215,0.023,0.434,0.073,0.654c0.082,0.355,0.234,0.646,0.336,0.647c0.103,0.002,0.33-0.627,0.506-1.405
			c0.107-0.471,0.212-0.941,0.314-1.412c0.629-2.898,1.845-5.499,4.019-7.559c0.397-0.376,1.208-0.728,1.617-0.563
			c0.414,0.166,0.765,0.972,0.8,1.52c0.209,3.278-0.771,6.386-1.441,9.548C6.066,71.729,5.923,72.49,5.8,73.251
			c-0.176,1.09,0.526,2.384,1.529,2.847c7.594,3.501,16.342,5.798,25.738,6.519c1.102,0.085,1.697-0.715,1.332-1.758
			C33.56,78.469,32.746,76.075,32.104,73.635z"/>
		<path d="M90.607,50.446c-0.638-1.277-0.844-1.437-2.126-0.849c-1.021,0.469-1.827,0.188-2.64-0.33
			c-3.743-2.396-6.514-5.566-8.044-9.81c-0.299-0.831-1.013-1.726-1.779-2.136c-2.512-1.344-4.925-2.964-7.815-3.467
			c-0.272-0.047-0.545-0.092-0.804-0.133c-0.445-0.071-0.555-0.987-0.243-2.047c0.852-2.907,1.7-5.797,2.547-8.685
			c0.311-1.06,0.476-1.956,0.368-2.001s-0.785,0.592-1.511,1.426c-1.4,1.611-2.799,3.224-4.229,4.808
			c-1.419,1.569-3.142,2.878-4.345,4.444c-0.673,0.876-1.892,1.912-2.973,2.139c-1.244,0.261-2.427,0.514-3.566,0.895
			c-1.859,0.62-3.688,1.399-5.423,2.308c-4.798,2.511-8.855,5.924-11.474,10.719c-1.875,3.434-3.083,7.165-3.414,11.109
			c-0.196,2.328-0.5,4.67-0.407,6.992c0.17,4.238,0.844,8.416,2.303,12.436c0.323,0.893,0.649,1.782,0.977,2.674
			c0.381,1.037,1.304,1.896,2.061,1.91c0.456,0.009,0.913,0.013,1.371,0.013c0.553,0,1.104-0.006,1.654-0.018
			c0.913-0.019,1.3-0.873,0.888-1.897c-0.776-1.924-1.47-3.88-1.843-5.958c-0.789-4.397-1.713-8.736-0.957-13.269
			c0.719-4.301,2.115-8.26,4.928-11.626c1.041-1.245,2.178-2.437,3.416-3.479c0.45-0.38,0.961-0.688,1.489-0.976
			c0.865-0.471,1.481-0.344,1.269,0.242c-0.136,0.373-0.278,0.714-0.369,1.069c-0.522,2.044-0.887,4.131-1.474,6.155
			c-1.269,4.375-0.346,8.507,1.503,12.431c1,2.124,2.495,4.035,3.908,5.936c0.769,1.032,1.752,1.952,2.782,2.731
			c1.724,1.301,3.471,2.571,5.215,3.843c0.894,0.651,2.469,0.911,3.512,0.547c1.259-0.438,2.493-0.907,3.702-1.406
			c1.021-0.423,1.166-1.385,0.306-2.077c-0.691-0.558-1.401-1.095-2.133-1.607c-2.669-1.871-5.306-3.798-7.862-5.817
			c-3.577-2.827-5.469-6.521-4.987-11.15c0.23-2.207,1.514-3.827,3.583-4.758c0.176-0.079,0.344-0.173,0.521-0.277
			c0.281-0.165,0.9,0.211,1.382,0.84c0.29,0.379,0.576,0.764,0.843,1.159c1.761,2.612,4.091,3.94,7.292,3.215
			c2.659-0.602,4.983,0.228,7.216,1.53c1.818,1.061,2.993,2.604,3.559,4.653c0.446,1.616,1.616,2.309,3.302,2.021
			c0.536-0.091,1.062-0.324,1.55-0.572c0.146-0.073,0.272-0.188,0.394-0.313c0.192-0.201,0.182-0.525-0.024-0.719
			c-0.124-0.117-0.248-0.235-0.373-0.353c-0.035-0.033-0.072-0.067-0.129-0.122c-0.071-0.066-0.037-0.223,0.074-0.35
			c0.109-0.127,0.41-0.318,0.674-0.422c0.264-0.104,0.91-0.242,1.444-0.307c0.321-0.038,0.645-0.075,0.967-0.109
			c0.6-0.064,1.204-0.102,1.802-0.181c0.204-0.026,0.485-0.083,0.581-0.226c1.064-1.596,2.283-3.124,3.09-4.845
			c0.823-1.754-0.34-3.373-1.003-4.971C90.989,51.087,90.772,50.778,90.607,50.446z M65.049,30.652
			c-0.515,1.26-1.034,2.517-1.635,3.734c-0.157,0.318-0.434,0.577-0.741,0.822c-0.481,0.384-0.938,0.626-1.016,0.546
			c-0.077-0.081,0.051-1.029,0.512-2.033c0.578-1.258,1.386-2.378,2.293-3.438C65.18,29.442,65.466,29.629,65.049,30.652z
			 M71.383,39.89c2.482,0.158,3.594,1.764,4.458,3.691C73.58,43.26,72.367,41.754,71.383,39.89z M90.033,55.01
			c-0.077,1.103-0.829,1.279-1.267,0.492c-0.264-0.477-0.536-0.947-0.84-1.395c-0.393-0.58-0.604-1.068,0.072-1.491
			c0.617-0.385,1.274-0.44,1.76,0.259C90.022,53.254,90.093,54.146,90.033,55.01z"/>
	</g>
</g>
<g>
</g>
<g>
</g>
<g>
</g>
<g>
</g>
<g>
</g>
<g>
</g>
<g>
</g>
<g>
</g>
<g>
</g>
<g>
</g>
<g>
</g>
<g>
</g>
<g>
</g>
<g>
</g>
<g>
</g>
</svg>
