<?xml version="1.0" encoding="iso-8859-1"?>
<!-- Generator: Adobe Illustrator 16.0.0, SVG Export Plug-In . SVG Version: 6.00 Build 0)  -->
<!DOCTYPE svg PUBLIC "-//W3C//DTD SVG 1.1//EN" "http://www.w3.org/Graphics/SVG/1.1/DTD/svg11.dtd">
<svg version="1.1" id="Capa_1" xmlns="http://www.w3.org/2000/svg" xmlns:xlink="http://www.w3.org/1999/xlink" x="0px" y="0px"
	 width="35.29px" height="35.289px" viewBox="0 0 35.29 35.289" style="enable-background:new 0 0 35.29 35.289;"
	 xml:space="preserve">
<g>
	<path d="M30.719,14.977c0.057,0.646,0.004,1.258-0.131,1.898c-0.055,0.32-0.169,0.637-0.312,0.967
		c-0.155,0.322-0.34,0.667-0.75,0.98l-0.459,0.35l-0.448-0.398c-0.361-0.319-0.615-0.966-1.028-1.164
		c-0.088-0.072-0.197,0.006-0.085,0.055c0.095,0.013,0.122,0.031,0.179,0.121c0.114,0.16,0.312,0.371,0.354,0.606l0.104,0.58
		l-0.396,0.287c-0.229,0.168-0.392,0.248-0.61,0.342c-0.207,0.088-0.441,0.15-0.695,0.181c-0.512,0.073-1.153-0.134-1.518-0.511
		c-0.384-0.364-0.546-0.766-0.665-1.141c-0.11-0.375-0.157-0.734-0.198-1.088l-0.017-0.131l0.011-0.029
		c0.02-0.057,0.014-0.219-0.007-0.287c-0.021-0.082-0.036-0.111-0.089-0.154c-0.055-0.041-0.167-0.082-0.318-0.08
		c-0.17,0-0.453-0.002-0.646-0.022c-0.858-0.093-1.702-0.281-2.472-0.67c-0.389-0.189-0.726-0.455-1.092-0.685
		c-0.359-0.24-0.742-0.49-1.056-0.824c-0.308-0.332-0.563-0.719-0.757-1.125c-0.027-0.047-0.04-0.096-0.063-0.143
		c-0.069,0.049-0.139,0.096-0.206,0.143c-0.338,0.215-0.66,0.453-0.991,0.685c-0.651,0.476-1.25,1.021-1.772,1.635
		c-0.258,0.312-0.503,0.632-0.718,0.978c-0.212,0.344-0.412,0.703-0.562,1.082c-0.157,0.381-0.295,0.77-0.383,1.182
		c-0.13,0.404-0.123,0.83-0.192,1.258l-0.182,0.011c-0.106-0.858-0.188-1.778,0.028-2.668c0.084-0.447,0.225-0.887,0.388-1.313
		c0.166-0.431,0.365-0.847,0.606-1.24c0.478-0.789,1.057-1.514,1.708-2.17c0.322-0.33,0.677-0.627,1.049-0.901
		c0.384-0.271,0.76-0.494,1.244-0.679l1.096-0.416l0.081,1.004v0.002c0.064,0.343,0.066,0.718,0.175,1.05
		c0.063,0.354,0.226,0.664,0.351,1.004c0.154,0.324,0.32,0.664,0.574,0.944c0.27,0.265,0.609,0.438,0.957,0.576
		c0.698,0.265,1.459,0.414,2.207,0.349c0.207-0.015,0.326-0.031,0.557-0.068c0.246-0.039,0.549-0.035,0.861,0.088
		c0.312,0.119,0.598,0.398,0.73,0.688c0.138,0.303,0.193,0.545,0.191,0.894l-0.004-0.16c0.133,0.555,0.389,1.135,0.613,1.285
		c0.107,0.073,0.141,0.069,0.271,0.051c0.055-0.017,0.123-0.041,0.192-0.075c0.029-0.127,0.054-0.254,0.104-0.396
		c0.072-0.188,0.164-0.481,0.484-0.655c0.34-0.147,0.56-0.029,0.739-0.033c0.406,0.099,0.792,0.188,1.147,0.33
		c0.113-0.231,0.229-0.533,0.322-0.826c0.146-0.473,0.266-0.989,0.404-1.485c-0.964-1.752-2.314-3.336-3.68-4.867
		c-0.715-0.789-1.521-1.49-2.305-2.211c-0.787-0.713-1.594-1.422-2.406-2.092l-0.15-0.104l-0.039-0.324
		c-0.095-0.821-0.41-1.526-0.919-2.125c-0.255-0.297-0.558-0.561-0.89-0.788c-0.02-0.013-0.04-0.025-0.061-0.037
		c-0.033,0.338-0.061,0.684-0.084,1.022c-0.059,0.748-0.089,1.521-0.104,2.271l-0.012,0.523l-0.458,0.186
		c-0.716,0.291-1.438,0.607-2.079,1.072c-0.643,0.451-1.284,0.938-1.842,1.521c-1.127,1.154-2.095,2.521-2.829,4.02l-0.173-0.057
		c0.397-1.664,1.164-3.244,2.23-4.631c0.935-1.275,2.211-2.313,3.654-3.063c-0.02-0.641-0.037-1.272-0.025-1.918
		c0.037-0.805,0.056-1.582,0.254-2.467L17.93,0l0.903,0.392c0.296,0.129,0.503,0.242,0.736,0.385
		c0.227,0.138,0.447,0.281,0.65,0.451c0.411,0.336,0.786,0.726,1.104,1.164c0.61,0.803,0.885,1.86,0.823,2.844
		c1.518,1.42,2.93,2.916,4.34,4.427c1.512,1.539,2.949,3.149,4.162,5.024l0.076,0.117l-0.009,0.18v-0.001h0.003V14.977z
		 M20.567,24.484c-0.151-0.407-0.363-0.786-0.547-1.176c-0.396-0.992-0.711-2.055-0.944-3.108c-0.113-0.532-0.197-1.073-0.202-1.612
		c0.002-0.531,0.051-1.086,0.352-1.529l-0.14-0.116c-0.431,0.43-0.604,1.04-0.684,1.614c-0.083,0.58-0.08,1.164-0.046,1.742
		c0.072,1.16,0.309,2.271,0.611,3.401l0.024,0.06c0.125,0.381,0.283,0.75,0.381,1.135c0.098,0.387,0.195,0.77,0.25,1.156
		c0.146,0.771,0.171,1.562,0.113,2.336c-0.053,0.776-0.205,1.549-0.444,2.287c-0.024,0.073-0.06,0.145-0.083,0.215l-0.154-0.379
		c-0.384-0.773-0.779-1.547-1.207-2.302c-0.489-0.724-0.879-1.506-1.459-2.17l-0.814-1.028l-0.908-0.957
		c-0.615-0.625-1.278-1.215-1.99-1.732c-0.364-0.252-0.7-0.539-1.092-0.75c-0.388-0.219-0.746-0.479-1.159-0.65
		c-0.799-0.383-1.623-0.723-2.489-0.938c-0.427-0.12-0.867-0.204-1.31-0.271c-0.254-0.035-0.504-0.057-0.761-0.068
		c-0.08-1.158-0.042-2.333,0.228-3.481c0.281-1.35,0.887-2.623,1.598-3.813c0.737-1.181,1.665-2.242,2.713-3.158
		c1.046-0.901,2.206-1.733,3.369-2.362l1.97-1.066l-2.324-0.166C12.5,5.532,11.56,5.559,10.642,5.77
		c-0.915,0.209-1.813,0.541-2.64,1.004C7.601,7.03,7.186,7.262,6.835,7.588c-0.363,0.301-0.7,0.635-1.001,0.994
		c-0.618,0.701-1.075,1.547-1.287,2.44l0.168,0.072c0.52-0.707,1.172-1.269,1.819-1.785C7.193,8.801,7.932,8.432,8.666,8.09
		c0.386-0.134,0.752-0.304,1.147-0.412c0.382-0.142,0.79-0.201,1.185-0.308c0.038-0.01,0.079-0.014,0.117-0.021
		c-0.434,0.412-0.858,0.834-1.262,1.281c-0.964,1.071-1.861,2.202-2.632,3.418c-1.569,2.403-2.579,5.262-2.583,8.25l-0.001,0.543
		l0.647,0.047c0.325,0.021,0.738,0.092,1.108,0.178c0.38,0.084,0.761,0.181,1.131,0.314c0.749,0.236,1.46,0.592,2.146,0.975
		c0.352,0.179,0.668,0.423,1.004,0.627c0.341,0.197,0.632,0.474,0.95,0.707c0.619,0.49,1.197,1.041,1.73,1.63l0.79,0.896
		l0.708,0.969c0.495,0.627,0.869,1.35,1.314,2.016c0.401,0.699,0.74,1.438,1.135,2.143l0.985,2.23l0.757,1.717l0.896-1.545
		c0.271-0.465,0.445-0.85,0.615-1.289c0.16-0.428,0.293-0.861,0.404-1.305c0.223-0.881,0.338-1.789,0.339-2.695
		c0.004-0.902-0.086-1.812-0.313-2.686C20.895,25.321,20.719,24.903,20.567,24.484z M23.875,10.493
		c0.25-0.269-0.144-0.767-0.7-1.306c-0.557-0.536-1.208-0.916-1.208-0.916s0.187,1.48,0.744,2.017S23.625,10.76,23.875,10.493z"/>
</g>
<g>
</g>
<g>
</g>
<g>
</g>
<g>
</g>
<g>
</g>
<g>
</g>
<g>
</g>
<g>
</g>
<g>
</g>
<g>
</g>
<g>
</g>
<g>
</g>
<g>
</g>
<g>
</g>
<g>
</g>
</svg>
