<?xml version="1.0" encoding="iso-8859-1"?>
<!-- Generator: Adobe Illustrator 16.0.0, SVG Export Plug-In . SVG Version: 6.00 Build 0)  -->
<!DOCTYPE svg PUBLIC "-//W3C//DTD SVG 1.1//EN" "http://www.w3.org/Graphics/SVG/1.1/DTD/svg11.dtd">
<svg version="1.1" id="Capa_1" xmlns="http://www.w3.org/2000/svg" xmlns:xlink="http://www.w3.org/1999/xlink" x="0px" y="0px"
	 width="235.894px" height="235.893px" viewBox="0 0 235.894 235.893" style="enable-background:new 0 0 235.894 235.893;"
	 xml:space="preserve">
<g>
	<g>
		<polygon points="166.835,58.466 138.9,58.466 152.873,82.659 		"/>
		<polygon points="131.914,58.466 103.977,58.466 117.952,82.659 		"/>
		<polygon points="96.993,58.466 69.059,58.466 83.029,82.659 		"/>
		<polygon points="65.568,60.482 51.599,84.675 79.53,84.675 		"/>
		<polygon points="100.492,60.482 86.516,84.675 114.453,84.675 		"/>
		<polygon points="135.413,60.482 121.44,84.675 149.374,84.675 		"/>
		<polygon points="170.334,60.482 156.36,84.675 184.295,84.675 		"/>
		<polygon points="184.295,88.706 156.36,88.706 170.334,112.905 		"/>
		<polygon points="149.374,88.706 121.44,88.706 135.413,112.905 		"/>
		<polygon points="114.453,88.706 86.516,88.706 100.492,112.905 		"/>
		<polygon points="79.53,88.706 51.599,88.706 65.568,112.905 		"/>
		<polygon points="117.952,90.727 103.977,114.92 131.914,114.92 		"/>
		<polygon points="65.568,0 51.599,24.19 79.53,24.19 		"/>
		<polygon points="170.334,0 156.36,24.19 184.295,24.19 		"/>
		<polygon points="184.295,28.221 156.36,28.221 170.334,52.419 		"/>
		<polygon points="79.53,28.221 51.599,28.221 65.568,52.419 		"/>
		<polygon points="83.029,30.243 69.059,54.435 96.993,54.435 		"/>
		<polygon points="152.873,30.243 138.9,54.435 166.835,54.435 		"/>
		<polygon points="166.835,118.948 138.9,118.948 152.873,143.147 		"/>
		<polygon points="131.914,118.948 103.977,118.948 117.952,143.147 		"/>
		<polygon points="96.993,118.948 69.059,118.948 83.029,143.147 		"/>
		<polygon points="100.492,120.969 86.516,145.157 114.453,145.157 		"/>
		<polygon points="135.413,120.969 121.44,145.157 149.374,145.157 		"/>
		<polygon points="149.374,149.2 121.44,149.2 135.413,173.386 		"/>
		<polygon points="114.453,149.2 86.516,149.2 100.492,173.386 		"/>
		<polygon points="117.952,151.209 103.977,175.408 131.914,175.408 		"/>
		<polygon points="131.914,179.439 103.977,179.439 117.952,203.637 		"/>
		<polygon points="100.492,181.449 86.516,205.647 114.453,205.647 		"/>
		<polygon points="135.413,181.449 121.44,205.647 149.374,205.647 		"/>
		<polygon points="149.374,209.678 121.44,209.678 135.413,233.872 		"/>
		<polygon points="114.453,209.678 86.516,209.678 100.492,233.872 		"/>
		<polygon points="117.952,211.7 103.977,235.893 131.914,235.893 		"/>
	</g>
</g>
<g>
</g>
<g>
</g>
<g>
</g>
<g>
</g>
<g>
</g>
<g>
</g>
<g>
</g>
<g>
</g>
<g>
</g>
<g>
</g>
<g>
</g>
<g>
</g>
<g>
</g>
<g>
</g>
<g>
</g>
</svg>
