<?xml version="1.0" encoding="iso-8859-1"?>
<!-- Generator: Adobe Illustrator 16.0.0, SVG Export Plug-In . SVG Version: 6.00 Build 0)  -->
<!DOCTYPE svg PUBLIC "-//W3C//DTD SVG 1.1//EN" "http://www.w3.org/Graphics/SVG/1.1/DTD/svg11.dtd">
<svg version="1.1" id="Capa_1" xmlns="http://www.w3.org/2000/svg" xmlns:xlink="http://www.w3.org/1999/xlink" x="0px" y="0px"
	 width="95.069px" height="95.069px" viewBox="0 0 95.069 95.069" style="enable-background:new 0 0 95.069 95.069;"
	 xml:space="preserve">
<g>
	<g>
		<path d="M94.654,24.701c-0.071-0.548-0.209-1.255-0.109-1.672c0.069-0.296,0.108-0.603,0.029-0.762
			c-0.182-0.363-1.684,0.596-1.684,0.674s-2.15-3.731-3.368-4.845c-1.163-1.064,0.249-2.245-6.273-3.658
			c-0.539-0.117-1.02-0.638-1.288-1.08c-0.137-0.224-0.332-0.468-0.616-0.702c-0.897-0.743-1.744-1.865-4.102-0.337
			c-1.988,1.289-2.619,1.104-3.963,0.238c-0.464-0.299-0.606-0.163-0.297,0.294c0.281,0.414,0.612,0.859,0.839,1.023
			c0.35,0.251,0.076,0.922-0.537,0.641c-0.503-0.229-0.999-1.035-1.437-1.373c-0.864-0.67-2.017-1.04-2.966-1.101
			c-0.552-0.035-0.541,0.146-0.06,0.414c0.642,0.356,1.262,1.039,0.568,2.274c-1.068,1.904-4.113,0.291-3.969-2.414
			c0.029-0.552,0.005-0.57-0.191-0.053c-0.408,1.077-0.968,2.82-0.711,3.711c0.39,1.347,0.026,3.187-3.03,3.109
			c-2.584-0.066-5.002,0.072-6.61,1.008c-0.479,0.278-0.373,0.454,0.172,0.362c1.007-0.17,2.39-0.152,2.035,1.35
			c-0.493,2.088-7.192,6.154-10.742,6.766c-0.544,0.094-1.443,0.034-1.994,0.077c-2.11,0.162-2.504,1.334-7.188,1.447
			c-5.035,0.122-12.913,3.449-16.515,7.828c-0.352,0.427-1.053,0.733-1.595,0.839c-1.136,0.223-3.075,1.135-4.913,4.52
			c-2.833,5.216-12.505,1.934-5.493-4.214c6.71-5.883,8.865-0.097,12.791-5.758c0.314-0.454,0.296-0.461-0.103-0.078
			c-0.959,0.92-3.022,2.228-6.436,1.208c-4.975-1.485-10.467,1.831-11.952,4.94c-1.321,2.766-1.549,6.434-0.465,8.961
			c0.218,0.508,0.006,1.019-0.523,0.86c-0.683-0.204-1.52-0.886-1.818-2.919C0.062,45.732,0.005,45.73,0,46.283
			c-0.026,2.976,0.771,11.242,11.055,5.741c0.487-0.261,1.249-0.742,1.606-0.524c0.148,0.09,0.239,0.29,0.165,0.693
			c-0.111,0.616-0.737,1.13-1.289,1.474c-0.469,0.292-0.457,0.336,0.074,0.188c1.624-0.454,4.825-1.316,5.74-1.316
			c0.579,0,1.204,0.061,1.705,0.124c0.548,0.07,1.178,0.559,1.422,1.054c0.399,0.809,0.977,1.91,1.295,2.207
			c0.518,0.484-0.346,4.421-2.35,5.078c-2.003,0.656-3.039,2.694-2.677,4.353c0.363,1.657-0.518,2.746-0.726,4.508
			c-0.207,1.762,3.368,1.865,3.575,4.352c0.208,2.487-0.776,7.565,0.933,7.979c1.58,0.383,2.85,1.341,6.669,1.32
			c0.552-0.003,0.965-0.473,0.884-1.019c-0.147-0.987-0.459-2.489-1.075-3.463c-0.985-1.554-4.146-1.917-4.768-9.016
			c-0.621-7.1,2.851-5.285,5.597-7.358s10-5.13,9.948-9.171c-0.051-3.944,8.83,2.425,21.249-2.37
			c0.517-0.199,1.138,0.02,1.441,0.479c0.344,0.519,0.811,1.125,1.247,1.372c0.724,0.407,2.313,3.849,0.612,4.688
			c-0.496,0.244-1.422,0.175-1.975,0.166c-3.198-0.057-7.705-0.082-8.172,1.365c-0.519,1.605-1.97,0.414-2.384,2.176
			c-0.075,0.317-0.13,0.571-0.169,0.77c-0.084,0.429,0.369,0.925,0.906,1.055c0.546,0.133,1.313,0.245,2.268,0.195
			c1.577-0.081,2.933,0.06,4.117,0.347c0.537,0.13,1.38,0.441,1.922,0.55c0.527,0.104,0.952,0.074,1.395-0.192
			c0.475-0.284,0.596-0.217,0.629,0.335c0.025,0.434,0.178,0.916,0.644,1.241c1.036,0.725,2.124-0.933,3.834-0.466
			s2.694-1.14,5.337-1.192c2.644-0.052,2.332-3.99,6.271-7.409c3.938-3.42,0.26-5.647-0.829-6.787
			c-0.976-1.021-2.289-1.955-3.331-4.451c-0.213-0.51,0.018-1.192,0.418-1.572c1.032-0.98,2.722-3.09,2.576-6.31
			c-0.166-3.703,0.568-4.883,1.631-5.688c0.438-0.334,0.899-0.112,0.916,0.44c0.011,0.389-0.002,0.855-0.073,1.327
			c-0.082,0.546-0.396,1.391-0.49,1.936c-0.26,1.495-0.287,3.503-1.206,4.317c-1.14,1.01-1.14,2.021-0.725,2.28
			c0.215,0.135,0.107,0.508,0.036,0.883c-0.098,0.506,0.449,1.197,0.785,1.636c0.567,0.741,1.542,1.552,3.696,0.35
			c0.482-0.269,1.212-0.789,1.653-1.121c2.464-1.854,1.166-1.694,2.641-3.735c0.323-0.448,0.904-1.127,1.263-1.548
			c1.518-1.788,2.338-2.672,3.116-3.001c0.511-0.214,1.468,0.003,1.768-0.354c0.301-0.357,0.474-1.208,0.948-0.926
			c0.274,0.164,0.544,0.568,0.699,1.443c0.317,1.786-1.129,2.265-1.775,1.599c-0.385-0.396-0.433-0.486-0.398,0.065
			c0.051,0.816,0.488,1.819,2.382,1.678c2.294-0.171,2.326-3.2,2.18-4.812c-0.052-0.55,0.051-1.404,0.153-1.946
			c0.137-0.714,0.161-1.714-0.416-2.594C93.717,28.396,94.863,26.308,94.654,24.701z"/>
	</g>
</g>
<g>
</g>
<g>
</g>
<g>
</g>
<g>
</g>
<g>
</g>
<g>
</g>
<g>
</g>
<g>
</g>
<g>
</g>
<g>
</g>
<g>
</g>
<g>
</g>
<g>
</g>
<g>
</g>
<g>
</g>
</svg>
