<?xml version="1.0" encoding="iso-8859-1"?>
<!-- Generator: Adobe Illustrator 16.0.0, SVG Export Plug-In . SVG Version: 6.00 Build 0)  -->
<!DOCTYPE svg PUBLIC "-//W3C//DTD SVG 1.1//EN" "http://www.w3.org/Graphics/SVG/1.1/DTD/svg11.dtd">
<svg version="1.1" id="Capa_1" xmlns="http://www.w3.org/2000/svg" xmlns:xlink="http://www.w3.org/1999/xlink" x="0px" y="0px"
	 width="575.038px" height="575.038px" viewBox="0 0 575.038 575.038" style="enable-background:new 0 0 575.038 575.038;"
	 xml:space="preserve">
<g>
	<g>
		<path d="M393.42,375.402v0.378l72.632,18.465v69.345c0,14.541,12.626,26.345,27.154,26.339c14.54,0,27.319-11.798,27.319-26.339
			V353.744l-100.731-26.291L393.42,375.402z"/>
		<path d="M561.05,148.325l-78.129-51.95l-20.746-20.232l-5.935-13.509c-2.684-6.121-6.171-5.825-7.767,0.671l-9.28,37.581
			L323.845,221.06H97.912H66.978c0,0-66.978-1.011-66.978,63.6v99.821h42.368c0,0,0-85.859,0-98.869
			c0-11.827,8.127-29.542,23.513-32.672l2.234,119.436l34.779,42.688v0.319l-35.53,59.097c-7.486,12.348-3.8,28.324,8.119,35.541
			c11.922,7.217,27.834,3.174,35.317-9.191l56.542-93.319l-33.769-35.134h197.553l7.11,65.196h0.006l-48.571,22.225l-22.502-69.629
			l-39.481-10.911l-68.003-0.042l64.262,45.708l0,0l19.96,66.567c3.28,11.254,13.71,18.524,24.84,18.825
			c-2.813-2.417-4.938-5.408-6.579-8.99c1.64,3.57,4.025,6.573,6.833,8.99c7.571,6.52,18.492,8.554,28.132,4.145l99.893-45.685
			l-9.658-95.376l91.835-185.835l63.417,12.07c11.101,2.063,22.934-3.014,28.814-13.509
			C579.007,172.881,574.219,155.867,561.05,148.325z"/>
	</g>
</g>
<g>
</g>
<g>
</g>
<g>
</g>
<g>
</g>
<g>
</g>
<g>
</g>
<g>
</g>
<g>
</g>
<g>
</g>
<g>
</g>
<g>
</g>
<g>
</g>
<g>
</g>
<g>
</g>
<g>
</g>
</svg>
