<?xml version="1.0" encoding="iso-8859-1"?>
<!-- Generator: Adobe Illustrator 16.0.0, SVG Export Plug-In . SVG Version: 6.00 Build 0)  -->
<!DOCTYPE svg PUBLIC "-//W3C//DTD SVG 1.1//EN" "http://www.w3.org/Graphics/SVG/1.1/DTD/svg11.dtd">
<svg version="1.1" id="Capa_1" xmlns="http://www.w3.org/2000/svg" xmlns:xlink="http://www.w3.org/1999/xlink" x="0px" y="0px"
	 width="93.986px" height="93.986px" viewBox="0 0 93.986 93.986" style="enable-background:new 0 0 93.986 93.986;"
	 xml:space="preserve">
<g>
	<g>
		<path d="M90.271,43.324c-0.383-1.211-2.186,0.046-3.661-1.702c-1.475-1.748-4.534-0.765-7.812-2.896
			c-3.278-2.131-8.852-1.584-11.802-2.732c-1.244-0.484-2.081-0.764-2.632-0.926c-0.529-0.156-0.748-0.629-0.725-1.181
			c0.03-0.672-0.178-1.664-1.179-2.865c-1.912-2.295-3.389-5.518-3.605-6.502c-0.219-0.983-1.202-8.468,0.546-7.103
			c1.42,1.109,3.199,1.101,4.579,1.615c0.518,0.193,1.299,0.641,1.75,0.959c0.592,0.417,1.204,1.052,0.828,1.742
			c-0.655,1.202,2.677,1.038,3.552,0.656c0.686-0.299,1.805-0.163,2.153-1.035c0.205-0.513,0.603-1.14,0.748-1.664
			c0.065-0.238,0.056-0.551-0.115-0.961c-0.506-1.215-3.685-6.367-6.364-9.768c-0.342-0.434-0.362-1.195-0.572-1.706
			c-0.193-0.471-0.659-1.161-1.676-2.158c-0.395-0.387-0.706-1.013-0.676-1.42c0.03-0.407-0.195-0.554-0.503-0.328
			c-0.309,0.226-0.831,0.281-1.193,0.254c-0.361-0.027-0.972-0.27-1.392-0.628c-0.454-0.387-1.054-0.85-1.61-1.129
			C57.818,1.299,58.31,0.588,57.6,0.042c-0.521-0.401-0.219,2.137,0.194,3.519c0.157,0.529,0.043,1.012-0.467,1.228
			c-2.61,1.109-9.895,4.562-10.655,8.857c-0.624,3.524-2.433,5.001-3.552,5.591c-0.488,0.258-0.701,0.619-0.36,0.86
			c0.226,0.16,0.481,0.292,0.688,0.269c0.491-0.055-1.64,3.661-2.896,4.863c-1.257,1.202-3.388,12.839-11.146,15.68
			c-7.353,2.692-13.821,9.604-16.245,15.294c-0.217,0.508-0.727,1.194-1.161,1.535C9.347,59.822,0.975,67,0.905,74.769
			C0.9,75.32,0.978,76.214,1.048,76.763c1.037,8.183,5.691,10.346,5.478,14.896C6.501,92.21,6.719,92.327,7.03,91.87
			c0.851-1.251,2.163-3.984,1.178-8.036c-0.13-0.537-0.093-0.551,0.193-0.079c0.239,0.395,0.563,0.854,0.957,1.227
			c0.401,0.38,0.637,0.157,0.43-0.355c-0.604-1.488-1.662-4.374-1.305-5.525c0.448-1.444,3.722-1.183,2.634,1.621
			c-0.199,0.515-0.115,0.589,0.227,0.155c0.989-1.255,2.365-3.88-1.111-6.038c-4.298-2.668-0.556-11.855,2.341-14.077
			c0.438-0.337,0.964-0.016,1.096,0.521c0.488,1.993,1.878,6.505,4.812,8.475c3.825,2.568,0.328,4.973-0.874,6.557
			c-1.202,1.584-3.551,3.441-1.202,5.354c2.138,1.739,4.727,7.277,6.328,10.525c0.245,0.495,0.801,1.179,1.309,1.395
			c0.711,0.303,1.849,0.573,3.366,0.258c0.54-0.112,0.74-0.655,0.446-1.122c-0.69-1.097-1.918-2.873-2.707-3.023
			c-0.912-0.174-2.895-4.214-3.587-6.138c-0.187-0.521,0.057-0.626,0.408-0.201c0.77,0.931,2.031,2.533,2.687,3.771
			c0.983,1.858,3.825,6.119,4.863,6.447c1.037,0.328,3.059,0.71,4.043-0.219c0.983-0.929-2.404-2.349-3.278-3.333
			c-0.874-0.983-5.136-5.464-3.988-8.468c1.147-3.005,4.315-7.813,4.917-10.107c0.601-2.295,2.076-3.879,1.693-6.228
			c-0.382-2.35,3.12,0.164,4.073-4.48c0.938-4.568,6.291-2.053,20.555-15.537c0.401-0.379,1.156-0.575,1.7-0.481
			c1.279,0.222,3.633,0.456,5.961-0.209c3.442-0.983,2.787,2.513,0.82,5.3s-3.169,2.95-2.678,3.715s-3.496-2.24-3.771,1.639
			c-0.102,1.443-0.112,2.351-0.086,2.919c0.025,0.553,0.58,0.733,1.058,0.456c0.699-0.405,1.653-0.956,2.197-1.242
			c0.929-0.492,1.967-1.912,3.551-2.296c1.585-0.382,2.896-7.376,4.48-8.577c1.23-0.934,0.581-3.189-0.18-4.429
			c-0.289-0.471-0.21-0.893,0.333-0.995c0.911-0.172,2.298-0.309,3.396,0.125c1.804,0.71,1.749-0.874,3.825,0.055
			c1.656,0.741,3.903,1.621,5.104,2.557c0.437,0.339,1.115,0.529,1.667,0.559c0.2,0.011,0.403,0.056,0.582,0.161
			c0.477,0.28,0.579,1.276,0.847,1.76c0.527,0.96,1.49,1.507,2.125,1.465c0.819-0.056,4.973-1.366,4.59-2.185
			C92.675,44.685,90.653,44.535,90.271,43.324z"/>
	</g>
</g>
<g>
</g>
<g>
</g>
<g>
</g>
<g>
</g>
<g>
</g>
<g>
</g>
<g>
</g>
<g>
</g>
<g>
</g>
<g>
</g>
<g>
</g>
<g>
</g>
<g>
</g>
<g>
</g>
<g>
</g>
</svg>
