<?xml version="1.0" encoding="iso-8859-1"?>
<!-- Generator: Adobe Illustrator 16.0.0, SVG Export Plug-In . SVG Version: 6.00 Build 0)  -->
<!DOCTYPE svg PUBLIC "-//W3C//DTD SVG 1.1//EN" "http://www.w3.org/Graphics/SVG/1.1/DTD/svg11.dtd">
<svg version="1.1" id="Capa_1" xmlns="http://www.w3.org/2000/svg" xmlns:xlink="http://www.w3.org/1999/xlink" x="0px" y="0px"
	 width="93.305px" height="93.305px" viewBox="0 0 93.305 93.305" style="enable-background:new 0 0 93.305 93.305;"
	 xml:space="preserve">
<g>
	<g>
		<path d="M80.759,22.073c0.535-0.422,0.823-1.029,0.79-1.665c-0.033-0.621-0.37-1.177-0.925-1.526
			c-1.937-1.215-4.122-1.803-7.092-1.904c-0.5-0.016-1.005-0.003-1.509,0.01c-0.77,0.022-1.531,0.026-2.081-0.047
			c-0.868-0.115-1.561-0.351-1.854-0.632c-1.817-1.747-4.164-2.913-7.385-3.67c-3.288-0.773-6.774-1.192-10.363-1.244
			c-8.291-0.125-16.415,1.473-24.149,4.736c-0.682,0.288-1.37,0.567-2.06,0.846c-2.127,0.861-4.326,1.752-6.367,2.925
			c-1.445,0.831-2.838,1.836-4.138,2.987c-0.576,0.508-1.147,1.434-1.358,2.2c-6.55,23.841-2.194,48.405,11.95,67.396
			c0.388,0.521,0.957,0.818,1.563,0.82c0.63,0,1.215-0.318,1.604-0.875c0.41-0.586,0.828-1.168,1.246-1.75
			c1.021-1.42,2.075-2.89,3.009-4.426c2.584-4.251,4.034-8.979,5.01-12.621c0.837-3.13,1.556-6.486,2.197-10.266
			c0.377-2.217,0.509-4.479,0.638-6.663l0.045-0.754c0.076-1.259,0.111-2.521,0.146-3.78c0.038-1.354,0.077-2.753,0.17-4.113
			c0.165-2.408,1.377-4.499,2.66-6.712l0.232-0.403c0.172-0.297,0.345-0.592,0.521-0.885c0.197,1.865,1.152,3.468,2.12,4.79
			c0.715,0.976,1.536,1.85,2.331,2.695c0.3,0.318,0.599,0.637,0.892,0.959c0.112,0.124,0.17,0.211,0.199,0.262
			c-0.031,0.043-0.091,0.116-0.199,0.217c-0.854,0.783-1.67,1.615-2.459,2.418c-0.414,0.422-0.829,0.846-1.249,1.262
			c-0.507,0.501-2.048,2.023-1.003,4.406c0.862,1.969,2.366,3.488,4.639,4.668c0.605,0.312,0.723,0.394,0.822,0.693
			c0.882,2.605,3.546,4.498,6.336,4.498c1.162,0,2.277-0.33,3.228-0.957c2.105-1.395,4.641-3.441,5.545-6.936
			c0.727-2.811,2.242-5.193,3.849-7.717c0.523-0.822,1.047-1.646,1.543-2.483c3.065-5.183,4.869-10.27,5.513-15.552
			c0.15-1.238,0.114-2.47,0.079-3.661c-0.019-0.636-0.038-1.272-0.025-1.905c0.022-1.383,0.202-2.093,1.202-2.649
			c1.269-0.704,2.397-1.607,3.491-2.48L80.759,22.073z M78.553,20.632c-1.062,0.846-2.062,1.646-3.146,2.249
			c-2.134,1.186-2.457,3.003-2.487,4.79c-0.013,0.672,0.008,1.348,0.026,2.022c0.034,1.149,0.065,2.235-0.062,3.285
			c-0.602,4.933-2.296,9.703-5.184,14.583c-0.48,0.814-0.99,1.615-1.5,2.414c-1.64,2.576-3.334,5.24-4.158,8.434
			c-0.548,2.111-1.895,3.749-4.505,5.475c-0.546,0.361-1.168,0.545-1.848,0.545c-1.722,0-3.428-1.205-3.967-2.801
			c-0.433-1.279-1.324-1.74-2.08-2.133c-1.729-0.896-2.828-1.987-3.461-3.432c-0.245-0.56-0.235-0.926,0.472-1.625
			c0.43-0.426,0.853-0.856,1.276-1.287c0.766-0.781,1.558-1.588,2.363-2.328c1.313-1.205,1.373-2.663,0.161-3.999
			c-0.303-0.334-0.611-0.664-0.922-0.993c-0.776-0.826-1.511-1.607-2.134-2.458c-1.905-2.604-2.161-4.363-0.941-6.494
			c0.248-0.433,0.469-0.881,0.685-1.332c0.272-0.567,0.839-1.948-0.032-2.684l-0.422-0.51h-0.454c-0.467,0-0.923,0.419-1.224,0.604
			c-0.263,0.161-0.596,0.495-0.842,0.874c-1.367,2.108-2.5,3.921-3.593,5.812l-0.23,0.424c-1.37,2.363-2.786,4.82-2.991,7.808
			c-0.097,1.411-0.137,2.843-0.175,4.222c-0.034,1.232-0.068,2.471-0.144,3.701l-0.045,0.76c-0.124,2.117-0.253,4.31-0.606,6.392
			c-0.629,3.7-1.331,6.983-2.148,10.036c-0.932,3.482-2.311,7.99-4.73,11.97c-0.884,1.454-1.91,2.884-2.902,4.267
			c-0.277,0.385-0.554,0.771-0.829,1.157C12.452,72.098,8.406,48.587,14.68,25.752c0.081-0.293,0.391-0.801,0.604-0.99
			c1.174-1.04,2.429-1.946,3.728-2.693c1.893-1.087,4.011-1.945,6.06-2.775c0.7-0.284,1.399-0.567,2.094-0.859
			c7.15-3.017,14.65-4.546,22.293-4.546c0.28,0,0.563,0.002,0.847,0.006c3.409,0.049,6.716,0.445,9.829,1.177
			c2.765,0.65,4.743,1.616,6.224,3.039c0.703,0.675,1.799,1.115,3.259,1.308c0.695,0.091,1.568,0.093,2.478,0.067
			c0.452-0.012,0.905-0.025,1.354-0.01c2.134,0.072,3.758,0.424,5.145,1.125L78.553,20.632z"/>
		<path d="M20.405,16.082c0.282,0,0.582-0.063,0.89-0.189c1.196-0.486,2.376-0.979,3.548-1.467c3.426-1.43,6.662-2.781,10.021-3.877
			c2.445-0.799,5.14-1.169,7.744-1.528c0.694-0.096,1.388-0.191,2.077-0.294c3.137-0.467,6.398-0.368,10.827,0.357
			c4.631,0.758,8.596,2.412,12.123,5.057c0.784,0.587,1.802,0.716,2.693,0.79c1.185,0.099,2.353,0.144,3.703,0.196l0.938,0.035
			c0.699,0,1.29-0.326,1.582-0.872c0.3-0.561,0.238-1.23-0.167-1.837c-0.216-0.322-0.424-0.639-0.627-0.949
			c-0.788-1.201-1.532-2.334-2.444-3.359c-3.371-3.783-7.975-6.201-14.075-7.394C56.689,0.252,54.063,0,51.433,0
			c-4.375,0-8.806,0.667-13.543,2.041c-4.494,1.302-8.671,3.256-12.413,5.81c-1.667,1.137-3.139,2.529-4.562,3.874
			c-0.436,0.413-0.872,0.825-1.312,1.229c-0.388,0.356-0.566,0.81-0.667,1.119c-0.161,0.493-0.09,1.001,0.194,1.392
			C19.414,15.857,19.88,16.082,20.405,16.082z M26.884,9.915c3.524-2.404,7.461-4.246,11.7-5.474
			c4.509-1.307,8.711-1.942,12.848-1.942c2.47,0,4.935,0.237,7.325,0.705c5.622,1.099,9.652,3.197,12.688,6.604
			c0.729,0.817,1.35,1.74,2.043,2.796c-1.059-0.042-2.011-0.086-2.953-0.164c-0.338-0.028-1.129-0.094-1.401-0.299
			c-3.804-2.852-8.25-4.71-13.219-5.523c-2.788-0.457-5.11-0.669-7.309-0.669c-1.506,0-2.91,0.101-4.292,0.307
			c-0.68,0.102-1.364,0.196-2.049,0.29c-2.714,0.373-5.521,0.759-8.179,1.627c-3.282,1.072-6.408,2.362-9.692,3.731
			C25.2,11.182,26.015,10.509,26.884,9.915z"/>
		<path d="M82.376,25.021c-0.584-0.019-1.105-0.041-1.584-0.132c-0.267-0.05-0.523-0.075-0.769-0.075
			c-0.991,0-2.318,0.422-3.016,2.434c-0.081,0.231-0.165,0.462-0.258,0.712c-0.271,0.728-0.028,1.243,0.14,1.485
			c0.273,0.395,0.722,0.622,1.226,0.622c0.307,0,0.63-0.084,0.963-0.25l3.916-1.954c1.146-0.571,1.051-1.451,0.994-1.708
			C83.933,25.899,83.65,25.06,82.376,25.021z"/>
		<path d="M64.26,40.645c-1.261,1.502-1.945,3.229-1.793,5.207c0.098,1.277,2.099,1.287,2,0c-0.11-1.438,0.275-2.684,1.207-3.793
			C66.496,41.078,65.09,39.656,64.26,40.645z"/>
	</g>
</g>
<g>
</g>
<g>
</g>
<g>
</g>
<g>
</g>
<g>
</g>
<g>
</g>
<g>
</g>
<g>
</g>
<g>
</g>
<g>
</g>
<g>
</g>
<g>
</g>
<g>
</g>
<g>
</g>
<g>
</g>
</svg>
