<?xml version="1.0" encoding="iso-8859-1"?>
<!-- Generator: Adobe Illustrator 16.0.0, SVG Export Plug-In . SVG Version: 6.00 Build 0)  -->
<!DOCTYPE svg PUBLIC "-//W3C//DTD SVG 1.1//EN" "http://www.w3.org/Graphics/SVG/1.1/DTD/svg11.dtd">
<svg version="1.1" id="Capa_1" xmlns="http://www.w3.org/2000/svg" xmlns:xlink="http://www.w3.org/1999/xlink" x="0px" y="0px"
	 width="94.843px" height="94.844px" viewBox="0 0 94.843 94.844" style="enable-background:new 0 0 94.843 94.844;"
	 xml:space="preserve">
<g>
	<g>
		<path d="M45.039,34.335c-0.014-0.098-0.05-0.193-0.126-0.412c-0.078-0.225-0.316-0.05-0.548,0.387
			c-0.161,0.303-0.286,0.554-0.36,0.819c-1.312,4.7-1.871,9.478-1.554,14.363c0.216,3.321,0.203,6.655-0.91,9.847
			c-0.253,0.726-0.629,1.409-1.027,2.105c-0.41,0.721-1.362,0.926-1.65,0.149c-0.255-0.688-0.102-1.385,0.024-2.049
			c0.406-2.142,1.001-4.25,1.326-6.401c0.125-0.831,0.106-1.684,0.016-2.545c-0.087-0.824-0.463-0.862-0.759-0.088
			c-1.46,3.819-2.648,7.709-3.085,11.721c-0.431,3.956-0.341,7.97-0.395,11.967c-0.011,0.828-0.1,1.513-0.187,1.526
			s-0.413-0.563-0.727-1.293c-0.189-0.439-0.38-0.879-0.573-1.318c-1.777-4.034-3.889-7.841-7.41-10.662
			c-1.577-1.265-3.047-2.04-4.803-2.475c-0.804-0.199-1.153,0.067-0.759,0.492c0.254,0.273,0.483,0.522,0.707,0.774
			c2.017,2.268,4.312,4.352,5.973,6.856c2.154,3.247,2.881,7.048,2.675,10.974c-0.008,0.147-0.043,0.293-0.09,0.462
			c-0.069,0.251-0.973,0.299-0.728,1.091c0.589,1.905,3.221,6.993,3.008,13.438c-0.027,0.828,0.396,1.042,0.946,0.422
			c1.97-2.222,2.972-4.68,3.019-7.564c0.02-1.206-0.042-2.435-0.247-3.62c-0.476-2.748,0.236-5.163,1.747-7.437
			c1.016-1.526,1.964-3.1,2.909-4.672c1.726-2.871,2.212-6.147,2.978-9.325c0.894-3.715,1.947-7.412,2.493-11.181
			c0.305-2.101-0.209-4.339-0.478-6.501C46.03,40.894,45.513,37.617,45.039,34.335z"/>
		<path d="M26.053,36.015c1.997-0.873,2.991-0.367,3.518,1.741c0.283,1.133,0.6,2.258,0.93,3.378
			c0.037,0.127,0.131,0.236,0.287,0.422c0.183,0.217,0.472-0.254,0.663-1.06c0.18-0.76,0.342-1.452,0.47-2.151
			c0.289-1.572,0.457-3.168,0.782-4.732c0.433-2.081,1.552-3.831,2.969-5.37c1.225-1.331,2.839-1.94,4.621-1.938
			c2.459,0.003,4.917,0.135,7.376,0.172c0.345,0.005,0.689-0.026,1.035-0.066c0.57-0.066,1.052-0.191,1.076-0.275
			c0.023-0.084-0.332-0.343-0.793-0.579c-0.279-0.142-0.56-0.283-0.842-0.416c-2.272-1.067-2.568-2.539-0.725-4.21
			c0.992-0.899,0.982-1.956,0.9-3.099c-0.043-0.601-0.019-1.17,0.246-1.654c0.397-0.727,1.336-0.634,1.59-0.245
			c0.154,0.237,0.299,0.478,0.408,0.735c0.123,0.292,0.205,0.602,0.291,0.97c0.129,0.545,0.627,0.434,0.977-0.318
			c0.458-0.989,0.641-1.943,0.471-2.953c-0.408-2.424-0.9-4.833-1.415-7.436c-0.159-0.813-0.688-0.932-1.182-0.268
			c-0.327,0.44-0.63,0.875-0.859,1.346c-1.385,2.833-1.862,5.883-1.669,8.999c0.078,1.254-0.354,1.818-1.4,2.428
			c-5.321,3.105-10.738,6.087-15.814,9.559c-5.239,3.584-9.677,8.132-13.31,13.388c-0.416,0.602-0.771,1.247-1.119,1.9
			c-0.39,0.731-0.22,0.864,0.385,0.298c1.465-1.369,2.894-2.717,4.362-4.021c1.544-1.371,3.153-2.669,4.75-3.978
			C25.329,36.34,25.697,36.171,26.053,36.015z"/>
		<path d="M67.72,40.931c-2.273-1.768-4.613-3.475-7.053-5.001c-2.487-1.555-4.678-3.355-6.372-5.76
			c-0.237-0.336-0.517-0.642-0.806-0.941c-0.477-0.491-0.947-0.839-1.049-0.781c-0.103,0.058-0.006,0.684,0.217,1.395
			c0.136,0.429,0.277,0.855,0.438,1.275c0.853,2.205,2.526,3.813,4.038,5.549c0.676,0.776,1.26,1.686,1.66,2.631
			c0.338,0.797-0.002,1.412-1.053,1.447c-3.243,0.108-6.147-0.845-8.426-3.118c-0.902-0.9-1.279-2.338-1.854-3.551
			c-0.145-0.306-0.266-0.624-0.402-0.94c-0.222-0.519-0.737-0.284-0.896,0.529c-0.273,1.394-0.16,2.786,0.148,4.17
			c0.786,3.525,3.242,5.736,6.859,6.021c2.09,0.165,4.206,0.13,6.303,0.031c3.706-0.176,7.218,0.509,10.577,2.055
			c0.242,0.111,0.491,0.207,0.77,0.311c0.43,0.16,0.601-0.359,0.265-1.116C70.31,43.392,69.148,42.04,67.72,40.931z"/>
		<path d="M72.926,31.422c0.054-0.074-0.149-0.357-0.458-0.63c-0.188-0.166-0.38-0.324-0.59-0.452
			c-1.963-1.199-3.953-2.355-5.917-3.553c-0.392-0.239-0.837-0.53-1.041-0.912c-1.169-2.19-3.404-2.849-5.39-3.879
			c-1.553-0.805-3.094-1.634-4.623-2.482c-0.65-0.36-0.774-0.825-0.351-1.539c1.343-2.257,1.584-4.662,0.952-7.224
			c-0.305-1.236-0.304-2.548-0.438-3.827c-0.023-0.231-0.043-0.463-0.082-0.698c-0.061-0.383-0.649-0.199-1.094,0.5
			c-0.82,1.287-1.178,2.735-1.021,4.311c0.221,2.225,0.282,4.393-0.113,6.627c-0.514,2.901,0.317,4.068,3.05,5.289
			c0.42,0.187,0.822,0.408,1.213,0.658c0.644,0.412,0.44,0.864-0.385,0.782c-1.906-0.188-3.664-0.895-5.412-1.658
			c-0.759-0.331-1.385,0.101-1.004,0.837c0.416,0.804,1.16,1.483,2.105,1.759c1.748,0.51,3.57,0.771,5.352,1.174
			c0.911,0.206,1.819,0.444,2.703,0.743c1.35,0.457,2.361,1.317,2.967,2.645c0.932,2.045,2.631,3.237,4.648,4.045
			c0.125,0.05,0.261,0.07,0.482,0.104c0.271,0.042-0.014-0.367-0.562-0.988c-0.619-0.7-1.08-1.423-1.229-2.281
			c-0.143-0.816,0.728-1.458,1.517-1.207c1.12,0.357,2.147,0.977,3.217,1.466C72.177,31.377,72.873,31.496,72.926,31.422z"/>
		<path d="M25.409,18.682c3.661,2.195,7.378,2.785,11.284,0.552c2.057-1.176,4.248-1.967,6.703-2.1
			c0.827-0.045,1.172-0.598,0.588-1.187c-0.598-0.603-1.285-1.02-2.054-1.326c-0.721-0.287-1.475-0.58-2.236-0.664
			c-3.861-0.427-6.419-2.589-8.436-5.785c-1.611-2.554-3.675-4.761-6.671-5.807c-0.257-0.09-0.516-0.176-0.781-0.235
			c-0.056-0.013-0.121,0.01-0.218,0.046C23.471,2.22,23.992,2.524,24.669,3c2.747,1.931,3.708,5.06,5.036,7.948
			c0.66,1.435,1.535,2.771,2.3,4.157c0.245,0.445,0.484,0.893,0.737,1.373c0.387,0.733,0.051,1.502-0.77,1.619
			c-2.819,0.402-5.29-0.195-7.688-1.679c-0.705-0.436-1.034-0.199-0.61,0.513C24.129,17.691,24.688,18.25,25.409,18.682z"/>
		<path d="M21.273,34.814c1.863-0.518,3.221-1.732,4.258-3.3c1.609-2.433,3.474-4.608,5.911-6.251
			c0.159-0.108,0.318-0.217,0.476-0.326c0.262-0.181,0.42-0.409,0.352-0.509c-0.068-0.1-0.8-0.217-1.618-0.085
			c-1.693,0.273-3.2,1.082-4.632,2.098c-0.955,0.677-1.883,1.392-2.85,2.052c-4.386,2.997-9.374,1.749-11.854-2.951
			C11.22,25.36,11.119,25.181,11,25.011c-0.198-0.279-0.501,0.208-0.524,1.036C10.401,28.7,11.021,31.162,13,33.184
			C15.342,35.58,18.245,35.655,21.273,34.814z"/>
		<path d="M83.707,39.966c-2.031-0.96-3.764-2.285-5.108-4.155c-0.31-0.431-0.76-0.761-1.269-1.101
			c-0.689-0.46-1.229-0.089-1.78,0.529c-0.132,0.147-0.282,0.266-0.444,0.365c-0.709,0.429-0.824,0.652-0.113,0.804
			c0.43,0.092,0.807,0.184,1.236,0.274c2.666,0.56,3.342,1.453,3.342,4.182c0,0.382,0,0.763,0,1.146
			c0,0.632,0.123,1.173,0.209,1.207c0.088,0.034,0.422-0.193,0.722-0.504c0.19-0.198,0.403-0.374,0.635-0.46
			c0.302-0.112,0.636-0.157,0.972-0.183c0.541-0.042,1.053,0.331,1.139,0.823c0.064,0.355,0.092,0.683-0.057,0.88
			c-0.57,0.757-1.361,1.558-2.222,1.831c-1.208,0.384-2.512-1.037-2.556-2.496c-0.01-0.387-0.012-0.774-0.01-1.166
			c0.004-0.643-0.607-0.855-1.166-0.243c-0.627,0.688-1.055,1.538-0.91,2.079c0.203,0.766,0.472,1.515,0.764,2.314
			c0.284,0.778-0.188,1.425-0.957,1.121c-0.591-0.233-1.062-0.615-1.458-1.196c-0.36-0.53-0.763-1.033-1.172-1.531
			c-0.526-0.64-1.054-1.1-1.179-1.027s0.06,0.741,0.412,1.491c0.946,2.017,1.901,4.05,2.897,6.17c0.353,0.75,1.24,1.084,1.981,0.742
			c0.461-0.212,0.898-0.436,1.281-0.729c1.211-0.929,2.566-1.254,4.02-1.395c1.46-0.14,1.428-0.218,1.41-1.627
			c-0.018-1.27,0.187-2.545,0.33-3.814c0.082-0.734,0.322-1.458,0.34-2.191C85.019,41.167,84.669,40.421,83.707,39.966z"/>
		<path d="M12.323,19.339c0.655,1.015,1.337,2.012,1.986,3.03c2.183,3.421,4.659,4.398,8.57,3.338
			c0.749-0.203,1.532-0.39,2.201-0.763c3.128-1.742,6.57-2.087,10.034-2.425c2.654-0.259,5.097-1.126,7.361-2.489
			c0.709-0.427,0.628-1.098-0.196-1.18c-1.332-0.133-2.616,0.246-3.886,0.682c-1.03,0.354-2.021,0.819-3.039,1.208
			c-4.84,1.851-10.558,0.972-13.843-3.868c-0.07-0.103-0.166-0.188-0.322-0.245c-0.214-0.079-0.277,0.41-0.113,1.007
			c0.099,0.362,0.207,0.72,0.343,1.067c0.182,0.463,0.547,0.851,0.794,1.293c1.321,2.357,1.275,2.741-1.693,3.095
			c-2.202,0.262-3.786-1.01-5.182-2.482c-1.179-1.243-2.224-2.614-3.388-3.873c-0.293-0.317-0.619-0.603-0.954-0.881
			c-0.553-0.458-1.064-0.772-1.138-0.704c-0.074,0.068,0.227,0.688,0.673,1.387C11.125,17.471,11.721,18.407,12.323,19.339z"/>
		<path d="M34.623,2.708c0.851,0.856,1.875,1.588,2.539,2.567c0.65,0.959,1.025,2.135,1.364,3.264
			c0.224,0.745-0.218,1.096-1.052,1.086c-0.723-0.009-1.275-0.238-1.713-0.631c-0.616-0.554-0.938-1.178-1.04-1.127
			c-0.102,0.051-0.029,0.599,0.168,1.223c0.119,0.379,0.25,0.752,0.426,1.104c1.176,2.358,4.186,3.612,6.538,2.784
			c1.294-0.455,2.054-1.441,2.091-2.794c0.077-2.825-1.074-4.984-3.579-6.344c-1.026-0.557-2.135-0.963-3.152-1.535
			c-1.203-0.676-2.382-1.395-3.558-2.11c-0.708-0.43-1.117-0.111-0.672,0.588C33.425,1.476,34.016,2.098,34.623,2.708z"/>
		<path d="M58.969,31.405c1.961,0.792,3.274,2.334,4.731,3.742c0.326,0.315,0.703,0.578,1.095,0.827
			c0.642,0.407,1.244,0.643,1.343,0.532c0.1-0.11-0.386-0.57-0.992-1.135c-1.312-1.225-2.188-2.736-2.76-4.483
			c-0.258-0.787-0.97-1.006-1.797-0.956c-0.674,0.041-1.259-0.22-1.814-0.578c-0.697-0.448-1.313-0.18-1.014,0.593
			C58.014,30.601,58.456,31.197,58.969,31.405z"/>
	</g>
</g>
<g>
</g>
<g>
</g>
<g>
</g>
<g>
</g>
<g>
</g>
<g>
</g>
<g>
</g>
<g>
</g>
<g>
</g>
<g>
</g>
<g>
</g>
<g>
</g>
<g>
</g>
<g>
</g>
<g>
</g>
</svg>
