<?xml version="1.0" encoding="iso-8859-1"?>
<!-- Generator: Adobe Illustrator 16.0.0, SVG Export Plug-In . SVG Version: 6.00 Build 0)  -->
<!DOCTYPE svg PUBLIC "-//W3C//DTD SVG 1.1//EN" "http://www.w3.org/Graphics/SVG/1.1/DTD/svg11.dtd">
<svg version="1.1" id="Capa_1" xmlns="http://www.w3.org/2000/svg" xmlns:xlink="http://www.w3.org/1999/xlink" x="0px" y="0px"
	 width="585.46px" height="585.461px" viewBox="0 0 585.46 585.461" style="enable-background:new 0 0 585.46 585.461;"
	 xml:space="preserve">
<g>
	<g>
		<path d="M429.613,423.677c-0.118,0-0.254,0.042-0.414,0.137c-0.898,0.556-1.814,1.1-2.754,1.596
			c-1.448,0.757-2.891,1.141-4.285,1.141c-1.986,0-3.884-0.78-5.592-2.358c-2.968-2.748-4.889-5.952-3.529-10.255
			c1.153-3.623,3.601-6.271,6.449-8.606c0.426-0.349,0.862-0.68,1.33-1.04c0.407-0.313-0.857-0.97-2.926-0.97
			c-1.715,0-3.967,0.449-6.283,1.909c-3.056,1.934-5.107,5.06-5.669,8.99c-1.365,9.493,4.563,15.759,10.994,16.675
			c0.633,0.083,1.283,0.13,1.927,0.13c2.554,0,5.119-0.68,7.288-1.803C430.346,427.059,430.676,423.677,429.613,423.677z"/>
		<path d="M453.25,277.185c-4.444-9.466-8.931-19.198-13.353-28.679c-0.762-1.646-1.619-3.316-3.635-3.316c-0.053,0-0.112,0-0.165,0
			c-2.052,0-3.316,1.566-4.244,3.263c-1.034,1.895-1.507,3.969-1.212,6.192c1.076,7.982,1.921,16.068,3.026,24.042
			c0.774,5.585,3.854,8.26,9.522,8.387c0.189,0.006,0.372,0.023,0.556,0.023c2.116,0,4.167-0.272,6.135-0.851
			c3.601-1.061,5.491-4.291,4.747-5.993C454.178,279.218,453.729,278.202,453.25,277.185z"/>
		<path d="M573.93,216.251c-13.275-16.687-29.459-32.285-49.449-47.694c-2.246-1.723-4.511-3.437-6.81-5.125
			c4.314,0.222,8.801,0.532,13.506,0.914c2.146,0.174,4.19,0.266,6.07,0.266c20.31,0,25.222-11.724,26.386-16.766
			c2.672-11.562-3.919-21.306-19.605-28.975c-29.063-14.209-59.776-24.621-93.166-31.534c1.785-0.647,3.398-1.247,4.782-1.773
			c6.183-2.346,16.532-6.277,16.786-18.77c0.148-7.583-4.451-14.49-11.508-17.274c-1.271-0.497-3.588-1.259-6.378-1.501
			c-19.257-3.605-38.722-5.44-57.849-5.44c-4.002,0-8.051,0.079-12.04,0.236c-12.454,0.49-23.909,1.664-34.638,3.564
			c0.898-1.022,1.833-2.063,2.796-3.121c0.515-0.57,1.046-1.183,1.572-1.8c8.14-9.646,5.698-19.471,1.153-24.974
			c-3.446-4.17-8.624-6.59-14.033-6.59c-4.527,0-20.297,3.286-34.684,8.432c-12.959,4.637-24.991,10.604-36.015,17.841
			c0.42-4.69-0.502-8.429-3.467-12.436c-3.425-4.619-8.857-7.362-14.611-7.362c-2.01,0-4.019,0.334-5.914,0.987
			c-0.798,0.278-1.847,0.665-3.062,1.289l-1.368,0.692c-1.785,0.89-3.573,1.797-5.29,2.802
			c-15.309,8.958-28.779,20.992-41.195,36.782c-4.072,5.181-7.885,10.634-11.452,16.391c-4.521-3.827-9.871-5.435-14.712-5.435
			c-9.649,0-18.438,5.688-26.116,16.916c-7.271,10.622-13.264,21.947-17.937,33.857c-2.039-0.834-4.436-1.318-7.273-1.318
			c-6.132,0-11.878,3.118-15.235,8.249c-0.473,0.721-1.108,1.732-1.732,3.008c-0.671,1.369-1.356,2.743-2.039,4.117
			c-1.865,3.727-3.783,7.583-5.585,11.632c-6.434,14.455-11.411,28.046-15.108,41.292c-1.738-0.529-3.621-0.795-5.66-0.795
			c-7.391,0-14.062,4.492-16.84,11.343c-0.363,0.884-0.603,1.558-0.815,2.24c-1.079,3.576-2.131,6.983-3.177,10.391
			c-2.459,7.974-4.995,16.21-7.235,24.556c-3.638,13.571-6.416,27.207-8.284,40.637c-7.131,0.328-13.571,4.915-16.21,11.591
			c-1.084,2.772-1.561,4.882-1.779,6.307c-0.532,1.969-1.059,3.907-1.593,5.857c-0.73,2.678-1.463,5.355-2.184,8.045
			c-5.355,20.067-9.28,38.354-11.996,55.922c-1.791,11.579-3.522,25.333-2.748,39.525c0.467,8.582,5.447,15.562,13.329,18.689
			c18.374,7.276,36.727,14.594,55.08,21.917l12.788,5.102l1.149,0.455c2.223,0.869,4.557,1.312,6.948,1.312
			c0.57,0,1.126-0.023,1.685-0.076c-0.098,4.268-0.127,8.588-0.104,12.962c0.035,9.145,5.13,16.462,13.63,19.57
			c23.132,8.441,46.249,16.923,69.369,25.404l16.027,5.876l29.306,10.745c19.692,7.218,39.38,14.435,59.069,21.663
			c15.974,5.87,31.939,11.745,47.916,17.62l26.593,9.788c0.762,0.284,1.584,0.532,2.653,0.786c1.365,0.325,2.926,0.503,4.327,0.503
			c6.442,0,12.495-3.417,15.781-8.926c3.28-5.491,3.405-12.513,0.373-18.146c-0.491-0.928-1.442-2.565-3.068-4.279
			c-12.855-13.736-24.051-28.992-33.159-45.241c-7.389-13.169-11.981-24.5-14.476-35.672c-2.27-10.184-4.072-20.516-5.391-28.377
			c-0.626-3.735-1.152-7.354-1.59-10.864c2.146,8.039,5.344,16.101,9.706,24.424c4.905,9.374,10.898,16.42,18.323,21.538
			c1.82,1.253,3.505,2.151,4.917,2.867c2.536,1.282,5.521,1.997,8.364,1.997c5.639,0,9.629-1.92,12.478-4.687
			c2.754,7.831,9.256,15.947,19.57,15.947c0.645,0,1.283-0.036,1.921-0.101c0.567-0.06,1.153-0.136,1.714-0.242l6.55-1.171
			c11.502-2.045,23.005-4.096,34.489-6.218c7.122-1.324,13.341-6.632,15.841-13.542c0.981-2.701,1.909-5.432,2.831-8.15
			c0.686-2.021,1.371-4.037,2.081-6.047c1.619-1.33,3.251-2.63,4.888-3.931c2.306-1.838,4.61-3.677,6.874-5.574
			c4.528-3.776,7.53-9.498,8.016-15.314c2.512-29.116,6.165-55.691,11.171-81.19c2.335-11.916,5.261-24.104,8.086-35.896
			l1.685-7.028l0.267-1.146c0.047-0.219,0.094-0.443,0.147-0.662c3.274-3.499,6.413-7.04,9.463-10.474
			c2.134-2.4,4.262-4.797,6.425-7.17c5.952-6.531,7.418-14.948,3.996-23.103c-3.251-7.752-6.496-15.519-9.729-23.279
			c10.93,4.619,20.788,9.073,29.891,13.506c17.674,8.601,24.447,8.601,26.989,8.601c7.743,0,14.416-3.845,17.851-10.285
			c3.463-6.499,2.872-14.352-1.597-21.001C579.433,223.418,576.909,219.998,573.93,216.251z M328.337,381.291l-1.519,1.584
			c-4.941,5.083-8.258,10.994-9.83,17.349c0.101-7.418,0.757-14.381,1.992-21.078c1.644-8.896,3.322-17.561,5.751-25.759
			c1.401-4.699,3.476-8.831,6.349-12.638c2.322-3.062,4.858-5.598,6.992-7.53c1.406,2.358,2.808,4.711,4.19,7.075
			c0.739,7.861,0.615,14.393-0.366,20.422c-1.348,8.334-4.002,11.562-6.407,13.624C332.741,376.692,330.407,379.14,328.337,381.291z
			 M565.383,239.841c-3.187,0-10.09-2.412-19.045-6.774c-14.286-6.948-28.839-13.231-43.604-19.198
			c-13.908-5.625-25.304-9.511-26.781-9.511c-0.131,0-0.178,0.029-0.16,0.086c0.178,0.484,0.325,0.896,0.496,1.294
			c8.382,20.162,16.752,40.329,25.198,60.453c0.68,1.617,0.473,2.598-0.668,3.845c-5.663,6.203-11.112,12.607-16.894,18.704
			c-2.429,2.565-2.932,5.733-3.658,8.784c-3.458,14.504-7.058,28.998-9.924,43.633c-5.402,27.484-9.044,55.242-11.449,83.164
			c-0.083,1.017-0.769,2.24-1.561,2.902c-4.463,3.729-9.097,7.24-13.554,10.988c-1.158,0.969-2.217,2.358-2.742,3.771
			c-2.046,5.521-3.801,11.159-5.811,16.691c-0.284,0.792-1.276,1.727-2.075,1.874c-13.647,2.529-27.313,4.947-40.979,7.376
			c-0.131,0.03-0.261,0.042-0.385,0.054c0,0,0,0-0.006,0c-0.23,0-1.726-1.62-2.512-4.02c-0.455-1.4-0.662-2.884-0.598-4.539
			c0.426-10.71-0.597-21.285-4.58-31.374c-1.685-4.262-3.913-8.217-7.182-11.503c-0.343-0.354-0.728-0.674-1.129-1.005
			c-0.023-0.023-0.054-0.023-0.083-0.023c-0.993,0-7.554,7.926-10.847,19.801c-3.269,11.786-3.693,21.397-5.136,21.397
			c-0.06,0-0.124-0.024-0.178-0.048c-0.999-0.508-1.921-1.005-2.796-1.607c-5.556-3.83-9.457-9.114-12.549-15.014
			c-4.604-8.795-8.127-17.992-9.812-27.828c-1.111-6.514,0.893-12.033,5.433-16.697c2.44-2.512,4.805-5.125,7.459-7.389
			c7.577-6.479,10.988-14.983,12.531-24.523c1.459-8.996,1.276-18.004,0.318-27.013c-0.153-1.478-0.756-3.003-1.513-4.291
			c-4.753-8.181-9.741-16.226-14.398-24.459c-8.583-15.214-13.063-31.403-10.593-49.006c2.205-15.669,9.439-28.883,20.245-40.261
			c0.349-0.37,0.697-0.739,1.052-1.102c0.585-0.612,0.97-1.215,0.857-1.363c-0.006-0.006-0.012-0.012-0.03-0.012
			c-0.313,0-2.754,1.386-5.621,3.221c-1.809,1.156-3.605,2.344-5.331,3.621c-10.214,7.554-17.461,17.315-21.237,29.512
			c-2.66,8.612-3.263,17.449-2.43,26.395c1.141,12.41,4.563,24.195,9.931,35.438c0.105,0.218,0.2,0.442,0.283,0.674
			c0.147,0.372-7.85,5.698-14.753,14.824c-4.108,5.438-7.241,11.562-9.274,18.417c-2.689,9.044-4.492,18.371-6.206,27.651
			c-3.812,20.723-2.479,41.435,0.981,62.057c1.643,9.812,3.41,19.618,5.573,29.323c3.21,14.411,9.168,27.77,16.361,40.607
			c9.96,17.756,21.935,34.022,35.837,48.876c0.089,0.089,0.147,0.207,0.242,0.39c0.101,0.184,0.023,0.29-0.165,0.29
			c-0.048,0-0.106-0.006-0.166-0.018c-0.219-0.054-0.384-0.089-0.55-0.147c-24.843-9.139-49.674-18.288-74.517-27.414
			c-29.457-10.817-58.922-21.61-88.381-32.415c-28.469-10.438-56.936-20.895-85.425-31.292c-1.398-0.508-1.688-1.217-1.693-2.612
			c-0.142-25.41,1.773-50.667,6.632-75.61c2.42-12.437,5.606-24.725,8.86-36.972c4.1-15.415,9.88-30.275,16.344-44.833
			c7.172-16.172,15.554-31.706,25.094-46.616c12.372-19.337,26.413-37.374,42.248-53.995c16.571-17.396,34.548-33.162,54.648-46.405
			c0.166-0.109,0.328-0.23,0.461-0.423c0.127-0.184,0.006-0.299-0.236-0.299c-0.127,0-0.296,0.033-0.485,0.104
			c-0.319,0.127-0.635,0.254-0.955,0.388c-23.158,9.865-44.136,23.164-62.929,39.924c-17.348,15.469-32.19,33.077-45.076,52.39
			c-8.456,12.669-15.971,25.875-22.624,39.564c-7.651,15.729-14.49,31.835-19.683,48.545c-4.492,14.452-8.754,28.992-12.48,43.657
			c-3.955,15.545-6.659,31.356-8.396,47.321c-0.047,0.432-0.115,0.869-0.192,1.336c-0.103,0.597-0.502,0.987-0.969,0.987
			c-0.103,0-0.212-0.018-0.322-0.06c-0.367-0.147-0.707-0.284-1.046-0.413c-22.629-9.021-45.256-18.063-67.903-27.03
			c-1.454-0.573-1.806-1.378-1.883-2.796c-0.653-12.034,0.724-23.927,2.56-35.76c2.819-18.218,6.839-36.198,11.597-54.007
			c1.339-5.013,2.731-10.007,4.073-15.02c0.08-0.236,0.104-0.473,0.115-0.722c0.018-0.396,0.352-1.513,0.733-2.494
			c0.029-0.082,0.08-0.124,0.133-0.124c0.57,0,2.223,4.451,3.934,10.61c1.138,4.09,2.332,8.156,3.742,12.141
			c2.415,6.833,5.81,13.322,8.795,19.955c0.133,0.295,0.313,0.566,0.556,0.827c0.056,0.053,0.104,0.083,0.139,0.083
			c0.254,0,0.311-1.023,0.023-2.447c-0.198-1.005-0.393-2.01-0.573-3.015c-2.858-15.888-2.095-31.8-0.225-47.712
			c1.768-15.046,4.696-29.894,8.612-44.502c3.088-11.508,6.785-22.851,10.217-34.265c0.074-0.236,0.165-0.467,0.304-0.801
			c0-0.006,0.006-0.012,0.012-0.012c0.243,0,2.196,10.926,5.985,24.382c3.856,13.677,10.654,23.327,10.867,23.327
			c0.18-0.044,0.151-1.859-0.05-4.049c-0.127-1.327-0.242-2.648-0.325-3.978c-0.963-14.889,1.094-29.465,4.54-43.905
			c3.872-16.234,9.576-31.832,16.346-47.053c2.276-5.122,4.874-10.11,7.341-15.146c0.177-0.354,0.381-0.694,0.624-1.058
			c0.006-0.018,0.021-0.023,0.033-0.023c0.417,0,1.809,9.8,4.592,22.073c1.138,5.019,2.772,7.365,4.54,7.365
			c2.668,0,5.647-5.361,7.663-14.942c4.182-19.872,11.934-38.192,23.392-54.935c4.197-6.124,8.062-9.017,11.139-9.017
			c3.662,0,6.203,4.09,6.844,11.686c1.156,13.63,4.528,23.989,4.897,23.989c0.012,0,0.018-0.006,0.023-0.021
			c0.133-0.331,0.26-0.665,0.381-0.996c6.862-18.896,15.814-36.673,28.289-52.55c10.134-12.892,21.87-24.003,36.094-32.335
			c1.868-1.093,3.842-2.606,5.778-3.594c0.207-0.115,0.426-0.872,0.68-0.872c0,0,0.006,0,0.012,0c0.334,0-1.271,6.659-3.584,14.266
			c-1.416,4.661-2.784,9.599-4.022,14.277c-1.229,4.655-2.58,9.455-3.458,14.201c-0.497,2.681,0.115,3.975,1.599,3.975
			c2.864,0,8.981-4.534,16.65-12.008c15.235-14.857,33.036-25.886,53.014-33.035c14.859-5.314,27.722-7.729,28.579-7.729
			c0.023,0,0.041,0,0.041,0c0.106,0-0.337,1.242-0.987,2.01c-0.396,0.467-0.792,1.12-1.205,1.566
			c-7.95,8.784-15.428,18.031-21.516,28.236c-2.914,4.885-5.598,9.944-6.791,15.593c-0.101,0.479-0.201,0.98-0.261,1.466
			c-0.029,0.254-0.041,0.52-0.059,0.978c-0.006,0.23,0.165,0.346,0.473,0.346c0.401,0,1.046-0.201,1.768-0.588
			c0.798-0.428,1.536-0.815,2.305-1.161c22.284-10.021,45.909-13.825,70.102-14.78c3.777-0.15,7.554-0.225,11.319-0.225
			c18.637,0,37.149,0.571,55.525,4.082c0.178,0.035,0.379-1.206,0.574-1.206c0.012,0,0.023,0,0.041,0h0.006
			c0.349,0,0.975,1.38,1.406,1.549c0.426,0.171-7.406,3.771-17.495,7.294c-6.089,2.125-12.165,4.586-18.212,6.838
			c-9.705,3.615-19.393,7.548-28.259,13.039c-0.881,0.544-1.702,1.277-2.494,2.01c-1.271,1.185,10.994,3.16,27.112,5.29
			c42.292,5.592,82.84,16.801,121.136,35.527c13.086,6.398,12.997,11.277,1.193,11.277c-1.377,0-2.914-0.062-4.599-0.201
			c-11.082-0.901-22.165-1.475-33.254-1.475c-3.251,0-6.502,0.047-9.753,0.157c-16.254,0.526-29.347,2.76-29.399,2.917
			c-0.048,0.162,1.17,1.046,2.719,1.968c0.934,0.556,1.873,1.105,2.819,1.646c16.604,9.392,32.503,19.839,47.611,31.483
			c17.082,13.167,32.863,27.704,46.328,44.621c2.382,2.997,4.676,6.052,6.839,9.268
			C567.936,238.871,567.399,239.841,565.383,239.841z"/>
	</g>
</g>
<g>
</g>
<g>
</g>
<g>
</g>
<g>
</g>
<g>
</g>
<g>
</g>
<g>
</g>
<g>
</g>
<g>
</g>
<g>
</g>
<g>
</g>
<g>
</g>
<g>
</g>
<g>
</g>
<g>
</g>
</svg>
