<?xml version="1.0" encoding="iso-8859-1"?>
<!-- Generator: Adobe Illustrator 16.0.0, SVG Export Plug-In . SVG Version: 6.00 Build 0)  -->
<!DOCTYPE svg PUBLIC "-//W3C//DTD SVG 1.1//EN" "http://www.w3.org/Graphics/SVG/1.1/DTD/svg11.dtd">
<svg version="1.1" id="Capa_1" xmlns="http://www.w3.org/2000/svg" xmlns:xlink="http://www.w3.org/1999/xlink" x="0px" y="0px"
	 width="97.332px" height="97.332px" viewBox="0 0 97.332 97.332" style="enable-background:new 0 0 97.332 97.332;"
	 xml:space="preserve">
<g>
	<g>
		<path d="M85.029,33.606c-3.124-1.272-6.431-2-10.107-2.228c-3.721-0.231-6.858,0.053-9.812,0.881
			c-0.73,0.204-1.274,0.193-2.008-0.05c-2.705-0.892-5.472-1.06-8.303-1.166c-2.948-0.11-5.937-0.017-8.951,0.271
			c-1.174,0.112-2.347,0.234-3.52,0.356c-1.772,0.184-3.546,0.368-5.322,0.521c-1.06,0.09-2.119,0.102-2.925,0.102l-1.092-0.006
			c-0.021,0-0.042,0-0.061-0.001c0.005-0.032,0.012-0.071,0.021-0.118c0.049-0.27,0.138-0.505,0.25-0.664l0.106-0.152
			c0.266-0.378,0.54-0.77,0.864-1.002l0.465-0.336c0.939-0.683,1.912-1.388,2.941-1.86c1.979-0.907,4.199-1.801,6.987-2.815
			c4.377-1.591,8.933-3.589,12.6-7.394c0.803-0.833,1.553-1.677,1.911-2.837c0.354-1.146,0.271-2.301-0.235-3.25
			c-0.505-0.948-1.414-1.66-2.562-2.004c-0.503-0.151-1.043-0.228-1.607-0.228c-2.616,0-5.241,1.581-6.241,3.757
			c-0.061,0.131-0.092,0.259-0.118,0.38c-0.059,0.266-0.025,0.471,0.1,0.626c0.155,0.193,0.504,0.242,0.714,0.104
			c0.071-0.046,0.113-0.076,0.156-0.112c0.65-0.541,1.611-0.851,2.639-0.851c1.229,0,2.389,0.434,3.1,1.159
			c0.695,0.711,0.719,1.435,0.066,2.214c-0.442,0.531-1.036,0.865-1.98,1.119c-2.698,0.724-5.511,0.615-8.627-0.339
			c-2.487-0.762-4.861-1.943-7.157-3.086l-1.509-0.749c-2.798-1.387-5.69-2.822-8.731-3.839c-5.68-1.901-11.034-1.558-15.952,1.019
			c-2.797,1.466-4.823,3.282-6.193,5.552l-0.063,0.105c-0.062,0.106-0.167,0.283-0.207,0.309c-0.008,0-0.05-0.002-0.137-0.042
			c-0.193-0.088-0.424-0.017-0.55,0.044c-0.142,0.07-0.273,0.245-0.303,0.399c-0.04,0.214,0.041,0.445,0.227,0.647
			c0.049,0.055,0.094,0.105,0.131,0.161c0.016,0.024,0.04,0.062,0.06,0.094c-0.142,0.526-0.291,1.049-0.444,1.576
			c-0.069,0.236-0.275,0.399-0.547,0.404c-0.29-0.07-0.586-0.14-0.977-0.221c-0.305-0.063-0.61-0.126-0.935-0.148
			c-0.012,0-0.115-0.004-0.127-0.004c-0.5,0-0.891,0.214-1.02,0.559c-0.102,0.268-0.023,0.558,0.203,0.755
			c0.121,0.105,0.24,0.234,0.333,0.333c0.074,0.08,0.136,0.144,0.179,0.183c0.036,0.032,0.121,0.1,0.236,0.19
			c0.184,0.143,0.454,0.355,0.717,0.582c0.611,0.527,1.195,1.041,1.778,1.557c0.019,0.017,0.068,0.098,0.074,0.104
			c0.041,0.099,0.098,0.499-0.01,0.861c-0.131,0.443-0.368,1.004-0.685,1.624c-0.08,0.157-0.195,0.337-0.316,0.528
			c-0.267,0.422-0.569,0.901-0.668,1.339c-0.143,0.627-0.023,1.237,0.112,1.752c0.267,1.009,0.055,1.969-0.228,3.03
			c-0.435,1.633-0.882,3.582-0.902,5.656c-0.004,0.264,0.071,0.559,0.223,0.878c0.098,0.207,0.218,0.41,0.338,0.611
			c0.194,0.327,0.379,0.637,0.432,0.932c0.202,1.112,0.884,1.661,2.122,1.678c0.306,0,0.732-0.053,1.024-0.307
			c0.318-0.278,0.59-0.331,0.976-0.2c0.122,0.042,0.25,0.069,0.378,0.095c0.087,0.018,0.174,0.034,0.257,0.062
			c0.649,0.222,1.122-0.242,1.238-0.38c0.253-0.305,0.488-0.545,0.718-0.733c0.477-0.392,0.618-0.879,0.421-1.446
			c-0.149-0.436-0.166-0.871-0.05-1.247l-0.44-0.243l0,0L9,38.769l0.044-0.102l0.169-0.303c0.465-0.638,1.008-1.238,1.615-1.781
			c0.19-0.17,0.302-0.257,0.367-0.299c0.095,0.102,0.241,0.311,0.297,0.39c1.806,2.58,2.958,5.553,3.524,9.087
			c0.037,0.23,0.065,0.465,0.094,0.701c0.082,0.679,0.166,1.38,0.447,2.024c1.787,4.098,4.404,6.891,8.001,8.538
			c0.246,0.113,0.517,0.221,0.77,0.33c0.149,0.067,0.361,0.134,0.361,0.188v0.004c0,1.07-0.653,2.165-1.041,3.329
			c-0.198,0.546-0.402,1.094-0.577,1.632c-0.517,1.444-1.112,2.979-1.859,4.826c-0.148,0.362-0.187,0.794-0.099,1.15
			c0.141,0.569,0.298,1.135,0.458,1.7c0.154,0.546,0.307,1.092,0.444,1.642c0.454,1.827,0.868,3.805,0.822,5.881
			c-0.012,0.549,0.185,1.097,0.37,1.566c0.122,0.311,0.282,0.588,0.438,0.857c0.095,0.166,0.191,0.331,0.274,0.502
			c0.441,0.905,0.883,1.812,1.291,2.732c0.144,0.324,0.264,0.658,0.384,0.992c0.099,0.273,0.197,0.548,0.319,0.845
			c0.117,0.287,0.262,0.646,0.563,0.873c0.796,0.607,1.697,1.295,2.638,1.868c0.341,0.208,0.7,0.355,1.007,0.474
			c0.206,0.077,0.414,0.116,0.617,0.116c0.572,0,1.025-0.33,1.129-0.822c0.034-0.165,0.113-0.37,0.19-0.579
			c0.102-0.275,0.202-0.557,0.246-0.782c0.059-0.308,0.048-0.618,0.041-0.823c-0.003-0.064-0.006-0.12-0.007-0.135l0.045-0.234
			c0.047-0.261,0.136-0.335,0.315-0.402c0.304-0.116,0.603-0.242,0.902-0.369c0.304-0.128,0.606-0.256,0.914-0.371
			c0.581-0.217,0.718-0.655,0.771-1.011c0.033-0.216,0.069-0.433,0.111-0.647c0.049-0.254,0.226-0.7,0.355-1.026l0.091-0.231
			c0.062-0.161,0.126-0.34,0.187-0.508c0.078-0.223,0.148-0.425,0.201-0.531c0.07-0.142,0.134-0.286,0.183-0.433
			c0.173-0.504,0.211-1.034,0.106-1.454c-0.156-0.629-0.381-1.239-0.598-1.828l-0.184-0.505c-0.137-0.38-0.301-0.747-0.466-1.115
			c-0.131-0.29-0.261-0.579-0.375-0.876c-0.096-0.249-0.185-0.498-0.264-0.75c-0.122-0.381-0.238-1.151-0.285-1.682
			c-0.046-0.521-0.097-1.042-0.151-1.563c-0.051-0.479-0.104-0.961-0.159-1.444c-0.056-0.477,0.036-1.255,0.2-1.697
			c0.204-0.554,0.408-1.104,0.621-1.654c0.246-0.635,0.039-1.147-0.196-1.565c-0.376-0.67-0.702-1.274-0.879-1.907
			c-0.334-1.188-0.149-2.441,0.068-3.625c0.018-0.099,0.035-0.14,0.033-0.145c0.014-0.005,0.052-0.018,0.139-0.023
			c0.751-0.062,1.502-0.14,2.253-0.218c1.38-0.144,2.806-0.291,4.202-0.325c2.131-0.056,3.964-0.743,5.768-2.166
			c0.944-0.745,1.978-1.429,2.978-2.09c0.385-0.254,0.77-0.509,1.15-0.768c0.087-0.059,0.177-0.112,0.285-0.17
			c0.029,0.089,0.062,0.203,0.087,0.342c0.062,0.334,0.116,0.658,0.158,0.984c0.284,2.227,1.188,4.037,2.771,5.535
			c1.121,1.062,2.188,2.234,3.218,3.369c0.354,0.393,0.711,0.782,1.067,1.169c0.164,0.18,0.229,0.327,0.231,0.361
			c-0.017,0.393-0.028,0.784-0.04,1.178c-0.04,1.308-0.081,2.658-0.294,3.941c-0.243,1.464-0.682,2.938-1.104,4.361l-0.312,1.061
			c-0.25,0.851-0.509,1.729-0.366,2.751c0.105,0.742-0.143,1.237-0.759,1.515c-0.407,0.185-0.974,0.504-1.354,0.979
			c-0.979,1.228-1.636,2.68-1.946,4.317c-0.073,0.389,0.028,1.426,0.41,1.886c0.208,0.251,0.451,0.295,0.531,0.28
			c0.079,0.029,0.266,0.229,0.375,0.348c0.289,0.31,0.616,0.66,1.067,0.66c0.445,0,0.651-0.441,0.812-0.785
			c0.05-0.069,0.356-0.254,0.987-0.381c0.254-0.051,0.508-0.111,0.762-0.173c0.564-0.136,1.098-0.265,1.617-0.272
			c0.604-0.011,1.13-0.555,1.151-1.188c0.014-0.432,0.122-0.907,0.269-1.202c0.037-0.069,0.054-0.138,0.046-0.151
			c0.215-0.403,0.536-0.81,0.931-1.176c0.505-0.471,0.627-1.108,0.312-1.695c0.01-0.025,0.061-0.099,0.131-0.201
			c0.298-0.437,0.527-0.908,0.75-1.364l0.1-0.201c0.148-0.308,0.269-0.629,0.353-0.958c0.02-0.073,0.042-0.148,0.065-0.227
			c0.104-0.347,0.223-0.737,0.095-1.125c-0.376-1.138-0.277-2.298,0.302-3.547c0.284-0.611,0.606-1.205,0.929-1.798
			c0.228-0.417,0.453-0.833,0.667-1.256c0.131-0.258,0.205-0.523,0.271-0.783c0.662,2.147,1.016,4.521,1.103,7.375
			c0.033,1.089-0.35,1.903-1.322,2.812c-0.06,0.054-0.123,0.102-0.188,0.148c-0.102,0.076-0.201,0.152-0.292,0.24l-0.095,0.091
			c-0.183,0.173-0.39,0.369-0.547,0.618c-0.89,1.42-1.765,2.847-2.641,4.275l-0.167,0.271c-0.057,0.093-0.103,0.194-0.155,0.326
			c-0.074,0.182-0.06,0.385,0.042,0.557c0.195,0.334,0.622,0.434,0.856,0.461c0.228,0.028,0.441,0.051,0.657,0.058
			c1.005,0.027,2.011,0.052,3.017,0.074c0.898,0.021,1.799,0.042,2.751,0.066c0.784,0,1.116-0.473,1.259-0.869
			c0.126-0.355,0.264-0.71,0.414-1.055l0.044-0.1c0.248-0.571,0.462-1.064,0.942-1.365c0.317-0.197,0.599-0.567,0.731-0.964
			c0.125-0.368,0.354-0.66,0.745-0.946c0.581-0.425,0.752-1.064,0.469-1.754c-0.062-0.147-0.115-0.297-0.169-0.445l-0.089-0.241
			c-0.56-1.495-1.106-3.098-1.131-4.775c-0.012-0.745,0.061-1.52,0.131-2.268c0.032-0.349,0.063-0.696,0.09-1.046
			c0.019-0.263,0.026-0.544-0.04-0.818c-0.025-0.104-0.06-0.211-0.094-0.319c-0.046-0.146-0.123-0.39-0.095-0.494l0.18-0.518
			c0.006-0.02,0.013-0.037,0.019-0.057c0.064,0.368,0.137,0.737,0.219,1.109c0.78,3.554,2.353,6.505,4.67,8.771
			c1.21,1.183,2.591,2.315,4.483,2.605c0.779,0.119,1.75,0.238,2.713,0.109c1.201-0.159,1.237-0.558,1.251-0.707
			c0.021-0.234-0.14-0.47-0.363-0.538c-0.101-0.03-0.173-0.051-0.243-0.062c-3.394-0.528-5.687-3.532-5.452-7.143
			c0.124-1.926,0.869-3.703,2.344-5.594c1.68-2.157,3.833-3.818,6.076-5.471l1.051-0.771c1.63-1.193,3.315-2.428,4.914-3.726
			c8.249-6.699,2.312-14.996,1.037-16.591C91.449,36.654,88.77,35.129,85.029,33.606z M55.432,12.973
			c-1.016-0.669-2.121-1.013-3.29-1.021c1.252-0.627,2.425-0.753,3.663-0.408c0.665,0.185,1.168,0.553,1.449,1.065
			c0.295,0.534,0.34,1.189,0.129,1.896c-0.07,0.236-0.165,0.462-0.279,0.676C56.91,14.319,56.35,13.578,55.432,12.973z
			 M2.231,39.946c-0.104-0.175-0.242-0.354-0.327-0.533c-0.111-0.235-0.215-0.376-0.215-0.439v-0.001
			c0,0.064,0.104,0.202,0.215,0.437c0.085,0.179,0.234,0.354,0.338,0.529c0.231,0.389,0.494,0.808,0.579,1.281
			C2.736,40.746,2.462,40.335,2.231,39.946z M2.963,30.02c-0.078-0.298-0.151-0.632-0.143-0.956
			C2.813,29.388,2.885,29.722,2.963,30.02c0.083,0.311,0.128,0.615,0.146,0.916C3.092,30.635,3.045,30.331,2.963,30.02z
			 M6.327,21.51c-0.357-0.176-0.703-0.348-1.07-0.546c0.065-0.344,0.137-0.687,0.21-1.03c0.006-0.028,0.012-0.055,0.018-0.082
			c0.018,0.025,0.035,0.051,0.054,0.078l0.946,1.394c0.079,0.116,0.14,0.227,0.186,0.324C6.565,21.616,6.449,21.57,6.327,21.51z
			 M8.047,40.477c-0.11-0.32-0.17-0.642-0.179-0.958C7.877,39.835,7.938,40.157,8.047,40.477c0.015,0.042,0.025,0.076,0.03,0.105
			C8.072,40.553,8.062,40.519,8.047,40.477z M29.767,76.792c-0.93-1.67-1.498-3.269-1.734-4.879
			c-0.036-0.237-0.134-0.44-0.226-0.608c-0.008-0.021-0.069-0.234,0.089-1.192c0.051-0.335,0.076-0.669,0.095-0.912
			c0.009-0.108,0.015-0.194,0.02-0.237c0.005,0.014,0.01,0.026,0.015,0.042c0.26,1.042,0.566,1.982,0.938,2.879
			c0.114,0.273,0.497,1.217,0.618,1.794c0.08,0.382,0.145,0.767,0.192,1.157C29.863,75.594,29.862,76.203,29.767,76.792z
			 M31.329,31.374l-0.1,0.339c-0.014,0.05-0.029,0.103-0.044,0.154c-1.376-0.477-2.596-1.32-3.723-2.572l-0.954-1.062
			c-1.371-1.528-2.789-3.109-4.24-4.615c-0.604-0.628-1.272-1.197-1.918-1.747c-0.43-0.367-0.86-0.733-1.272-1.117
			c-1.117-1.042-2.406-1.569-3.833-1.569c-0.616,0-1.272,0.099-1.948,0.294c-0.982,0.284-1.968,0.56-2.913,0.856
			c-0.806-1.005-1.789-1.814-2.923-2.405l-0.54-0.275c-0.136-0.068-0.26-0.13-0.355-0.179c0.032-0.11,0.098-0.271,0.213-0.448
			c0.689-1.066,1.631-2.041,2.798-2.896c4.582-3.359,9.722-4.333,15.285-2.896c2.967,0.766,5.779,2.115,8.5,3.42l1.639,0.786
			c2.423,1.162,4.928,2.364,7.442,3.44c2.496,1.068,5.068,1.542,7.672,1.388c0.624-0.036,1.244-0.129,1.854-0.236
			c-0.302,0.192-0.606,0.379-0.917,0.559c-2.308,1.338-4.864,2.278-7.336,3.188L42.287,24.3c-2.179,0.785-4.432,1.597-6.492,2.803
			c-0.964,0.564-1.963,1.287-3.056,2.207C32.044,29.892,31.571,30.587,31.329,31.374z M71.028,63.309
			c-0.139-0.401-0.327-0.781-0.512-1.153l-0.16-0.328c-0.311-0.645-0.629-1.282-0.949-1.922c-0.343-0.687-0.688-1.372-1.017-2.063
			c-0.373-0.786-0.447-1.607-0.22-2.438l0.294-1.079c0.306-1.125,0.609-2.25,0.953-3.362c0.912-2.953,1.213-5.274,0.977-7.53
			c-0.002-0.032,0.018-0.122,0.037-0.207c0.316-1.394,0.972-2.566,2-3.583c1.06-1.047,2.404-1.337,3.701-1.495
			c0.368-0.044,0.73-0.067,1.077-0.067c1.526,0,2.827,0.42,3.976,1.283c1.223,0.92,1.565,2.119,0.994,3.467
			c-0.396,0.93-0.913,1.8-1.499,2.517c-0.824,1.01-1.735,1.988-2.616,2.933c-0.335,0.359-0.67,0.72-1.002,1.081
			c-1.323,1.445-2.821,3.213-3.894,5.365C71.827,57.423,71.112,60.294,71.028,63.309z M93.013,54.017
			c-1.537,1.623-3.399,2.942-5.2,4.218l-0.345,0.244c-2.35,1.665-4.777,3.387-6.804,5.562c-2.008,2.155-3.151,4.173-3.604,6.347
			c-0.517,2.485-0.227,4.676,0.851,6.533c-1.258-1.104-2.266-2.468-3.007-4.073c-2.916-6.323-2.734-12.484,0.54-18.312
			c1.024-1.822,2.508-3.377,3.941-4.879l0.427-0.445c1.305-1.368,2.653-2.783,3.618-4.504c0.758-1.356,1.027-2.538,0.85-3.719
			c-0.214-1.413-1.031-2.576-2.43-3.458c-1.326-0.836-2.882-1.278-4.496-1.278c-2.981,0-5.771,1.481-7.357,3.842
			c-0.039-0.223-0.078-0.443-0.12-0.662c-0.087-0.441-0.191-0.878-0.298-1.315l-0.072-0.3c-0.421-1.764-1.443-3.132-3.044-4.065
			l-0.063-0.038c2.637-0.478,5.028-0.663,7.438-0.564c5.948,0.249,10.868,1.697,15.043,4.428c2.809,1.837,4.739,3.964,5.904,6.504
			C96.392,47.585,95.763,51.113,93.013,54.017z"/>
	</g>
</g>
<g>
</g>
<g>
</g>
<g>
</g>
<g>
</g>
<g>
</g>
<g>
</g>
<g>
</g>
<g>
</g>
<g>
</g>
<g>
</g>
<g>
</g>
<g>
</g>
<g>
</g>
<g>
</g>
<g>
</g>
</svg>
