<?xml version="1.0" encoding="iso-8859-1"?>
<!-- Generator: Adobe Illustrator 16.0.0, SVG Export Plug-In . SVG Version: 6.00 Build 0)  -->
<!DOCTYPE svg PUBLIC "-//W3C//DTD SVG 1.1//EN" "http://www.w3.org/Graphics/SVG/1.1/DTD/svg11.dtd">
<svg version="1.1" id="Capa_1" xmlns="http://www.w3.org/2000/svg" xmlns:xlink="http://www.w3.org/1999/xlink" x="0px" y="0px"
	 width="233.282px" height="233.282px" viewBox="0 0 233.282 233.282" style="enable-background:new 0 0 233.282 233.282;"
	 xml:space="preserve">
<g>
	<path d="M211.406,107.76c-5.35-5.728-15.823-8.973-30.854-5.538c0,0-17.141-17.928-44.035-10.551c0,0-28.744,8.964-45.093-4.747
		c0,0-15.398-12.747-20.041-23.465c-5.961-13.77-20.567-35.855-51.944-30.062l-8.443-10.545l-0.26,7.912l-5.539-6.064L8.274,37.88
		c0,0-5.988,2.113-7.392,33.056c0,0-3.863,18.979,4.575,21.093c0,0,8.795,3.523,11.603-8.08c0,0,10.544-7.04,10.019-15.737
		c0,0,4.217-3.431,4.217,12.395c0,0-1.318,12.924,4.48,21.356c0,0,1.318,9.23-2.899,12.395c0,0-4.747,8.706,2.899,15.031
		c0,0,2.899,3.948-5.278,3.948c0,0-14.502-3.948-14.242,7.388c0,0-7.12,9.222,5.272,15.552l11.869,7.383
		c0,0,5.272,2.376,17.401,1.85l0.26-2.37c0,0,9.229,2.631,4.746-6.336l-0.789-3.429c0,0,10.551,3.169,10.551-3.416
		c0,0,43.766,14.505,64.868,0.526c0,0,6.591-3.423,8.175,0.797c0,0,0.798,14.754,39.82,13.968c0,0,3.163-0.526,2.902,5.007
		c0,0-5.278,23.737,2.37,31.906c7.654,8.168,10.285,10.811,11.077,5.544l0.26-6.076c0,0,2.902-1.052,2.11-11.071
		c0,0-2.636-2.109-5.538-0.792c0,0-2.376-18.991,1.85-27.686c0,0,7.123-11.863-5.798-13.188c0,0-9.493,2.388-7.921-4.74
		c0,0,15.291-20.31,6.07-35.334c0,0,1.058-3.166,5.532,1.318c0,0,36.133,27.42,41.938,3.955
		C233.294,114.084,216.4,113.104,211.406,107.76z M27.617,144.944c0,0,10.55,3.156,12.655,8.961
		C40.266,153.905,32.357,154.431,27.617,144.944z"/>
</g>
<g>
</g>
<g>
</g>
<g>
</g>
<g>
</g>
<g>
</g>
<g>
</g>
<g>
</g>
<g>
</g>
<g>
</g>
<g>
</g>
<g>
</g>
<g>
</g>
<g>
</g>
<g>
</g>
<g>
</g>
</svg>
