<?xml version="1.0" encoding="iso-8859-1"?>
<!-- Generator: Adobe Illustrator 16.0.0, SVG Export Plug-In . SVG Version: 6.00 Build 0)  -->
<!DOCTYPE svg PUBLIC "-//W3C//DTD SVG 1.1//EN" "http://www.w3.org/Graphics/SVG/1.1/DTD/svg11.dtd">
<svg version="1.1" id="Capa_1" xmlns="http://www.w3.org/2000/svg" xmlns:xlink="http://www.w3.org/1999/xlink" x="0px" y="0px"
	 width="98.692px" height="98.692px" viewBox="0 0 98.692 98.692" style="enable-background:new 0 0 98.692 98.692;"
	 xml:space="preserve">
<g>
	<g>
		<path d="M79.893,57.023L59.315,36.442l0.34-16.507c0.07-0.297,0.102-0.605,0.091-0.917c-0.022-0.664-0.117-1.329-0.295-2.089
			c-0.372-2.12-1.546-4.207-3.316-5.891c-0.189-0.207-0.382-0.412-0.581-0.614l-1.99-2.558l-0.855-6.142
			c-0.118-0.848-0.764-1.527-1.604-1.688C50.978,0.012,50.852,0,50.727,0c-0.708,0-1.376,0.378-1.737,1.011L47.42,3.768
			l-2.562,2.026L34.06,11.458c-2.817,1.29-4.091,4.614-2.84,7.448c0.883,2.048,2.911,3.381,5.159,3.381
			c0.148,0,0.296-0.006,0.445-0.018l6.195-0.524L38.356,35.52c-0.001-0.001-0.003-0.002-0.004-0.003l-6.551-3.78
			c-1.364-0.787-2.991-1.204-4.703-1.204c-2.692,0-5.236,1-6.979,2.743l-6.131,6.131c-2.142,2.141-2.135,5.632,0.014,7.78
			c1.036,1.037,2.415,1.608,3.882,1.608c1.468,0,2.848-0.572,3.884-1.61c0,0,3.567-3.567,5.415-5.413l6.061,3.499l-1.595,0.806
			c-3.268,1.651-6.923,4.317-6.174,10.315c0.548,4.39,1.002,10.912,1.007,10.979c0.002,0.037,0.006,0.074,0.011,0.109
			c0.372,2.976,2.848,5.219,5.759,5.219c0.231,0,0.464-0.016,0.694-0.043c1.485-0.186,2.818-0.949,3.752-2.151
			c0.98-1.261,1.408-2.842,1.206-4.452c0,0.002-0.756-6.058-1.106-8.869l6.179-3.062l16.089,16.093
			c-3.228,4.594-3.157,10.275,0.203,15.223c-1.153,1.242-2.268,2.414-3.507,3.451c-1.806,1.508-2.43,3.662-1.669,5.758
			c0.851,2.345,3.289,4.046,5.798,4.046c1.368,0,2.671-0.485,3.77-1.402c1.561-1.305,2.917-2.767,4.228-4.181
			c1.125-1.215,2.188-2.36,3.36-3.401c1.166-1.036,1.832-2.692,1.779-4.432c-0.048-1.624-0.729-3.07-1.87-3.968
			c-1.817-1.432-2.782-2.586-2.867-3.432c-0.016-0.154-0.062-0.613,0.589-1.41l1.164-1.123c0.014-0.012,0.026-0.023,0.04-0.035
			c0.297-0.236,0.58-0.51,0.828-0.802l5.997-5.78c-0.139,1.071-0.392,2.105-0.726,2.582c-1.469,1.513-2.477,5.08-2.753,6.145
			c-0.105,0.411-0.08,0.844,0.077,1.238l1.972,5.132c0.293,0.743,1.001,1.422,1.801,1.422c0.02,0,0.038,0,0.059,0
			c0.775,0,1.483-0.608,1.812-1.315l4.215-9.129c1.972-2.076,2.961-4.437,2.941-6.943c-0.034-4.477-3.394-7.807-3.537-7.946
			L79.893,57.023z M26.853,39.273c-0.001,0-6.501,6.499-6.501,6.499c-0.681,0.682-1.575,1.023-2.469,1.023
			c-0.894,0-1.788-0.341-2.468-1.022c-1.362-1.362-1.377-3.589-0.014-4.952l6.131-6.131c1.406-1.406,3.503-2.157,5.565-2.157
			c1.311,0,2.608,0.304,3.703,0.936l6.551,3.78l-2.276,6.714l-0.036,0.036L26.853,39.273z M81.695,73.569l-4.357,9.358l-1.972-4.973
			c0,0,1.049-4.049,2.268-5.268c1.109-1.109,2.008-6.531,0.859-8.268l-9.05,8.725c-0.172,0.211-0.377,0.418-0.624,0.613
			c-0.044,0.035-0.078,0.07-0.121,0.105l-1.286,1.24c-2.359,2.783-0.778,5.19,2.507,7.777c1.553,1.223,1.407,4.083,0,5.333
			c-2.668,2.37-4.801,5.251-7.542,7.542c-0.788,0.659-1.651,0.938-2.486,0.938c-3.088,0-5.788-3.812-2.847-6.271
			c1.759-1.471,3.269-3.184,4.83-4.849c-3.952-4.732-4.491-10.744-0.125-15.506l-0.095-0.092L43.146,51.465l0.171,0.256
			l-8.682,4.301c-0.001,0,1.282,10.281,1.282,10.281c0.271,2.154-1.174,4.112-3.222,4.367c-0.15,0.02-0.298,0.028-0.446,0.028
			c-1.871,0-3.524-1.468-3.774-3.466c0,0-0.456-6.592-1.018-11.088c-0.561-4.498,1.718-6.58,5.092-8.284l4.518-2.283l-0.004-0.004
			l8.403-24.823c-0.029-0.105-0.05-0.214-0.053-0.333c-0.007-0.277-0.132-0.573-0.271-0.86l-8.479,0.717
			c-0.095,0.008-0.19,0.011-0.285,0.011c-1.394,0-2.737-0.817-3.329-2.188c-0.816-1.85,0.047-4.028,1.887-4.842l11.016-5.778
			l3.014-2.383l1.762-3.095l0.931,6.672l2.39,3.072c0.226,0.229,0.445,0.461,0.66,0.696c1.469,1.381,2.482,3.092,2.783,4.889
			c0.134,0.559,0.235,1.135,0.257,1.753c0.007,0.207-0.027,0.387-0.086,0.547L57.3,37.247l21.179,21.179l2.9,2.9
			C81.378,61.328,87.752,67.512,81.695,73.569z"/>
	</g>
</g>
<g>
</g>
<g>
</g>
<g>
</g>
<g>
</g>
<g>
</g>
<g>
</g>
<g>
</g>
<g>
</g>
<g>
</g>
<g>
</g>
<g>
</g>
<g>
</g>
<g>
</g>
<g>
</g>
<g>
</g>
</svg>
