<?xml version="1.0" encoding="iso-8859-1"?>
<!-- Generator: Adobe Illustrator 16.0.0, SVG Export Plug-In . SVG Version: 6.00 Build 0)  -->
<!DOCTYPE svg PUBLIC "-//W3C//DTD SVG 1.1//EN" "http://www.w3.org/Graphics/SVG/1.1/DTD/svg11.dtd">
<svg version="1.1" id="Capa_1" xmlns="http://www.w3.org/2000/svg" xmlns:xlink="http://www.w3.org/1999/xlink" x="0px" y="0px"
	 width="555.604px" height="555.603px" viewBox="0 0 555.604 555.603" style="enable-background:new 0 0 555.604 555.603;"
	 xml:space="preserve">
<g>
	<g>
		<path d="M553.903,494.242c-11.81-3.05-18.282-18.287-9.912-41.528c8.382-23.241-8.382-59.049-31.995-79.624
			c-22.36-19.471-10.58-52.594-43.509-50.916c-3.34,0.172-8.701,1.059-12.034,1.378c-35.3,3.41-44-13.979-59.895-19.039
			c-16.769-5.331-12.572-31.995-48.379-40.761c-35.813-8.763-100.575-41.145-108.572-64.761
			c-6.396-18.879-34.693-46.281-45.8-56.516c-2.45-2.264-2.225-2.358,1.085-1.865c7.438,1.103,17.472-2.388,23.599-4.979
			c3.08-1.301,2.766-2.743-0.417-3.748c-8.588-2.698-24.733-11.419-36.147-39.613c-1.253-3.098-3.008-8.231-4.292-11.311
			c-12.989-31.186-33.96-36.434-39.705-37.072c3.57-0.316,8.42-3.863,11.913-6.871c2.536-2.179,1.856-3.05-1.484-3.195
			c-6.046-0.26-15.016-2.689-26.093-5.121c-8.825-1.936-13.757,1.72-16.379,5.266c-1.992,2.687-4.903,3.848-7.826,2.237
			C79.668,26.083,53.871,22.669,49.884,23.367c-4.389,0.763-9.91-1.761-12.959-8.189c-1.421-3.008-4.105-5.411-6.543-7.119
			c-2.742-1.912-5.494-1.531-5.127,0.183c0.384,1.717,2.465,5.278,3.487,8.387c1.085,3.257,1.755,6.295,0.946,5.019
			c-0.605-0.943-2.875-1.965-5.181-2.808c-3.088-1.114-3.724-0.098-2.217,2.621c0.733,1.318,1.507,3.009,2.258,5.143
			c2.663,7.622,9.333,7.046,7.994,8.189c-1.33,1.144-7.808,6.859-9.333,19.047c-1.525,12.191-8.952,19.813-11.233,33.526
			c-2.034,12.191-6.774,12.797-10.078,26.826c-0.768,3.257-1.646,8.618-1.832,11.954c-0.346,6.41,0.745,10.61,2.081,13.309
			c1.483,2.997,5.092,7.155,7.876,9.008c6.384,4.247,12.141-5.34,15.093-3.438c3.561,2.288,11.434-4.317,7.622-5.334
			c-3.806-1.017-3.806-8.636,5.846-11.68c9.649-3.053,13.462-19.302,18.031-19.048c4.575,0.254,9.401-9.146,11.18-7.876
			c0.792,0.57,2.855,0.831,4.891,0.952c2.766,0.156,6.147,2.529,7.444,5.609c6.041,14.272,20.543,52.042,10.519,64.303
			c-7.879,9.649-10.767,20.12-11.828,26.492c-0.55,3.298-2.74,4.335-5.506,2.465c-4.164-2.816-10.967-7.004-20.253-11.435
			c-12.734-6.076-22.6,0.703-25.978,7.613c-1.466,3.002-0.715,8.523-0.405,11.851c0.446,4.82,0.098,10.486-3.331,24.731
			c-4.829,20.067,3.81,22.354,5.843,32.001c2.034,9.649,6.094,8.893,10.791,17.138c1.853,3.251,3.839,3.942,5.567,3.588
			c3.275-0.674,4.602-0.633,6.549,2.086c1.182,1.644,3.118,3.175,6.295,3.849c8.384,1.779,11.689,11.425,20.318,9.397
			c8.633-2.027,6.859,6.863,20.058,3.553c13.214-3.304-1.779-25.139-4.314-26.663c-2.542-1.525-10.415-5.332-16.512,0
			c-6.094,5.331-6.857-4.315-9.907-4.569s-30.73-26.924-21.583-27.178c9.144-0.254,26.915,14.479,36.062,17.522
			c9.144,3.044,19.81,4.823,26.667,10.158c2.905,2.258,5.86,2.692,8.292,2.444c3.328-0.34,7.578-0.006,10.199,2.078
			c26.734,21.237,119.915,66.75,127.037,69.132c7.622,2.542,35.941,6.98,34.421,21.078c-1.525,14.098,8.76,30.476,22.473,53.339
			c13.725,22.856,33.147,31.238,34.288,43.427c1.141,12.188,6.479,5.715,4.002,17.141c-2.004,9.25-33.562,37.693-45.536,48.22
			c-2.507,2.211-3.795,6.751-1.336,9.003c1.441,1.317,3.145,2.305,4.734,3.031c3.044,1.384,7.974,3.518,11.188,4.445
			c13.021,3.783,31.079-4.953,28.101-7.938c-3.435-3.434,13.713-31.238,20.19-36.575c6.467-5.332,8.76-19.429,14.849-23.998
			c6.1-4.569,19.812-17.903,5.343-29.719c-13.204-10.77-35.577-31.664-22.691-45.088c2.317-2.405,7.146-5.024,9.759-7.11
			c18.619-14.872,27.201-45.129,29.312-47.233c2.287-2.287,9.906-8.387,3.422-10.284c-6.478-1.903,3.05-20.191,22.095,19.807
			c18.377,38.585,46.316,32.864,64.008,83.028c1.111,3.15,2.678,8.34,3.883,11.461C516.411,504.379,565.294,497.179,553.903,494.242
			z"/>
	</g>
</g>
<g>
</g>
<g>
</g>
<g>
</g>
<g>
</g>
<g>
</g>
<g>
</g>
<g>
</g>
<g>
</g>
<g>
</g>
<g>
</g>
<g>
</g>
<g>
</g>
<g>
</g>
<g>
</g>
<g>
</g>
</svg>
