<?xml version="1.0" encoding="iso-8859-1"?>
<!-- Generator: Adobe Illustrator 16.0.0, SVG Export Plug-In . SVG Version: 6.00 Build 0)  -->
<!DOCTYPE svg PUBLIC "-//W3C//DTD SVG 1.1//EN" "http://www.w3.org/Graphics/SVG/1.1/DTD/svg11.dtd">
<svg version="1.1" id="Capa_1" xmlns="http://www.w3.org/2000/svg" xmlns:xlink="http://www.w3.org/1999/xlink" x="0px" y="0px"
	 width="94.113px" height="94.113px" viewBox="0 0 94.113 94.113" style="enable-background:new 0 0 94.113 94.113;"
	 xml:space="preserve">
<g>
	<g>
		<path d="M83.281,30.598l-0.641-0.767c-4.364-5.236-8.485-10.182-14.939-13.2c-0.745-0.348-1.142-0.348-1.271-0.348
			c-0.446,0-0.927,0.215-1.212,0.559c-0.124,0.149-0.216,0.307-0.276,0.47c-2.487-2.221-4.774-3.567-6.913-4.079
			c-1.104-0.264-2.226-0.34-3.33-0.373c0.188-0.033,0.379-0.066,0.567-0.1c2.305-0.408,4.585-0.661,6.401-0.132l0.438,0.125
			c1.328,0.378,2.476,0.704,3.271,1.558c0.374,0.402,0.807,0.606,1.285,0.606c0.553,0,1.122-0.346,1.384-0.833
			c0.603-1.125-0.365-3.221-0.474-3.383c-0.399-0.599-0.859-1.104-1.306-1.592c-0.168-0.184-0.335-0.367-0.495-0.553
			c-1.01-1.173-2.197-2.19-3.534-3.024c-5.104-3.191-11.967-4.59-16.825-5.203c-3.042-0.383-6.152-0.333-9.188,0.146l-0.114,0.018
			c-6.764,1.055-8.619,2.024-9.276,2.932c-0.837-0.935-1.785-1.681-2.835-2.229c-0.922-0.481-2.171-1.051-3.664-1.187
			C20.288,0.005,20.184,0,20.138,0c-0.646,0-1.242,0.309-1.593,0.825c-0.356,0.527-0.421,1.215-0.171,1.841l0.119,0.296
			c0.497,1.238,0.928,2.308,0.985,3.43c0.009,0.176,0.012,0.352,0.015,0.528c0.007,0.375,0.016,0.749,0.058,1.119
			c0.274,2.413-0.104,4.518-1.157,6.436c-0.228,0.414-0.522,0.825-0.834,1.26c-0.299,0.416-0.607,0.847-0.888,1.321
			c-1.177,1.991-2.791,3.625-4.215,4.959c-0.031,0.03-0.062,0.061-0.091,0.094c-3.049,3.405-4.767,6.469-5.361,7.625l-0.148,0.285
			c-0.168,0.321-0.365,0.699-0.491,0.962c-0.521,1.09-0.813,2.284-0.922,3.755c-0.142,1.923,0.184,3.825,0.996,5.812
			c0.974,2.381,1.277,4.143,1.017,5.891l-0.116,0.762c-0.211,1.363-0.428,2.773-0.47,4.214c-0.033,1.132-0.421,2.226-0.83,3.382
			c-0.123,0.346-0.245,0.692-0.359,1.041c-0.173,0.525-0.401,1.051-0.643,1.607c-0.238,0.55-0.476,1.099-0.671,1.66
			c-0.407,1.168-0.771,2.357-1.122,3.507l-0.354,1.151c-0.608,1.959-0.922,4.07-0.96,6.457c-0.036,2.295,0.904,4.27,2.718,5.707
			c0.67,0.531,1.365,1.03,2.062,1.528c0.479,0.345,0.957,0.687,1.427,1.041c2.104,1.591,3.104,3.026,3.346,4.802
			c0.014,0.098,0.023,0.197,0.033,0.297c0.033,0.332,0.074,0.746,0.216,1.172c0.215,0.65,0.491,1.272,0.819,1.849
			c0.422,0.744,1.342,1.065,2.028,1.022c2.954-0.19,5.245-2.455,5.446-5.385c0.065-0.939,0.026-1.861-0.012-2.752
			c-0.023-0.556-0.047-1.111-0.043-1.664c0.008-0.99,0.035-2.041,0.177-3.023c0.07-0.484,0.089-0.608,0.639-0.643
			c-0.004,0.195-0.021,0.385-0.053,0.564c-0.05,0.285-0.104,0.572-0.159,0.857c-0.277,1.455-0.564,2.959-0.349,4.607
			c0.199,1.533,0.981,2.311,2.324,2.311c0.143,0,0.303-0.008,0.483-0.027c0.447-0.051,0.912-0.192,1.35-0.415
			c1.702-0.876,2.977-1.79,4.011-2.878c0.313-0.329,0.708-0.639,1.125-0.967l0.148-0.115c1.731-1.364,2.37-3.133,1.798-4.979
			c-0.482-1.555-0.928-2.953-1.502-4.339c-0.256-0.614-0.325-1.25-0.213-1.944c0.276-1.705,1.037-3.342,2.394-5.148
			c1.462-1.947,1.979-4.073,1.541-6.328l4.473-1.533c1.227,5.866,4.533,26.688-7.396,37.631c-0.44,0.404-0.598,1.031-0.402,1.596
			c0.196,0.566,0.708,0.961,1.304,1.007c0,0,0.55,0.042,1.523,0.042c4.327,0,19.247-0.908,29.635-12.594
			c8.156-9.176,17.12-10.547,21.737-10.547c1.575,0,2.523,0.166,2.528,0.168c0.675,0.129,1.352-0.226,1.638-0.852
			c3.904-8.538,4.56-19.482,1.666-27.883C89.078,38.583,86.816,34.831,83.281,30.598z M86.431,68.047
			c-0.493-0.041-1.125-0.074-1.872-0.074c-5.12,0-15.044,1.5-23.979,11.555c-8.286,9.32-19.781,11.188-25.306,11.521
			c4.744-5.802,7.245-13.977,7.272-23.896c0.023-8.582-1.773-15.378-1.85-15.663c-0.108-0.4-0.378-0.74-0.744-0.936
			c-0.22-0.117-0.462-0.176-0.705-0.176c-0.164,0-0.328,0.025-0.486,0.08l-6.75,2.314c-1.093,0.377-1.702,1.557-1.386,2.687
			c0.448,1.601,0.161,3.052-0.88,4.438c-1.638,2.18-2.604,4.296-2.956,6.471c-0.202,1.243-0.065,2.445,0.403,3.574
			c0.524,1.266,0.947,2.595,1.407,4.076c0.09,0.291,0.276,0.894-0.789,1.732l-0.143,0.112c-0.484,0.379-0.984,0.771-1.448,1.26
			c-0.768,0.808-1.745,1.509-3.062,2.2c-0.047-1.02,0.153-2.066,0.363-3.168c0.058-0.301,0.115-0.602,0.168-0.904
			c0.078-0.445,0.109-0.91,0.094-1.383c-0.059-1.797-0.964-2.709-2.691-2.709l-0.205,0.004c-2.688,0.075-3.5,1.792-3.707,3.221
			c-0.168,1.159-0.199,2.332-0.208,3.43c-0.005,0.604,0.021,1.209,0.046,1.812c0.036,0.848,0.069,1.646,0.017,2.422
			c-0.089,1.283-0.971,2.273-2.156,2.532c-0.112-0.243-0.212-0.498-0.298-0.76c-0.037-0.11-0.059-0.32-0.078-0.522
			c-0.014-0.137-0.027-0.271-0.046-0.406c-0.454-3.34-2.648-5.383-4.51-6.789c-0.49-0.371-0.989-0.729-1.488-1.086
			c-0.656-0.471-1.312-0.939-1.945-1.441c-1.101-0.872-1.603-1.924-1.581-3.311c0.032-2.096,0.303-3.932,0.825-5.613l0.357-1.164
			c0.343-1.122,0.697-2.283,1.086-3.396c0.171-0.492,0.381-0.973,0.59-1.453c0.258-0.595,0.525-1.209,0.741-1.867
			c0.106-0.326,0.222-0.65,0.336-0.975c0.47-1.324,0.954-2.693,1.001-4.296c0.037-1.254,0.231-2.513,0.437-3.845l0.118-0.776
			c0.438-2.933-0.415-5.532-1.206-7.469c-0.633-1.548-0.889-3.005-0.781-4.456c0.08-1.088,0.282-1.94,0.637-2.683
			c0.113-0.237,0.291-0.576,0.442-0.864l0.156-0.3c0.541-1.051,2.097-3.826,4.887-6.952c1.566-1.472,3.342-3.284,4.696-5.576
			c0.225-0.38,0.484-0.739,0.743-1.099c0.35-0.488,0.712-0.992,1.025-1.563c1.344-2.446,1.852-5.212,1.509-8.22
			c-0.031-0.275-0.033-0.552-0.038-0.83c-0.004-0.21-0.008-0.42-0.019-0.63c-0.05-0.972-0.273-1.867-0.562-2.722
			c0.22,0.098,0.45,0.21,0.696,0.338c1.27,0.664,2.354,1.777,3.219,3.31c0.521,0.923,0.809,2.062,1.113,3.267l0.193,0.756
			c0.444,1.691,0.176,3.44-0.166,4.954c-0.141,0.333-0.172,0.672-0.088,1.025c0.039,0.153,0.082,0.305,0.127,0.454
			c0.234,0.779,0.918,1.302,1.702,1.302c0.354,0,0.698-0.107,0.997-0.309c0.219-0.148,0.533-0.392,0.747-0.799
			c0.312-0.593,0.548-1.202,0.729-1.796c0.694,0.358,1.616,0.278,2.24-0.217c0.255-0.201,0.616-0.527,0.812-1.027
			c0.802-2.032,0.481-4.135-0.903-5.923c-1.012-1.306-2.111-2.572-3.175-3.797l-0.131-0.152c0.927-0.339,2.812-0.863,6.547-1.445
			l0.119-0.019c2.758-0.435,5.582-0.481,8.345-0.133c4.56,0.575,10.97,1.869,15.61,4.769c0.821,0.513,1.573,1.111,2.243,1.783
			l-0.385-0.11c-1.024-0.297-2.097-0.442-3.278-0.442c-1.522,0-2.99,0.237-4.521,0.508c-1.85,0.327-3.595,0.636-5.353,0.636
			c-0.652,0-1.256-0.042-1.853-0.132c-0.271-0.041-0.503-0.057-0.698-0.057c-1.551,0-1.96,1.041-2.048,1.359
			c-0.339,1.219,0.679,2.336,1.653,2.922c1.229,0.739,2.739,0.933,3.953,1.088l0.291,0.038c1.015,0.133,2.041,0.152,3.035,0.171
			c1.306,0.024,2.537,0.048,3.644,0.312c4.179,1,8.699,6.448,10.187,8.239c0.772,0.929,1.317,2.05,1.896,3.237l0.213,0.438
			c1.597,3.252,2.384,3.847,3.358,3.847c0.63,0,1.2-0.361,1.484-0.934c0.088-0.176,0.356-0.71,0.207-1.366
			c-0.056-0.242-0.106-0.486-0.157-0.732c-0.192-0.928-0.393-1.887-0.842-2.814c-0.497-1.027-1.021-2.077-1.611-3.106
			c3.045,2.519,5.612,5.599,8.273,8.792l0.642,0.77c3.295,3.943,5.386,7.394,6.578,10.86C90.099,50.773,89.643,60.331,86.431,68.047
			z M29.706,9.14c0.14,0.166,0.277,0.333,0.414,0.499c-0.093,0.035-0.178,0.077-0.255,0.124l-0.018-0.066
			C29.801,9.512,29.754,9.327,29.706,9.14z"/>
	</g>
</g>
<g>
</g>
<g>
</g>
<g>
</g>
<g>
</g>
<g>
</g>
<g>
</g>
<g>
</g>
<g>
</g>
<g>
</g>
<g>
</g>
<g>
</g>
<g>
</g>
<g>
</g>
<g>
</g>
<g>
</g>
</svg>
