<?xml version="1.0" encoding="iso-8859-1"?>
<!-- Generator: Adobe Illustrator 16.0.0, SVG Export Plug-In . SVG Version: 6.00 Build 0)  -->
<!DOCTYPE svg PUBLIC "-//W3C//DTD SVG 1.1//EN" "http://www.w3.org/Graphics/SVG/1.1/DTD/svg11.dtd">
<svg version="1.1" id="Capa_1" xmlns="http://www.w3.org/2000/svg" xmlns:xlink="http://www.w3.org/1999/xlink" x="0px" y="0px"
	 width="94px" height="94px" viewBox="0 0 94 94" style="enable-background:new 0 0 94 94;" xml:space="preserve">
<g>
	<g>
		<path d="M0.5,94h93V0h-93V94z M6.5,66.6c1,0.129,1.195,0.476,1.562,0.896c0.361,0.418,0.952,0.826,1.69,0.891
			c1.586,0.141,2.146,2.24,3.919,3.08s0.561,2.006,2.754,2.426c1.968,0.377,3.86,3.724,1.092,3.697
			c-0.637-0.006-1.576-0.408-1.906-0.914c-0.17-0.261-0.322-0.595-0.398-1.01c-0.234-1.26-1.681,0.652-4.2,1.073
			c-2.521,0.42-1.633,1.633,0,2.893c1.633,1.261,5.506,5.413,8.072,2.474c2.234-2.561,4.754-1.724,5.674-3.744
			c0.265-0.579,0.396-1.619,0.39-2.256c-0.022-1.881-1.304-1.573-4.278-7.209c-0.297-0.562-0.109-1.33,0.449-1.633
			c1.458-0.791,4.312-1.867,6.912-0.091c3.686,2.521,5.879-0.887,9.006-0.933c2.782-0.042,3.865,5.131,3.41,8.439
			c-0.087,0.631-0.378,1.623-0.619,2.211c-0.784,1.924-1.439,1.807-1.159,2.975c0.327,1.353-1.632,1.586-0.139,3.546
			s3.686,4.666,4.292,0.7c0.452-2.953,0.671-4.329,1.023-5.416c0.195-0.605,0.729-1.506,0.883-2.122
			c0.222-0.888,0.091-2.548-0.786-8.98c-1.259-9.239-2.52-5.646-5.039-7.559c-1.588-1.205-1.602-2.077-1.825-2.569
			c-0.264-0.579-0.904-0.976-0.849-1.609c0.177-2.014,0.344-6.261-0.966-9.259c-1.306-2.987-0.159-6.876,0.537-8.721
			c0.226-0.595,0.931-0.886,1.557-0.776c0.535,0.094,1.16,0.136,1.623-0.037c0.995-0.373,5.662,0.435,7.404,2.426
			c1.741,1.991,3.298,1.369,4.292,1.058c0.997-0.311,4.293-0.311,4.23-3.36c-0.062-3.049,1.558-1.182,0.002-3.546
			c-1.557-2.364-2.553-2.8-5.787-6.719c-3.235-3.92-0.312-3.484-2.364-5.475c-2.052-1.991-3.142-1.898-2.52-4.2
			c0.622-2.302,0.871-2.193,0.824-4.34c-0.046-2.146-0.793-1.913-1.68-0.747c-0.888,1.167-0.934-0.28-3.78-0.14
			c-2.846,0.14-0.747-3.64-7.605-1.54c-6.859,2.1-3.827,1.26-7.28-0.327c-2.218-1.019-4.071-0.286-5.112,0.369
			c-0.539,0.339-0.393,0.663,0.242,0.712c1.713,0.134,4.571,0.91,2.955,4.751c-2.241,5.319-6.817,2.38-9.942,1.353
			c-2.108-0.692-4.54-0.048-5.897,0.445c-0.599,0.217-0.562,0.399,0.075,0.41c1.836,0.029,4.996,0.467,2.974,3.345
			C9.154,23.043,7.5,23.713,6.5,24.163V6h81v82h-81V66.6z"/>
	</g>
</g>
<g>
</g>
<g>
</g>
<g>
</g>
<g>
</g>
<g>
</g>
<g>
</g>
<g>
</g>
<g>
</g>
<g>
</g>
<g>
</g>
<g>
</g>
<g>
</g>
<g>
</g>
<g>
</g>
<g>
</g>
</svg>
