<?xml version="1.0" encoding="iso-8859-1"?>
<!-- Generator: Adobe Illustrator 16.0.0, SVG Export Plug-In . SVG Version: 6.00 Build 0)  -->
<!DOCTYPE svg PUBLIC "-//W3C//DTD SVG 1.1//EN" "http://www.w3.org/Graphics/SVG/1.1/DTD/svg11.dtd">
<svg version="1.1" id="Capa_1" xmlns="http://www.w3.org/2000/svg" xmlns:xlink="http://www.w3.org/1999/xlink" x="0px" y="0px"
	 width="85.514px" height="85.514px" viewBox="0 0 85.514 85.514" style="enable-background:new 0 0 85.514 85.514;"
	 xml:space="preserve">
<g>
	<g>
		<path d="M77.746,18.966c0.209-1.623-0.985-2.256-2.054-2.261c-2.589-0.013-4.418-1.474-6.387-2.75
			c-1.661-1.076-3.356-2.101-4.97-3.244c-0.755-0.536-1.302-1.36-2.036-1.936c-0.481-0.378-1.104-0.662-1.705-0.788
			c-2.893-0.604-5.8-1.137-8.701-1.701c-3.483-0.678-6.478-2.315-9.189-4.574c-0.834-0.695-1.866-1.16-2.834-1.681
			c-0.105-0.057-0.259-0.026-0.458,0.022c-0.251,0.06-0.043,0.534,0.467,1.075c0.51,0.541,0.08,0.68-0.972,0.341
			c-1.599-0.515-3.119-0.914-4.659-1.002c-1.103-0.063-2.048,0.166-2.112,0.281c-0.064,0.115,0.604,0.739,1.493,1.394
			c0.526,0.388,1.052,0.776,1.578,1.164c0.889,0.656,1.619,1.274,1.631,1.381c0.012,0.107-0.822-0.114-1.9-0.352
			c-4.729-1.047-9.041,0.189-13.217,2.233c-0.992,0.486-0.921,0.652,0.134,0.324c0.989-0.307,1.978-0.614,2.967-0.922
			c1.055-0.328,1.943-0.498,1.985-0.38c0.042,0.118-0.698,0.665-1.652,1.221c-0.147,0.086-0.295,0.172-0.442,0.258
			C23.76,7.626,23.02,8.177,23.061,8.3c0.042,0.123,0.609,0.353,1.269,0.514s0.822,0.529,0.361,0.818
			c-0.327,0.204-0.58,0.367-0.812,0.555c-0.639,0.516-1.357,0.994-1.832,1.641c-1.266,1.729-2.412,3.544-3.628,5.31
			c-0.062,0.089-0.164,0.15-0.263,0.219c-0.155,0.11,0.618-0.051,1.569-0.613c0.983-0.581,1.956-1.237,3.142-1.542
			c1.069-0.276,1.407,0.544,0.642,1.341c-3.69,3.842-7.954,6.458-12.659,8.487c-1.014,0.437-0.975,0.566,0.104,0.327
			c0.855-0.19,1.711-0.379,2.568-0.562c0.964-0.207,1.929-0.408,2.99-0.628c1.082-0.224,1.352,0.258,0.48,0.937
			c-1.407,1.097-2.92,1.857-4.357,2.694c-0.954,0.556-0.83,0.805,0.16,0.315c1.314-0.651,2.625-1.425,4.213-1.679
			c1.091-0.174,1.306,0.55,0.445,1.243c-2.773,2.234-5.415,4.279-7.185,7.231c-1.747,2.913-2.919,6.027-3.898,9.252
			c-0.321,1.057-0.232,1.086,0.199,0.068c1.522-3.586,3.346-6.921,6.849-8.921c0.959-0.548,1.425-0.039,0.905,0.935
			c-1.897,3.557-4.162,6.949-4.646,11.07C9.202,51.357,8.83,55.415,8.61,59.479c-0.06,1.104,0.092,1.122,0.309,0.039
			c0.328-1.64,0.651-3.281,1.124-4.877c0.495-1.671,1.259-3.222,2.33-4.575c0.685-0.865,1.46-1.436,1.582-1.406
			c0.121,0.028,0.073,0.936-0.106,2.024c-0.114,0.689-0.227,1.378-0.341,2.067c-0.18,1.09-0.275,2-0.212,2.034
			c0.062,0.033,0.465-0.723,0.9-1.688c0.436-0.966,1.07-0.897,1.312,0.18c1.069,4.783,0.372,9.348-1.911,13.436
			c-0.539,0.964-0.543,1.105,0.088,0.374c0.381-0.442,0.757-0.888,1.112-1.35c0.79-1.024,1.539-2.085,2.244-3.17
			c0.338-0.52,0.655-1.054,0.969-1.592c0.518-0.89,1.285-0.741,1.158,0.357c-0.106,0.916-0.47,2.197-1.21,4.505
			c-0.338,1.052-0.167,1.247,0.389,0.437c0.335-0.488,0.666-0.98,0.98-1.482c0.331-0.528,0.645-1.066,0.958-1.613
			c0.515-0.899,1.081-0.741,1.067,0.363c-0.066,5.531-3.292,14.24-9.656,17.368c-0.991,0.486-0.966,0.928,0.125,0.757
			c3.281-0.514,7.949-3.504,13.011-8.415c0.792-0.77,1.589-0.531,1.657,0.57c0.196,3.181-0.664,5.844-3.165,7.845
			c-0.863,0.689-1.612,1.164-1.545,1.243c0.067,0.078,0.546-0.018,1.068-0.22c0.32-0.123,0.63-0.26,0.907-0.446
			c3.103-2.101,6.193-4.221,9.243-6.396c0.988-0.705,1.766-1.405,1.332-3.046c-0.229-0.867-0.161-1.812-0.048-2.77
			c0.13-1.097,0.134-2.015,0.035-2.049c-0.1-0.034-0.486,0.779-0.864,1.818c-0.351,0.965-0.705,1.938-1.065,2.932
			c-0.377,1.038-1.107,1.091-1.581,0.095c-0.885-1.863-1.581-3.779-1.6-5.849c-0.019-2.001,0.225-4.005,0.364-6.012
			c0.077-1.103-0.167-1.142-0.486-0.084c-0.252,0.838-0.505,1.676-0.758,2.514c-0.319,1.058-0.721,1.902-0.897,1.888
			c-0.176-0.017-0.183-0.914-0.073-2.014c0.371-3.703,0.198-7.326-1.274-10.766c-0.435-1.017-0.597-0.938-0.388,0.146
			c0.412,2.137,0.306,4.195-0.329,6.108c-0.348,1.048-0.877,0.939-0.969-0.16c-0.205-2.466-0.403-5.054-0.766-7.618
			c-0.25-1.766-1.007-3.456-1.438-5.204c-0.219-0.889-0.353-1.839-0.295-2.747c0.079-1.236,0.499-2.28,1.442-3.069
			c0.847-0.708,0.902-1.344-0.202-1.355c-0.763-0.007-1.481,0.163-2.208,0.433c-1.036,0.385-1.414,0.019-1.029-1.016
			c0.606-1.632,1.044-3.241,2.051-4.519c0.683-0.868,1.445-1.402,1.4-1.493c-0.045-0.092-0.754,0.098-1.583,0.424
			s-1.188-0.258-0.594-1.189c0.368-0.577,0.791-1.102,1.28-1.585c0.786-0.776,1.055-1.218,0.434-1.178s-0.883-0.086-0.587-0.282
			c0.201-0.133,0.368-0.243,0.54-0.347c2.118-1.291,3.465-3.006,3.93-5.58c0.274-1.519,1.185-2.997,2.087-4.3
			c0.282-0.408,0.72-0.707,1.216-0.998c0.756-0.443,0.855-1.093,0.226-1.446c-0.63-0.354-0.376-0.823,0.564-1.048
			s1.733-0.466,1.771-0.539c0.039-0.072-0.455-0.333-1.102-0.582s-0.343-0.792,0.678-1.212c0.351-0.144,0.699-0.287,1.044-0.429
			c1.022-0.42,1.866-0.848,1.884-0.955c0.018-0.107-0.821-0.463-1.875-0.794c-0.719-0.226-1.454-0.457-2.224-0.699
			c-1.054-0.331-1.056-0.875-0.009-1.229c0.901-0.304,1.769-0.574,2.656-0.692c1.139-0.15,2.369,0.158,3.522,0.42
			c1.24,0.282,2.172,0.353,3.447-0.461c1.38-0.881,3.331-1.144,5.041-1.171c3.301-0.051,6.385,0.947,9.069,2.943
			c0.189,0.14,0.334,0.339,0.468,0.553c0.215,0.341,0.097,0.821-0.26,1.072c-0.247,0.174-0.49,0.313-0.716,0.289
			c-2.057-0.217-4.197-0.305-6.117-0.981c-1.873-0.659-3.5-1.216-5.546-0.57c-1.875,0.593-3.751,0.488-5.508-0.273
			c-1.014-0.439-1.256-0.223-0.472,0.555c1.744,1.728,4.212,2.924,6.158,2.623c3.191-0.493,5.73,0.931,7.721,3.322
			c1.136,1.364,1.436,3.637-1.33,4.184c-1.189,0.235-2.461,0.074-3.694,0.049c-0.234-0.005-0.468-0.061-0.782-0.142
			c-0.427-0.11-0.375,0.611,0.144,1.587c1.71,3.225,3.554,6.044,6.715,7.736c3.058,1.636,6.062,1.235,8.906-0.734
			c0.484-0.336,1.15-0.562,1.737-0.573c2.218-0.042,4.386-0.032,6.591-0.68c1.161-0.341,2.736,0.162,3.952,0.685
			c2.35,1.01,4.979-0.323,6.048-2.6c0.919-1.958,0.688-3.294-0.598-4.784C77.882,20.043,77.687,19.423,77.746,18.966z
			 M55.751,28.856c-3.001,0.345-6.412-1.774-8.195-4.971c-0.538-0.965-0.011-1.967,0.959-2.124c0.585-0.095,1.173-0.179,1.763-0.229
			c0.322-0.027,0.825,0.273,0.998,0.568c1.219,2.067,2.7,3.849,4.637,5.166C56.825,27.887,56.849,28.73,55.751,28.856z
			 M60.067,14.442C58.965,14.503,58.04,14.45,58,14.323c-0.04-0.127,0.601-0.708,1.28-1.492c0.379-0.438,0.833-0.787,1.652-0.673
			c1.024,0.142,2.029,0.282,2.903,0.71c0.992,0.486,0.612,1.331-0.491,1.392C62.235,14.322,61.147,14.382,60.067,14.442z
			 M76.642,21.936c-0.163,0.269-0.746,0.554-0.992,0.452c-0.463-0.191-0.907-0.426-1.375-0.688
			c-0.739-0.416-2.227-0.521-3.143,0.096c-0.528,0.356-0.807,0.742-0.89,1.256c-0.177,1.09-0.354,2.019-1.128,2.083
			c-0.501,0.041-0.97,0.114-1.355,0.331c-1.807,1.012-3.557,0.953-5.336,0.54c-1.076-0.25-1.875-1.046-1.818-1.663
			c0.035-0.377,0.065-0.747,0.082-1.119c0.017-0.358,0.019-0.717,0.016-1.076c-0.003-0.595,0.197-0.515,0.327,0.207
			c0.077,0.441,0.116,0.881,0.108,1.321c-0.021,1.257,0.59,1.715,1.727,1.507c1.843-0.337,3.525-0.965,4.9-2.38
			c0.89-0.914,1.967-1.708,3.088-2.321c2.395-1.31,3.892-1.141,5.511,0.454C76.588,21.161,76.768,21.728,76.642,21.936z"/>
		<path d="M73.789,39.104c-0.276,0-0.57,0.096-0.824,0.259c-0.083,0.019-0.156,0.036-0.248,0.059
			c-6.34,1.586-11.893-0.162-16.75-4.355c-0.647-0.559-1.275-1.31-1.546-2.098c-0.526-1.525-1.538-2.287-2.954-2.948
			c-3.455-1.613-5.71-4.435-7.229-7.882c-0.055-0.122-0.111-0.244-0.167-0.365c-0.094-0.201-0.272-0.37-0.398-0.378
			s-0.297,0.42-0.379,0.955c-0.05,0.326-0.087,0.651-0.079,0.975c0.198,7.213,4.195,11.985,10.02,15.61
			c3.604,2.243,7.592,3.089,11.732,3.46c0.273,0.024,0.545,0.052,0.858,0.083c0.474,0.048,1.337,0.178,2.367-0.219
			c0.389-0.15,0.82-0.325,1.271-0.514C53.683,52.425,48.105,73.3,30.949,82.725c-1.696,0.932-0.182,3.522,1.514,2.59
			c18.472-10.146,23.594-33.495,42.167-43.166c0.764-0.398,0.873-1.125,0.623-1.736C75.099,39.689,74.613,39.104,73.789,39.104z"/>
		<path d="M40.036,25.438c0.337-1.052,0.028-1.175-0.559-0.24c-0.397,0.633-0.766,1.275-1.016,1.961
			c-1.246,3.422-2.715,6.837-3.357,10.388c-1.405,7.759,0.298,14.904,5.539,20.993c0.694,0.806,1.455,1.555,2.242,2.317
			c0.792,0.77,2.054,0.76,2.807-0.049c5.055-5.422,9.567-11.331,15.759-15.485c0.917-0.614,1.644-1.168,1.583-1.294
			c-0.062-0.127-0.952,0.079-1.99,0.458c-0.75,0.274-1.499,0.552-2.244,0.839c-2.715,1.047-5.362,2.326-8.147,3.125
			c-4.604,1.318-8.139-0.318-10.598-4.37c-3.069-5.058-3-10.296-1.082-15.669C39.323,27.426,39.71,26.451,40.036,25.438z"/>
		<path d="M42.401,13.893c-0.877-0.101-1.681-0.209-2.459-0.415c-0.704-0.187-1.383-0.463-2.093-0.773
			c-1.012-0.442-2.224,0.008-2.715,0.998c-0.704,1.417-1.423,2.863-2.046,4.349c-2.61,6.223-4.396,12.669-5.09,19.406
			c-0.856,8.312,0.312,16.237,4.124,23.755c1.252,2.468,2.576,4.865,4.302,7.022c0.69,0.863,1.252,1.359,1.174,1.179
			c-0.048-0.111-0.101-0.219-0.173-0.311c-5.9-7.415-8.289-15.814-7.116-25.227c1.274-10.219,5.145-19.338,11.603-27.352
			c0.349-0.433,0.754-0.821,1.204-1.23C43.818,14.654,43.499,14.02,42.401,13.893z"/>
	</g>
</g>
<g>
</g>
<g>
</g>
<g>
</g>
<g>
</g>
<g>
</g>
<g>
</g>
<g>
</g>
<g>
</g>
<g>
</g>
<g>
</g>
<g>
</g>
<g>
</g>
<g>
</g>
<g>
</g>
<g>
</g>
</svg>
