<?xml version="1.0" encoding="iso-8859-1"?>
<!-- Generator: Adobe Illustrator 16.0.0, SVG Export Plug-In . SVG Version: 6.00 Build 0)  -->
<!DOCTYPE svg PUBLIC "-//W3C//DTD SVG 1.1//EN" "http://www.w3.org/Graphics/SVG/1.1/DTD/svg11.dtd">
<svg version="1.1" id="Capa_1" xmlns="http://www.w3.org/2000/svg" xmlns:xlink="http://www.w3.org/1999/xlink" x="0px" y="0px"
	 width="92.681px" height="92.681px" viewBox="0 0 92.681 92.681" style="enable-background:new 0 0 92.681 92.681;"
	 xml:space="preserve">
<g>
	<g>
		<path d="M45.794,12.191c-1.256-0.159-2.627-0.107-3.802,0.415c-1.109,0.493-2.152,1.136-3.145,1.833
			c-1.793,1.258-3.066,2.972-4.326,4.732c-2.294,3.205-5.371,6.961-9.551,7.532c-1.106,0.151-2.208-0.045-3.155-0.652
			c-0.771-0.495-1.237-1.729-2.183-1.874c-0.682,1.901,1.987,4.541,3.421,5.374c1.245,0.724,2.722,1.274,4.164,1.406
			c0.396,0.036,4.172-0.706,4.194-0.646c0.049,0.135,0.099,0.27,0.148,0.405c0.059,0.16-3.751,2.136-4.102,2.295
			c-1.535,0.697-3.178,1.037-4.847,0.649c-1.351-0.314-2.546-1.053-3.509-2.041c-0.594-0.609-0.999-1.348-1.443-2.064
			c-0.219-0.353-1.222-2.161-1.522-0.793c-0.635,2.895-0.801,5.905-0.66,8.858c0.102,2.124,0.375,4.715,1.887,6.365
			c0.554,0.604,1.323,0.932,2.118,1.036c0.664,0.087,1.44-0.163,1.744,0.528c0.408,0.927-0.365,2.389,0.082,3.36
			c0.63,1.37,2.766,1.496,4.008,2.009c0.982,0.404,3.045,1.191,2.822,2.566c-0.206,1.271-1.919,1.695-2.968,1.786
			c-1.053,0.091-2.15-0.003-3.157-0.333c-0.496-0.163-0.958-0.384-1.4-0.663c0.015,0.01-1.098-0.754-0.993-0.42
			c0.223,0.711,0.912,1.336,1.399,1.899c0.521,0.601,1.111,1.14,1.808,1.529c1.56,0.875,3.414,0.903,5.12,0.499
			c3.973-0.941,7.201-3.981,8.482-7.834c1.303-3.919,1.154-8.337,1.274-12.418c0.133-4.521,0.001-9.162,0.851-13.622
			c0.436-2.289,1.214-4.497,2.5-6.452C42.36,15.471,44.527,14.154,45.794,12.191z"/>
		<path d="M75.01,28.736c-0.754-0.888-1.502-1.782-2.237-2.687c-2.745-3.377-5.199-7.054-7.699-10.616
			c-1.252-1.785-2.496-3.666-4.124-5.138c-0.945-0.855-2.069-1.369-3.323-1.569c-0.556-0.088-3.061-0.5-3.54-0.171
			c-0.084,0.166-0.159,0.452-0.255,0.459c-1.1,0.084-1.899,0.768-2.77,1.313c-0.021,0.013-0.054,0.006-0.083,0.006
			c-0.57,0.701,0.348,3.772,0.617,4.493c0.519,1.388,1.522,2.576,2.964,3.075c2.431,0.841,4.641,1.234,6.189,3.53
			c1.515,2.248,2.167,5.579,0.914,8.085c-1.257,2.512-4.225,3.454-6.871,3.231c-1.479-0.125-2.882-0.646-4.154-1.396
			c-1.248-0.735-2.248-1.901-3.49-2.591c-0.123,0.188-0.277,0.627-0.124,0.852c0.992,1.441,2.029,2.755,3.67,3.667
			c2.384,1.325,4.855,1.655,7.476,1.615c1.746-0.027,3.492,0.008,5.239-0.01c1.635-0.017,2.774,0.698,3.711,2.048
			c1.119,1.611,2.517,1.3,4.242,1.598c1.248,0.216,2.014,0.256,3.095-0.552c1.14-0.851,0.883-1.853,1.326-3.066
			c0.386-1.054,1.534-1.949,1.466-3.158C77.176,30.491,75.754,29.611,75.01,28.736z M71.445,32.686
			c-2.506,2.173-6.082,0.974-8.508-0.569c0.328,0.208,1.923-1.036,2.165-1.222c0.714-0.553,1.398-1.233,1.665-2.121
			c0.34-1.129-0.008-2.391-0.491-3.445c-0.032-0.069-0.063-0.138-0.097-0.205c-0.166-0.341-0.666-0.801-0.307-1.123
			c0.216-0.194,0.785-0.018,0.971,0.154C68.516,25.713,74.351,30.167,71.445,32.686z"/>
		<polygon points="54.066,8.563 54.087,8.556 54.093,8.543 		"/>
		<path d="M50.97,10.334c0.003,0,0.006-0.001,0.009-0.001c0.008-0.009,0.013-0.023,0.021-0.031L50.97,10.334z"/>
		<path d="M59.721,52.334c-0.695-1.765-1.057-3.713-1.554-5.539c-0.469-1.718-0.758-4.398-1.833-5.801
			c-1.021,2.767-0.086,6.911,0.597,9.68c0.794,3.224,2.054,6.31,3.33,9.368c2.7,6.469,3.361,13.356,1.583,20.174
			c-1.134,4.349-3.344,8.09-5.151,12.146c-0.026,0.062,0.131,0.254,0.243,0.31c0.07,0.035,0.248-0.042,0.314-0.122
			c5.146-6.134,9.771-13.017,9.22-21.42C66.02,64.293,62.169,58.547,59.721,52.334z"/>
		<path d="M48.419,45.536c-2.039-4.801-3.464-9.261-4.356-14.395c-0.025-0.143-0.169-0.265-0.258-0.396
			c-0.091,0.014-0.182,0.028-0.273,0.042c0,7.528,1.456,14.698,4.157,21.721c1.245,3.238,3.047,6.331,4.162,9.598
			c1.048,3.071,1.495,6.906,1.496,10.139c0,1.99-0.087,3.984-0.131,5.976c-0.027,1.226-0.258,2.431-0.388,3.646
			c-0.072,0.695,0.219,2.129,0.025,2.727c0.004-0.014,0.009-0.028,0.014-0.042c2.104-6.549,3.352-13.213,2.492-20.111
			C54.506,57.603,51.065,51.771,48.419,45.536z"/>
		<path d="M54.038,8.419c0.409-0.101,0.751-0.363,1.221-0.521c0.629-0.211,1.3-0.266,1.93-0.476
			c1.152-0.385,1.979-1.189,2.672-2.165c0.896-1.257,1.015-2.91-0.059-4.111c-0.367-0.411-1.453-1.276-2.065-1.13
			c-0.672,0.16-0.042,0.798,0.431,1.037c1.186,0.601,1.139,2.467,0.224,3.411c-0.087,0.09-0.303,0.146-0.408,0.1
			c-0.324-0.14-0.218-0.947-0.295-1.223C57.546,2.828,57.231,2.375,56.857,2c-0.472-0.471-1.192-0.862-1.747-1.214
			c-0.056,0.315-0.048,0.644-0.045,0.975c0.015,1.431-0.658,2.296-1.975,2.85c-1.221,0.513-2.394,1.149-3.551,1.793
			c-0.188,0.104-0.193,0.533-0.325,0.945c1.344,0.33,3.136,1.136,4.51,1.112C53.836,8.459,53.938,8.444,54.038,8.419z"/>
		<path d="M42.606,8.306c0.538,0.672,0.688,1.799,1.375,2.313c0.984,0.737,2.415,0.484,3.531,0.277
			c0.232-0.043,3.048-0.713,3.44-0.624c-0.427-2.298-4.508-2.706-6.209-3.505c-0.85-0.399-2.642-1.689-3.597-1.208
			C39.848,6.214,42.172,7.763,42.606,8.306z"/>
		<path d="M51,10.302c-0.002-0.014-0.02-0.023-0.047-0.03c0.005,0.021,0.014,0.04,0.018,0.062L51,10.302z"/>
	</g>
</g>
<g>
</g>
<g>
</g>
<g>
</g>
<g>
</g>
<g>
</g>
<g>
</g>
<g>
</g>
<g>
</g>
<g>
</g>
<g>
</g>
<g>
</g>
<g>
</g>
<g>
</g>
<g>
</g>
<g>
</g>
</svg>
