<?xml version="1.0" encoding="iso-8859-1"?>
<!-- Generator: Adobe Illustrator 16.0.0, SVG Export Plug-In . SVG Version: 6.00 Build 0)  -->
<!DOCTYPE svg PUBLIC "-//W3C//DTD SVG 1.1//EN" "http://www.w3.org/Graphics/SVG/1.1/DTD/svg11.dtd">
<svg version="1.1" id="Capa_1" xmlns="http://www.w3.org/2000/svg" xmlns:xlink="http://www.w3.org/1999/xlink" x="0px" y="0px"
	 width="587.91px" height="587.91px" viewBox="0 0 587.91 587.91" style="enable-background:new 0 0 587.91 587.91;"
	 xml:space="preserve">
<g>
	<g>
		<path d="M585.592,323.521c-5.143,1.194-10.238,2.589-15.404,4.001c-3.221,0.887-5.106-1.016-4.297-4.262
			c11.325-45.507,8.068-89.358-14.546-130.97c-1.597-2.935-3.104-3.546-2.731-1.478c0.219,1.248,0.521,2.483,0.733,3.736
			c1.979,12.162,4.291,24.296,5.592,36.535c0.443,4.17-0.698,7.844-4.067,9.641c-2.955,1.575-6.218-0.591-6.655-2.772
			c-0.26-1.324-0.526-2.639-0.815-3.939c-7.79-35.098-14.056-70.702-40.193-98.465c-12.259-13.03-25.546-24.136-42.889-29.353
			c-21.272-6.398-43.042-8.766-65.006-4.891c-6.124,1.076-12.005,3.479-17.91,5.742c-1.82,0.698-3.203,1.2-4.008,1.484
			c0.16-0.03,0.296-0.036,0.367,0.029c6.903,6.7,13.907,2.154,21.396,1.144c18.199-2.468,36.162,0.993,54.007,4.844
			c18.282,3.946,34.111,12.493,47.925,24.725c9.51,8.417,13.99,19.222,10.751,32.066c-3.298,13.11-14.966,18.702-25.995,10.689
			c-9.174-6.658-16.739-16.003-23.596-25.221c-7.336-9.865-12.721-21.161-19.636-31.372c-0.709-1.052-2.341-1.495-4.161-1.797
			c-2.542-0.431-4.439,1.094-4.227,3.443c0.124,1.421,0.29,2.84,0.609,4.217c0.413,1.841,0.993,3.644,1.679,5.722
			c1.04,3.124-0.722,4.909-3.913,3.892c-16.869-5.399-31.256-12.294-44.035-22.576c-2.53-2.033-5.178-3.916-7.844-5.781
			c-2.742-1.912-6.649-5.591-8.725-8.213c-9.587-12.105-19.174-24.21-28.696-36.366c-1.95-2.474-3.807-5.004-5.669-7.548
			c-1.974-2.698-3.062-2.213-2.246,1.026c5.905,23.427,18.046,43.16,35.53,59.719c22.236,21.058,48.03,37.244,73.719,53.602
			c16.101,10.255,32.332,20.466,47.451,32.069c26.765,20.534,44.662,46.707,46.536,81.692c0.041,0.774-0.054,1.561-0.189,2.498
			c-0.195,1.375-0.715,2.019-1.224,1.463c-0.484-0.543-0.721-0.786-0.833-1.076c-0.461-1.123-0.869-2.275-1.2-3.449
			c-6.123-22.015-14.115-43.068-30.854-59.562c-1.217-1.2-2.535-2.296-3.889-3.36c-2.223-1.761-3.015-0.659-1.673,2.403
			c9.392,21.456,21.391,41.328,21.196,65.175c-0.024,3.34-2.271,4.144-4.315,1.501c-1.412-1.826-2.725-3.686-4.167-5.446
			c-19.281-23.581-38.302-47.393-58.114-70.527c-15.203-17.744-30.446-35.675-47.534-51.524
			c-14.305-13.272-31.363-23.575-47.074-35.373c-4.167-3.124-8.429-4.368-13.477-3.188c-7.062,1.652-14.15,3.212-21.226,4.811
			c-1.726,0.284-3.445,0.57-5.172,0.86c-2.86,0.473-5,1.814-4.799,3.003c0.147,0.851,0.354,1.613,0.851,1.936
			c3.192,2.084,7.123,3.147,10.037,5.503c9.847,7.924,14.693,19.071,16.325,31.038c1.933,14.224-0.308,27.804-13.618,36.762
			c-7.59,5.104-26.693,1.078-29.135-6.792c-3.082-9.93-4.938-20.268-6.871-30.517c-0.526-2.795-0.683-5.657-0.786-8.532
			c-0.121-3.343-0.78-6.121-1.439-6.216c-0.662-0.097-1.858,2.456-2.719,5.689c-2.754,10.361-5.742,20.688-7.589,31.206
			c-1.936,11.077,0.322,22.292,7.74,30.937c13.086,15.244,30.715,22.993,50.215,26.108c40.802,6.525,81.894,11.525,122.441,19.357
			c17.247,3.334,24.482,9.75,21.917,28.117c-0.804,5.775-3.523,9.103-9.393,10.521c-13.482,3.257-23.53-3.263-33.461-10.775
			c-2.033-1.543-4.196-2.914-6.372-4.268c-2.849-1.755-5.461-2.755-5.852-2.204c-0.396,0.543,0.006,3.605,1.354,6.661
			c4.498,10.172,12.384,17.253,23.543,21.391c18.701,6.928,38.35,5.172,57.671,6.023c5.421,0.236,7.962,2.198,10.693,6.785
			c4.888,8.187,5.532,15.25-1.266,22.485c-1.809,1.92-3.227,4.32-4.409,6.702c-5.236,10.646-14.009,17.124-24.672,21.527
			c-0.898,0.366-1.714,0.922-2.777,1.661c-1.466,1.028,0.012,2.24,3.357,2.181c10.137-0.184,17.933-4.321,25.499-9.641
			c7.188-5.06,14.611-9.782,22-14.558c2.808-1.815,6.07-0.84,7.3,2.192c1.223,3.032,3.292,2.997,4.557-0.101
			c5.284-12.938,9.989-25.156,22.863-30.925c3.05-1.372,4.574,0.479,3.203,3.528c-5.024,11.166-9.599,22.13-15.38,32.427
			c-7.968,14.197-16.485,28.259-26.374,41.145c-10.751,14.026-21.065,28.448-40.016,34.348
			c-11.727,3.642-21.775,12.655-32.58,19.257c-9.197,5.615-18.383,11.242-27.379,16.74c-2.849,1.743-6.862,1.034-9.356-1.183
			c-5.036-4.492-10.403-6.667-17.053-6.283c-1.648,0.095-3.31,0.029-4.971-0.077c-2.742-0.165-5.692,2.678-3.972,5.539
			c1.59,2.636,4.687,3.712,7.666,4.899c3.109,1.235,2.695,3.966-0.633,4.292c-8.942,0.874-18.577-2.246-22.064-8.275
			c-1.679-2.926,1.383-5.107,4.723-5.107c1.164,0,2.322,0,3.487,0c3.34,0,8.263-2.293,11.023-4.179
			c2.399-1.632,4.705-3.7,6.36-5.905c3.552-4.74,6.679-10.774,3.227-17.063c-3.505-6.372-8.996-8.612-16.13-6.508
			c-0.916,0.271-1.886,0.313-2.867,0.349c-1.607,0.053-1.524-2.27,0.828-4.575c1.536-1.507,3.203-2.636,5.036-3.103
			c16.502-4.162,29.819-12.342,38.738-26.563c1.773-2.831,4.693-3.198,6.756-0.567c2.902,3.688,5.929,7.081,10.847,7.554
			c3.334,0.313,5.367-1.897,4.622-3.363c-0.473-0.934-0.928-1.785-1.437-2.601c-13.187-20.871-9.031-49.952,9.251-66.744
			c0.875-0.804,1.312-2.099,1.637-3.512c0.497-2.109-0.998-4.019-3.339-4.255c-1.626-0.172-3.133-0.178-4.138,0.532
			c-3.878,2.719-7.43,5.898-10.781,8.937c-2.471,2.246-6.112,1.874-8.074-0.839c-6.124-8.523-12.176-17.414-19.175-25.476
			c-27.313-31.451-62.004-46.793-103.787-46.314c-20.017,0.228-35.728,9.156-50.165,21.743c-2.518,2.199-2.488,4.912,0.121,5.42
			c1.652,0.319,3.269,0.396,4.776,0.035c6.597-1.566,13.03-3.859,19.497-5.976c10.834-3.54,21.456-7.997,32.515-10.536
			c10.781-2.468,25.594,3.573,33.922,12.416c2.3,2.43,0.97,4.947-2.347,5.35c-22.992,2.754-43.455,12.453-62.87,23.938
			c-19.145,11.319-37.252,24.394-55.688,36.9c-2.767,1.88-5.267,3.204-5.577,2.985c-0.307-0.219,1.159-2.5,3.269-5.09
			c1.9-2.334,3.807-4.669,5.71-7.004c2.11-2.589,1.203-3.972-1.921-2.766c-15.335,5.898-26.516,16.668-36.928,30.092
			c-2.045,2.642-0.931,4.723,2.412,4.698c34.492-0.218,67.595,8.866,101.688,2.188c3.28-0.645,4.729,1.117,3.34,4.155
			c-2.099,4.616-3.948,8.812-6.384,12.631c-17.39,27.261-34.469,54.752-52.839,81.35c-13.104,18.975-28.017,36.7-42.309,54.841
			c-1.501,1.909-4.327,4.061-6.458,3.983c-19.216-0.75-38.423-1.95-57.621-3.097c-0.757-0.048-1.501-0.272-2.264-0.55
			c-1.208-0.443-0.464-2.885,1.67-5.456c1.714-2.062,3.378-4.066,5.024-6.053c2.137-2.571,5.739-2.683,8.305-0.538
			c11.009,9.18,21.057,9.428,34.578,1.709c6.369-3.642,8.269-8.701,6.526-19.388c-0.538-3.298,1.241-7.14,4.152-8.777
			c21.79-12.271,38.193-30.239,51.775-51.412c5.604-8.735,9.599-19.198,20.608-23.667c0.896-0.36,1.38-1.731,1.75-3.238
			c0.497-2.039-1.814-3.393-5.139-3.032c-16.565,1.826-32.255,3.611-47.966,5.189c-15.259,1.536-30.609,2.293-45.794,4.309
			c-11.145,1.478-22.165,3.884-33.393,6.112c-3.281,0.656-5.811-0.148-5.654-1.768c0.104-1.028,0.266-2.004,0.721-2.819
			c8.151-14.89,15.882-30.062,24.94-44.39c9.638-15.232,19.393-30.275,24.278-47.818c0.455-1.625,0.562-3.352,0.576-5.102
			c0.024-2.843-0.576-5.313-1.321-5.514c-0.745-0.195-2.553,1.058-4.031,2.801c-0.901,1.082-1.75,2.182-2.346,3.405
			c-12.862,26.107-33,46.127-55.183,63.966c-21.855,17.573-44.922,33.639-67.347,50.514c-22.032,16.58-40.855,36.883-52.724,61.644
			C2.438,515.45,0,520.646,0,523.985c0,2.819,0,5.645,0,8.464c0,3.339,2.119,8.948,4.521,8.872c0.774-0.023,2.444-0.757,3.922-2.755
			c14.877-20.126,29.731-40.854,47.115-58.705c15.259-15.664,34.25-27.876,51.702-41.364c2.22-1.72,4.858-3.002,7.666-4.361
			c3.009-1.461,5.485,0.018,5.069,3.333c-0.917,7.271-2.858,14.429,0.313,21.119c1.428,3.021,5.914,3.771,8.976,2.43
			c35.657-15.558,73.914-19.872,114.021-23.146c3.328-0.272,4.882,1.962,3.292,4.905c-14.484,26.8-36.777,43.539-59.77,59.67
			c-2.737,1.915-4.572,6.141-4.093,9.451c0.34,2.347,0.653,4.752,0.83,7.17c0.358,4.882-1.646,8.812-6.578,10.166
			c-6.018,1.661-12.052,0.993-15.889-4.35c-2.938-4.097-3.759-8.996,1.088-12.945c0.15-0.118,0.201-0.366,0.225-0.645
			c0.035-0.39-2.477-1.778-5.811-1.968c-15.501-0.869-43.651,11.414-54.884,22.792c-2.35,2.382-1.489,6.372,1.38,8.086
			c13.852,8.311,29.306,11.697,45.4,13.217c0.937,0.088,1.862,1.43,2.784,1.654c1.519,0.402,5.458,1.856,8.801,1.856
			c10.651,0,21.303,0,31.957,0c3.339,0,7.255-1.561,8.745-2.069c0.934-0.324,1.859-1.135,2.772-1.093
			c7.894,0.372,12.354-3.843,15.853-10.628c3.195-6.2,7.634-11.939,11.753-17.638c15.581-21.521,31.51-42.864,46.816-64.575
			c15.447-21.905,30.168-44.318,40.275-69.387c2.158-5.354,1.696-8.139-4.036-10.757c-9.919-4.522-19.453-2.058-29.327-0.609
			c-6.336,0.929-12.921,0.857-19.319,0.313c-3.928-0.337-5.388-3.18-2.379-6.833c1.241-1.507,2.276-3.186,3.553-4.646
			c18.503-21.214,40.669-36.901,68.118-44.271c16.84-4.528,34.206-6.845,51.323-3.523c29.974,5.828,50.165,28.384,45.69,61.117
			c-2.353,17.153-10.899,31.327-27.106,38.078c-14.458,6.022-24.838,14.546-29.672,29.601c-1.862,5.816-0.604,7.956,5.414,6.738
			c5.461-1.117,10.692-3.387,16.154-4.54c2.033-0.431,5.343,0.148,6.395,1.537c1.023,1.348,0.633,4.771-0.419,6.502
			c-4.167,6.874-11.521,7.04-18.478,8.459c-4.752,0.969-9.327,3.345-13.606,5.757c-1.117,0.626-1.814,4.303-1.046,5.579
			c2.595,4.327,5.261,9.073,9.108,12.111c14.067,11.089,29.565,8.754,43.964,1.496c15.392-7.744,29.584-17.81,44.739-26.049
			c9.947-5.415,20.717-9.274,31.037-14.021c20.037-9.221,34.536-24.974,45.359-43.237c15.155-25.6,28.501-52.27,42.558-78.779
			c1.572-2.955,2.092-6.022,1.193-6.892C586.738,323.971,586.088,323.409,585.592,323.521z M443.532,253.931
			c-12.188,2.506-23.177-0.556-32.545-7.341c-13.471-9.765-26.634-20.218-38.503-31.833c-10.687-10.456-17.862-23.992-21.189-38.645
			c-1.525-6.717,0.312-14.298,1.271-21.403c0.177-1.324,4.161-3.638,5.101-3.121c11.491,6.28,23.082,12.483,33.922,19.789
			c7.53,5.081,9.776,12.729,6.479,21.974c-1.915,5.361-3.145,10.967-4.434,16.618c-0.744,3.257,1.295,6.212,4.617,6.549
			c10.148,1.038,19.535,1.673,28.566,3.821c7.565,1.797,14.954,5.793,21.396,10.282c3.086,2.148,5.479,7.894,5.107,11.706
			C452.836,247.382,450.495,252.503,443.532,253.931z"/>
		<path d="M373.395,108.529c-0.188,0.035-0.413,0.115-0.668,0.213C372.496,108.831,372.815,108.73,373.395,108.529z"/>
		<path d="M326.795,129.016c9.291-2.79,18.648-5.361,28.602-8.139c3.222-0.896,3.919-3.547,1.927-6.23
			c-2.062-2.778-4.107-5.077-8.843-4.125c-29.405,5.914-58.741,12.318-86.122,24.816c-20.803,9.496-41.219,20.082-57.881,36.363
			c-9.481,9.266-18.879,18.604-28.389,28.011c-2.376,2.35-4.265,1.542-3.958-1.785c1.809-19.435,10.314-34.682,27.624-46.376
			c17.649-11.922,37.344-16.444,57.269-21.202c8.311-1.986,16.651-3.851,25.857-5.938c3.263-0.739,3.753-3.009,0.896-4.74
			c-11.378-6.91-23.138-8.728-35.243-8.665c-20.082,0.101-36.408,9.817-51.326,22.091c-9.298,7.643-17.401,16.887-28.836,22.139
			c-3.038,1.401-5.054-0.491-4.152-3.709c3.18-11.373,7.832-21.832,14.957-31.28c18.897-25.082,43.016-37.781,75.028-32.042
			c18.238,3.269,34.283,10.79,47.505,24.065c1.667,1.67,4.752,3.49,6.686,3.05c4.273-0.969,8.446-2.42,12.619-3.898
			c3.156-1.12,4.303-4.315,2.211-6.924c-9.286-11.615-21.894-17.165-35.367-21.692c-11.505-3.869-23.129-8.104-30.668-18.521
			c-1.466-2.021-2.633-6.07-1.605-7.779c5.077-8.405,12.176-14.869,22.514-15.619c15.424-1.126,31.011-0.644,45.587,4.599
			c21.007,7.554,41.884,15.699,62.051,25.198c10.816,5.089,20.836,12.685,29.654,20.838c4.268,3.94,7.217,4.165,11.041,2.19
			c4.605-2.37,4.517-6.904,2.288-10.808c-2.016-3.523-4.563-7.051-7.672-9.593c-24.802-20.212-54.409-29.678-84.844-36.91
			c-20.445-4.853-41.109-6.253-62.305-4.971c-21.669,1.31-41.769,6.189-60.792,16.367c-23.672,12.664-41.177,31.238-53.33,55.015
			c-9.98,19.526-15.403,40.424-17.708,62.086c-0.26,2.471-0.479,4.483-1.38,5.828c-1.859,2.778-4.953,2.264-3.476,2.852
			c1.478,0.585,1.998,3.771,1.998,7.11c0,1.998,0,3.996,0,6.029c0,3.339-1.333,4.238-3.812,1.998
			c-2.101-1.9-3.765-3.706-5.683-5.436c-2.482-2.24-2.684-5.745-0.624-7.784c1.398-1.386,2.651-2.71,3.073-4.244
			c2.725-9.809,4.661-19.857,6.821-29.826c5.34-24.597,15.17-47.076,31.336-66.59c0.949-1.15,1.797-2.391,2.601-3.656
			c1.327-2.095,1.998-4.176,1.501-4.654c-0.502-0.473-3.396,0.204-6.378,1.717c-15.985,8.118-28.788,20.138-39.132,35.639
			c-1.856,2.778-4.055,2.524-5.054-0.665c-1.635-5.219-3.16-10.096-4.661-14.877c-0.999-3.192-2.512-5.751-3.384-5.707
			c-0.869,0.036-2.867,2.491-3.564,5.76c-1.336,6.336-0.514,13.178-1.971,19.491c-1.617,6.978-2.518,14.121-3.556,21.498
			c-0.464,3.313-3.269,4.69-6.286,3.256c-11.357-5.381-23.146-8.75-35.961-8.322c-3.339,0.115-3.546,1.552-0.562,3.05
			c22.006,11.083,38.938,28.558,57.264,44.505c2.524,2.198,2.923,4.285,0.878,4.013c-1.295-0.174-2.477-0.58-3.488-1.248
			c-19.869-13.175-39.262-27.115-59.551-39.602c-13.908-8.559-28.714-15.652-45.049-24.148c-2.967-1.546-5.447-0.098-5.55,3.242
			c-0.653,20.803-1.259,40.196-1.865,59.451c-0.104,3.339,1.362,5.198,2.743,3.588c0.872-1.011,1.531-2.087,2.231-3.127
			c5.334-7.876,10.181-16.163,16.234-23.437c5.347-6.422,12.522-6.566,17.47-1.864c4.926,4.69,4.539,13.201,0.018,19.156
			c-8.068,10.622-16.553,21.081-23.262,32.551c-11.621,19.89-18.199,41.201-15.876,64.084c0.34,3.325,3.198,4.714,6.138,3.13
			c3.245-1.75,6.514-3.511,9.835-5.157c33.733-16.742,79.332-5.234,100.655,25.591c9.909,14.328,14.396,29.82,8.142,47.079
			c-8.322,22.964-39.504,41.27-63.777,38.758c-20.185-2.087-37.646-9.428-41.931-30.405c-4.359-21.338,10.905-44.112,32.533-46.482
			c10.675-1.164,20.93,6.727,21.323,16.414c0.567,13.92-4.557,21.959-17.434,27.402c-0.851,0.36-1.688,0.763-2.515,1.177
			c-1.374,0.68-2.518,1.737-2.557,2.358c-0.035,0.614,1.679,1.59,3.833,2.163c1.359,0.354,2.704,0.603,3.981,0.408
			c17.221-2.578,25.567-11.119,28.927-29.005c3.183-16.935-9.449-35.115-26.427-37.755c-19.065-2.964-35.137,3.748-48.536,16.707
			c-4.551,4.397-9.582,9.711-13.341,14.937C3.021,314.555,0,319.413,0,322.759c0,7.72,0,15.434,0,23.152
			c0,3.34,2.471,8.535,4.135,11.432c8.479,14.801,22.425,24.577,37.028,32.923c2.899,1.661,3.81,4.947,1.617,7.472
			c-23.241,26.764-36.062,51.068-36.413,68.725c-0.065,3.339,0.934,5.248,1.478,4.285c0.375-0.662,0.721-1.212,0.945-1.791
			c9-23.059,24.882-40.643,44.94-54.392c11.943-8.181,24.887-14.9,37.362-22.307c20.005-11.875,41.109-22.13,57.979-38.698
			c9.103-8.937,18.799-17.318,22.13-30.623c1.756-6.999,4.126-13.844,6.233-20.056c1.072-3.162,4.569-5.272,7.861-4.693
			c9.57,1.673,18.989,3.334,28.413,4.953c27.642,4.771,44.488-10.692,51.004-35.27c2.414-9.09,0.212-16.015-6.753-22.251
			c-8.662-7.746-18.43-8.928-29.291-6.942c-3.57,0.653-5.926,2.178-7.462,4.569c-1.803,2.816,0.653,5.376,3.978,5.013
			c2.329-0.254,4.563-0.461,6.803-0.44c8.739,0.059,15.634,7.273,14.26,15.867c-1.507,9.407-5.595,17.786-15.271,21.616
			c-2.374,0.937-5.4,1.398-7.826,0.822c-13.184-3.139-22.16-11.207-27.704-23.664c-9.194-20.646-4.001-40.154,4.383-59.255
			c9.091-20.715,25.541-34.445,44.893-45.191c20.416-11.336,42.04-19.204,64.997-23.454c1.727-0.284,3.452-0.567,5.173-0.857
			c2.86-0.473,6.631-1.812,8.435-2.973C324.441,130.021,325.571,129.379,326.795,129.016z M16.736,227.791
			c-0.612-0.612,0.677-3.153,2.894-5.654c5.804-6.555,11.674-13.062,17.183-19.866c10.805-13.349,24.881-21.474,40.855-26.823
			c9.176-3.077,17.765,0.337,21.855,9.212c0.721,1.561-0.023,5.148-1.312,6.046c-5.326,3.691-10.755,7.983-16.822,9.744
			c-20.62,5.985-40.988,12.318-58.703,24.816C19.949,227.196,17.342,228.402,16.736,227.791z M145.068,264.939
			c-1.33,0.57-3.292,0.136-4.823-0.313c-22.667-6.579-45.255-13.417-67.971-19.828c-14.981-4.227-30.287-5.866-47-4.927
			c-3.333,0.187-4.362-1.708-1.889-3.954c7.125-6.464,15.448-9.05,23.407-10.923c28.183-6.635,56.004-4.578,82.721,7.388
			c6.115,2.743,12.62,4.959,18.128,8.632C158.707,248.393,157.321,259.7,145.068,264.939z"/>
		<path d="M491.812,439.65c1.348-0.621,2.777-1.342,4.113-2.205c12.483-8.092,19.198-20.724,25.594-33.508
			c0.366-0.722,0.426-1.591,0.414-2.501c-0.012-1.406-1.241-2.252-2.743-1.855c-0.91,0.236-1.809,0.514-2.624,0.945
			c-9.144,4.788-17.957,10.326-27.402,14.405c-7.152,3.091-12.85,9.12-12.933,16.804c-0.041,3.275,2.134,6.562,5.479,8.376
			C484.659,441.701,489.471,440.726,491.812,439.65z"/>
	</g>
</g>
<g>
</g>
<g>
</g>
<g>
</g>
<g>
</g>
<g>
</g>
<g>
</g>
<g>
</g>
<g>
</g>
<g>
</g>
<g>
</g>
<g>
</g>
<g>
</g>
<g>
</g>
<g>
</g>
<g>
</g>
</svg>
