<?xml version="1.0" encoding="iso-8859-1"?>
<!-- Generator: Adobe Illustrator 16.0.0, SVG Export Plug-In . SVG Version: 6.00 Build 0)  -->
<!DOCTYPE svg PUBLIC "-//W3C//DTD SVG 1.1//EN" "http://www.w3.org/Graphics/SVG/1.1/DTD/svg11.dtd">
<svg version="1.1" id="Capa_1" xmlns="http://www.w3.org/2000/svg" xmlns:xlink="http://www.w3.org/1999/xlink" x="0px" y="0px"
	 width="94.895px" height="94.895px" viewBox="0 0 94.895 94.895" style="enable-background:new 0 0 94.895 94.895;"
	 xml:space="preserve">
<g>
	<g>
		<path d="M85.606,51.316c-1.438-0.225-2.971-0.293-4.534,0.157c-1.238,0.355-2.451,0.174-3.659-0.253
			c-0.521-0.185-0.578-0.651-0.134-0.979c0.849-0.627,1.716-1.203,2.573-1.792c0.094-0.063,0.168-0.156,0.236-0.255
			c0.112-0.159,0.158-0.34,0.104-0.401c-0.054-0.061-0.426,0.199-0.904,0.476c-1.412,0.813-2.963,0.693-4.584,0.373
			c-2.422-0.479-4.875-0.831-7.354-0.563c-0.793,0.086-1.65,0.246-2.325,0.636c-1.802,1.041-3.6,2.107-4.984,3.738
			c-0.438,0.517-0.954,0.966-1.497,1.443c-0.416,0.364-0.886,0.24-1.12-0.26c-0.808-1.727-2.055-2.967-3.606-3.925
			c-1.013-0.625-2.081-1.165-3.149-1.692c-2.662-1.317-5.197-2.787-7.229-5.034c-0.934-1.033-1.58-2.059-1.503-3.524
			c0.063-1.22,0.217-1.457,1.415-1.287c0.06,0.008,0.12,0.012,0.182,0.015c0.102,0.004,0.082-0.297-0.038-0.674
			c-0.075-0.234-0.139-0.462-0.166-0.694c-0.031-0.256,0.08-0.65,0.266-0.774c0.171-0.114,0.55,0,0.796,0.107
			c0.14,0.062,0.264,0.158,0.402,0.275c0.206,0.174,0.372-0.14,0.484-0.68c0.145-0.692,0.446-1.237,1.04-1.54
			c0.492-0.251,0.822-0.679,0.74-1.225c-0.031-0.212-0.042-0.422-0.013-0.632c0.077-0.547,0.677-0.609,0.988-0.263
			c0.31,0.346,0.667,0.185,0.661-0.367c-0.017-1.099-0.425-2.103-0.793-3.183c-0.179-0.523,0.136-0.844,0.671-0.707
			c0.508,0.131,0.993,0.255,1.488,0.382c0.534,0.137,0.879-0.19,0.778-0.733c-0.113-0.622-0.224-1.202-0.416-1.752
			c-0.269-0.77-0.66-1.526-1.142-2.184c-0.463-0.633-0.422-1.123,0.339-1.421c0.11-0.043,0.223-0.078,0.343-0.113
			c0.192-0.056,0.095-0.383-0.219-0.729c-0.312-0.346-0.175-0.846,0.284-1.154c0.628-0.422,1.175-0.894,1.541-1.533
			c0.273-0.479-0.084-0.92-0.636-0.906c-0.382,0.009-0.744,0.009-1.104-0.037c-1.208-0.154-1.548-0.794-1.161-1.944
			c0.066-0.197-0.004-0.438-0.004-0.659c0-0.312-0.119-0.758,0.038-0.907c0.271-0.256,0.712-0.345,1.094-0.466
			c0.106-0.034,0.253,0.083,0.387,0.103c0.074,0.011,0.151,0.011,0.244,0.009c0.137-0.003-0.062-0.339-0.528-0.633
			c-0.513-0.323-1.061-0.502-1.662-0.574c-0.807-0.096-1.614-0.194-2.418-0.309c-0.596-0.085-0.776-0.448-0.572-0.993
			c0.246-0.659,0.583-1.293,0.756-1.969c0.06-0.233,0.065-0.481,0.056-0.732c-0.016-0.407-0.129-0.722-0.24-0.68
			c-0.105,0.04-0.142,0.08-0.168,0.127c-0.375,0.672-0.745,1.429-1.681,1.26c-0.978-0.177-1.142-1.048-1.308-1.857
			c-0.037-0.184-0.021-0.379-0.047-0.567c-0.044-0.319-0.091-0.637-0.139-0.96c-0.078-0.53-0.362-0.607-0.635-0.173
			c-0.172,0.274-0.346,0.526-0.557,0.742c-0.534,0.545-1.261,0.555-1.876,0.169c-0.312-0.196-0.654-0.664-0.641-0.994
			c0.03-0.663,0.579-0.989,1.221-1.104c0.008-0.001,0.015-0.015,0.022-0.034c0.009-0.021-0.282-0.422-0.815-0.565
			c-0.502-0.135-1.025-0.015-1.551,0.106c-0.538,0.123-1.024-0.264-1.073-0.791C36.523,2.73,36.207,2.569,35.867,2.9
			c-0.222,0.216-0.426,0.404-0.652,0.557c-0.5,0.337-1.131,0.324-1.468-0.166c-0.248-0.36-0.338-0.956-0.24-1.388
			c0.091-0.403,0.502-0.747,0.807-1.086c0.143-0.159,0.299-0.306,0.47-0.461c0.27-0.244,0.037-0.428-0.506-0.329
			c-1.27,0.232-2.19,0.779-3.108,1.703c-0.702,0.706-1.468,1.359-2.266,1.956c-0.46,0.344-0.992,0.223-1.381-0.235
			c-0.364-0.428-0.364-0.881-0.046-1.341c0.129-0.185,0.255-0.372,0.385-0.565c0.21-0.313-0.088-0.648-0.606-0.456
			c-0.634,0.234-0.956,0.786-1.227,1.411c-0.219,0.507-0.464,0.503-0.72,0.049c-0.257-0.453-0.527-0.334-0.698,0.172
			c-0.098,0.289-0.252,0.589-0.497,0.818c-0.244,0.228-0.438,0.523-0.584,0.805c-0.255,0.49-0.657,1.27-1.017,1.69
			c-0.057,0.067-0.113,0.133-0.17,0.199c-0.358,0.42-0.604,0.802-0.548,0.853c0.056,0.051,0.308,0.012,0.562-0.089
			s0.292,0.241-0.075,0.653C22.01,7.954,21.709,8.232,21.5,8.57c-0.293,0.469,0.085,0.679,0.526,0.347
			c0.018-0.013,0.034-0.025,0.051-0.038c0.441-0.332,0.662-0.176,0.492,0.35c-0.004,0.011-0.007,0.022-0.011,0.033
			c-0.17,0.526-0.257,0.968-0.194,0.989s0.263-0.143,0.449-0.362c0.113-0.132,0.229-0.262,0.353-0.382
			c0.049-0.047,0.12-0.07,0.196-0.087c0.118-0.026,0.242,0.041,0.279,0.151c0.025,0.076,0.043,0.148,0.02,0.204
			c-0.308,0.747-0.587,1.513-0.982,2.213c-0.812,1.439-1.639,2.877-2.56,4.247c-0.734,1.093-1.104,2.1-0.335,3.347
			c0.284,0.461,0.497,0.831,1.05,1.009c0.415,0.133,0.908,0.375,1.119,0.719c0.442,0.722,0.991,1.022,1.811,0.931
			c0.1-0.011,0.202,0.003,0.307,0.024c0.168,0.034,0.248,0.278,0.181,0.545c-0.068,0.267,0.072,0.363,0.313,0.215
			c0.242-0.148,0.484-0.24,0.543-0.205c0.059,0.035,0.017,0.331-0.093,0.66c-0.109,0.329,0.055,0.436,0.364,0.24
			c0.311-0.196,0.67-0.571,0.804-0.837c0.134-0.266,0.182-0.762,0.104-1.109c-0.048-0.212-0.103-0.42-0.184-0.617
			c-0.264-0.639-0.446-1.201,0.248-1.719c0.43-0.321,0.79-0.742,1.155-1.143c0.287-0.315,0.539-0.453,0.969-0.201
			c0.654,0.384,1.34,0.349,2.014-0.022c0.127-0.07,0.262-0.125,0.399-0.175c0.227-0.083,0.172,0.228-0.13,0.691
			c-1.022,1.567-2.071,3.052-3.156,4.51c-1.48,1.991-2.445,4.2-3.015,6.606c-0.104,0.442-0.359,0.913-0.684,1.229
			c-1.673,1.63-2.901,3.498-3.368,5.818c-0.012,0.056-0.034,0.11-0.063,0.179c-0.041,0.096-0.23,0.067-0.425-0.064
			c-0.121-0.082-0.236-0.16-0.351-0.237c-2.737-1.855-5.476-3.71-8.212-5.567c-0.494-0.336-1.021-0.59-1.583-0.223
			c-1.077,0.703-1.907,1.501-1.804,3.005c0.318,4.597,0.529,9.202,0.816,13.801c0.043,0.693,0.233,1.385,0.414,2.062
			c0.188,0.707,0.606,1.142,1.427,0.931c0.554-0.144,0.861,0.112,1.038,0.632c0.271,0.794,0.536,1.594,0.874,2.36
			c0.538,1.225,1.506,1.291,2.269,0.181c0.971-1.415,1.239-2.98,0.952-4.656c-0.007-0.038,0.004-0.078,0.018-0.127
			c0.021-0.068,0.177-0.08,0.353-0.026c0.176,0.055,0.101-0.29-0.295-0.677c-0.033-0.033-0.066-0.066-0.098-0.102
			c-0.367-0.412-0.385-0.991-0.683-1.078c-0.298-0.087-0.573-0.769-0.064-0.984c0.121-0.051,0.259-0.068,0.409-0.067
			c0.552,0.007,0.661-0.186,0.252-0.557c-0.153-0.14-0.304-0.276-0.452-0.41c-0.409-0.371-0.54-0.9-0.292-1.182
			c0.249-0.282,0.179-0.529-0.156-0.545c-0.223-0.011-0.422-0.032-0.592-0.114c-0.662-0.315-1.521-0.586-1.857-1.142
			c-0.631-1.045-0.699-2.226-0.623-3.445c0.033-0.551,0.144-0.96,0.221-0.919c0.06,0.032,0.101,0.055,0.128,0.088
			c2.012,2.416,4.059,4.803,6.011,7.266c0.885,1.118,1.063,2.48,0.921,3.917c-0.129,1.309-0.183,2.643-0.085,3.951
			c0.106,1.432,0.828,1.98,2.277,2.104c0.26,0.021,0.55,0.156,0.749,0.328c0.673,0.583,1.311,1.207,1.964,1.814
			c0.396,0.369,0.661,0.204,0.886-0.208c0.79-1.449,0.726-2.917,0.035-4.363c-0.35-0.731-0.949-1.371-1.167-2.13
			c-0.07-0.245-0.152-0.455-0.246-0.628c-0.18-0.326-0.513-0.73-0.572-1.041c-0.041-0.213-0.081-0.39-0.157-0.549
			c-0.224-0.469-0.299-0.912-0.211-1.306c0.122-0.54,0.57-0.715,0.627-0.572c0.036,0.089,0.066,0.176,0.082,0.266
			c0.881,5.323,4.568,8.194,9.056,10.363c0.164,0.079,0.375,0.055,0.555,0.11c1.755,0.551,3.511,1.099,5.258,1.672
			c0.426,0.14,0.639,0.439,0.545,0.946c-0.146,0.799-0.216,1.61-0.343,2.414c-0.469,2.981-0.487,5.926,0.506,8.836
			c0.743,2.178,1.306,4.419,2.073,6.589c0.762,2.154,0.321,3.953-1.312,5.466c-1.711,1.584-3.475,3.112-5.213,4.666
			c-0.859,0.77-1.793,1.375-2.003,2.75c-0.164,1.074-0.885,2.076-1.425,3.074c-0.329,0.606-0.203,0.812,0.441,1.019
			c1.565,0.499,3.12,0.177,4.681,0.073c0.119-0.008,0.284-0.091,0.337-0.188c0.395-0.736,0.761-1.488,1.15-2.228
			c0.086-0.162,0.18-0.32,0.276-0.477c0.159-0.26,0.422-0.297,0.585-0.085c0.098,0.128,0.197,0.255,0.298,0.381
			c0.016,0.019,0.052,0.021,0.12,0.028c0.069,0.009,0.195-0.268,0.283-0.619c0.089-0.353,0.205-0.649,0.26-0.664
			c0.056-0.017,0.215,0.23,0.355,0.552s0.298,0.591,0.352,0.604c0.055,0.014,0.162-0.419,0.24-0.966
			c0.024-0.175,0.05-0.352,0.075-0.53c0.078-0.547,0.241-0.936,0.363-0.868c0.122,0.065,0.3-0.321,0.396-0.865
			c0.079-0.45,0.164-0.884,0.296-1.304c0.132-0.417,0.408-0.878,0.757-1.121c1.22-0.855,2.499-1.626,3.759-2.424
			c0.08-0.05,0.165-0.092,0.252-0.131c0.144-0.064,0.027,0.267-0.276,0.728c-0.743,1.128-1.531,2.191-2.3,3.271
			c-0.636,0.893-1.391,1.656-1.342,2.969c0.031,0.83-0.628,1.682-0.952,2.532c-0.309,0.813-0.084,1.213,0.761,1.249
			c0.999,0.043,2.001,0.019,3.001-0.006c0.806-0.019,1.309-0.483,1.761-1.129c0.307-0.435,0.163-1.458,1.214-1.128
			c0.042,0.013,0.159-0.139,0.206-0.233c0.093-0.186,0.182-0.375,0.271-0.565c0.146-0.314,0.365-0.536,0.491-0.495
			c0.125,0.042,0.194-0.272,0.153-0.7c-0.04-0.428-0.002-0.822,0.086-0.882c0.088-0.059,0.271,0.108,0.407,0.374
			c0.136,0.266,0.3,0.448,0.362,0.407c0.063-0.041,0.062-0.52-0.002-1.067c-0.01-0.086-0.02-0.172-0.029-0.259
			c-0.063-0.549,0.071-0.965,0.304-0.931c0.229,0.033,0.397-0.309,0.374-0.764c-0.016-0.277-0.035-0.551-0.075-0.82
			c-0.147-0.979-0.053-1.92,0.57-2.698c0.445-0.56,0.988-1.062,1.559-1.497c0.686-0.524,0.826-1.152,0.596-1.919
			c-0.249-0.83-0.627-1.641-0.743-2.487c-0.128-0.917-0.267-1.961,0.046-2.782c0.513-1.352,1.404-2.557,2.097-3.847
			c0.56-1.044,1.229-2.074,1.542-3.196c0.464-1.658,0.623-3.398,0.975-5.091c0.186-0.885,0.302-1.896,0.814-2.573
			c0.688-0.902,1.671-1.627,2.638-2.257c0.961-0.626,1.941-0.174,2.809,0.397c0.78,0.514,1.086,1.249,0.868,2.183
			c-0.034,0.151-0.056,0.305-0.075,0.486c-0.031,0.269,0.328,0.232,0.643-0.222c0.27-0.387,0.396-0.805,0.439-1.264
			c0.077-0.81,0.139-1.621,0.187-2.433c0.025-0.435,0.216-0.611,0.66-0.623c1.422-0.037,2.687,0.159,3.744,1.326
			c1.12,1.234,2.35,2.386,4.167,2.639c0.587,0.081,1.104,0.03,1.61-0.148c0.521-0.183,0.442-0.435-0.104-0.52
			c-1.107-0.172-1.883-0.636-2.35-1.403c-0.287-0.472,0.07-0.91,0.614-0.812c1.248,0.223,2.358,0.771,3.386,1.652
			c0.419,0.36,0.726,0.378,0.732-0.007c0.006-0.267,0.007-0.482-0.019-0.695c-0.078-0.659,0.175-0.963,0.799-1.265
			c1.209-0.585,2.375-1.288,3.473-2.064c1.248-0.886,2.164-2.305,3.653-2.651c0.538-0.126,0.907-0.291,0.801-0.571
			C86.677,51.721,86.152,51.401,85.606,51.316z"/>
	</g>
</g>
<g>
</g>
<g>
</g>
<g>
</g>
<g>
</g>
<g>
</g>
<g>
</g>
<g>
</g>
<g>
</g>
<g>
</g>
<g>
</g>
<g>
</g>
<g>
</g>
<g>
</g>
<g>
</g>
<g>
</g>
</svg>
