<?xml version="1.0" encoding="iso-8859-1"?>
<!-- Generator: Adobe Illustrator 16.0.0, SVG Export Plug-In . SVG Version: 6.00 Build 0)  -->
<!DOCTYPE svg PUBLIC "-//W3C//DTD SVG 1.1//EN" "http://www.w3.org/Graphics/SVG/1.1/DTD/svg11.dtd">
<svg version="1.1" id="Capa_1" xmlns="http://www.w3.org/2000/svg" xmlns:xlink="http://www.w3.org/1999/xlink" x="0px" y="0px"
	 width="93.93px" height="93.93px" viewBox="0 0 93.93 93.93" style="enable-background:new 0 0 93.93 93.93;" xml:space="preserve"
	>
<g>
	<g>
		<path d="M34.346,47.301c-0.181-0.699-0.363-0.984-0.626-0.984c-0.377,0-0.437,0.52-0.445,1.08
			c-0.046,3.151,0.858,6.276,2.847,9.836c0.717,1.283,1.525,2.539,2.306,3.756c0.919,1.431,1.87,2.91,2.671,4.432
			c0.726,1.378,1.244,2.905,1.746,4.383l0.043,0.129c0.253,0.746,0.373,1.299,0.399,1.578c-0.281-0.156-0.824-0.547-1.45-1.111
			l-1.998-1.805c-0.349-0.314-0.728-0.481-1.094-0.481c-0.614,0-1.092,0.452-1.279,1.21l-0.689,2.802
			c-0.131,0.532-0.297,0.642-0.335,0.642c-0.05,0-0.225-0.104-0.423-0.586l-0.06-0.146c-0.531-1.29-0.99-2.404-1.374-3.534
			c-0.361-1.064-0.66-2.145-0.959-3.248c-0.186-0.686-0.37-0.964-0.636-0.964c-0.389,0-0.446,0.555-0.451,1.097
			c-0.052,6.117,1.353,11.406,4.292,15.865c0.462,0.698,1.316,1.832,1.81,1.832c0,0,0.001,0,0.002,0
			c0.567,0,0.337-1.924,0.337-2.592l0,0v-6.996l0,0c0-0.905,0.268-1.489,0.358-1.703c0.219,0.177,0.753,0.764,1.125,1.586
			c2.629,5.831,2.073,12.146,1.5,18.252l-0.089,1.155c-0.066,0.72,0.043,0.932,0.138,1.034c0.065,0.072,0.158,0.111,0.251,0.111
			c0.25,0,0.458-0.254,0.714-0.878c2.968-7.222,4.354-13.405,4.358-19.463c0.002-3.503-0.42-7.976-3.737-11.5
			C39.711,57.958,35.9,53.307,34.346,47.301z M38.416,68.422c-0.217,0.086-0.404,0.26-0.542,0.516
			C38.012,68.682,38.199,68.508,38.416,68.422z M37.019,72.182c0.236-0.959,0.457-1.852,0.69-2.802
			C37.475,70.33,37.255,71.221,37.019,72.182c-0.131,0.537-0.334,0.814-0.557,0.832C36.684,72.996,36.887,72.718,37.019,72.182z
			 M33.108,65.38c0.079,0.294,0.165,0.582,0.247,0.872c-0.085-0.29-0.174-0.578-0.254-0.872c-0.028-0.104-0.121-0.185-0.121-0.258
			c0-0.013,0-0.031,0-0.043C32.98,65.159,33.075,65.258,33.108,65.38z M37.03,80.961c-3.071-4.656-4.294-9.908-4.246-15.577
			c0.005-0.556,0.083-0.839,0.197-0.847c-0.111,0.015-0.188,0.298-0.192,0.847c-0.048,5.669,1.18,10.921,4.251,15.577
			c0.608,0.922,1.328,1.604,1.553,1.577C38.368,82.564,37.638,81.883,37.03,80.961z M42.39,92.829l0.107-1.153
			c0.579-6.172,1.177-12.553-1.506-18.504c-0.361-0.801-0.978-1.928-1.45-1.928c0.473,0,1.141,1.127,1.502,1.928
			c2.683,5.951,2.058,12.332,1.479,18.504l-0.12,1.153c-0.013,0.14-0.023,0.249-0.024,0.338c-0.002,0.004-0.005,0.013-0.008,0.017
			C42.372,93.093,42.376,92.977,42.39,92.829z M42.749,92.958c-0.21,0.513-0.388,0.749-0.5,0.719
			c0.113,0.024,0.289-0.212,0.498-0.719c2.549-6.202,4.334-12.571,4.339-19.369c0.002-4.159-0.664-8.135-3.668-11.329
			c-3.151-3.349-6.042-6.847-7.908-10.947c1.867,4.101,4.758,7.599,7.909,10.947c3.004,3.194,3.672,7.17,3.669,11.329
			C47.082,80.387,45.297,86.757,42.749,92.958z"/>
		<path d="M26.84,23.84c1.235-1.652,2.542-3.296,3.806-4.886l0.308-0.387c0.328-0.412,1.358-1.789,0.863-2.204
			c-0.046-0.039-0.127-0.086-0.247-0.086c-0.533,0-1.477,1.022-1.754,1.336c-0.31,0.351-0.622,0.701-0.934,1.051
			c-1.696,1.901-3.449,3.867-4.868,6.013c-1.667,2.521-3.57,4.992-6.879,5.135c-0.523,0.023-1.069,0.095-1.146,0.459
			c-0.075,0.354,0.363,0.624,0.8,0.84c0.896,0.442,1.646,0.676,2.362,0.734c0.855,0.073,1.729-0.083,2.528-0.255
			c0.463-0.1,0.842-0.007,1.047,0.253c0.178,0.226,0.222,0.571,0.125,0.971c-1.97,8.114-2.405,13.983-1.369,18.47
			c0.151,0.655,0.37,0.974,0.667,0.974c0.483,0,0.569-0.81,0.598-1.076c0.517-4.849,0.816-6.542,1.679-7.691
			c0.192-0.255,0.417-0.39,0.65-0.39c0.375,0,0.71,0.35,0.836,0.872c1.666,6.895,3.018,14.349,1.644,22.145
			c-0.138,0.783-0.066,0.854,0.02,0.955l0.11,0.01h0.117c0.194,0,0.359-0.042,0.676-0.771c3.732-8.58,3.842-17.836,0.355-30.118
			c-0.207-0.727-0.688-1.136-1.287-1.136c-0.385,0-0.775,0.193-1.129,0.536l-1.284,1.252c-0.722,0.701-1.289,1.081-1.487,1.183
			c-0.016-0.235,0.055-0.829,0.332-1.689l2.463-7.646c0.208-0.645,0.195-1.174-0.037-1.493c-0.211-0.289-0.585-0.371-1.009-0.208
			c-0.125,0.049-0.206,0.059-0.302,0.051c-0.027-0.033-0.061-0.295,0.292-0.902C25.891,25.275,26.327,24.526,26.84,23.84z"/>
		<path d="M33.745,23.986l2.143-0.589c0.171-0.047,0.325-0.071,0.456-0.071c0.13,0,0.298,0.023,0.362,0.135
			c0.083,0.145,0.016,0.431-0.18,0.766l-3.194,5.466c-0.271,0.463-0.55,1.091-0.345,1.45c0.081,0.14,0.226,0.221,0.397,0.221
			c0.117,0,0.246-0.035,0.393-0.107c0.491-0.24,0.835-0.488,1.083-0.78l0.475-0.561c1.919-2.265,3.904-4.605,5.525-7.133
			c0.532-0.83,1.003-1.716,1.458-2.573c0.836-1.574,1.701-3.201,2.971-4.526c0.307-0.32,0.607-0.437,0.773-0.258
			c0.128,0.139,0.185,0.417,0.158,0.765l-0.201,2.507c-0.056,0.697-0.115,1.905,0.117,2.156l0.109,0.1l0.117-0.006
			c0.111-0.005,0.407-0.021,1.135-2.062l0.593-1.662c0.296-0.831,0.988-0.977,1.564-0.336c0.349,0.39,0.779,0.604,1.209,0.604
			c0.574,0,1.079-0.364,1.404-1.037c0.979-2.023,0.755-2.134,0.575-2.223l-0.137-0.031c-0.311,0-0.92,0.542-1.168,0.775
			c-0.339,0.319-1.163-0.039-1.727-0.742l-0.662-0.824c-0.744-0.927-2.188-1.096-3.163-0.314c-1.219,0.977-2.479,1.987-3.477,3.21
			c-1.028,1.262-1.792,2.698-2.601,4.218l-0.136,0.256c-0.253,0.476-0.505,0.645-0.644,0.645c-0.131,0-0.259-0.165-0.342-0.441
			c-0.305-1.005-1.159-1.664-1.896-1.457c-0.138,0.038-0.244,0.002-0.331-0.112c-0.138-0.181-0.239-0.613-0.069-1.235
			c1.477-5.397,5.925-8.75,11.609-8.75c0.378,0,0.766,0.015,1.15,0.044c1.332,0.103,2.27-0.37,2.306-1.135
			c0.011-0.236,0.097-0.489,0.306-0.489c0.08,0,0.173,0.033,0.271,0.095c0.622,0.396,1.3,0.403,1.486,0.014
			c0.312-0.646-1.34-1.524-1.675-1.694l-1.404-0.711c-0.771-0.391-1.5-0.633-1.9-0.633c-0.208,0-0.354,0.065-0.432,0.196
			c-0.235,0.402,0.207,1.225,0.506,1.649c0.07,0.099,0.179,0.289,0.105,0.438c-0.067,0.137-0.278,0.228-0.605,0.243
			c-0.649,0-1.499-0.725-1.893-1.615l-2.096-4.741C43.929,0.418,43.358,0,42.737,0c-0.439,0-0.855,0.213-1.17,0.601
			c-1.69,2.077-1.919,4.42-2.01,6.642c-0.029,0.711,0.081,0.92,0.179,1.022c0.067,0.07,0.155,0.108,0.248,0.108
			c0.256,0,0.462-0.257,0.713-0.889l1.22-3.07c0.152-0.382,0.356-0.62,0.532-0.62c0.174,0,0.382,0.23,0.543,0.602l0.699,1.605
			c0.298,0.686,0.46,1.203,0.525,1.499c-0.163-0.125-0.395-0.339-0.655-0.65c-0.376-0.45-0.886-0.985-1.171-0.985l-0.093,0.007
			l-0.06,0.037c-0.083,0.051-0.333,0.205,0.023,1.356c0.125,0.402-0.253,1.402-0.996,2.193l-0.83,0.878
			c-1.586,1.674-3.084,3.255-4.304,5.042c-1.256,1.841-2.212,3.843-3.224,5.962l-0.495,1.033c-0.324,0.671-0.225,1.079-0.084,1.302
			C32.563,24.05,33.084,24.167,33.745,23.986z M51.721,6.628c0.95,0.481,1.413,0.992,1.451,1.07C53.17,7.7,53.159,7.708,53.15,7.715
			c-0.078-0.111-0.528-0.545-1.43-1.002l-1.405-0.881L51.721,6.628z M49.337,7.108c0.016-0.264-0.054-0.572-0.213-0.798
			C49.297,6.555,49.37,6.854,49.337,7.108z M44.149,5.804L43.45,4.198c-0.341-0.785-0.774-0.902-1.002-0.902
			c-0.233,0-0.673,0.122-0.997,0.936l-1.22,3.07c-0.068,0.171-0.125,0.293-0.172,0.381c-0.003-0.049-0.006-0.108-0.007-0.178
			c0,0.069,0.003,0.128,0.007,0.177c0.047-0.087,0.104-0.21,0.172-0.381l1.22-3.07c0.324-0.814,0.763-0.935,0.997-0.935
			c0.228,0,0.661,0.117,1.002,0.902L44.149,5.804c0.223,0.511,0.369,0.906,0.46,1.211C44.518,6.71,44.372,6.315,44.149,5.804z
			 M36.163,19.72c0.208,0.273,0.531,0.381,0.861,0.291c0.474-0.129,1.064,0.395,1.284,1.119c0.218,0.719,0.646,0.796,0.821,0.796
			c0.097,0,0.193-0.02,0.289-0.06c-0.096,0.039-0.192,0.06-0.289,0.06c-0.174,0-0.603-0.078-0.821-0.796
			c-0.22-0.725-0.811-1.249-1.284-1.119C36.693,20.101,36.371,19.993,36.163,19.72c-0.141-0.184-0.226-0.433-0.252-0.72
			C35.937,19.287,36.022,19.535,36.163,19.72z"/>
		<path d="M72.175,39.174c-1.054-1.216-2.144-2.473-3.115-3.772c-1.991-2.66-2.312-5.928-0.835-8.529
			c1.669-2.94,0.231-4.318-1.384-5.479c-1.536-1.104-3.107-2.097-4.628-3.058l-0.096-0.061c-0.652-0.412-1.139-0.426-1.339-0.093
			c-0.15,0.248-0.093,0.632,0.172,1.141l0.26,0.498c0.938,1.788,1.905,3.636,2.144,5.567c0.742,6.022,2.914,11.229,6.641,15.919
			c0.999,1.256,1.801,2.415,2.454,3.543c0.521,0.9,1.009,1.858,1.06,2.774c0.098,1.765,0.076,3.569,0.057,5.313
			c-0.01,0.873-0.021,1.744-0.018,2.614c0.004,1.06-0.175,1.778-0.532,2.138c-0.4,0.402-1.075,0.394-2.031-0.008
			c-0.975-0.41-1.907-0.904-2.781-1.377c-0.146-0.078-1.312-0.701-1.827-0.822c-0.207-0.396-0.845-1.061-1.321-1.482
			c-1.181-1.048-2.063-1.494-2.955-1.494c-0.518,0-1.051,0.158-1.628,0.483c-0.879,0.491-2.011,0.407-2.713-0.218
			c-2.549-2.26-5.734-3.406-8.815-4.517c-1.491-0.538-3.033-1.093-4.484-1.768c-1.425-0.663-2.779-2.404-4.139-5.322
			c-0.54-1.159-0.653-2.508-0.785-4.07l-0.025-0.292c-0.066-0.778-0.187-1.054-0.459-1.054c-0.275,0-0.393,0.277-0.449,1.06
			c-0.642,9.029,2.577,13.265,11.877,15.63c0.662,0.168,1.294,0.433,1.827,0.668l0.882,0.391c0.405,0.182,0.632,0.281,0.77,0.34
			c-0.016,0.006-0.032,0.012-0.031,0.016c0.054,0.229,0.222,0.889,0.405,1.858l0.601,3.088c0.117,0.63,0.044,1.001-0.062,1.13
			c-0.076,0.094-0.104,0.08-0.258-0.002c-0.137-0.074-0.276-0.111-0.418-0.111c-0.619,0-1.095,0.695-1.185,1.729l-0.885,10.233
			c-0.058,0.669-0.13,2.234,0.45,2.328l0.055,0.005c0.562,0,0.874-1.479,0.982-2.113l1.079-6.315
			c0.146-0.856,0.354-1.433,0.485-1.681c0.101,0.248,0.231,0.804,0.278,1.631l0.319,5.616c0.052,0.926,0.359,1.12,0.608,1.12
			c0.302,0,0.554-0.306,0.75-0.907c1.201-3.671,0.756-7.473,0.325-11.148l-0.047-0.408c-0.203-1.738-0.493-3.561-1.589-5.038
			c-0.08-0.108-0.17-0.21-0.259-0.313c-0.005-0.002-0.009-0.004-0.015-0.007c-0.146-0.169-0.293-0.33-0.444-0.474
			c-0.548-0.247-0.915-0.41-0.905-0.403c-0.01-0.007,0.36,0.156,0.909,0.403c0.153,0.146,0.307,0.309,0.455,0.48
			c0.104,0.049,0.214,0.098,0.327,0.149c1.083,0.496,2.146,0.976,3.26,1.381l0.124,0.044c1.897,0.688,3.537,1.282,4.618,3.393
			c0.88,1.718,2.163,2.588,3.813,2.588c0.386,0,0.795-0.049,1.215-0.147c0.412-0.097,0.957-0.271,0.942-0.669
			c-0.011-0.312-0.368-0.521-1.09-0.639c-2.015-0.323-3.483-1.372-4.489-3.208c-0.239-0.437-0.285-0.88-0.121-1.156
			c0.098-0.164,0.248-0.229,0.5-0.25c0.213,0.009,0.419,0.015,0.607,0.015c0.335,0,0.56-0.013,0.717-0.031
			c0.078,0.182,0.22,0.373,0.361,0.535c0.151,0.176,0.303,0.354,0.443,0.539c1.283,1.68,3.067,2.645,4.896,2.645
			c0.815,0,1.614-0.186,2.375-0.553c2.535-1.226,2.441-4.246,2.079-6.74c-0.077-0.528-0.025-1.076,0.034-1.542
			c0.069-0.535,0.164-0.935,0.242-1.177c0.124,0.275,0.304,0.764,0.484,1.447c0.171,0.646,0.345,0.91,0.6,0.91
			c0.386,0,0.441-0.566,0.446-1.123c0.015-1.791-0.107-4.076-1.183-5.852C75.475,42.978,73.797,41.044,72.175,39.174z M52.433,52.65
			c-0.552-0.243-1.17-0.518-1.868-0.693c-8.91-2.268-11.968-6.092-11.521-14.504c0.004,0.051,0.01,0.1,0.015,0.151
			c-0.401,8.304,2.69,12.1,11.544,14.353c0.697,0.177,1.354,0.45,1.905,0.693l0.768,0.408L52.433,52.65z M54.211,53.701
			c0.011,0.029,0.031,0.12,0.064,0.275c0.075,0.352,0.199,0.976,0.335,1.689c-0.136-0.715-0.326-1.339-0.401-1.689
			c-0.039-0.182-0.032-0.295-0.039-0.3C54.169,53.675,54.192,53.689,54.211,53.701z M60.716,53.426
			c-0.396,0.223-0.839,0.348-1.279,0.374C59.877,53.771,60.318,53.648,60.716,53.426c0.509-0.285,0.948-0.419,1.384-0.419l0,0
			C61.664,53.007,61.226,53.141,60.716,53.426z M63.732,56.034c-0.258,0.437-0.215,1.053,0.113,1.651
			c1.085,1.979,2.671,3.111,4.849,3.461c0.318,0.052,0.503,0.115,0.601,0.162c-0.078,0.043-0.224,0.104-0.487,0.166
			c-0.493,0.115-0.958,0.155-1.395,0.121c0.434,0.032,0.896-0.008,1.384-0.121c0.265-0.062,0.415-0.123,0.493-0.166
			c-0.097-0.047-0.28-0.11-0.598-0.162c-2.177-0.35-3.762-1.48-4.847-3.461C63.517,57.087,63.475,56.471,63.732,56.034
			c0.187-0.315,0.513-0.496,0.896-0.496l0,0C64.246,55.538,63.919,55.719,63.732,56.034z M61.946,18.759l-0.097-0.061
			c-0.183-0.115-0.319-0.179-0.418-0.214c0.099,0.035,0.235,0.098,0.418,0.213L61.946,18.759c1.514,0.956,3.079,1.945,4.604,3.041
			c1.173,0.842,1.889,1.593,1.933,2.615c-0.044-1.022-0.76-1.774-1.933-2.615C65.024,20.705,63.459,19.716,61.946,18.759z
			 M66.15,55.836l-0.17-0.046v-0.026c1,0.112,1.186,0.396,1.868,0.764c0.92,0.496,1.961,0.982,2.92,1.386
			c-0.959-0.403-2.061-0.89-2.979-1.386C67.222,56.221,66.785,55.975,66.15,55.836z M67.189,56.795
			c-0.148-0.193-0.306-0.382-0.464-0.564c-0.042-0.049-0.08-0.096-0.112-0.14l0,0c0.032,0.044,0.069,0.089,0.111,0.138
			c0.159,0.185,0.315,0.371,0.464,0.564c1.188,1.557,2.827,2.447,4.499,2.447c0.739,0,1.466-0.169,2.158-0.503
			c1.668-0.806,2.049-2.505,1.984-4.343c0.066,1.843-0.312,3.543-1.984,4.351c-0.691,0.334-1.417,0.499-2.158,0.499
			C70.017,59.244,68.376,58.352,67.189,56.795z M75.93,50.873c-0.071,0.545-0.111,1.086-0.035,1.611
			c0.369,2.529,0.418,5.339-1.94,6.478c-0.604,0.292-1.229,0.459-1.857,0.511c0.622-0.054,1.243-0.222,1.843-0.511
			c2.357-1.139,2.315-3.948,1.946-6.478c-0.075-0.524-0.032-1.065,0.039-1.611c0.114-0.885,0.331-1.602,0.473-1.604h0.001
			C76.257,49.275,76.042,49.99,75.93,50.873z M77.449,50.961c0.013-1.725-0.101-3.919-1.11-5.586
			c-1.271-2.098-2.933-4.017-4.541-5.872c-1.06-1.222-2.155-2.487-3.139-3.8c-1.32-1.763-1.945-3.783-1.844-5.728
			c-0.102,1.945,0.523,3.964,1.844,5.727c0.983,1.313,2.079,2.577,3.139,3.799c1.607,1.855,3.271,3.772,4.541,5.87
			C77.35,47.04,77.462,49.234,77.449,50.961C77.449,50.96,77.449,50.96,77.449,50.961z M77.52,51.835
			c0.104-0.028,0.175-0.319,0.179-0.872c0.017-2.064-0.18-4.126-1.146-5.721c-2.118-3.498-5.219-6.386-7.692-9.69
			c2.474,3.304,5.575,6.192,7.692,9.69c0.967,1.595,1.163,3.656,1.146,5.721C77.694,51.516,77.623,51.809,77.52,51.835z"/>
		<path d="M47.246,24.95c-0.465,0-0.936,0.017-1.406,0.035c-0.851,0.031-1.729,0.052-2.395-0.003
			c-0.192-0.016-0.356-0.024-0.49-0.024c-0.194,0-0.598,0-0.68,0.295c-0.079,0.283,0.201,0.515,0.744,0.845l0.214,0.129
			c1.203,0.728,2.339,1.415,2.907,2.409c0.936,1.637,2.003,2.399,3.36,2.399c0.561,0,1.172-0.125,1.984-0.406
			c0.618-0.214,1.127-0.708,1.363-1.32c0.21-0.546,0.179-1.113-0.088-1.598C51.424,25.284,49.32,24.95,47.246,24.95z"/>
		<path d="M55.626,11.538l2.607,1.873c0.715,0.514,1.619,1.125,1.862,1.125l0.105-0.003l0.07-0.061
			c0.167-0.145,0.288-0.25-0.997-1.829c-0.556-0.682-0.726-1.771-0.373-2.379c0.255-0.439,0.315-0.798,0.177-1.039
			c-0.054-0.093-0.187-0.25-0.475-0.25c-0.123,0-0.264,0.029-0.417,0.087c-0.407,0.152-0.868,0.251-1.086,0.239
			c0.042-0.236,0.252-0.831,0.72-1.666l2.146-3.833c0.498-0.889,0.931-1.424,1.084-1.584c0.1,0.215,0.251,0.797,0.316,1.702
			l0.198,2.749c0.069,0.973,0.434,1.118,0.645,1.118c0.22,0,0.525-0.161,0.737-0.927c0.616-2.227,0.229-4.323-1.119-6.063
			c-0.317-0.41-0.758-0.635-1.241-0.635c-0.626,0-1.232,0.382-1.584,0.996l-4.083,7.149C54.313,9.372,54.629,10.822,55.626,11.538z"
			/>
		<path d="M68.263,50.044c0.627,0.261,1.188,1.087,1.223,1.806c0.037,0.73,0.431,0.787,0.551,0.787c0.355,0,0.666-0.387,0.853-1.062
			c0.437-1.583-0.055-2.942-1.641-4.546c-0.337-0.341-0.732-0.521-1.144-0.521c-0.628,0-1.197,0.433-1.491,1.143
			c-0.583,1.408-1.134,2.738-1.195,4.107c-0.029,0.676,0.536,1.334,1.153,1.943c1.328,1.314,1.585,1.314,1.669,1.314l0.171-0.014
			l0.072-0.125c0.047-0.082,0.17-0.298-0.674-2.249l-0.503-1.159c-0.4-0.922-0.502-1.566-0.476-1.759
			c0.021-0.003,0.051-0.006,0.093-0.006C67.238,49.705,67.775,49.842,68.263,50.044z"/>
		<path d="M65.903,42.787l-3.849-2.637c-0.555-0.379-1.12-0.615-1.478-0.615c-0.233,0-0.347,0.1-0.4,0.184
			c-0.042,0.066-0.1,0.208-0.006,0.412c0.155,0.339,0.405,0.544,0.629,0.7c2.11,1.471,3.896,3.28,2.691,6.524
			c-0.171,0.461-0.138,0.978-0.034,1.609c0.107,0.655,0.438,0.753,0.626,0.753c0.426,0,0.798-0.512,1.036-0.94l1.542-2.783
			C67.256,44.919,66.917,43.48,65.903,42.787z"/>
	</g>
</g>
<g>
</g>
<g>
</g>
<g>
</g>
<g>
</g>
<g>
</g>
<g>
</g>
<g>
</g>
<g>
</g>
<g>
</g>
<g>
</g>
<g>
</g>
<g>
</g>
<g>
</g>
<g>
</g>
<g>
</g>
</svg>
