<?xml version="1.0" encoding="iso-8859-1"?>
<!-- Generator: Adobe Illustrator 16.0.0, SVG Export Plug-In . SVG Version: 6.00 Build 0)  -->
<!DOCTYPE svg PUBLIC "-//W3C//DTD SVG 1.1//EN" "http://www.w3.org/Graphics/SVG/1.1/DTD/svg11.dtd">
<svg version="1.1" id="Capa_1" xmlns="http://www.w3.org/2000/svg" xmlns:xlink="http://www.w3.org/1999/xlink" x="0px" y="0px"
	 width="582.057px" height="582.057px" viewBox="0 0 582.057 582.057" style="enable-background:new 0 0 582.057 582.057;"
	 xml:space="preserve">
<g>
	<g>
		<path d="M580.851,241.697c-1.199-9.812-2.453-19.949-5.349-29.796c-4.463-15.167-11.686-28.366-18.164-39.259
			c-4.699-7.915-11.23-13.27-16.999-17.472l-0.349-0.272c-0.443-0.378-1.005-0.833-1.768-1.005
			c-6.992-1.572-10.61-6.845-14.286-13.068c-5.284-8.926-12.934-16.491-22.118-21.87c-7.82-4.575-10.415-11.349-11.91-20.103
			c-0.131-0.75-0.414-1.418-0.668-2.01c-0.095-0.236-0.201-0.467-0.284-0.703c-0.147-0.39-0.438-0.703-0.815-0.863
			c-0.385-0.165-0.804-0.165-1.188-0.012c-0.242,0.106-0.502,0.184-0.763,0.272c-0.762,0.249-1.631,0.526-2.334,1.182
			c-1.035,0.976-1.98,2.045-2.873,3.074c-0.573-0.81-1.135-1.625-1.702-2.429c-2.016-2.902-4.108-5.894-6.419-8.642
			c-7.359-8.777-17.779-13.666-31.859-14.942l-1.448-0.13c-3.54-0.331-7.199-0.662-10.834-0.698
			c-8.222-0.071-15.084-3.972-21.261-8.174c-2.891-1.975-5.361-2.353-7.867-1.277c-2.654,1.123-5.303,1.667-8.11,1.667
			c-5.29,0-10.468-1.998-15.267-4.155c-7.637-3.428-15.498-2.376-24.164,3.363c-0.484,0.319-0.969,0.645-1.406,1.017
			c-3.499,2.967-6.053,3.901-10.386,0.792c-5.993-4.314-14.41-5.337-22.691-2.831c-10.627,3.222-21.733,4.788-33.948,4.788
			c-2.19,0-4.389-0.048-6.59-0.148c-10.241-0.508-18.92,3.157-25.676,10.723c-5.539,6.2-12.868,8.381-21.185,10.409
			c-6.186,1.507-12.389,3.328-18.379,5.083c-2.695,0.786-5.382,1.584-8.074,2.346c-9.014,2.553-17.711,7.134-27.373,14.422
			c-0.629,0.479-1.342,0.792-1.803,0.792l0,0c-13.314-0.414-26.678,2.896-42.732,10.61c-6.665,3.204-13.225,7.513-18.979,12.466
			c-3.638,3.139-6.076,7.944-8.166,12.678c-5.757,13.045-9.171,26.983-12.475,40.459c-1.507,6.165-3.068,12.531-4.829,18.708
			c-1.895,6.662-2.991,13.619-4.049,20.345c-0.503,3.174-0.999,6.343-1.582,9.493c-1.132,6.135-2.293,12.271-3.487,18.4
			l-1.844,9.582c-1.604,8.399-3.269,17.07-5.104,25.564c-2.663,12.318-6.954,25.08-13.116,39.005c-1.07,2.411-2.11,4.847-3.159,7.27
			c-3.136,7.282-6.378,14.818-10.217,21.835c-8.163,14.913-16.739,27.585-26.232,38.739c-3.709,4.355-7.521,8.629-11.331,12.903
			c-1.995,2.246-3.993,4.485-5.979,6.731c-0.745,0.852-1.144,1.845-1.253,3.133c-0.047,0.532,0.189,1.047,0.624,1.359
			c0.435,0.32,0.999,0.379,1.484,0.16c1.197-0.514,2.415-0.993,3.623-1.478c2.684-1.058,5.456-2.157,8.021-3.617
			c9.472-5.391,17.989-10.285,26.318-15.788c12.025-7.95,22.467-18.075,32.568-27.857l4.539-4.397
			c4.522-4.362,9.2-8.872,13.666-13.453c6.085-6.229,11.677-13.642,17.602-23.317c1.974-3.222,3.984-6.426,5.988-9.635
			c5.313-8.488,10.808-17.271,15.578-26.273c3.287-6.212,5.787-12.921,8.195-19.405c0.813-2.181,1.623-4.362,2.465-6.525
			c0.44,18.441-2.095,34.607-7.737,49.378c-2.409,6.313-4.655,11.432-7.752,15.889c-8.449,12.123-19.695,20.682-33.434,25.434
			c-1.224,0.432-2.524,0.964-3.759,1.975c-0.473,0.379-0.665,1.011-0.497,1.596c0.168,0.586,0.677,1.011,1.277,1.076
			c11.088,1.276,22.015-0.662,33.26-5.911c-0.432,0.396-0.86,0.804-1.289,1.2c-9.176,8.494-20.108,14.925-30.671,21.125
			c-2.554,1.508-5.113,3.009-7.648,4.539c-11.629,7.028-22.455,16.013-33.104,27.45c-1.197,1.288-2.45,2.542-3.703,3.794
			c-2.713,2.72-5.515,5.521-7.784,8.707c-5.35,7.513-9.969,14.913-13.74,22.012c-6.694,12.607-11.585,25.352-14.532,37.87
			c-2.003,8.5-3.366,17.266-4.684,25.735l-0.698,4.475c-0.266,1.667-0.029,6.012,2.113,6.862c0.562,0.225,1.076,0.337,1.572,0.337
			c2.27,0,2.956-2.109,3.366-3.369c0.145-0.449,0.295-0.91,0.461-1.158c7.268-11.378,15.658-21.243,24.929-29.329
			c8.668-7.56,19.006-16.319,30.009-24.075c13.911-9.794,30.302-14.83,46.151-19.694l9.339-2.866
			c17.798-5.438,36.204-11.071,54.034-17.407c23.2-8.234,42.755-20.818,58.118-37.409c1.451-1.572,2.869-3.181,4.395-4.912
			c-1.895,10.857-4.915,24.595-11.216,37.604c-1.351,2.778-2.651,5.579-3.96,8.381c-2.385,5.107-4.847,10.386-7.516,15.421
			c-5.267,9.913-12.117,19.258-20.369,27.77l-1.555,1.602c-2.819,2.908-5.642,5.822-8.396,8.777
			c-7.746,8.328-17.644,14.074-27.219,19.63c-1.767,1.028-3.535,2.051-5.296,3.097c-6.91,4.108-13.089,6.432-19.822,7.4
			c-1.241,0.166-2.651,0.373-4.132,1.082c-0.618,0.296-0.958,0.97-0.836,1.644c0.127,0.661,0.683,1.17,1.368,1.224
			c1.093,0.094,2.19-0.916,3.286-0.805c0.884,0.101,1.785-0.006,2.687-0.142c1.587,0.142,3.177,0.267,4.764,0.23
			c7.371-0.183,14.567-1.288,21.663-2.901c7.099-1.354,13.828-3.228,19.966-5.262l0.774,0.302
			c9.812-3.251,19.961-6.348,29.43-10.864c7.994-3.806,16.45-8.747,25.851-15.415c13.261-9.415,24.778-20.415,34.221-32.84
			c8.508-11.189,15.235-23.171,19.984-35.672c3.886-10.22,7.524-20.227,9.392-30.452c1.98-10.869,2.542-22.136,3.086-33.029
			l0.177-3.439c0.373-7.365,0.385-14.854,0.391-22.089c0-1.862,0-3.712,0.012-5.568c0.29,0.94,0.591,1.897,0.881,2.843
			c2.984,9.623,6.07,19.565,6.603,29.915c0.324,6.39,0.939,12.844,1.519,19.098c0.538,5.763,1.094,11.733,1.437,17.591
			c1.088,18.967-0.993,37.971-6.2,56.5c-2.583,9.191-6.331,16.846-11.461,23.396c-0.284,0.36-0.396,0.739-0.503,1.1l-0.189,0.573
			c-0.225,0.633-0.012,1.336,0.526,1.726s1.271,0.396,1.809-0.012c8.039-6.082,13.985-13.465,18.164-22.567
			c5.255-11.443,8.683-24.34,10.474-39.448c0.189-1.638,1.076-3.57,2.258-4.93c10.823-12.543,17.082-23.176,20.298-34.495
			c4.676-16.414,4.734-30.896,0.189-44.271c-0.449-1.324-0.408-3.156,0.101-4.279c6.69-14.7,8.026-29.927,8.458-42.9
			c0.195-5.888,0.153-11.715,0.106-17.862c2.341,9.049,3.777,18.695,4.268,28.738c0.124,2.47-0.354,4.835-1.111,7.619
			c-1.011,3.73-0.732,8.494,0.715,12.135c2.602,6.531,3.032,13.53,3.452,20.304l0.101,1.603c0.84,13.233,1.176,27.26,1.005,41.688
			c-0.071,5.444-1.088,11.048-2.069,16.462l-0.655,3.688c-0.354,2.033-0.68,4.078-1.005,6.123
			c-1.088,6.804-2.217,13.838-4.31,20.381c-2.429,7.56-5.178,16.125-10.811,22.951c-0.449,0.538-0.467,1.312-0.041,1.874
			c0.413,0.567,1.17,0.745,1.814,0.479c4.238-1.85,10.179-7.312,14.186-11.904c6.502-7.459,10.362-16.391,14.092-25.026l1.259-2.914
			c3.658-8.363,7.17-16.945,10.574-25.25c1.4-3.405,2.796-6.827,4.209-10.226l3.605-8.754c1.022-2.483,2.045-4.966,3.067-7.448
			c0.426,17.396,1.826,35.01,14.292,49.633c0.479,0.567,1.307,0.703,1.951,0.308c0.632-0.39,0.886-1.188,0.591-1.88
			c-5.013-11.792-6.945-25.145-5.899-40.808c0.97-14.54,7.176-27.521,17.945-37.545c11.349-10.545,20.941-23.431,31.114-41.777
			c5.095-9.197,9.978-18.696,14.688-27.881l4.32-8.393c1.868-3.611,3.553-4.374,7.028-3.896c5.798,0.792,10.562-2.547,12.336-8.57
			c1.028-3.487,1.696-7.099,2.341-10.592c0.295-1.584,0.585-3.168,0.91-4.747c0.579-2.808,2.512-4.616,5.284-4.729
			c2.411,0,5.054,1.484,5.308,3.955c0.49,4.758,0.443,9.421-0.13,13.855c-1.809,13.825-7.726,26.438-13.281,36.954
			c-6.869,13.015-14.446,26.876-23.307,40.033c-8.003,11.898-18.95,21.847-32.515,29.584c-2.714,1.536-5.438,3.056-8.163,4.574
			l-3.718,2.075c-0.585,0.331-0.881,0.999-0.733,1.655l0.219,0.98c0.184,0.804,0.976,1.295,1.779,1.146
			c0.745-0.147,1.501-0.283,2.258-0.407c1.685-0.29,3.429-0.591,5.113-1.142c14.263-4.71,28.123-12.56,42.374-23.979
			c16.863-13.512,29.589-27.692,38.916-43.355c7.129-11.969,12.59-22.289,16.065-33.762c2.536-8.364,3.76-17.513,3.831-28.708
			c0.555,0.579,1.011,1.1,1.341,1.655c8.914,14.688,13.726,28.921,14.718,43.503c0.131,1.921,0.272,3.842,0.414,5.763
			c0.491,6.556,0.999,13.335,0.934,19.949c-0.124,12.152-3.422,23.696-6.632,33.401c-2.701,8.151-5.189,15.48-8.292,22.697
			c-2.323,5.403-5.361,10.663-8.287,15.747l-0.815,1.418c-7.377,12.814-17.597,24.264-33.154,37.126
			c-1.011,0.839-1.631,2.099-1.85,3.741c-0.065,0.502,0.124,1.005,0.508,1.342c0.379,0.331,0.905,0.461,1.401,0.313l0.432-0.106
			c0.449-0.095,1.011-0.213,1.549-0.526c1.472-0.868,2.955-1.714,4.438-2.565c6.514-3.718,13.246-7.565,18.867-13.08
			c11.538-11.337,19.89-21.551,26.256-32.131c12.377-20.546,20.593-43.297,24.44-67.637c2.034-12.885,3.671-26.758,1.897-40.873
			L580.851,241.697z M7.111,517.553c0.044,1.271,0.31,2.713,0.552,3.021C7.403,520.248,7.123,518.806,7.111,517.553z
			 M480.599,109.207c0.532-1.844,1.383-3.251,2.21-4.906c0.355-0.721,0.722-1.294,1.053-2.021c0.266-0.591,0.887-0.863,1.543-0.804
			l1.069,0.166c0.372,0.041,0.893,0.23,0.893,0.484c0,0.006,0,0.012,0,0.018c0-0.254-0.521-0.432-0.893-0.473l-1.088-0.13
			c-0.655-0.059-1.265,0.284-1.53,0.881c-0.331,0.733-0.686,1.454-1.047,2.163c-0.827,1.655-1.672,3.363-2.21,5.196
			c-1.396,4.788-1.998,9.179-1.821,14.316C478.595,118.771,479.197,114.024,480.599,109.207z M494.589,133.589
			c-2.955-0.307-5.745-0.603-8.529-0.603l-1.294,0.018c-1.838,0-2.287-0.455-2.542-2.547c-0.887-7.312-0.461-13.802,1.283-19.819
			c0.396-1.354,1.011-2.654,1.679-4.014c1.081,6.963,4.314,13.093,7.459,19.051c1.389,2.642,2.819,5.343,4.061,8.127
			C495.984,133.737,495.28,133.666,494.589,133.589z M498.963,136.757c0.503,0.053,1.028-0.036,1.336-0.461
			c0.154-0.201,0.236-0.414,0.272-0.638c-0.019,0.283-0.095,0.556-0.272,0.786c-0.308,0.419-0.833,0.662-1.336,0.608
			c-1.631-0.13-3.186-0.295-4.687-0.455c-2.152-0.225-4.221-1.1-6.225-1.525c2.01,0.26,4.066,0.709,6.225,0.94
			C495.777,136.172,497.326,136.621,498.963,136.757z M471.105,104.591c-11.815-8.458-24.299-14.522-35.576-19.369
			C448.426,83.696,465.639,91.244,471.105,104.591z M407.541,76.509l-8.735-2.027C401.482,73.447,404.35,74.121,407.541,76.509z
			 M374.843,70.149l-11.194-0.993C367.142,68.074,371.096,68.44,374.843,70.149z M356.992,70.468
			c0.172,0.597,0.697,0.916,1.318,0.975c-0.614-0.053-1.146-0.337-1.318-0.939C356.986,70.492,356.992,70.48,356.992,70.468z
			 M119.684,358.322c-8.133,3.553-16.609,5.551-25.567,5.361C103.075,363.867,111.551,361.875,119.684,358.322
			c2.713-1.188,5.382-2.547,8.021-4.055l0,0C125.066,355.775,122.391,357.135,119.684,358.322z M11.077,517.677
			c-0.812,1.265-1.871,3.807-1.871,3.818v-0.449c0,0-0.086,0-0.201,0l-0.053-0.13c0.677-0.816,0.872-2.335,1.454-3.245
			c7.055-11.03,15.377-21.066,25.212-29.643C25.777,496.61,18.134,506.647,11.077,517.677z M301.177,290.544
			c-0.188-0.391-0.55-0.68-0.975-0.792c-0.426-0.101-0.881-0.024-1.241,0.218c-0.792,0.55-1.638,1.218-1.632,2.376
			c0.012,4.539,0.06,9.079,0.112,13.624c0.106,9.842,0.225,20.014-0.101,29.997c-0.644,19.99-2.692,36.085-6.428,50.649
			c-4.478,17.455-9.286,31.605-18.182,43.94c-8.836,12.259-16.071,21.138-23.442,28.78c-6.186,6.425-13.787,12.424-22.594,17.855
			c-6.779,4.18-14.248,7.607-21.468,10.918c-2.379,1.093-4.758,2.181-7.119,3.298c-1.756,0.833-3.6,1.437-5.55,2.051l1.294-1.584
			c2.453-3.009,4.909-6.017,7.438-8.948c11.508-13.383,20.445-26.534,27.346-40.193c6.478-12.809,12.954-26.776,16.523-42.05
			c2.436-10.421,4.418-21.101,6.336-31.438l1.599-8.548c0.23-1.2-0.127-2.37-0.446-3.41c-0.033-0.095-0.062-0.184-0.086-0.284
			c1.15-1.004,1.549-2.08,1.664-2.866c0.121-0.827,0.042-2.033-0.86-3.417c3.966-8.652,0.83-50.714-2.977-60.419
			c-0.248-0.632-0.896-1.041-1.563-0.958c-0.677,0.071-1.221,0.585-1.336,1.253c-0.104,0.615-0.213,1.177-0.316,1.702
			c-0.23,1.146-0.417,2.146-0.464,3.15c-0.062,1.378-0.062,2.743-0.062,4.126c0,1.596,0,3.192-0.109,4.794
			c-0.104,1.572-0.192,3.145-0.278,4.717c-0.272,4.864-0.556,9.895-1.345,14.718c-1.392,8.481-2.837,17.265-5.562,25.605
			c-3.934,12.046-11.452,22.236-20.15,33.354c-11.724,15.001-28.121,23.896-42.611,30.635c-11.044,5.125-22.993,8.92-34.545,12.59
			l-5.479,1.744c-6.499,2.093-13.272,3.795-19.822,5.438c-3.39,0.857-6.774,1.703-10.146,2.619c-2.021,0.544-4.055,1.063-6.088,1.59
			c-5.471,1.406-11.124,2.861-16.559,4.74c-12.723,4.397-23.823,11.68-35.991,20.043c-5.863,4.037-11.39,8.707-16.733,13.217
			c-2.471,2.087-4.933,4.161-7.438,6.189c-0.408,0.336-0.825,0.649-1.241,0.963c0.26-0.887,0.52-1.785,0.78-2.678
			c1.149-3.954,2.343-8.062,3.735-11.98c0.464-1.312,0.919-2.643,1.365-3.961c1.83-5.344,3.718-10.869,6.532-15.646
			c4.117-6.999,9.28-13.595,14.271-19.979l1.823-2.335c2.796-3.594,6.094-6.945,9.28-10.195l1.549-1.578
			c6.978-7.158,15.548-15.191,26.196-20.522c6.579-3.292,12.868-6.976,18.708-10.965c6.706-4.581,12.971-9.558,19.878-15.12
			c8.151-6.555,14.253-13.316,18.646-20.67c3.159-5.29,5.057-11.342,6.883-17.193l0.502-1.597c0.792-2.518,0.975-5.172,1.15-7.737
			c0.08-1.111,0.15-2.229,0.277-3.321c0.08-0.687-0.307-1.33-0.942-1.585c-0.642-0.254-1.369-0.047-1.773,0.509
			c-1.398,1.886-2.76,3.801-4.111,5.692c-3.402,4.787-6.682,9.41-10.483,13.541c14.919-29.802,17.463-62.323,7.802-99.111
			c-0.168-0.662-0.762-1.123-1.442-1.135c-0.786,0.13-1.283,0.438-1.469,1.093l-1.294,4.445c-0.346,1.218-0.656,2.447-0.963,3.677
			c-0.665,2.648-1.294,5.148-2.276,7.524c-4.702,11.331-8.662,20.753-13.255,30.228c-2.192,4.516-4.775,8.961-7.276,13.264
			c-1.791,3.092-3.588,6.183-5.272,9.333c-7.19,13.482-16.178,25.623-24.828,36.741c-4.75,6.106-9.974,11.822-14.458,16.604
			c-8.033,8.576-16.967,17.443-27.905,24.323c0.032-0.054,0.062-0.101,0.097-0.148c11.343-17.95,19.763-37.196,26.504-53.646
			c7.749-18.915,12.035-39.129,16.181-58.683l1.289-6.052c2.299-10.734,4.395-21.705,6.416-32.302
			c2.137-11.207,4.35-22.798,6.809-34.129c2.131-9.83,5.125-19.671,8.024-29.193l1.755-5.774
			c2.308-7.673,5.873-14.139,10.592-19.222c10.412-11.212,23.72-17.366,39.803-18.3c0.115,0,0.23,0,0.352,0.012
			c-0.298,0.514-0.594,1.022-0.884,1.524c-1.454,2.513-2.822,4.889-4.037,7.354c-0.739,1.501-1.356,3.062-1.974,4.622
			c-0.842,2.128-1.634,4.144-2.731,5.976c-1.07,1.779-1.294,3.605-1.507,5.373c-0.204,1.685-0.399,3.274-1.354,4.693
			c-1.69,2.488-2.275,5.597-2.84,8.594c-0.198,1.07-0.405,2.14-0.653,3.174c-0.653,2.671-1.241,5.355-1.826,8.05l-0.766,3.476
			c-0.163,0.739,0.236,1.478,0.946,1.744c0.307,0.112,0.52,0.23,0.659,0.325c-0.121,0.148-0.283,0.331-0.484,0.567
			c-0.151,0.183-0.354,0.349-0.55,0.508c-0.562,0.485-1.265,1.088-1.501,2.016c-0.473,1.868-0.642,3.771-0.822,5.787
			c-0.449,4.948-0.872,9.895-1.309,15.031l-0.538,6.307c-0.068,0.786,0.484,1.501,1.265,1.62c0.786,0.136,1.531-0.366,1.714-1.135
			l10.028-41.878c0.145-0.626-0.109-1.265-0.642-1.62c0.168-0.142,0.352-0.284,0.526-0.419c0.721-0.567,1.537-1.206,1.992-2.181
			c0.866-1.874,1.646-3.801,2.426-5.728c1.188-2.92,2.415-5.946,3.939-8.701c2.223-4.014,4.734-7.974,7.161-11.804
			c1.75-2.767,3.499-5.526,5.169-8.334c3.978-6.703,9.286-11.834,16.222-15.67c11.966-6.626,25.366-9.889,38.319-13.057l1.38-0.337
			c1.616-0.396,3.218-0.792,5.036-1.253c-5.042,9.729-5.849,19.842-6.206,29.436c-0.26,6.933-0.367,14.298-0.331,22.514
			c0.012,2.495-0.006,4.989-0.03,7.478c-0.062,7.395-0.121,15.025,0.63,22.502c1.203,12.022,3.132,24.157,4.997,35.896l1.079,6.809
			c0.597,3.8,1.507,7.595,2.379,11.26c0.399,1.672,0.804,3.351,1.173,5.036c0.157,0.698,0.798,1.052,1.513,1.182l0.815-0.018
			c0.642-0.012,1.2-0.426,1.407-1.034c0.065-0.213,0.168-0.426,0.26-0.639c0.295-0.668,0.665-1.495,0.567-2.43
			c-0.26-2.512-0.582-5.018-0.896-7.524c-0.375-2.955-0.745-5.904-1.028-8.872c-0.375-3.913-0.792-7.814-1.212-11.727
			c-1.093-10.273-2.231-20.9-2.553-31.351c-0.243-7.844,0.29-15.888,0.81-23.661c0.299-4.427,0.594-8.866,0.757-13.293
			c0.564-15.356,3.718-28.667,9.637-40.696c6.094-12.383,15.324-19.192,28.212-21.089c1.392-0.207,2.825,0.041,4.252,0.041
			c0.068,0,0.127,0,0.195,0c-9.667,12.105-9.582,27.462-8.172,40.217c0.068,0.609,0.485,1.046,1.067,1.218
			c0.579,0.177,1.203-0.041,1.596-0.508c0.553-0.656,0.913-1.448,1.108-2.394c2.87-13.961,9.061-26.344,18.412-36.806
			c0.34-0.384,1.247-1.401,1.979-1.62c7.022-2.092,14.518-4.297,22.13-6.236c0.745-0.189,1.821-0.065,2.891,0.106
			c-0.065,0.065-0.136,0.13-0.207,0.201l-0.81,0.792c-12.336,12.644-23.915,25.405-30.003,42.439
			c-5.677,15.889-9.049,32.545-10.028,49.521c-1.176,20.38,1.428,40.058,4.132,56.625c3.192,19.523,7.796,38.586,13.68,56.649
			c2.051,6.295,4.221,12.548,6.396,18.802L301.177,290.544z M241.384,377.822c0.183,0.225,0.299,0.502,0.328,0.804
			c0.035,0.401,0.086,0.745,0.133,1.052c0.098,0.674,0.187,1.312,0.08,1.986l0,0c0.112-0.674,0.018-1.312-0.08-1.986
			c-0.047-0.307-0.098-0.645-0.133-1.052C241.683,378.324,241.567,378.053,241.384,377.822z M315.818,280.803
			c-1.183,3.747-2.358,7.495-3.582,11.23c-0.029,0.095-0.06,0.184-0.089,0.277c-0.177-0.401-0.296-0.78-0.401-1.135
			c-0.627-2.169-1.218-4.362-1.815-6.549c-1.104-4.096-2.258-8.328-3.641-12.431c-3.724-11.006-7.211-21.816-8.913-33.159
			l-1.005-6.649c-1.652-10.858-3.357-22.083-4.401-33.159c-1.046-11.154-1.531-23.165-1.434-35.701
			c0.08-10.208,2.699-20.168,5.249-28.555c0.964-3.174,2.021-6.307,3.086-9.458l1.395-4.149c2.784-8.411,7.991-15.717,13.016-22.78
			c0.946-1.324,1.886-2.648,2.813-3.973c3.162-4.539,7.696-8.274,12.082-11.886c3.528-2.908,7.465-4.38,11.709-4.38
			c0.36,0,0.727,0.012,1.094,0.036c2.908,0.171,5.816,0.195,8.736,0.219c2.405,0.018,4.816,0.041,7.223,0.147
			c25.682,1.146,50.531,6.248,73.837,15.161c16.468,6.301,31.025,14.978,43.278,25.801c0.468,0.414,0.71,0.833,0.733,0.945
			c0.26,3.659,0.438,7.324,0.603,10.716l0.112,2.158l-3.517,1.761c-4.812,2.406-9.563,4.782-14.346,7.099
			c-0.36,0.171-1.129,0.212-1.737,0.124c-1.33-0.195-2.66-0.443-3.983-0.691c-2.335-0.438-4.759-0.887-7.2-1.029
			c-1.631-0.088-3.245-0.142-4.864-0.142c-5.379,0-10.396,0.538-15.113,1.608c0-0.024,0.023-0.036,0.012-0.059l-0.143-1.253
			c-0.088-0.757-0.738-1.342-1.501-1.342c-1.235,0-2.477-0.023-3.712-0.047c-2.767-0.053-5.538-0.106-8.287,0.094
			c-13.429,0.987-25.493,6.798-35.742,12.171c-17.845,9.345-33.041,23.501-47.842,44.531c-3.7,5.261-7.116,10.817-10.421,16.184
			c-1.501,2.436-3.003,4.877-4.533,7.288c-1.938,3.062-1.425,6.059,1.513,8.932c0.284,0.271,0.662,0.425,1.059,0.425
			c0.059,0,0.124,0,0.188-0.012c0.449-0.059,0.863-0.319,1.1-0.709c1.159-1.903,2.282-3.801,3.393-5.698
			c2.459-4.161,4.782-8.092,7.389-11.928c8.601-12.679,18.909-27.142,32.456-38.461c11.502-9.605,25.635-20.073,43.22-24.891
			c3.7-1.011,7.666-1.513,11.502-1.998c0.36-0.047,0.71-0.106,1.064-0.147c-1.342,0.562-2.695,1.082-3.984,1.755
			c-12.323,6.396-22.106,15.912-29.062,28.289c-3.464,6.153-7.566,14.417-8.612,23.885c-0.573,5.243-0.774,10.864,1.324,16.757
			c-0.095-0.006-0.178-0.018-0.267-0.023c-1.17-0.077-2.353-0.213-3.522-0.337c-2.873-0.313-5.881-0.638-8.777-0.271
			c-9.794,1.229-16.704,7.506-21.628,12.838c-7.033,7.613-12.584,16.686-16.497,26.971
			C321.215,263.626,318.466,272.356,315.818,280.803z M451.452,150.104c-0.047,0.255-0.153,0.503-0.331,0.71l-0.744,0.898
			c-0.438,0.532-0.757,0.922-1.117,1.271c-10.256,9.771-17.018,21.846-22.798,33.438c-7.046,14.132-11.585,29.512-13.494,45.708
			c-0.443,3.759-0.757,7.566-1.017,11.373c0.266-3.807,0.573-7.613,1.017-11.373c1.909-16.195,6.448-31.575,13.494-45.708
			c5.78-11.591,12.542-23.667,22.798-33.438c0.36-0.349,0.686-0.739,1.117-1.271l0.744-0.898
			C451.299,150.601,451.405,150.358,451.452,150.104z M325.606,279.473c3.972,6.479,7.838,13.176,11.579,19.659l3.092,5.344
			c0.461,0.798,0.868,1.637,1.3,2.512l0.674,1.384l-0.674-1.378c-0.432-0.881-0.839-1.72-1.3-2.518l-3.092-5.344
			C333.444,292.648,329.578,285.951,325.606,279.473c-0.786-1.288-1.507-2.802-1.383-4.61
			C324.1,276.671,324.82,278.185,325.606,279.473z M333.509,382.533c-1.117,1.779-2.548,3.363-4.066,5.041
			c-0.207,0.225-0.42,0.455-0.626,0.687c-0.089-0.78-0.16-1.52-0.125-2.24c1.029-25.553-4.214-49.627-9.48-69.812
			c-1.466-5.633-1.365-10.202,0.331-14.807c1.117-3.026,2.004-6.1,2.949-9.356c0.166-0.562,0.325-1.129,0.497-1.696l3.044,5.22
			c3.375,5.774,6.75,11.537,10.036,17.365c5.929,10.498,8.896,21.492,8.812,32.663C344.787,358.187,340.963,370.611,333.509,382.533
			z M343.705,304.47c-0.26-0.521-0.526-1.022-0.815-1.514l-3.086-5.337c-3.753-6.496-7.631-13.223-11.614-19.725
			c-1.005-1.649-1.188-2.63-0.709-3.877c0.626-1.655,1.247-3.328,1.861-4.995c1.483-4.001,3.015-8.145,4.729-12.105
			c4.114-9.504,8.364-16.556,13.606-22.525C352.624,249.31,350.225,290.75,343.705,304.47z M349.551,230.934
			c-0.219-0.443-0.633-0.763-1.129-0.839c-0.502-0.083-0.993,0.088-1.33,0.455c-6.254,6.602-11.13,14.369-15.799,25.168
			c-1.75,4.037-3.293,8.216-4.788,12.259c-0.615,1.655-1.229,3.315-1.851,4.965c0.627-1.649,1.235-3.31,1.851-4.965
			c1.495-4.043,3.038-8.222,4.788-12.259c4.669-10.799,9.545-18.566,15.799-25.168c0.337-0.367,0.828-0.538,1.33-0.455
			C348.918,230.165,349.338,230.484,349.551,230.934c2.571,5.355,3.741,15.953,3.754,27.722
			C353.298,246.887,352.134,236.295,349.551,230.934z M367.142,254.801c-2.104-7.288-4.972-14.44-7.743-21.362
			c-0.757-1.879-1.508-3.765-2.252-5.65c-0.598-1.531-0.503-1.578,0.727-2.104c3.771-1.631,6.928-2.388,9.924-2.388
			c1.336,0,2.678,0.153,3.99,0.467c0.916,0.213,1.146,0.36,1.176,0.36l0,0c0,0.006,0.071,0.249-0.153,1.082
			c-2.157,7.891-2.666,15.078-1.549,21.964c1.123,6.898,2.376,13.778,3.63,20.664c0.851,4.675,1.702,9.363,2.518,14.044
			c0.065,0.396-0.124,1.099-0.219,1.224c-0.951,0.727-2.057,1.289-3.328,1.945l-0.082-0.337c-0.65-3.021-1.26-6.047-1.862-9.079
			C370.546,268.757,369.121,261.652,367.142,254.801z M376.87,329.638c0.786-0.219,1.909-0.42,2.678-0.42
			c0.077,0,0.13,0.029,0.201,0.035c-0.709,0.03-1.407,0.189-2.128,0.391c-0.337,0.089-2.199,0.183-2.565,0.266
			c-0.709,0.159-2.689,0.81-2.689,1.543c0-0.006,0-0.012,0-0.018c0-0.733,1.98-1.378,2.695-1.531
			C375.428,329.82,376.527,329.727,376.87,329.638z M375.269,323.324L375.269,323.324c0.159-1.093,0.432-2.181,0.786-3.238
			C375.694,321.149,375.422,322.237,375.269,323.324z M390.087,302.986c0.325-1.566,0.709-3.15,0.786-4.729
			c-0.077,1.591-0.461,3.187-0.786,4.759c-1.437,6.915-3.168,13.771-4.386,20.711c-0.166,0.945-0.236,1.838-0.23,2.672
			c-0.012-0.852,0.053-1.768,0.23-2.736C386.919,316.723,388.65,309.901,390.087,302.986z M385.979,295.195
			c0.012,0.331,0.065,0.662,0.131,0.964c0.307,1.431,0.461,2.843,0.49,4.243c-0.029-1.406-0.189-2.812-0.49-4.243
			C386.044,295.863,385.984,295.526,385.979,295.195z M376.562,349.947c-0.047,18.099-4.196,35.039-4.196,51.37
			c0-0.006,0-0.012,0-0.012C372.366,384.975,376.516,368.04,376.562,349.947z M388.242,365.646
			c-3.759,9.393-7.612,18.814-12.377,28.023c2.654-19.115,3.512-39.247,2.602-61.011c0.566-0.16,1.104-0.361,1.465-0.361
			c0.148,0,0.468-0.029,0.805,1.289c0.756,2.92,3.47,5.402,6.607,5.432c2.004,0.023,4.008,0.449,6.012,0.449h6.455
			C395.442,345.52,391.783,356.773,388.242,365.646z M387.356,335.542c0.939,0.013,1.921,0.019,2.86,0.019h0.023
			C389.271,335.561,388.319,335.555,387.356,335.542L387.356,335.542z M424.582,317.633c-0.13,0.23-0.313,0.414-0.449,0.639
			c-2.187,1.791-4.403,3.552-6.862,5.106c-2.223,1.413-4.498,2.79-6.81,4.103c-1.82-0.048-2.016-0.521-2.109-1.407
			c-0.207-2.175,0.986-4.941,3.215-7.406c2.678-2.949,6.236-4.864,9.056-4.864c0.39,0,0.763,0.041,1.117,0.112
			c1.513,0.313,2.642,0.999,3.038,1.855C425.025,316.32,424.954,316.941,424.582,317.633z M498.271,215.27
			c-0.573,3.883-1.578,8.039-3.174,13.092c-0.916,2.92-3.47,5.532-5.125,4.64c-0.928-0.497-1.944-0.75-3.026-0.75
			c-6.495,0-13.559,9.321-13.866,9.971l-2.943,6.295c-4.38,9.386-8.908,19.098-13.737,28.431
			c-3.162,6.111-7.205,11.969-11.07,17.448c-4.463,6.312-9.434,12.638-15.209,18.412c-0.112-0.302-0.124-0.668-0.277-0.928
			c-1.679-2.778-8.216-4.871-11.467-4.232c-8.181,1.578-14.89,9.954-14.942,18.666c-0.012,1.708,0.401,3.026,0.999,4.144
			c-2.56,1.082-5.19,2.004-8.004,2.459c-3.569,0.585-6.419-0.142-7.997-2.021c-1.33-1.584-1.768-3.973-1.241-6.898
			c0.769-4.361,1.75-8.771,2.707-13.039c0.573-2.541,1.141-5.077,1.673-7.631l0.142-0.674c0.645-3.031,1.372-6.466-0.531-9.794
			c-0.509-0.898-1.933-2.198-3.175-2.198c-0.206,0-0.525,0.071-0.715,0.147c-1.235,0.526-1.998,1.791-2.518,2.831
			c-0.479,0.946-0.313,2.075-0.148,2.844c1.177,5.479-0.082,10.846-1.619,15.834c-1.401,4.534-2.725,9.564-4.173,12.892
			c-0.042,0.071-0.154,0.319-0.296,0.609c-0.384,0.183-0.769,0.378-1.141,0.573c-0.16-2.695-0.343-2.713-0.467-2.246
			c0.313-1.797,0.893-4.043,1.785-5.781c0.354-0.697,0.945-1.69,1.561-2.388c0.632-0.709,1.276-1.613,1.844-2.571
			c0.798-1.354,2.654-4.599-0.863-6.814c-0.686-0.408-1.584-0.29-2.045,0.372l-4.221,5.987c-3.02-3.617-4.51-7.395-4.22-10.752
			c0.254-2.908,1.838-5.461,4.705-7.577c1.862-1.371,3.706-2.778,5.485-4.262l1.59-1.282c1.768-1.413,3.594-2.873,5.118-4.641
			c2.666-3.091,3.204-6.714,1.555-10.497c-0.225-0.509-0.703-0.857-1.253-0.904c-0.544-0.071-1.088,0.207-1.395,0.668l-2.471,3.7
			c-4.186-12.206-5.746-24.4-4.646-36.245c0.479-5.101,1.407-8.825,2.844-11.313l1.885,1.549c2.471,2.033,4.936,4.055,7.365,6.136
			c1.011,0.869,2.021,2.228,0.81,5.083l-2.14,5.054c-0.23,0.538-0.13,1.158,0.266,1.596c0.391,0.438,1.006,0.609,1.561,0.443
			c3.512-1.046,6.112-3.635,6.957-6.897c0.763-2.944-0.035-5.988-2.14-8.151l-1.921-1.956c-3.085-3.139-6.271-6.39-9.126-9.776
			c-4.752-5.645-6.597-11.178-5.645-16.917c3.569-21.527,13.104-36.729,29.151-46.506c11.29-6.874,22.804-9.848,35.388-9.132
			c0.774,0.041,1.578,0.207,2.471,0.401c0,0-0.006,0.006-0.012,0.006c-10.586,10.09-17.508,22.443-23.406,34.283
			c-7.205,14.44-11.846,30.151-13.796,46.701c-0.869,7.33-1.276,14.807-1.679,22.048l-0.284,5.095
			c-0.064,1.182,0.313,2.281,0.722,3.446c0.189,0.525,0.39,1.105,0.562,1.749c0.153,0.562,0.627,0.987,1.2,1.088
			c0.579,0.106,1.164-0.13,1.495-0.615l0.639-0.88c0.307-0.402,0.531-0.692,0.649-1.129c0.195-0.674,0.296-1.312,0.313-1.909
			c0.248-9.073,2.926-17.886,5.509-26.397l0.189-0.609c7.093-23.383,15.539-41.115,26.599-55.81
			c6.383-8.487,14.966-14.05,24.813-16.101c2.376-0.497,4.734-0.745,7.004-0.745c11.774,0,20.646,6.449,24.99,18.158
			c1.88,5.071,2.365,9.398,1.33,11.875C500.647,199.134,499.442,207.338,498.271,215.27z M506.818,192.206
			c-3.026,7.265-4.256,13.364-5.337,20.658c1.081-7.294,2.311-14.091,5.337-21.355c0.42-0.999,0.627-2.081,0.722-3.204
			C507.492,189.688,507.31,191.024,506.818,192.206z M541.201,210.571c-0.573,0.201-0.963,0.738-0.993,1.348l-0.059,1.241
			c-0.029,0.55-0.041,0.821-0.041,1.087c0.018,11.491-1.159,20.764-3.706,29.164c-3.382,11.171-8.754,21.309-15.765,33.089
			c-9.144,15.344-21.639,29.258-38.213,42.539c-13.955,11.195-27.515,18.873-41.429,23.472c-0.236,0.077-0.473,0.143-0.715,0.219
			c0.047-0.029,0.101-0.053,0.153-0.089c0.184-0.047,0.372-0.094,0.562-0.153c13.92-4.599,27.474-12.271,41.429-23.46
			c16.58-13.281,29.075-27.189,38.213-42.534c7.011-11.78,12.383-21.911,15.765-33.083c2.547-8.399,3.724-17.667,3.706-29.164
			c0-0.266,0.012-0.538,0.041-1.087l0.059-1.241C540.238,211.31,540.634,210.772,541.201,210.571
			c0.579-0.207,1.218-0.054,1.632,0.39C542.419,210.512,541.78,210.358,541.201,210.571z M567.457,302.318
			c-0.521,1.678-1.069,3.369-1.644,5.035c3.878-16.426,5.179-30.541,4.097-43.852c-0.597-7.371-1.732-15.008-3.352-22.697
			c-2.979-14.121-10.09-26.475-16.65-36.7c-3.86-6.005-8.062-11.904-12.123-17.614l-1.224-1.714
			c-0.639-0.893-1.638-1.271-2.506-1.602c-0.284-0.106-0.567-0.213-0.828-0.343c-0.213-0.112-0.449-0.166-0.686-0.166
			c-0.213,0-0.426,0.042-0.626,0.136c-0.414,0.183-0.722,0.556-0.84,1.005c-0.07,0.284-0.177,0.573-0.271,0.857
			c-0.272,0.798-0.585,1.714-0.509,2.713c0.118,1.578,0.354,3.15,0.598,4.717c0.159,1.022,0.318,2.057,0.437,3.086
			c1.81,15.456,1.254,29.312-1.714,42.362c-2.784,12.259-9.149,23.312-14.771,33.064c-3.133,5.42-7.058,10.562-10.864,15.528
			c-1.377,1.797-2.755,3.6-4.103,5.42c1.029-2.045,2.069-4.079,3.104-6.118c3.978-7.837,8.098-15.941,11.597-24.163
			c4.918-11.603,9.588-24.192,10.38-37.675c0.337-5.775-0.06-12.992-6.225-17.68c-2.01-1.519-4.362-2.358-6.856-3.251
			c-0.763-0.271-1.536-0.543-2.316-0.851c0.236-3.115,1.726-6.225,3.292-9.487l0.343-0.715c0.65-1.365,1.295-2.967,1.135-4.551
			c-1.359-13.075-7.471-22.928-18.689-30.11c-5.326-3.398-12.59-5.354-19.955-5.354c-10.421,0-19.606,3.664-25.859,10.338
			c-3.405,3.629-6.62,7.495-9.735,11.354c1.277-1.814,2.589-3.647,3.913-5.456c7.217-9.889,15.551-17.046,25.476-21.887
			c8.458-4.125,17.59-4.853,27.178-2.175c2.453,0.686,4.87,1.519,7.364,2.376c1.171,0.402,2.358,0.81,3.576,1.218
			c0.467,0.153,0.976,0.077,1.365-0.219c0.396-0.284,0.633-0.75,0.627-1.241c-0.06-5.337-1.537-9.995-3.522-14.564
			c5.384,5.107,10.532,11.379,12.737,19.606c0.608,2.246,1.909,3.759,4.227,4.9l2.423,1.17c4.533,2.175,9.215,4.427,12.525,7.743
			c6.508,6.52,12.058,13.559,16.497,20.924c3.658,6.088,6.431,12.921,9.114,19.535c0.703,1.726,1.4,3.458,2.115,5.172
			c4.966,11.898,7.448,25.304,8.057,43.45C574.313,270.678,572.197,286.985,567.457,302.318z M572.6,212.752
			c-4.374-14.854-11.484-27.828-17.862-38.567c-4.428-7.442-10.657-12.555-16.178-16.568c-0.166-0.124-0.331-0.254-0.497-0.39
			c-0.171-0.136-0.425-0.349-0.525-0.385c-8.146-1.832-12.318-7.896-16.214-14.475c-5.018-8.488-12.294-15.681-21.036-20.794
			c-7.507-4.397-10.657-10.698-12.348-17.307c0-0.018-0.006-0.029-0.006-0.047c1.685,6.62,4.835,12.944,12.354,17.348
			c8.742,5.113,16.019,12.312,21.036,20.8c3.896,6.579,8.068,12.643,16.214,14.481c0.101,0.042,0.354,0.254,0.525,0.39
			c0.16,0.136,0.325,0.271,0.497,0.396c5.521,4.019,11.75,9.126,16.178,16.568C561.115,184.924,568.226,197.898,572.6,212.752
			c2.825,9.605,4.061,19.624,5.249,29.317C576.66,232.382,575.425,222.363,572.6,212.752z"/>
	</g>
</g>
<g>
</g>
<g>
</g>
<g>
</g>
<g>
</g>
<g>
</g>
<g>
</g>
<g>
</g>
<g>
</g>
<g>
</g>
<g>
</g>
<g>
</g>
<g>
</g>
<g>
</g>
<g>
</g>
<g>
</g>
</svg>
