<?xml version="1.0" encoding="iso-8859-1"?>
<!-- Generator: Adobe Illustrator 16.0.0, SVG Export Plug-In . SVG Version: 6.00 Build 0)  -->
<!DOCTYPE svg PUBLIC "-//W3C//DTD SVG 1.1//EN" "http://www.w3.org/Graphics/SVG/1.1/DTD/svg11.dtd">
<svg version="1.1" id="Capa_1" xmlns="http://www.w3.org/2000/svg" xmlns:xlink="http://www.w3.org/1999/xlink" x="0px" y="0px"
	 width="571.541px" height="571.541px" viewBox="0 0 571.541 571.541" style="enable-background:new 0 0 571.541 571.541;"
	 xml:space="preserve">
<g>
	<g>
		<path d="M380.322,162.59c-7.123-6.475-13.713-12.947-20.8-18.822c-33.863-28.091-72.496-45.729-116.129-52.012
			c-23.292-3.352-46.503-3.056-69.026,4.43c-17.871,5.946-30.535,17.644-34.664,36.694c-2.444,11.286-0.603,22.26,4.897,32.506
			c0.172,0.316,0.618,0.473,0.594,0.461c1.478-7.075,2.172-14.46,4.593-21.24c7.022-19.683,22.564-29.347,42.049-33.792
			c19.881-4.53,39.625-2.503,59.072,2.264c22.499,5.515,43.642,14.449,61.853,29.048c7.956,6.387,14.884,14.059,22.137,21.016
			c-11.869,16.843-37.918,31.617-60.021,25.904c-20.948-5.417-40.243-13.128-55.473-29.01c-2.739-2.858-4.997-6.173-7.583-9.188
			c-1.851-2.161-1.046-3.576,0.922-5.03c7.589-5.615,15.941-5.012,24.045-2.166c16.228,5.695,32.243,11.984,48.356,18.007
			c2.444,0.913,4.926,1.711,7.77,1.93c-1.814-1.616-3.473-3.467-5.471-4.817c-23.634-16.033-49.612-26.808-77.159-33.96
			c-2.97-0.777-6.094-1.079-9.17-1.333c-9.617-0.786-15.462,4.43-16.015,14.174c-0.556,9.898,2.997,18.383,8.946,26.082
			c14.044,18.169,33.301,28.993,53.676,38.249c6.245,2.837,12.554,5.544,18.834,8.308c0.127,0.517,0.254,1.025,0.375,1.54
			c-4.545,2.027-8.919,4.915-13.684,5.881c-7.004,1.425-14.292,1.478-21.45,2.119c-1.599,0.145-3.263,0.068-4.788,0.479
			c-15.986,4.297-31.522,2.231-46.775-3.286c-18.533-6.712-35.015-17.354-51.867-27.287c-14.464-8.526-29.022-16.952-45.54-21.019
			c-16.231-3.996-31.962-2.58-46.539,5.875c-12.141,7.052-15.22,18.885-15.796,31.238c4.853-4.332,9.292-9.528,14.821-12.971
			c10.829-6.729,23.135-6.106,35.229-4.649c20.457,2.471,38.494,11.209,55.919,21.716c17.25,10.406,34.501,20.968,53.814,27.287
			c17.383,5.683,35.045,9.206,53.359,4.575c0.532-0.133,1.12-0.077,2.938-0.174c-7.737,8.305-15.811,13.763-26.421,13.636
			c-14.26-0.168-27.932-3.972-41.387-8.316c-20.992-6.773-41.769-14.186-62.84-20.688c-14.665-4.521-29.767-7.022-45.285-5.914
			c-26.049,1.853-44.298,15.761-57.813,37.078c-0.769,1.211-1.108,2.704-1.593,4.087c-0.417,1.191-4.927,15.202,6.416,27.828
			c3.28,3.652,8.594,3.097,13.42,2.388c-0.148-0.65-0.115-1.028-0.269-1.135c-10.761-7.19-12.292-19.689-3.635-29.433
			c19.766-22.275,44.738-26.561,72.528-20.918c21.376,4.338,41.03,13.474,60.833,22.166c12.516,5.488,25.041,10.985,39.059,17.132
			c-6.555,1.401-12.058,3.065-17.673,3.665c-11.295,1.197-22.245-1.333-33.127-4.063c-14.981-3.75-29.852-7.776-45.492-8.322
			c-15.416-0.532-29.849,2.326-43.42,9.613c-6.463,3.473-13.267,6.464-19.296,10.581c-9.605,6.555-17.147,14.907-18.14,27.343
			c-0.688,8.612,3.287,15.196,8.461,20.48c0.854-6.141,0.594-12.938,2.858-18.755c5.326-13.683,17.049-20.723,30.074-26.119
			c13.134-5.45,25.798-1.59,38.544,1.253c14.053,3.145,27.964,7.081,42.144,9.434c8.098,1.348,16.604,0.242,24.622,0.242
			c-5.701,7.424-13.991,12.708-23.259,16.739c-17.437,7.577-35.057,7.56-53.028,1.886c-8.065-2.554-16.479-3.547-24.795-0.934
			c-10.876,3.416-16.453,12.271-20.324,21.935c-9.759,24.347-7.046,47.304,9.569,68.026c2.53,3.163,6.135,5.45,9.132,8.264
			c3.582,3.357,7.462,3.21,11.263,0.815c4.711-2.961,10.096-5.503,13.607-9.599c10.938-12.738,21.125-26.126,31.607-39.26
			c-0.334-0.318-0.659-0.638-0.993-0.957c-9.043,5.106-18.255,9.93-27.042,15.438c-3.517,2.199-5.873,6.171-9.159,8.831
			c-2.917,2.364-6.236,4.409-9.679,5.904c-3.91,1.697-7.409,0.148-9.363-3.54c-6.756-12.726-8.5-25.942-2.766-39.52
			c3.413-8.08,9.889-11.526,18.678-11.194c18.667,0.709,37.338,1.17,56.011,1.726c1.011,0.035,2.027,0.012,3.972,0.012
			c-2.985,5.722-5.526,10.952-8.378,16.007c-12.087,21.396-24.482,42.616-36.351,64.131c-9.478,17.189-16.952,35.252-21.613,54.409
			c-0.745,3.067-0.177,5.325,1.706,7.714c6.18,7.855,14.514,12.365,23.737,15.355c10.63,3.452,21.374,6.537,32.063,9.824
			c1.895,0.585,3.727,1.359,6.25,1.4c-0.942-1.295-1.658-2.902-2.881-3.83c-8.168-6.194-16.45-12.253-24.713-18.329
			c-0.943-0.698-2.033-1.194-3.005-1.851c-15.634-10.604-15.702-9.758-11.73-29.725c3.582-18.028,14.053-32.853,25.298-47.015
			c1.375-1.737,2.816-3.41,4.244-5.095c0.175-0.213,0.479-0.313,1.59-1.022c0,3.476-0.047,6.413,0.009,9.368
			c0.246,12.342-0.304,24.778,0.984,37.02c1.975,18.802,8.101,36.428,18.649,52.316c0.801,1.205,1.708,2.328,3.257,4.427
			c-0.739-7.241-1.363-13.37-1.986-19.494c-0.029-0.289-0.071-0.585-0.088-0.88c-1.339-20.83-3.706-41.666-3.771-62.501
			c-0.115-35.14,11.639-66.963,30.559-96.28c19.718-30.564,45.527-55.408,73.503-78.214c32.471-26.48,67.855-48.722,103.243-70.958
			c11.467-7.202,22.976-14.322,34.46-21.501C378.301,164.242,378.934,163.663,380.322,162.59z"/>
		<path d="M310.806,98.984c-2.199-4.424-5.237-8.97-6.762-13.982c-2.27-7.477,0.638-11.937,8.044-14.23
			c11.993-3.715,23.324-1.817,32.994,5.834c19.322,15.288,27.485,34.998,21.947,59.698c-0.432,1.906,0.668,5.125,2.181,6.325
			c6.318,5.024,13.057,9.513,20.835,15.046c1.142-7.359,2.772-13.884,3.068-20.469c1.371-30.18-8.932-54.976-34.135-72.498
			c-7.542-5.243-16.846-5.405-25.346-11.458c-8.541,0-17.088,0-25.641,0c-4.291,0-8.837,1.968-12.814,3.996
			c-9.555,4.859-12.25,11.482-8.432,21.42C291.164,90.166,300.615,95.704,310.806,98.984z"/>
		<path d="M535.533,265.594c3.782-0.484,6.945,0.181,9.244,3.621c0.81,1.208,2.287,1.977,4.273,3.618
			c-0.177-6.937-2.523-12.073-6.005-16.202c-5.468-6.481-11.604-12.439-17.774-18.291c-5.65-5.364-11.691-10.326-17.626-15.386
			c-0.928-0.792-2.239-1.726-3.327-1.658c-13.021,0.757-24.701,4.876-34.141,14.271c-4.179,4.152-8.328,8.322-12.566,12.407
			c-11.999,11.573-25.765,12.191-40.494,6.357c-8.341-3.313-15.156-8.42-18.933-16.875c-3.996-8.952-0.538-23.085,7.11-29.137
			c8.187-6.478,22.615-2.79,26.988,6.797c3.375,7.4,8.73,12.823,16.479,15.705c12.584,4.678,24.399-2.698,28.786-12.215
			c1.424-3.091,0.502-5.042-2.483-6.307c-9.167-3.887-18.364-4.755-27.703-0.464c-3.299,1.519-6.744,3.002-10.392,0.659
			c5.178-10.599,21.923-13.654,43.888-7.723c-1.348-2.512-1.915-5.019-3.493-6.26c-5.479-4.314-10.894-9.073-17.111-12.008
			c-8.436-3.989-17.591-6.451-26.972-9.759c2.813-3.292,5.568-6.439,8.24-9.646c7.4-8.848,14.546-17.88,16.485-29.725
			c1.572-9.611-1.088-17.922-8.784-25.147c0.236,18.362-9.965,29.941-24.523,39.396c3.747-16.548,3.623-31.989-9.227-45.753
			c-5.45,17.487-10.929,34.041-15.634,50.812c-1.473,5.249-0.697,11.094-1.229,16.645c-0.16,1.61-0.869,3.729-2.063,4.602
			c-17.508,12.74-25.191,30.346-25.114,51.459c0.118,29.959,21.296,52.354,51.772,55.525c11.39,1.188,22.384-0.035,32.65-5.29
			c2.554-1.306,4.067-0.877,5.687,0.981c2.424,2.796,5.308,4.141,9.162,4.377c6.141,0.375,10.166,4.516,12.944,9.552
			c2.831,5.137,5.036,10.621,7.548,15.941c0.815,1.726,1.649,3.452,2.624,5.095c4.569,7.696,12.939,9.286,19.843,3.63
			c0.78-0.645,1.271-2.938,0.757-3.653c-4.144-5.792-8.482-11.443-12.944-16.999c-1.047-1.301-2.79-2.045-4.463-3.222
			c2.435-3.576,5.68-3.724,9.097-0.112c2.181,2.293,3.658,5.261,5.479,7.914c2.316,3.369,4.338,7.028,7.087,10.008
			c2.73,2.955,6.708,3.463,9.25,0.012c3.517-4.765,6.437-10.02,9.132-15.309c1.342-2.648,2.37-4.96,5.208-6.621
			c6.868-4.022,7.755-12.404,2.264-17.549c-3.481-3.257-8.057-2.627-10.149,1.803c1.909,0.709,3.913,1.188,5.622,2.182
			c1.116,0.647,2.683,2.249,2.488,3.038c-0.313,1.241-1.756,2.657-3.032,3.097c-4.658,1.623-9.759-2.015-10.994-7.542
			C527.264,270.914,530.42,266.247,535.533,265.594z M477.265,257.815c7.583-8.993,26.049-10.973,37.037-3.49
			c-6.041,11.21,1.991,19.857,5.94,28.96C505.837,274.753,491.527,266.271,477.265,257.815z"/>
		<path d="M498.324,137.537c-5.721-0.821-11.851-1.203-17.454-0.083c-16.313,3.263-27.249,20.318-24.311,36.715
			c0.579,3.263,5,6.295,9.776,6.809c4.663,0.502,9.368,0.866,13.979,1.705c16.84,3.059,28.815,13.867,40.323,25.476
			c9.103,9.188,18.347,18.25,27.675,27.219c3.463,3.331,7.678,1.903,11.922,1.011c-11.916-13.999-27.261-24.639-36.818-40.423
			c0.183-0.419,0.36-0.836,0.544-1.253c2.405,0.574,4.905,0.896,7.193,1.768c10.468,3.99,18.199,11.706,25.972,19.361
			c2.299,2.264,4.806,4.341,7.335,6.345c0.633,0.502,1.75,0.393,2.643,0.562c0.018-0.931,0.396-2.075-0.006-2.772
			c-12.957-22.502-28.555-42.235-54.474-50.841c-9.008-2.991-18.188-2.716-27.456-0.683c-1.306-4.643,0.615-7.84,3.588-10.465
			c4.924-4.341,11.325-6.49,17.26-5.213c18.914,4.075,36.801,11.047,50.235,25.724c4.646,5.074,7.46,11.81,11.201,17.724
			c0.715,1.144,1.861,2.021,2.813,3.02c0.426-0.425,0.852-0.848,1.276-1.271c0.036-13.207-5.426-24.139-14.629-33.26
			C540.699,148.614,520.508,140.724,498.324,137.537z"/>
		<path d="M400.927,303.984c0,0,1.514-5.101,21.185-10.645c0,0-16.904-0.503-28.88-9.08c0,0-60.904,173.51,73.264,206.8
			C466.501,491.055,364.109,436.433,400.927,303.984z"/>
	</g>
</g>
<g>
</g>
<g>
</g>
<g>
</g>
<g>
</g>
<g>
</g>
<g>
</g>
<g>
</g>
<g>
</g>
<g>
</g>
<g>
</g>
<g>
</g>
<g>
</g>
<g>
</g>
<g>
</g>
<g>
</g>
</svg>
