<?xml version="1.0" encoding="iso-8859-1"?>
<!-- Generator: Adobe Illustrator 16.0.0, SVG Export Plug-In . SVG Version: 6.00 Build 0)  -->
<!DOCTYPE svg PUBLIC "-//W3C//DTD SVG 1.1//EN" "http://www.w3.org/Graphics/SVG/1.1/DTD/svg11.dtd">
<svg version="1.1" id="Capa_1" xmlns="http://www.w3.org/2000/svg" xmlns:xlink="http://www.w3.org/1999/xlink" x="0px" y="0px"
	 width="95.356px" height="95.356px" viewBox="0 0 95.356 95.356" style="enable-background:new 0 0 95.356 95.356;"
	 xml:space="preserve">
<g>
	<g>
		<path d="M74.214,50.09c3.048-0.573,6.096-1.281,9.15-1.317c15.122-0.178,12.727-3.421,9.876-13.391
			C88.584,19.094,77.584,8.398,61.645,2.776c-0.506-0.179-1.031-0.296-1.573-0.399c-0.883-0.167-1.491,0.59-1.383,1.69
			c0.483,4.889,0.249,7.172-1.143,8.672c-0.751,0.81-1.53,0.301-1.448-0.8c0.09-1.212,0.184-2.398,0.271-3.563
			c0.083-1.102-0.526-1.402-1.354-0.671c-1.438,1.271-2.802,2.473-4.165,3.676c-0.828,0.731-0.797,1.895,0.188,2.394
			c3.874,1.962,7.978,0.849,12.032-0.13c1.073-0.259,1.451,0.303,0.692,1.106c-4.27,4.521-10.121,3.783-15.578,2.09
			c-1.055-0.327-1.265,0.006-0.483,0.787l5.174,5.174c0.591,0.591,0.684,1.395,0.273,1.967c-1.413,0.17-3.061,0.524-4.6,0.686
			c-1.099,0.115-2.188,0-2.423-0.08c-0.141-0.048-0.281-0.099-0.419-0.154c-1.798-0.728-4.005-1.279-5.139-2.65
			c-2.269-2.743-4.13-5.822-6.426-9.344c-0.604-0.925-0.207-1.689,0.897-1.734c2.052-0.084,4.016-0.19,5.958-0.031
			c2.021,0.165,3.633,0.181,5.434,0.369c1.1,0.115,1.938-0.319,2.197-0.976c0.147-0.373,0.354-0.714,0.569-1.145
			c1.098-2.197,2.382-4.301,3.687-6.483c0.567-0.948,0.146-1.913-0.946-2.085C31.342-2.093,7.259,11.912,1.38,36.247
			c-6.572,27.199,11.545,49.806,28.608,55.497c1.048,0.349,1.234-0.013,0.385-0.718c-2.446-2.028-4.729-3.832-6.794-5.857
			C5.692,67.614,4.83,40.563,21.301,21.661c1.877-2.154,2.831-5.121,4.173-7.731c0.523-1.018,1.001-2.06,1.689-3.537
			c0.466-1.001,1.427-1.128,2.161-0.303c3.121,3.506,6.07,6.348,8.062,9.751c3.746,6.395,4.253,7.443,9.873,6.83
			c1.099-0.12,2.88-0.256,3.984-0.276c0.752-0.013,1.585-0.032,2.348-0.054c0.493,0.065,0.985,0.13,1.483,0.19
			c1.097,0.131,2.04-0.049,2.097-0.326c0.058-0.277-0.6-1.058-1.373-1.847c-0.948-0.967-1.655-1.892-2.689-2.917
			c-0.785-0.777-0.647-1.659,0.44-1.845c5.163-0.885,6.891,3.154,10.737,5.552c0.487,0.304,0.731,1.579,0.559,2.269
			c-2.208,8.768,2.45,16.263,4.661,24.131c1.357,4.832,1.195,9.704-1.262,13.223c-3.56,5.098-9.603,7.309-15.881,5.725
			c-1.776-0.448-3.856-3.691-4.02-5.79c-0.487-6.317-1.413-7.743-7.438-7.991c-5.872-0.241-10.648-4.771-11.575-11.894
			c-0.467-3.585,0.188-7.343,0.568-10.998c0.069-0.679,0.325-1.338,0.627-1.993c0.461-1.004,0.341-1.841-0.274-1.871
			s-1.614,0.686-2.231,1.602c-0.737,1.095-1.493,2.215-2.297,3.407c-0.616,0.916-0.828,2.09-0.469,2.621
			c0.358,0.531,0.083,1.114-0.614,1.302c-0.696,0.188-0.707,1.044-0.022,1.911c0.25,0.316,0.5,0.633,0.757,0.96
			c0.684,0.867,0.354,1.705-0.738,1.872c-0.276,0.042-0.559,0.085-0.849,0.129c-1.092,0.166-1.247,0.82-0.347,1.46
			c0.898,0.64,1.773,1.262,2.757,1.96c0.899,0.64,0.736,1.215-0.366,1.284c-1.022,0.063-1.974,0.123-3.046,0.189
			c-1.104,0.069-1.188,0.511-0.191,0.986c1.648,0.786,3.142,1.498,4.903,2.339c0.997,0.477,0.918,0.984-0.176,1.136
			c-1.542,0.213-2.844,0.393-4.058,0.561c-1.094,0.151-2.018,0.447-2.062,0.661s0.772,0.647,1.83,0.97
			c3.311,1.008,6.621,2.017,9.932,3.025c1.057,0.321,1.896,0.807,1.873,1.085c-0.021,0.276-0.933,0.43-2.034,0.34
			c-2.847-0.231-5.693-0.462-8.541-0.693c-1.101-0.089-2.047,0.267-2.115,0.793c-0.066,0.527,0.753,1.15,1.831,1.391
			c4.243,0.946,8.485,1.894,12.729,2.841c1.078,0.241,1.956,0.557,1.961,0.708c0.005,0.149-0.885,0.311-1.988,0.358
			c-3.339,0.146-6.679,0.289-10.018,0.435c-1.104,0.048-2.032,0.292-2.073,0.544c-0.042,0.253,0.812,0.579,1.906,0.729
			c4.849,0.665,9.699,1.33,14.548,1.995c1.094,0.15,1.967,0.445,1.95,0.659c-0.019,0.214-0.922,0.483-2.021,0.603
			c-3.592,0.387-7.185,0.773-10.777,1.161c-1.099,0.118-1.999,0.464-2.013,0.771c-0.013,0.307,0.868,0.627,1.97,0.714
			c4.554,0.363,9.108,0.728,13.663,1.09c1.101,0.088,2.021,0.314,2.055,0.506s-0.819,0.509-1.905,0.707
			c-3.084,0.565-6.168,1.131-9.252,1.696c-1.086,0.199-1.972,0.649-1.979,1.004c-0.008,0.355,0.883,0.674,1.986,0.711
			c3.623,0.122,7.245,0.245,10.867,0.367c1.104,0.037,2.029,0.164,2.065,0.283c0.037,0.119-0.799,0.451-1.863,0.742
			c-2.3,0.628-4.602,1.255-6.9,1.883c-1.065,0.291-1.911,0.756-1.888,1.039s0.937,0.472,2.04,0.422
			c2.729-0.123,5.458-0.246,8.188-0.369c1.104-0.05,2.041,0.018,2.095,0.152c0.053,0.134-0.748,0.545-1.788,0.918
			c-1.433,0.514-2.863,1.027-4.295,1.542c-1.04,0.373-1.877,0.9-1.871,1.178c0.006,0.278,0.906,0.478,2.01,0.447
			c2.164-0.061,4.414-0.123,7.029-0.195c1.104-0.031,1.186,0.32,0.183,0.782c-1.23,0.567-2.312,1.065-3.335,1.539
			c-1.003,0.463-1.783,1.136-1.741,1.503s0.963,0.554,2.06,0.416l3.189-0.401c1.097-0.138,2.013-0.078,2.047,0.134
			c0.035,0.212-0.734,0.686-1.718,1.058c-0.982,0.373-1.809,0.903-1.843,1.188c-0.035,0.283,0.827,0.616,1.924,0.742
			c2.274,0.262,4.583,0.529,7.046,0.812c1.098,0.127,1.786-0.645,1.539-1.722c-1.453-6.324-2.773-12.075-4.123-17.949
			c-0.248-1.076,0.49-2.541,1.485-2.062c1.058,0.51,1.497,2.089,1.869,3.442c1.197,4.354,1.896,8.853,3.205,13.168
			c0.879,2.896,1.48,3.488,3.699,2.684c1.038-0.377,1.58-1.636,1.257-2.692c-1.509-4.93-3.021-9.873-4.532-14.816
			c-0.323-1.057-0.5-2.091-0.396-2.312c0.105-0.219,0.912,0.133,1.81,0.776c0.658,0.472,1.253,0.972,1.54,1.61
			c1.279,2.855,2.051,5.936,3.099,8.9c0.455,1.286,0.823,2.772,1.723,3.677c0.709,0.715,2.441,1.213,3.223,0.819
			c0.688-0.346,1.202-2.229,0.9-3.138c-1.117-3.371-2.531-6.651-3.973-9.904c-1.278-2.885-0.701-5.162,2.083-6.579
			c3.384-1.723,5.336-4.19,6.479-7.941c0.554-1.82,3.174-3.412,5.211-4.281c2.716-1.159,5.836-1.338,8.653-2.31
			c0.552-0.189,0.997-0.684,1.368-1.295c0.551-0.905,0.048-1.273-0.979-0.868c-6.347,2.5-12.682-0.505-18.877-0.199
			c-1.104,0.054-2.042-0.105-2.11-0.509C72.299,50.761,73.128,50.294,74.214,50.09z M92.958,42.959
			c-4.838,6.535-12.208,2.987-18.073,4.409c-1.073,0.26-1.998,0.253-2.145-0.263s0.607-1.133,1.685-1.378
			c5.729-1.302,11.496-2.614,17.649-4.013C93.151,41.469,93.615,42.071,92.958,42.959z M87.406,33.694
			c-3.013,5.402-9.119,3.97-14.033,5.173c-1.073,0.263-1.397-0.115-0.61-0.89c3.693-3.637,9.158-3.363,13.66-5.216
			C87.444,32.342,87.943,32.729,87.406,33.694z M83.786,30.117c-2.594,3.434-7.126,3.188-10.819,4.589
			c-1.033,0.392-1.463,0.032-0.795-0.848c2.615-3.444,7.16-3.125,10.83-4.563C84.031,28.893,84.452,29.236,83.786,30.117z
			 M63.7,20.053c0.785-3.46,4.379-3.855,7.097-5.238c0.984-0.501,1.543-0.207,1.035,0.774c-1.366,2.634-4.405,3.524-6.761,5.152
			C64.163,21.37,63.456,21.131,63.7,20.053z M66.878,22.936c1.239-3.911,5.409-4.115,8.65-5.533
			c1.012-0.443,1.556-0.086,0.999,0.868c-1.806,3.095-5.64,3.541-8.457,5.356C67.141,24.225,66.545,23.989,66.878,22.936z
			 M68.573,26.574c1.944-3.59,5.995-3.562,9.025-5.052c0.991-0.487,1.832-0.901,2.045-0.648c0.215,0.253-0.03,0.921-0.546,1.492
			c-0.516,0.571-1.607,1.626-2.503,2.274c-0.458,0.332-0.926,0.646-1.403,0.944c-0.938,0.584-2.587,1.272-3.636,1.62
			c-0.59,0.196-1.189,0.395-1.804,0.599C68.704,28.153,68.046,27.546,68.573,26.574z M69.781,31.664
			c-0.286-0.4-0.022-1.097,0.587-1.557c0.608-0.46,1.938-1.156,2.937-1.63c1.461-0.694,2.856-1.505,4.171-2.446
			c0.898-0.643,2.441-1.47,3.504-1.771c0.276-0.078,0.556-0.157,0.838-0.238c1.062-0.301,1.58,0.292,0.929,1.183
			c-2.722,3.719-7.385,3.922-10.851,5.989C70.948,31.76,70.067,32.064,69.781,31.664z M72.054,43.578
			c-1.096,0.136-1.333-0.373-0.43-1.008c5.148-3.622,11.033-2.908,16.297-5.081c1.021-0.422,1.476-0.038,0.975,0.946
			C87.309,41.547,85.336,41.925,72.054,43.578z"/>
		<path d="M91.422,60.667c-9.254,2.1-14.748,11.606-11.227,19.328c0.458,1.005,1.687,1.199,2.497,0.448
			c4.801-4.448,9.045-11.869,10.377-18.132C93.299,61.231,92.499,60.422,91.422,60.667z"/>
		<path d="M60.601,29.374c-0.29-1.066-0.794-1.937-1.127-1.945c-0.333-0.009-0.64,0.881-0.629,1.985
			c0.055,5.854,1.259,11.626,2.733,17.379c0.273,1.07,0.274,2.002-0.008,2.085c-0.283,0.083,0.173,0.622,1.02,1.204
			c0.846,0.582,0.759,1.504-0.195,2.06c-0.102,0.06-0.201,0.117-0.3,0.175c-0.954,0.557-1.704,1.193-1.674,1.421
			c0.03,0.229,0.949,0.374,2.053,0.324c0.932-0.042,1.86-0.083,2.784-0.124c1.104-0.049,1.764-0.953,1.474-2.019
			C64.647,44.259,62.622,36.808,60.601,29.374z"/>
		<path d="M33.268,29.079c-0.335,0.039-0.705,0.753-0.836,1.594c-0.093,0.595-0.126,1.148,0.124,1.502
			c5.342,7.565,10.82,15.035,16.311,22.495c0.191,0.261,0.549,0.401,1.089,0.371c0.661-0.038,0.671-0.993,0.057-1.911
			c-5.008-7.486-10.017-14.973-15.024-22.458C34.372,29.753,33.603,29.04,33.268,29.079z"/>
		<path d="M65.514,56.394c-0.244,0.036-0.479,0.07-0.705,0.104c-1.093,0.159-2.172,1.163-2.411,2.241
			c-0.5,2.261-0.951,4.303-1.391,6.286c-0.238,1.078,0.468,1.887,1.537,1.608c3.667-0.955,5.304-3.494,5.106-8.535
			C67.608,56.995,66.607,56.234,65.514,56.394z"/>
		<path d="M50.224,38.835c0.228,0.038,0.644-1.051,1.071-2.217c0.381-1.037,0.507-2.111,0.256-2.409
			c-0.25-0.299-1.327-0.345-2.404-0.104c-0.837,0.187-1.674,0.375-2.51,0.562c-1.078,0.241-1.968,0.802-1.986,1.252
			c-0.02,0.45,0.786,1.17,1.795,1.621C47.683,38.094,48.928,38.618,50.224,38.835z"/>
		<path d="M29.721,21.992c0.624-0.717,1.169-1.342,1.712-1.966c0.726-0.833,0.773-2.222,0.106-3.103
			c-0.402-0.53-0.814-1.075-1.232-1.628c-0.667-0.881-1.537-1.495-1.942-1.371c-0.406,0.124-0.661,1.116-0.57,2.217
			c0.138,1.653,0.282,3.381,0.447,5.366C28.333,22.607,28.995,22.824,29.721,21.992z"/>
	</g>
</g>
<g>
</g>
<g>
</g>
<g>
</g>
<g>
</g>
<g>
</g>
<g>
</g>
<g>
</g>
<g>
</g>
<g>
</g>
<g>
</g>
<g>
</g>
<g>
</g>
<g>
</g>
<g>
</g>
<g>
</g>
</svg>
