<?xml version="1.0" encoding="iso-8859-1"?>
<!-- Generator: Adobe Illustrator 16.0.0, SVG Export Plug-In . SVG Version: 6.00 Build 0)  -->
<!DOCTYPE svg PUBLIC "-//W3C//DTD SVG 1.1//EN" "http://www.w3.org/Graphics/SVG/1.1/DTD/svg11.dtd">
<svg version="1.1" id="Capa_1" xmlns="http://www.w3.org/2000/svg" xmlns:xlink="http://www.w3.org/1999/xlink" x="0px" y="0px"
	 width="93.347px" height="93.347px" viewBox="0 0 93.347 93.347" style="enable-background:new 0 0 93.347 93.347;"
	 xml:space="preserve">
<g>
	<g>
		<path d="M89.062,53.192c-0.594-2.513-1.162-5.396-0.492-7.757c0.975-3.427,0.693-5.889-1.578-8.737
			c-3.297-4.133-4.321-8.775-0.995-13.68c0.914-1.348,1.104-3.186,1.628-4.8c-0.246-0.139-0.492-0.277-0.738-0.416
			c-1.771,1.562-3.543,3.124-5.07,4.47c-2.762-0.769-5.674-0.788-7.393-2.231c-3.051-2.562-5.922-1.626-8.59-0.376
			c-2.289,1.072-3.921,0.871-5.83-0.401c-0.829-0.552-1.941-1.254-2.777-1.099c-1.763,0.326-4.297,0.692-4.963,1.899
			c-1.746,3.158-3.365,2.182-5.534,0.856c-1.958-1.197-3.843,0.23-4.81,1.388c-2.598,3.111-3.615,3.836-7.29,3.665
			c-0.978-0.045-1.987,0.665-2.969,0.635c-3.537-0.11-6.371,2.914-10.177,1.936c-3.42-0.878-6.11,1.476-8.291,3.524
			c-1.209,1.135-2.048,1.764-3.688,2.189c-2.802,0.726-6.548,1.578-7.786,3.644c-0.15,0.251-0.301,0.471-0.452,0.678
			c19.81,1.993,36.879,13.275,46.79,29.424c0.014-0.032,0.024-0.066,0.041-0.098c3.152-5.997,7.649-10.904,12.998-14.961
			c1.84,1.699,3.322,3.171,4.913,4.513c3.755,3.167,7.679,6.146,11.282,9.472c1.177,1.086,1.5,3.057,2.357,4.539
			c0.763,1.322,1.562,3.413,2.631,3.609c2.481,0.457,5.816,0.908,7.555-0.356c2.318-1.686,4.4-4.575,3.125-8.319
			C91.48,62.056,90.117,57.655,89.062,53.192z"/>
		<path d="M1.208,39.546c-1.269-0.153-1.726,1.795-0.448,1.95c17.378,2.096,34.549,12.2,43.498,27.446
			c0.653,1.112,2.334,0.028,1.682-1.084C36.753,52.207,19.062,41.699,1.208,39.546z"/>
	</g>
</g>
<g>
</g>
<g>
</g>
<g>
</g>
<g>
</g>
<g>
</g>
<g>
</g>
<g>
</g>
<g>
</g>
<g>
</g>
<g>
</g>
<g>
</g>
<g>
</g>
<g>
</g>
<g>
</g>
<g>
</g>
</svg>
