<?xml version="1.0" encoding="iso-8859-1"?>
<!-- Generator: Adobe Illustrator 16.0.0, SVG Export Plug-In . SVG Version: 6.00 Build 0)  -->
<!DOCTYPE svg PUBLIC "-//W3C//DTD SVG 1.1//EN" "http://www.w3.org/Graphics/SVG/1.1/DTD/svg11.dtd">
<svg version="1.1" id="Capa_1" xmlns="http://www.w3.org/2000/svg" xmlns:xlink="http://www.w3.org/1999/xlink" x="0px" y="0px"
	 width="96.442px" height="96.441px" viewBox="0 0 96.442 96.441" style="enable-background:new 0 0 96.442 96.441;"
	 xml:space="preserve">
<g>
	<g>
		<path d="M76.048,34.294c-2.343-2.343-6.569-2.9-9.439-1.244l-6.672,3.85l2.318,6.838l0.037,0.036l8.337-4.813
			c0-0.001,6.622,6.62,6.622,6.62c1.387,1.389,3.642,1.389,5.028,0.001c1.388-1.387,1.402-3.655,0.014-5.043L76.048,34.294z"/>
		<path d="M65.828,46.709l-4.602-2.325l0.004-0.004l-0.226-0.668l-0.229-0.676l-8.103-23.938c0.029-0.107,0.051-0.218,0.054-0.339
			c0.008-0.282,0.135-0.583,0.276-0.876l8.635,0.73c1.521,0.122,3.037-0.725,3.681-2.217c0.831-1.884-0.049-4.102-1.923-4.931
			L52.177,5.58l-3.069-2.427L47.314,0l-0.947,6.796l-2.435,3.129c-0.23,0.233-0.454,0.469-0.672,0.709
			c-1.497,1.407-2.529,3.149-2.834,4.979c-0.137,0.569-0.24,1.156-0.262,1.785c-0.007,0.211,0.028,0.395,0.088,0.557l0.369,17.944
			L19.051,57.471l-2.953,2.953c0,0-6.492,6.299-0.323,12.467l9.53,9.531l4.045-4.045c0,0-8.197-8.197-9.439-9.439
			c-1.129-1.129-2.045-3.598-0.875-5.364l9.216,8.885c0.175,0.216,0.385,0.427,0.635,0.625c0.045,0.036,0.081,0.071,0.125,0.106
			l1.309,1.263c2.403,2.836,0.792,5.287-2.554,7.922c-1.581,1.245-1.433,4.159,0,5.433c2.717,2.414,4.89,5.348,7.682,7.681
			c3.772,3.153,9.236-2.251,5.432-5.433c-1.792-1.498-3.33-3.242-4.92-4.938c4.024-4.821,4.574-10.943,0.128-15.793l0.095-0.093
			l17.875-17.875l0.373-0.373l0.606-0.605l-0.175,0.262l8.842,4.381c0.001-0.002-1.307,10.47-1.307,10.47
			c-0.275,2.194,1.196,4.19,3.281,4.448c0.152,0.02,0.304,0.029,0.454,0.029c1.906,0,3.59-1.496,3.844-3.531
			c0,0,0.464-6.713,1.036-11.291C71.585,50.564,69.263,48.446,65.828,46.709z"/>
	</g>
</g>
<g>
</g>
<g>
</g>
<g>
</g>
<g>
</g>
<g>
</g>
<g>
</g>
<g>
</g>
<g>
</g>
<g>
</g>
<g>
</g>
<g>
</g>
<g>
</g>
<g>
</g>
<g>
</g>
<g>
</g>
</svg>
