<?xml version="1.0" encoding="iso-8859-1"?>
<!-- Generator: Adobe Illustrator 16.0.0, SVG Export Plug-In . SVG Version: 6.00 Build 0)  -->
<!DOCTYPE svg PUBLIC "-//W3C//DTD SVG 1.1//EN" "http://www.w3.org/Graphics/SVG/1.1/DTD/svg11.dtd">
<svg version="1.1" id="Capa_1" xmlns="http://www.w3.org/2000/svg" xmlns:xlink="http://www.w3.org/1999/xlink" x="0px" y="0px"
	 width="91.926px" height="91.926px" viewBox="0 0 91.926 91.926" style="enable-background:new 0 0 91.926 91.926;"
	 xml:space="preserve">
<g>
	<g>
		<path d="M91.201,27.09c-0.223-1.879-0.875-5.983-2.509-8.421c-0.308-0.459-0.737-1.217-0.907-1.743
			c-0.537-1.672-1.792-5.064-3.457-6.303c-2.248-1.671-1.575-2.826-1.499-3.883s0.347-2.786-0.02-3.227
			c-0.366-0.441-2.843,2.536-2.056,4.169c0.787,1.633-0.309,0.768-0.499,0.615c-0.134-0.106-1.336-0.52-2.275-0.706
			c-0.541-0.107-1.467-0.134-1.715-0.627c-0.227-0.448-0.401-1.068-0.544-1.548c-0.204-0.687-0.665-1.523-1.524-2.016
			c-0.479-0.274-0.667,0.03-0.546,0.569c0.015,0.065,0.026,0.131,0.035,0.198c0.069,0.548-0.408,1.377-0.362,1.927
			c0.03,0.368,0.127,0.758,0.233,1.097c0.167,0.527,0.016,1.222-0.391,1.597c-2.153,1.994-8.232,8.218-8.375,15.09
			c-0.174,8.356-2.996,5.821-5.418,5.244c-2.42-0.576-6.915,1.786-9.277,1.729c-2.362-0.058-15.732-0.979-18.786,3.342
			c-3.055,4.322-9.105,0.692-9.682,0.231C21.07,33.979,3.595,40.267,0.095,49.437c-0.196,0.516-0.08,0.562,0.28,0.144
			c1.088-1.266,3.714-3.397,8.108-1.595c4.861,1.994-1.523,2.333-4.11,2.39c-0.553,0.012-0.57,0.14-0.035,0.276
			c2.202,0.56,7.604,1.663,10.14-0.208c3.228-2.382-0.691-4.111,2.113-5.379c1.832-0.828,2.681-0.214,2.812,0.441
			c0.109,0.541,0.102,0.762,0.527,0.41c0.382-0.316,0.809-0.845,1.106-1.726c0.176-0.523,0.312-1.42,0.557-1.915
			c1.039-2.099,4.099-3.616,6.021-2.601c0.488,0.258,0.586,1.035,0.4,1.555c-0.397,1.112-0.97,3.114-0.97,5.411
			c0,3.516-3.285,7.896-5.245,8.414c-1.885,0.499-0.623,7.184-6.166,13.283c-0.372,0.409-0.757,1.164-0.883,1.702
			c-0.297,1.263-1,3.547-2.518,5.647c-1.857,2.572-0.959,3.372,0.45,3.964c0.51,0.214,1.354,0.523,1.9,0.604
			c0.696,0.104,1.356,0.059,1.864-0.02c0.546-0.085,0.872-0.663,0.765-1.204c-0.19-0.961-0.448-2.452-0.484-3.633
			c-0.048-1.581,1.14-2.366,1.674-3.812c0.191-0.518,0.297-1.416,0.476-1.938c1.131-3.319,5.916-11.671,12.027-12.288
			c4.62-0.466,6.65-2.108,7.484-3.131c0.349-0.429,0.809-0.485,1.28-0.198c0.492,0.3,1.273,0.637,2.474,0.851
			c2.593,0.461,1.095,4.553-0.288,5.993c-1.384,1.441,0.346,1.729,0.634,3.342c0.288,1.613,2.362,6.57,3.055,8.702
			c0.691,2.132,2.073,0.98,1.729,2.018c-0.346,1.036-1.152,2.823,0.058,3.111c1.21,0.288,3.919,0.749,4.783,0.692
			c0.864-0.058-0.402-2.997-2.189-3.977c-1.786-0.979-0.635-2.478-1.557-3.572c-0.8-0.95-0.343-4.066-0.921-6.269
			c-0.141-0.534-0.248-1.375-0.179-1.923c0.062-0.503,0.095-1.079-0.018-1.414c-0.19-0.574,1.863-1.914,3.074-3.209
			c0.378-0.403,1.059-0.726,1.606-0.661c1.641,0.194,4.949,0.521,7.076,0.296c2.92-0.307,5.57,1.076,5.763,1.921
			c0.192,0.846,1.229,3.228,2.459,3.573c1.104,0.311,0.103,4.336,2.276,6.019c0.437,0.338,1.175,0.808,1.541,1.221
			c1.918,2.162,7.305,8.351,7.21,9.568c-0.115,1.48,0.499,2.018,1.498,2.018s0.729,2.305,0,3.035
			c-0.729,0.729,0.614,1.998,2.573,2.65c1.96,0.653,5.494,0.962,6.532,0c1.037-0.961-3.074-4.955-4.727-6.07
			c-1.167-0.787-2.027-1.747-2.364-2.596c-0.204-0.513-0.087-1.493-0.517-1.84c-0.46-0.369-1.188-0.633-1.499-1.136
			c-0.499-0.807-2.345-3.343-2.689-4.726c-0.212-0.851-1.033-1.932-1.636-2.64c-0.357-0.421-0.271-0.942,0.2-1.232
			c1.326-0.818,3.83-2.646,5.066-5.407c1.729-3.861,1.286-7.396,2.746-9.663s0.153-2.536-0.269-4.649
			c-0.424-2.112-2.498-1.268-3.612-1.92s0.5-2.267-0.576-5.494c-0.979-2.941,0.814-1.958,1.171-4.957
			c0.064-0.548,0.064-1.446,0.055-1.998c-0.051-3.054-0.463-5.306-0.822-7.013c-0.113-0.54-0.2-1.66,0.314-1.462
			c1.12,0.429,3.547,2.965,3.547,4.942c0,2.69,2.345,4.572,4.728,4.034c1.175-0.265,1.826-0.792,2.185-1.258
			c0.337-0.438,0.783-1.174,1.118-1.613c0.438-0.573,0.861-1.434,0.529-2.381C91.629,28.418,91.267,27.639,91.201,27.09z"/>
	</g>
</g>
<g>
</g>
<g>
</g>
<g>
</g>
<g>
</g>
<g>
</g>
<g>
</g>
<g>
</g>
<g>
</g>
<g>
</g>
<g>
</g>
<g>
</g>
<g>
</g>
<g>
</g>
<g>
</g>
<g>
</g>
</svg>
