<?xml version="1.0" encoding="iso-8859-1"?>
<!-- Generator: Adobe Illustrator 16.0.0, SVG Export Plug-In . SVG Version: 6.00 Build 0)  -->
<!DOCTYPE svg PUBLIC "-//W3C//DTD SVG 1.1//EN" "http://www.w3.org/Graphics/SVG/1.1/DTD/svg11.dtd">
<svg version="1.1" id="Capa_1" xmlns="http://www.w3.org/2000/svg" xmlns:xlink="http://www.w3.org/1999/xlink" x="0px" y="0px"
	 width="96.276px" height="96.276px" viewBox="0 0 96.276 96.276" style="enable-background:new 0 0 96.276 96.276;"
	 xml:space="preserve">
<g>
	<g>
		<path d="M95.25,59.769c-0.044-0.054-0.09-0.107-0.129-0.165c-0.162-0.243-0.314-0.495-0.466-0.749
			c-0.38-0.63-0.812-1.344-1.403-2.009c-0.875-0.981-1.796-1.896-2.688-2.782c-0.333-0.33-0.666-0.66-0.996-0.994
			c-0.966-1.916-2.641-2.99-4.727-3.031c-0.312-0.006-0.689-0.061-1.089-0.116c-0.471-0.067-1.005-0.142-1.576-0.161
			c-1.219-0.041-2.294-0.061-3.285-0.061c-0.633,0-1.265,0.008-1.896,0.025c-1.358,0.039-2.712,0.133-4.022,0.223
			c-0.472,0.031-0.942,0.064-1.415,0.095c-0.961,0.061-1.921,0.133-2.88,0.205l-0.101,0.008c-0.158,0.012-0.316,0.021-0.476,0.03
			c-0.499,0.029-1.064,0.062-1.658,0.168c-0.188,0.033-0.377,0.062-0.567,0.091c-0.85,0.129-1.908,0.29-2.911,0.81
			c-1.253,0.65-2.224,1.59-3.08,2.418c-0.903,0.875-1.782,1.778-2.632,2.652c-0.581,0.598-1.162,1.195-1.751,1.784
			c-0.05,0.05-0.1,0.1-0.151,0.149c-0.129-0.39-0.308-0.781-0.562-1.16c-1.039-1.547-2.273-2.881-3.466-4.17
			c-0.243-0.263-0.486-0.524-0.727-0.789c-0.721-0.791-1.606-1.309-2.21-1.629c-1.902-1.011-3.806-2.222-4.847-4.222
			c-0.746-1.435-1.559-2.871-2.414-4.268c-0.829-1.354-1.444-2.835-1.829-4.401c-0.023-0.097-0.043-0.2-0.057-0.306
			c0.552,0.054,1.074,0.089,1.576,0.106c0.084,0.003,0.168,0.004,0.252,0.004c0.477,0,0.918-0.044,1.307-0.083
			c0.301-0.03,0.585-0.058,0.815-0.058c1.718,0.015,3.471,0.03,5.202,0.149c0.403,0.028,1.347,0.093,1.815,0.327
			c0.39,0.195,0.949,0.858,1.25,1.214c1.097,1.3,2.542,2.015,4.069,2.015c0.974,0,1.927-0.283,2.831-0.84
			c0.175-0.108,0.35-0.221,0.523-0.335c0.373-0.242,0.725-0.471,0.979-0.561c1.621-0.578,2.707-1.742,3.14-3.366
			c0.552-2.07,0.676-3.824,0.392-5.517c-0.117-0.704-0.478-2.847-2.804-3.728c0.002,0.001,0.003,0.001,0.004,0.001
			c0.005,0-0.051-0.033-0.174-0.125c-0.451-0.338-0.897-0.681-1.344-1.025c-0.818-0.629-1.664-1.28-2.541-1.899
			c-0.554-0.391-1.106-0.726-1.642-1.051c-0.628-0.381-1.221-0.741-1.715-1.133c-1.053-0.835-2.107-1.697-3.151-2.562
			c0.059-0.183,0.096-0.372,0.11-0.562c0.21-0.253,0.373-0.551,0.473-0.883c0.339-1.137-0.168-2.356-1.215-2.917l-0.112-0.06
			c0.046-0.967-0.476-1.904-1.38-2.356c-0.418-0.209-0.836-0.42-1.253-0.631c-1.096-0.553-2.228-1.126-3.375-1.661
			c-0.622-0.29-1.23-0.396-1.674-0.473c-0.059-0.01-0.116-0.02-0.176-0.031c-0.646-0.271-1.345-0.522-2.144-0.612
			c-0.107-0.549-0.218-1.09-0.345-1.641c-0.229-0.995-0.918-1.55-1.212-1.788l-0.042-0.034c-0.472-0.453-1.095-0.697-1.731-0.697
			c-0.256,0-0.516,0.039-0.768,0.121c-0.897,0.289-1.556,1.06-1.703,1.991L33.44,6.961c-0.033,0.201-0.065,0.403-0.094,0.605
			c-0.022,0.162-0.039,0.325-0.055,0.488c-0.005,0.05-0.01,0.109-0.016,0.163c-0.104,0.16-0.233,0.37-0.346,0.633
			c-0.263-0.054-0.521-0.081-0.776-0.081c-0.634,0-1.235,0.158-1.839,0.483c-0.592,0.318-1.234,0.638-2.05,1.02
			c-0.209-0.034-0.408-0.051-0.604-0.051c-0.987,0-1.856,0.442-2.384,1.213c-0.08,0.117-0.169,0.268-0.249,0.45
			c-0.345,0.205-0.702,0.442-1.052,0.741l-0.117,0.101c-1.458,1.25-2.835,2.43-4.43,3.082c-0.821,0.336-1.504,0.796-2.105,1.201
			c-0.215,0.144-0.43,0.29-0.648,0.424c-0.564,0.347-0.969,0.905-1.123,1.551c-0.04,0.17-0.062,0.341-0.066,0.513
			c-0.79,0.737-1.501,1.621-2.036,2.742c-0.058,0.12-0.104,0.243-0.142,0.368c-0.78,0.581-1.562,1.199-2.3,1.902
			C9.929,25.538,9,26.691,8.101,27.807c-0.387,0.48-0.781,0.971-1.2,1.467c-0.834,0.986-0.78,2.444,0.124,3.366
			c0.069,0.071,0.143,0.138,0.219,0.199C6.731,33.57,6.22,34.32,5.736,35.098c-0.545,0.876-0.889,1.794-1.191,2.604l-0.117,0.311
			c-0.259,0.686-0.227,1.296-0.207,1.661c0.002,0.04,0.005,0.08,0.005,0.119c-0.027,1.073,0.626,2.011,1.582,2.386
			c-0.102,0.605,0.023,1.223,0.345,1.738c-0.025,0.048-0.05,0.093-0.072,0.135c-0.078,0.146-0.155,0.293-0.229,0.44
			c-0.069,0.139-0.128,0.279-0.184,0.421l-0.021,0.053c-0.217,0.523-0.441,1.047-0.665,1.569c-0.528,1.231-1.074,2.503-1.545,3.822
			c-0.489,1.377-0.88,2.77-1.257,4.115c-0.125,0.446-0.25,0.893-0.378,1.336c-0.132,0.458-0.15,0.86-0.164,1.127
			c-0.002,0.047-0.003,0.092-0.008,0.139c-0.128,1.332,0.815,2.527,2.14,2.715L3.855,59.8c-0.13,0.758-0.169,1.566-0.079,2.429
			c-0.637,0.869-1.309,1.497-2.443,2.104c-0.814,0.433-1.322,1.28-1.322,2.202v18.703v0.151c-0.015,0.156-0.014,0.312,0,0.464v0.754
			v2.569c0,1.381,1.119,2.5,2.5,2.5H29.83h2.928c1.481,0,2.242-1.124,2.541-1.58c0.205-0.151,0.419-0.303,0.633-0.455
			c0.414-0.292,0.842-0.595,1.255-0.931c1.268-1.03,2.512-2.122,3.715-3.178c0.198-0.176,0.397-0.351,0.597-0.524
			c0.268,0.038,0.536,0.058,0.801,0.058c1.132,0,2.212-0.34,3.211-1.01c0.572-0.384,1.171-0.747,1.805-1.131
			c0.484-0.294,0.971-0.589,1.447-0.895c0.455-0.291,0.874-0.593,1.279-0.883c0.269-0.195,0.538-0.389,0.812-0.574
			c0.652-0.438,1.301-0.883,1.949-1.328c1.565-1.074,3.184-2.186,4.8-3.17c0.607-0.371,1.27-0.703,1.971-1.057
			c1.41-0.71,3.005-1.513,4.396-2.787c0.041-0.023,0.084-0.046,0.126-0.068l0.141-0.074c0.325-0.178,0.658-0.344,0.991-0.512
			c0.823-0.414,1.675-0.84,2.51-1.422c0.169-0.117,0.265-0.144,0.284-0.144c0.007,0,0.163,0.003,0.55,0.233
			c0.41,0.246,0.972,0.535,1.694,0.593c0.553,0.045,1.105-0.101,1.658-0.068c0.437,0.026,0.87-0.094,1.304-0.094
			c0.002,0,0.004,0,0.006,0c0.606,1,1.209,0.83,1.812,1.161c0.566,0.311,1.132,0.71,1.702,1.014c0.542,0.29,0.564,0.432,0.6,0.579
			c0.138,0.585,0.419,1.808,1.262,2.835c-1.059,0.274-1.815,1.246-1.831,2.396l-0.007,0.422c-0.012,0.805,0.361,1.54,0.958,2.008
			c-0.001,0.703,0.295,1.391,0.842,1.876c0.074,0.065,0.151,0.128,0.232,0.185c0.046,0.271,0.139,0.537,0.276,0.785
			c0.445,0.807,1.289,1.292,2.188,1.292c0.045,0,0.091-0.001,0.136-0.004c0.091,0.095,0.196,0.214,0.278,0.304
			c0.361,0.402,0.735,0.68,1.035,0.902c0.092,0.068,0.187,0.135,0.272,0.209c1.438,1.223,3.087,1.635,4.412,1.967
			c0.448,0.111,0.873,0.217,1.251,0.344c0.275,0.092,0.567,0.138,0.864,0.138c1.214,0,2.705-0.83,3.101-2.22
			c0.247-0.869,0.396-1.776,0.443-2.696c0.026-0.507-0.022-0.965-0.062-1.333c-0.021-0.186-0.047-0.439-0.04-0.528
			c0.543-2.518-0.278-4.543-0.943-5.844l-0.271-0.53c-0.734-1.431-1.428-2.783-1.989-4.174c-0.377-0.936-1.057-2.285-2.606-3.188
			c-2.385-1.387-4.848-2.809-7.323-4.222c-0.403-0.229-0.797-0.429-1.177-0.62c-0.537-0.271-1.046-0.526-1.438-0.806
			c-1.292-0.92-2.588-1.924-3.842-2.894c-0.154-0.119-0.309-0.239-0.463-0.358c0.461-0.026,0.91-0.044,1.338-0.06
			c0.315-0.01,0.634-0.016,0.951-0.016c0.913,0,1.865,0.043,2.899,0.131c0.431,1.885,1.535,3.209,2.366,4.07
			c0.479,0.496,1.125,0.758,1.779,0.764c0.795,0.606,1.8,0.977,2.808,0.977c0.051,0,0.101-0.001,0.151-0.003
			c1.073,0.579,2.237,0.872,3.468,0.872c0.33,0,0.67-0.021,1.009-0.064c0.247-0.031,0.497-0.049,0.747-0.068
			c0.64-0.049,1.365-0.104,2.13-0.31c0.985-0.265,1.766-0.787,2.393-1.206l0.146-0.098c1.341-0.891,1.433-2.662,0.84-3.877
			C95.709,60.338,95.443,60.009,95.25,59.769z M93.706,62.583c-0.57,0.378-1.16,0.798-1.806,0.972
			c-0.814,0.22-1.69,0.205-2.537,0.312c-0.237,0.029-0.47,0.045-0.699,0.045c-0.927,0-1.797-0.246-2.617-0.771
			c-0.146-0.094-0.355-0.135-0.554-0.135c-0.077,0-0.151,0.006-0.221,0.018c-0.073,0.012-0.15,0.019-0.229,0.019
			c-0.712,0-1.572-0.499-1.836-1.123c-0.254-0.601-0.545-1.187-0.873-1.892c-0.609,0.721-0.273,1.393-0.079,2.037
			c-0.898-0.931-1.623-1.949-1.805-3.32c-0.112-0.848-0.819-1.381-1.613-1.457c-1.21-0.115-2.431-0.188-3.647-0.188
			c-0.348,0-0.694,0.006-1.04,0.018c-1.807,0.064-3.628,0.18-5.401,0.5c-1.591,0.289-2.832,1.289-3.743,2.654
			c-0.573,0.859-1.167,1.704-1.906,2.779c0.666-0.318,1.124-0.521,1.568-0.753c1.153-0.599,2.29-1.229,3.453-1.812
			c0.273-0.137,0.54-0.197,0.797-0.197c0.508,0,0.984,0.234,1.435,0.58c1.796,1.373,3.563,2.783,5.402,4.095
			c0.871,0.62,1.891,1.026,2.826,1.562c2.441,1.394,4.876,2.797,7.304,4.211c0.766,0.445,1.203,1.108,1.547,1.961
			c0.678,1.68,1.527,3.293,2.354,4.908c0.687,1.344,1.047,2.688,0.717,4.225c-0.15,0.699,0.095,1.476,0.057,2.212
			c-0.037,0.721-0.155,1.45-0.353,2.144c-0.05,0.176-0.462,0.403-0.695,0.403c-0.028,0-0.055-0.003-0.077-0.011
			c-1.635-0.543-3.439-0.659-4.831-1.842c-0.351-0.298-0.762-0.537-1.065-0.875c-0.532-0.594-1.05-1.164-1.904-1.164
			c-0.117,0-0.24,0.011-0.37,0.032c0.151-0.167,0.302-0.333,0.5-0.552c-0.594-0.182-0.431-1.234-1.04-1.234
			c-0.127,0-0.289,0.045-0.498,0.155c0.181-0.471,0.325-0.853,0.516-1.349c0.076-0.028,0.329-0.121,0.756-0.278
			c-0.896-0.14-1.563-0.242-2.23-0.345c0.002-0.141,0.004-0.279,0.007-0.42c0.172-0.002,0.358-0.038,0.529-0.038
			c0.093,0,0.182,0.011,0.26,0.043c0.218,0.089,0.432,0.132,0.634,0.132c0.558,0,1.027-0.329,1.213-0.939
			c0.12-0.397,0.234-0.804,0.282-1.213c0.064-0.568,0.015-1.072-0.683-1.316c-1.135-0.398-1.499-1.478-1.732-2.471
			c-0.262-1.111-0.95-1.686-1.855-2.168c-1.244-0.666-2.471-1.361-3.719-2.02c-0.233-0.123-0.525-0.16-0.794-0.18
			c-0.981-0.072-1.964-0.108-2.944-0.188c-0.21-0.017-0.424-0.133-0.612-0.245c-0.619-0.371-1.222-0.589-1.834-0.589
			c-0.557,0-1.121,0.181-1.711,0.591c-1.013,0.704-2.174,1.196-3.266,1.787c-0.243,0.133-0.505,0.255-0.703,0.44
			c-1.756,1.64-4.039,2.389-6.04,3.608c-2.339,1.426-4.571,3.029-6.845,4.562c-0.688,0.463-1.344,0.978-2.042,1.425
			c-1.089,0.697-2.225,1.334-3.297,2.055c-0.585,0.393-1.192,0.586-1.818,0.586c-0.31,0-0.626-0.048-0.946-0.142
			c-0.12-0.035-0.225-0.052-0.321-0.052c-0.257,0-0.451,0.117-0.689,0.324c-1.558,1.358-3.128,2.77-4.731,4.072
			c-0.641,0.521-1.411,1.258-2.062,1.766c-0.265,0.207-0.526,1.141-0.79,1.141h-2.928H2.011V86.61v-1.006l-0.01,0.018
			c0.003-0.014,0.01-0.027,0.01-0.041v-0.344V66.534c2-1.068,3.235-2.297,4.188-3.803c0.402-0.637,1.522-1.129,1.959-1.75
			c0.248-0.354,0.362-0.841,0.53-1.257c0.051-0.124,0.207-0.217,0.307-0.325c-0.195-0.178-0.376-0.354-0.642-0.594
			c-0.251,0.605-0.445,1.098-0.742,1.814c0.001-0.551,0.006-0.863,0.007-1.174c-0.078-0.022-0.155-0.045-0.233-0.067
			c-0.334,1.01-0.668,2.021-1.042,3.151c-0.683-3.703,1.835-6.094,3.342-8.985c-0.21,0.11-0.335,0.177-0.41,0.218
			c0.691-1.904,1.397-3.85,2.104-5.793c-0.092-0.048-0.184-0.095-0.276-0.143c-0.245,0.279-0.491,0.557-0.737,0.836
			c-0.031-0.024-0.062-0.047-0.093-0.071c0.132-0.224,0.264-0.448,0.395-0.671c-0.07-0.058-0.139-0.116-0.209-0.174
			c-0.573,0.691-1.137,1.391-1.724,2.071c-0.259,0.299-0.608,0.526-0.834,0.844c-0.212,0.297-0.376,0.656-0.45,1.011
			c-0.134,0.642-0.185,1.302-0.271,1.954c-0.082,0.012-0.163,0.025-0.245,0.037c-0.109-0.454-0.221-0.908-0.324-1.338
			c-0.693,0.379-1.029,1.176-1.521,3.854c-0.099-0.373-0.158-0.598-0.281-1.063c-0.162,0.91-0.279,1.574-0.397,2.237l-0.29-0.041
			c0.025-0.271,0.011-0.553,0.085-0.81c0.512-1.774,0.97-3.569,1.588-5.307c0.637-1.787,1.437-3.518,2.165-5.273
			c0.042-0.102,0.078-0.208,0.128-0.307c0.51-1.014,1.214-1.985,0.61-3.25c-0.072,0.039-0.215,0.117-0.422,0.229
			c0.527-1.479,1.035-2.899,1.569-4.396c-0.192,0.033-0.323,0.055-0.438,0.075c0.079-1.621,0.919-2.876,1.974-3.974
			c-0.199-0.268-0.363-0.488-0.603-0.813c-1.794,1.834-3.537,3.656-4.051,6.359c0.009-0.318-0.065-0.667,0.04-0.948
			c0.32-0.845,0.62-1.72,1.094-2.481c0.877-1.41,1.868-2.75,2.82-4.114c0.125-0.18,0.296-0.328,0.449-0.487
			c0.401-0.415,0.729-0.728,0.67-1.492c-0.053-0.694,0.462-1.532,0.939-2.14c0.688-0.878,1.572-1.602,2.365-2.399
			c0.271-0.272,0.522-0.566,0.806-0.875c-1.151,0.134-1.946,0.628-2.769,1.906c-1.071,1.669-2.684,2.729-4.333,4.072
			c1.391-1.642,2.53-3.24,3.927-4.568c1.382-1.316,3.022-2.36,4.55-3.524c-0.026-0.065-0.051-0.131-0.077-0.196
			c-0.498,0.238-0.995,0.475-1.499,0.716c0.97-2.035,2.857-3.093,4.694-4.223c-0.169-0.136-0.276-0.221-0.438-0.221
			c-0.271,0-0.702,0.242-1.854,0.893c-0.041-0.067-0.082-0.133-0.123-0.2c0.794-0.488,1.54-1.092,2.391-1.441
			c2.016-0.825,3.61-2.213,5.228-3.598c0.503-0.431,1.132-0.715,1.775-1.11c-0.187-0.483-0.069-0.692,0.282-0.692
			c0.145,0,0.33,0.036,0.55,0.103c0.057,0.017,0.12,0.025,0.188,0.025c0.176,0,0.372-0.055,0.525-0.126
			c0.869-0.401,1.733-0.816,2.575-1.269c0.233-0.125,0.438-0.185,0.655-0.185c0.177,0,0.361,0.04,0.576,0.116
			c0.165,0.058,0.336,0.086,0.507,0.086c0.863,0,1.739-0.69,1.955-1.524c0.08-0.309,0.369-0.562,0.462-0.87
			c0.111-0.37,0.113-0.773,0.169-1.161c0.038-0.272,0.085-0.542,0.127-0.814c0.189,0.192,0.497,0.356,0.549,0.58
			c0.269,1.167,0.473,2.35,0.714,3.603c0.391-0.013,0.834-0.065,1.286-0.065c0.163,0,0.327,0.007,0.49,0.024
			c0.575,0.063,1.133,0.29,1.687,0.528c0.516,0.118,1.07,0.152,1.538,0.371c1.539,0.718,3.048,1.504,4.568,2.263
			c-0.023,0.065-0.045,0.13-0.068,0.195c-0.553-0.158-1.105-0.316-1.709-0.487c0.667,1.431,1.952,2.003,3.204,2.675
			c-0.338-0.03-0.675-0.059-1.104-0.097c0.148,0.195,0.252,0.331,0.379,0.497c-0.185-0.027-0.316-0.047-0.501-0.075
			c0.232,0.379,0.444,0.725,0.657,1.071c-0.051,0.062-0.102,0.122-0.151,0.182c-1.143-0.735-2.283-1.471-3.55-2.287
			c0.275,0.373,0.469,0.633,0.798,1.076c-0.407-0.226-0.637-0.354-0.864-0.481c-0.043,0.036-0.087,0.072-0.13,0.109
			c0.133,0.172,0.24,0.375,0.403,0.511c2.482,2.069,4.942,4.168,7.476,6.175c1.077,0.854,2.339,1.47,3.466,2.266
			c1.304,0.921,2.549,1.925,3.828,2.882c0.241,0.181,0.503,0.355,0.783,0.461c0.844,0.319,1.088,0.984,1.225,1.805
			c0.256,1.524,0.047,3-0.342,4.459c-0.214,0.805-0.714,1.352-1.563,1.655c-0.702,0.25-1.328,0.725-1.974,1.123
			c-0.512,0.316-1.023,0.468-1.519,0.468c-0.791,0-1.536-0.391-2.158-1.128c-0.59-0.699-1.25-1.441-2.042-1.837
			c-0.817-0.409-1.825-0.625-2.761-0.69c-1.775-0.124-3.557-0.261-5.333-0.261c-0.016,0-0.03,0-0.045,0
			c-0.707,0-1.416,0.245-2.122,0.245c-0.057,0-0.112,0.051-0.167,0.049c-1.017-0.034-2.034-0.122-3.04-0.273
			c-0.058-0.008-0.114,0-0.169,0c-0.494,0-0.909,0.347-0.959,1.084c-0.058,0.839-0.062,1.725,0.137,2.533
			c0.442,1.802,1.146,3.514,2.125,5.112c0.823,1.344,1.601,2.719,2.328,4.117c1.305,2.51,3.489,4,5.892,5.276
			c0.554,0.293,1.119,0.648,1.536,1.105c1.377,1.51,2.832,2.982,3.964,4.668c0.549,0.816,0.441,2.074,0.635,3.131
			c0.093,0.499,0.194,0.995,0.337,1.725c1.306-1.263,2.46-2.35,3.582-3.471c1.461-1.46,2.871-2.972,4.355-4.408
			c0.765-0.74,1.564-1.514,2.493-1.996c0.816-0.424,1.828-0.491,2.765-0.658c0.618-0.11,1.255-0.12,1.883-0.167
			c0.984-0.074,1.969-0.148,2.953-0.212c1.783-0.112,3.565-0.26,5.351-0.312c0.607-0.017,1.217-0.025,1.825-0.025
			c1.067,0,2.136,0.024,3.201,0.06c0.902,0.03,1.799,0.261,2.7,0.278c1.257,0.025,2.051,0.64,2.573,1.716
			c0.06,0.124,0.118,0.261,0.212,0.356c1.271,1.299,2.601,2.545,3.809,3.9c0.655,0.734,1.104,1.652,1.655,2.48
			c0.204,0.307,0.483,0.57,0.641,0.896C93.78,62.086,93.812,62.512,93.706,62.583z"/>
	</g>
</g>
<g>
</g>
<g>
</g>
<g>
</g>
<g>
</g>
<g>
</g>
<g>
</g>
<g>
</g>
<g>
</g>
<g>
</g>
<g>
</g>
<g>
</g>
<g>
</g>
<g>
</g>
<g>
</g>
<g>
</g>
</svg>
