<?xml version="1.0" encoding="iso-8859-1"?>
<!-- Generator: Adobe Illustrator 16.0.0, SVG Export Plug-In . SVG Version: 6.00 Build 0)  -->
<!DOCTYPE svg PUBLIC "-//W3C//DTD SVG 1.1//EN" "http://www.w3.org/Graphics/SVG/1.1/DTD/svg11.dtd">
<svg version="1.1" id="Capa_1" xmlns="http://www.w3.org/2000/svg" xmlns:xlink="http://www.w3.org/1999/xlink" x="0px" y="0px"
	 width="583.041px" height="583.04px" viewBox="0 0 583.041 583.04" style="enable-background:new 0 0 583.041 583.04;"
	 xml:space="preserve">
<g>
	<g>
		<path d="M563.987,260.332c-2.666,0-5.03,0.532-6.791,1.046c-1.626-0.532-9.954-4.055-24.707-25.215
			c-16.261-23.315-41.322-36.153-70.563-36.153c-1.625,0-3.18,0.044-4.663,0.109c-9.05-7.463-18.695-14.012-26.185-18.944
			c-14.522-9.569-31.156-14.422-49.426-14.422c-26.215,0-50.372,10.148-64.8,16.656c1.141-1.294,2.258-2.663,3.375-4.111
			c5.172-6.688,6.229-14.797,2.849-21.705c-3.274-6.664-10.113-10.805-17.844-10.805c-0.007,0-0.007,0-0.007,0
			c-1.472,0-3.002,0.145-4.557,0.443c0.343-1.483,0.656-3.026,0.964-4.625c1.666-8.902-1.91-14.854-4.197-17.608
			c-0.901-1.088-1.9-2.062-2.982-2.917c2.202-3.218,4.934-9.339,2.475-17.871c-5.536-19.133-18.806-31.043-36.958-33.544
			c-1.959-4.486-5.585-8.257-10.415-10.609c-4.886-2.373-10.013-3.573-15.271-3.573c-0.521,0-1.043,0.012-1.552,0.039
			c-0.804-1.951-1.906-3.759-3.292-5.382c-3.795-4.448-9.351-7.004-15.259-7.004c-3.547,0-7.052,0.896-10.415,2.669
			c-6.797,3.579-16.154,9.771-22.118,18.941c-0.162,0.233-0.381,0.488-0.641,0.75c-3.49-2.586-7.855-4.025-12.557-4.025
			c-0.189,0-0.381,0-0.583,0.006c-0.635-1.132-1.427-2.264-2.415-3.366l-5.423-6.035L151.761,53h-0.006
			c-7.959,0-12.874,4.87-15.137,7.436c-0.435,0.16-1.33,0.426-2.843,0.618c-6.992,0.872-13.426,3.33-18.92,7.004
			c-2.282-4.788-7.004-14.496-18.982-14.496c0,0-0.006,0-0.012,0c-4.217,0-18.037,1.531-19.18,22.124
			c-0.757,13.562,3.605,31.604,7.929,45.731c-0.038,0.03-0.08,0.036-0.115,0.068c-14.023,10.355-13.624,22.322-8.426,38.287
			c2.01,6.174,3.239,21.444-11.142,54.317c-9.395,21.462,1.011,34.809,6.008,41.219c1.144,1.472,2.229,2.858,2.719,3.812
			c6.676,12.93,24.319,20.652,37.519,20.652c7.069,0,13.479-2.113,18.462-6.029c-4.4,14.514-5.346,27.394-5.319,35.923
			c-13.802,13.258-16.488,24.37-18.285,31.824c-1.437,5.939-2.095,8.658-15.078,16.349c-20.862,12.354-27.539,20.883-28.582,36.487
			c-0.228,3.499-0.487,7.471-10.338,18.902c-1.244,1.442-3.073,3.44-4.737,5.261c-1.022,1.123-1.992,2.181-2.778,3.062
			c-18.042,20.145-22.529,29.708-23.256,39.52c-0.035,0.047-0.071,0.083-0.115,0.124C10.79,472.342,4.678,485.943,1.374,495.389
			c-4.383,12.495,2.075,26.373,14.381,30.937c5.828,2.163,11.73,3.263,17.529,3.263c16.571,0,31.841-9.043,40.832-24.181
			c5.869-9.883,7.583-19.843,4.95-28.011c4.327-5.119,8.092-13.205,14.156-26.238l3.765-8.074c1.15-2.453,3.304-7.034,4.575-9.333
			c8.402-15.227,20.307-24.813,28.653-28.721c0.727-0.337,2.417-0.964,3.783-1.472c1.667-0.621,3.372-1.253,5.018-1.963
			c-0.452,3.311-0.999,6.621-1.38,8.879c-0.683,4.185-1.289,7.802-1.561,10.946c-0.036,0.071-0.334,0.94-0.544,1.572
			c-5.521,16.231,0.429,28.478,17.679,36.387c1.605,0.745,2.704,1.265,3.461,1.638c2.101,3.711,5.024,8.387,11.307,15.864
			c8.201,9.771,17.239,14.724,26.844,14.724c2.234,0,4.35-0.271,6.336-0.757c-1.768,1.915-3.228,3.842-4.395,5.793
			c-7.403,12.424-0.284,26.729,10.875,33.384c10.019,5.97,18.776,8.878,26.761,8.878c6.422,0,22.05-2.175,29.385-22.177
			c1.531-2.141,7.167-6.544,10.574-9.209c6.401-5.013,13.019-10.196,17.727-16.633c1.998-2.72,3.304-5.627,4.359-7.963
			c0.258-0.572,0.506-1.164,0.771-1.695c4.072-4.209,15.209-10.758,22.686-15.156c10.202-5.993,16.249-9.651,20.25-14.008
			c0.23-0.166,0.586-0.373,0.993-0.592c-1.915,2.542-3.96,4.989-5.987,7.425c-3.724,4.456-7.234,8.677-9.771,13.347
			c-0.686,0.756-4.091,2.133-5.929,2.878c-5.195,2.11-16.018,6.508-17.88,18.666c-1.909,12.584,8.026,20.765,11.296,23.454
			c7.873,6.473,17.064,9.889,26.604,9.889c17.715,0,33.993-11.986,38.71-28.49c2.275-7.554,22.177-41.232,28.715-52.304
			c2.796-4.723,4.899-8.293,5.786-9.9c0.509-0.917,1.832-2.873,3.003-4.61c6.661-9.836,20.404-30.121,4.93-44.792
			c-0.704-1.088-2.264-4.043-4.439-9.493c5.929-4.078,11.964-10.013,16.231-18.56c1.555-3.097,8.198-9.138,19.109-15.031
			c4.262-2.299,10.278-6.584,14.104-10.976c0.349-0.402,0.686-0.793,1.028-1.194c-9.274,22.13-9.18,48.752,14.623,68.601
			c5.154,4.291,10.332,5.201,13.771,5.201c7.336,0,16.971-4.409,20.203-16.787c1.235-2.252,6.874-7.188,11.012-10.822
			c3.777-3.304,8.051-7.051,12.324-11.318c6.555-6.556,12.737-15.947,10.822-27.061c3.305-3.369,7.306-8.086,11.94-14.753
			c3.854-5.55,4.45-10.698,3.989-14.611c6.833-6.785,11.703-14.422,14.937-20.602c4.953-9.484,2.151-16.754,0.048-20.239
			C576.902,263.728,570.785,260.332,563.987,260.332z M564.206,281.232c-3.387,6.458-10.309,17.315-21.084,23.392
			c-2.783,1.572-3.375,4.409-0.36,5.474c0.402,0.153,0.84,0.271,1.277,0.366c3.126,0.674,4.237,1.419,2.405,4.043
			c-3.777,5.444-10.285,13.974-16.095,17.413c-8.831,5.237,10.143,7.199-4.587,21.917c-12.354,12.36-25.629,20.569-28.029,30.239
			c-0.514,2.081-1.395,3.369-2.665,3.369c-0.627,0-1.342-0.312-2.146-0.992c-8.677-7.229-24.488-26.279-3.788-58.458
			c18.395-28.596,5.106-46.515-7.513-49.615c-0.337-0.085-0.668-0.121-1.005-0.121c-2.755,0-5.344,2.651-6.177,5.388
			c-3.458,11.319-10.592,23.726-22.484,37.416c-2.11,2.417-6.225,5.408-9.044,6.933c-7.666,4.144-21.657,12.779-26.723,22.898
			c-4.374,8.754-11.91,13.24-17.058,15.392c-2.95,1.241-4.747,4.268-3.713,7.294c2.726,8.074,8.08,22.556,12.437,26.386
			c6.136,5.402-7.11,20.611-11.041,27.722c-3.919,7.11-32.628,53.971-36.062,65.987c-2.317,8.115-11.101,15.333-21.249,15.333
			c-4.9,0-10.107-1.69-15.062-5.757c-15.208-12.514,9.079-7.85,16.929-22.325c7.542-13.902,38.615-34.146,24.979-77.449
			c-0.586-1.855-1.903-2.872-3.375-2.872c-0.94,0-1.939,0.426-2.832,1.3c-4.705,4.61-11.668,12.555-12.146,19.659
			c-0.738,10.793-14.724,11.041-21.102,18.146c-5.526,6.171-34.469,19.162-44.002,30.34c-2.075,2.43-3.541,7.56-5.429,10.143
			c-7.415,10.137-27.006,19.854-30.559,29.933c-2.287,6.472-5.981,10.651-12.48,10.651c-4.4,0-10.072-1.91-17.463-6.312
			c-2.746-1.638-6.209-5.74-4.575-8.494c1.339-2.234,4.158-5.237,9.75-9.091c14.963-10.297,20.363-8.098,27.231-18.643
			c6.871-10.557,9.812-4.421,23.309-17.425c10.938-10.533,22.195-17.047,26.592-24.494c1.632-2.755,3.642-7.336,5.651-9.824
			c1.886-2.334,4.113-5.296,5.691-8.133c1.561-2.79,2.637-8.109,5.102-10.154c4.12-3.394,11.188-5.58,13.636-7.502
			c2.436-1.92,11.691-13.742,16.84-20.427c1.951-2.536,2.5-6.981,1.448-10.007c-1.282-3.677-2.701-8.535-2.837-12.26
			c-0.029-0.874-0.254-1.265-0.757-1.265c-2.784,0-14.15,11.65-48.752,11.65c-7.35,0-15.743-0.526-25.319-1.803
			c0,0-1.918-0.414-4.678-0.414c-4.897,0-12.434,1.301-16.663,8.512c-2.453,4.185-4.947,5.497-7.737,5.497
			c-4.72,0-10.308-3.783-18.025-3.783c-7.4,0-17.117-1.69-24.795-1.69c-5.054,0-9.221,0.733-11.266,3.169
			c-5.157,6.129-22.818,19.623-4.412,47.345c18.4,27.722,42.2-6.13,22.57,40.229c0,0-3.346,8.003-10.119,8.003
			c-3.426,0-7.74-2.057-12.942-8.245c-15.457-18.4-6.135-15.457-21.099-22.325c-14.969-6.868-7.359-11.525-6.62-19.872
			c0.729-8.334,5.396-27.225,3.183-36.304c-2.205-9.079-4.412-14.724-1.224-18.158c0.29-0.307,0.405-0.449,0.405-0.449
			c-0.319,0-11.922,10.676-23.265,16.184c-2.881,1.396-7.849,2.944-10.743,4.304c-12.173,5.687-26.867,18.288-36.862,36.387
			c-1.549,2.802-3.759,7.501-5.119,10.402c-9.522,20.286-13.751,30.417-17.153,31.552c-3.682,1.229-6.38,7.111-1.962,15.209
			c3.559,6.525-7.536,29.293-28.15,29.293c-3.476,0-7.22-0.644-11.222-2.133c-3.002-1.111-4.619-4.883-3.558-7.909
			c2.391-6.821,7.406-18.643,15.941-27.834c12.262-13.21-6.762-6.011,23.575-39.88c2.143-2.376,5.677-6.171,7.767-8.605
			c29.358-34.094-1.431-30.388,34.406-51.613c35.432-20.978,12.833-29.116,38.278-52.18c2.373-2.152,4.111-6.337,4.025-9.541
			c-0.26-9.8,0.877-30.697,12.655-52.112c16.192-29.438,1.962-57.408,0-58.88c-0.047-0.036-0.121-0.053-0.204-0.053
			c-3.428,0-35.074,27.104-33.162,48.143c0.857,9.428-4.22,12.776-10.619,12.776c-8.237,0-18.672-5.562-21.376-10.811
			c-4.805-9.321-15.108-13.739-8.237-29.438c6.869-15.702,18.64-46.122,11.771-67.22c-6.082-18.684-0.236-13.896,8.334-23.8
			c2.102-2.42,2.58-7.099,1.599-10.152c-3.153-9.791-9.188-30.467-8.456-43.577c0.198-3.608,0.526-5.048,1.052-5.048
			c1.75,0,5.745,15.67,15.004,20.694c0.6,0.322,1.224,0.467,1.871,0.467c2.385,0,4.915-1.986,6.392-4.031
			c2.728-3.789,7.868-8.5,16.905-9.632c7.584-0.948,11.621-3.611,13.764-6.111c0.999-1.162,1.622-1.797,1.959-1.797
			c0.375,0,0.414,0.756,0.236,2.414c-0.145,1.356-0.375,2.79-0.745,4.12c-0.768,2.834-3.067,5.364-0.993,5.364
			c0.183,0,0.402-0.018,0.662-0.059c3.263-0.529,8.647-1.395,16.645-2.314c0.319-0.036,0.618-0.053,0.884-0.053
			c2.414,0,2.881,1.457,1.578,3.898c-0.884,1.669-1.507,3.582-1.12,5.343c0.177,0.804,1.005,1.168,2.281,1.168
			c5.728,0,20.472-7.371,25.688-15.398c3.875-5.955,10.633-10.282,15.35-12.764c0.745-0.393,1.398-0.576,1.954-0.576
			c1.558,0,2.308,1.436,1.933,3.765c-0.594,3.626-0.727,8.178,1.368,11.054c0.63,0.872,1.428,1.203,2.388,1.203
			c3.174,0,8.077-3.673,14.414-3.673c2.264,0,4.708,0.467,7.323,1.737c2.875,1.398,2.264,3.703-0.691,4.927
			c-3.6,1.496-7.861,4.049-9.206,8.068c-0.349,1.04,0.225,1.416,1.489,1.416c3.239,0,11.003-2.456,19.411-2.456
			c10.465,0,21.923,3.806,26.867,20.912c0.583,2.01,0.139,3.044-0.993,3.044c-0.597,0-1.386-0.29-2.329-0.884
			c-2.639-1.664-6.07-3.298-9.389-3.298c-3.026,0-5.949,1.362-8.074,5.313c-5.447,10.119,7.317,23.017,18.226,23.017
			c0.907,0,1.814-0.089,2.687-0.284c0.733-0.157,1.386-0.249,1.944-0.249c1.827,0,2.687,0.937,2.231,3.349
			c-0.828,4.397-2.258,10.433-4.418,14.75c-1.433,2.861-1.59,6.343,1.188,7.936c3.455,1.971,8.733,4.078,15.501,4.078
			c2.37,0,4.912-0.26,7.637-0.872c0.591-0.133,1.105-0.201,1.543-0.201c1.855,0,2.228,1.188,0.644,3.239
			c-2.92,3.771-7.441,8.86-12.294,11.58c-2.79,1.56-4.625,4.344-2.953,7.075c1.838,3.026,4.761,6.514,8.963,7.947
			c3.032,1.034,3.429,1.859,0.385,2.84c-1.909,0.617-4.2,1.155-6.603,1.282c-3.195,0.168-3.963,1.318-1.307,3.104
			c3.106,2.083,7.69,4.268,13.281,4.268c0.875,0,1.768-0.054,2.689-0.169c3.175-0.398,8.004-2.402,10.924-3.724
			c12.921-5.834,36.966-17.478,62.684-17.478c13.134,0,26.699,3.038,39.442,11.431c8.771,5.775,17.696,11.967,25.753,18.74
			c2.3,1.93,6.39,3.263,9.517,3.263c0.213,0,0.42-0.006,0.626-0.018c1.537-0.098,3.187-0.151,4.936-0.151
			c15.723,0,39.101,4.628,55.668,28.38c18.193,26.087,31.393,33.071,39.892,33.071c1.584,0,3.009-0.243,4.268-0.653
			c0.964-0.311,1.714-0.485,2.234-0.485C565.133,278.49,565.222,279.294,564.206,281.232z M227.215,430.719
			c-5.943-9.688-16.009-10.397-20.841-10.74c-4.678-0.325-5.938-0.597-8.843-4.977c-8.364-12.59-5.296-16.443,0.183-22.496
			c0.122,0,0.237,0,0.37,0c2.982,0,6.978,0.579,10.846,0.957c4.622,0.449,9.393,1.005,13.95,1.005c1.442,0,3.36,0.668,5.568,1.396
			c3.342,1.087,7.5,2.459,12.457,2.459c5.485,0,15.696-1.797,23.061-13.879c0.305-0.06,0.751-0.106,1.345-0.106
			c0.446,0,0.822,0.035,1.034,0.06l0.937,0.248l0.322-0.048c9.762,1.301,19.083,1.956,27.704,1.956
			c9.428,0,17.461-0.773,24.264-1.962c-0.567,0.668-1.022,1.2-1.389,1.614c-0.438,0.2-0.916,0.419-1.419,0.649
			c-3.546,1.644-8.411,3.878-12.602,7.354c-5.319,4.397-7.513,10.237-8.964,14.097c-0.188,0.503-0.363,0.993-0.553,1.437
			c-0.526,0.898-1.651,2.648-3.818,5.325c-2.482,3.068-4.279,6.525-5.863,9.57c-0.467,0.898-0.896,1.761-1.315,2.459
			c-1.035,1.689-5.973,5.68-9.582,8.594c-4.235,3.416-9.035,7.294-13.976,12.046c-4.265,4.12-6.174,4.936-8.571,5.964
			c-5.5,2.371-11.372,5.444-17.345,14.623c-1.362,2.087-1.362,2.087-5.854,4.232c-2.438,1.165-5.441,2.602-9.064,4.688
			c0.99-1.59,1.82-3.191,2.474-4.752C229.606,453.824,233.933,441.684,227.215,430.719z M139.881,247.192
			c-0.23-2.536,1.56-6.41,4.297-10.574c-0.635,4.043-1.912,8.363-4.152,12.8C139.996,248.699,139.955,247.955,139.881,247.192z"/>
	</g>
</g>
<g>
</g>
<g>
</g>
<g>
</g>
<g>
</g>
<g>
</g>
<g>
</g>
<g>
</g>
<g>
</g>
<g>
</g>
<g>
</g>
<g>
</g>
<g>
</g>
<g>
</g>
<g>
</g>
<g>
</g>
</svg>
