<?xml version="1.0" encoding="iso-8859-1"?>
<!-- Generator: Adobe Illustrator 16.0.0, SVG Export Plug-In . SVG Version: 6.00 Build 0)  -->
<!DOCTYPE svg PUBLIC "-//W3C//DTD SVG 1.1//EN" "http://www.w3.org/Graphics/SVG/1.1/DTD/svg11.dtd">
<svg version="1.1" id="Capa_1" xmlns="http://www.w3.org/2000/svg" xmlns:xlink="http://www.w3.org/1999/xlink" x="0px" y="0px"
	 width="95.021px" height="95.021px" viewBox="0 0 95.021 95.021" style="enable-background:new 0 0 95.021 95.021;"
	 xml:space="preserve">
<g>
	<g>
		<path d="M95.011,86.732V70.131v-2.818V67.1c-2-1.123-2.74-2.412-3.739-3.992c-0.423-0.67-1.075-1.186-1.532-1.838
			c-0.26-0.371-0.315-0.881-0.491-1.318c-0.052-0.131-0.185-0.229-0.288-0.342c0.204-0.186,0.41-0.373,0.688-0.623
			c0.263,0.637,0.476,1.15,0.788,1.904c-0.001-0.578-0.002-0.906-0.003-1.234c0.082-0.021,0.164-0.047,0.247-0.069
			c0.351,1.062,0.702,2.121,1.095,3.31c0.717-3.889-1.925-6.397-3.508-9.434c0.22,0.116,0.352,0.186,0.432,0.229
			c-0.727-2-1.468-4.041-2.209-6.082c0.098-0.05,0.193-0.1,0.29-0.15c0.258,0.292,0.518,0.585,0.775,0.877
			c0.032-0.024,0.063-0.05,0.097-0.075c-0.138-0.234-0.275-0.47-0.413-0.705c0.073-0.061,0.146-0.122,0.22-0.183
			c0.602,0.726,1.192,1.46,1.809,2.174c0.271,0.313,0.638,0.552,0.875,0.886c0.221,0.311,0.395,0.688,0.472,1.061
			c0.141,0.674,0.193,1.367,0.283,2.052c0.086,0.013,0.171,0.026,0.257,0.039c0.116-0.478,0.232-0.953,0.342-1.403
			c0.729,0.397,1.08,1.233,1.597,4.047c0.104-0.393,0.166-0.627,0.295-1.117c0.17,0.957,0.294,1.652,0.418,2.349l0.304-0.043
			c-0.027-0.284-0.011-0.581-0.089-0.851c-0.538-1.861-1.018-3.746-1.667-5.569c-0.668-1.877-1.508-3.693-2.272-5.536
			c-0.045-0.107-0.081-0.218-0.134-0.322c-0.535-1.065-1.273-2.084-0.641-3.412c0.075,0.041,0.226,0.123,0.443,0.241
			c-0.556-1.553-1.088-3.043-1.648-4.614c0.202,0.035,0.339,0.058,0.46,0.079c-0.083-1.701-0.965-3.019-2.072-4.171
			c0.209-0.282,0.381-0.513,0.633-0.853c1.884,1.925,3.714,3.838,4.251,6.675c-0.009-0.334,0.069-0.7-0.042-0.995
			c-0.336-0.887-0.65-1.805-1.146-2.604c-0.921-1.481-1.962-2.887-2.961-4.318c-0.132-0.188-0.311-0.345-0.472-0.512
			c-0.422-0.436-0.765-0.764-0.703-1.567c0.055-0.728-0.485-1.608-0.985-2.247c-0.723-0.922-1.651-1.682-2.484-2.518
			c-0.284-0.286-0.548-0.594-0.845-0.918c1.208,0.14,2.043,0.659,2.905,2.001c1.126,1.752,2.816,2.865,4.549,4.274
			c-1.459-1.724-2.656-3.401-4.121-4.795c-1.451-1.381-3.173-2.478-4.775-3.699c0.026-0.069,0.054-0.137,0.079-0.206
			c0.522,0.249,1.046,0.499,1.573,0.751c-1.018-2.137-2.999-3.247-4.927-4.433c0.478-0.383,0.478-0.383,2.407,0.705
			c0.043-0.07,0.086-0.14,0.129-0.21c-0.833-0.512-1.616-1.147-2.51-1.512c-2.117-0.866-3.789-2.323-5.487-3.777
			c-0.528-0.452-1.188-0.75-1.864-1.166c0.278-0.717-0.086-0.858-0.873-0.618c-0.22,0.067-0.524-0.003-0.747-0.106
			c-0.912-0.421-1.818-0.856-2.703-1.332c-0.442-0.238-0.791-0.251-1.293-0.073c-1.047,0.371-2.312-0.461-2.584-1.51
			c-0.084-0.324-0.387-0.589-0.484-0.913c-0.117-0.389-0.12-0.811-0.178-1.219c-0.04-0.285-0.089-0.569-0.134-0.854
			c-0.199,0.201-0.521,0.374-0.576,0.609c-0.281,1.225-0.497,2.467-0.75,3.782c-0.557-0.019-1.22-0.112-1.863-0.042
			c-0.604,0.066-1.189,0.304-1.771,0.554c-0.541,0.124-1.123,0.16-1.615,0.389c-1.615,0.754-3.198,1.578-4.795,2.375
			c0.024,0.068,0.047,0.136,0.071,0.204c0.581-0.166,1.161-0.331,1.794-0.512c-0.7,1.502-2.049,2.102-3.364,2.808
			c0.354-0.031,0.708-0.062,1.159-0.102c-0.156,0.205-0.264,0.347-0.396,0.522c0.192-0.029,0.332-0.049,0.525-0.078
			c-0.244,0.397-0.468,0.761-0.69,1.124c0.053,0.064,0.106,0.128,0.159,0.191c1.198-0.772,2.397-1.544,3.728-2.401
			c-0.29,0.392-0.493,0.664-0.838,1.13c0.427-0.238,0.667-0.371,0.907-0.505c0.046,0.038,0.091,0.076,0.136,0.114
			c-0.14,0.18-0.252,0.394-0.423,0.536c-2.606,2.172-5.189,4.375-7.849,6.482c-1.131,0.896-2.455,1.543-3.639,2.379
			c-1.369,0.967-2.676,2.02-4.018,3.026c-0.255,0.19-0.528,0.373-0.822,0.484c-0.886,0.335-1.143,1.033-1.286,1.894
			c-0.269,1.6-0.049,3.149,0.359,4.681c0.225,0.845,0.75,1.419,1.641,1.737c0.737,0.263,1.395,0.761,2.073,1.179
			c1.396,0.861,2.798,0.565,3.859-0.693c0.619-0.733,1.312-1.513,2.145-1.929c0.856-0.429,1.916-0.547,2.898-0.615
			c1.86-0.128,3.729-0.147,5.596-0.163c0.815-0.007,1.636,0.172,2.45,0.145c1.065-0.036,2.135-0.156,3.19-0.314
			c0.593-0.089,1.125,0.257,1.185,1.117c0.06,0.881,0.064,1.807-0.144,2.655c-0.465,1.892-1.204,3.687-2.23,5.365
			c-0.864,1.41-1.682,2.853-2.444,4.32c-1.37,2.634-3.663,4.198-6.186,5.538c-0.582,0.309-1.175,0.681-1.611,1.16
			c-1.446,1.586-2.974,3.133-4.161,4.9c-0.576,0.858-0.463,2.178-0.667,3.286c-0.096,0.522-0.204,1.045-0.354,1.812
			c-1.369-1.325-2.582-2.467-3.76-3.644c-1.534-1.532-3.014-3.12-4.571-4.627c-0.803-0.776-1.643-1.59-2.616-2.095
			c-0.858-0.445-1.919-0.518-2.902-0.691c-0.649-0.115-1.317-0.127-1.977-0.176c-1.033-0.078-2.066-0.156-3.1-0.221
			c-1.872-0.119-3.743-0.274-5.616-0.328c-1.758-0.051-3.519-0.023-5.276,0.035c-0.947,0.033-1.889,0.275-2.834,0.293
			c-1.319,0.025-2.152,0.671-2.701,1.801c-0.063,0.131-0.124,0.273-0.222,0.374c-1.337,1.362-2.73,2.672-3.998,4.094
			c-0.688,0.771-1.158,1.734-1.737,2.604c-0.214,0.32-0.507,0.598-0.673,0.938c-0.103,0.21-0.138,0.658-0.025,0.731
			c0.599,0.398,1.218,0.839,1.896,1.021c0.854,0.23,1.773,0.215,2.663,0.326c1.253,0.156,2.405-0.074,3.48-0.762
			c0.214-0.137,0.553-0.167,0.813-0.123c0.78,0.133,1.858-0.434,2.166-1.159c0.267-0.631,0.571-1.245,0.917-1.985
			c0.64,0.758,0.286,1.463,0.083,2.139c0.943-0.977,1.703-2.047,1.895-3.485c0.118-0.89,0.859-1.448,1.693-1.528
			c1.632-0.156,3.283-0.236,4.92-0.178c1.896,0.066,3.808,0.188,5.67,0.523c1.67,0.303,2.972,1.354,3.929,2.787
			c0.603,0.9,1.226,1.789,2,2.916c-0.699-0.334-1.18-0.547-1.646-0.789c-1.21-0.629-2.404-1.291-3.624-1.901
			c-0.856-0.429-1.629-0.144-2.344,0.401c-1.884,1.44-3.739,2.922-5.671,4.297c-0.914,0.652-1.984,1.078-2.967,1.64
			c-2.562,1.464-5.118,2.937-7.667,4.421c-0.803,0.469-1.263,1.164-1.624,2.059c-0.711,1.765-1.603,3.457-2.471,5.154
			c-0.721,1.408-1.1,2.821-0.753,4.432c0.158,0.736-0.101,1.551-0.06,2.322c0.039,0.758,0.163,1.523,0.37,2.25
			c0.06,0.209,0.598,0.482,0.812,0.412c1.717-0.57,3.61-0.691,5.07-1.934c0.368-0.312,0.801-0.564,1.119-0.919
			c0.634-0.707,1.25-1.386,2.388-1.187c-0.158-0.176-0.316-0.351-0.524-0.58c0.755-0.231,0.346-1.799,1.614-1.133
			c-0.188-0.494-0.341-0.895-0.541-1.418c-0.08-0.029-0.346-0.127-0.794-0.291c0.939-0.146,1.64-0.255,2.341-0.363
			c-0.002-0.146-0.004-0.293-0.006-0.439c-0.279-0.004-0.592-0.094-0.829,0.005c-0.854,0.351-1.673,0.026-1.938-0.849
			c-0.126-0.418-0.247-0.844-0.296-1.273c-0.067-0.597-0.016-1.125,0.716-1.382c1.191-0.418,1.573-1.55,1.819-2.595
			c0.274-1.166,0.997-1.768,1.948-2.275c1.306-0.697,2.594-1.429,3.903-2.119c0.244-0.13,0.552-0.169,0.835-0.189
			c1.028-0.076,2.062-0.114,3.09-0.197c0.22-0.018,0.445-0.141,0.642-0.258c1.243-0.744,2.421-0.901,3.721,0.003
			c1.064,0.739,2.282,1.255,3.429,1.876c0.255,0.138,0.529,0.268,0.737,0.462c1.845,1.722,4.24,2.507,6.341,3.787
			c2.454,1.497,4.799,3.177,7.185,4.786c0.722,0.486,1.411,1.021,2.143,1.49c1.145,0.732,2.335,1.393,3.461,2.148
			c0.918,0.616,1.888,0.747,2.901,0.449c0.458-0.135,0.717-0.049,1.062,0.252c1.635,1.426,3.283,2.837,4.967,4.205
			c0.671,0.546,1.48,0.92,2.164,1.453c0.277,0.217,0.552,0.438,0.829,0.656h3.073h27.891v-2.142v-1.056l0.011,0.019
			c-0.004-0.01-0.011-0.024-0.011-0.038V86.732z"/>
	</g>
</g>
<g>
</g>
<g>
</g>
<g>
</g>
<g>
</g>
<g>
</g>
<g>
</g>
<g>
</g>
<g>
</g>
<g>
</g>
<g>
</g>
<g>
</g>
<g>
</g>
<g>
</g>
<g>
</g>
<g>
</g>
</svg>
