<?xml version="1.0" encoding="iso-8859-1"?>
<!-- Generator: Adobe Illustrator 16.0.0, SVG Export Plug-In . SVG Version: 6.00 Build 0)  -->
<!DOCTYPE svg PUBLIC "-//W3C//DTD SVG 1.1//EN" "http://www.w3.org/Graphics/SVG/1.1/DTD/svg11.dtd">
<svg version="1.1" id="Capa_1" xmlns="http://www.w3.org/2000/svg" xmlns:xlink="http://www.w3.org/1999/xlink" x="0px" y="0px"
	 width="91.457px" height="91.457px" viewBox="0 0 91.457 91.457" style="enable-background:new 0 0 91.457 91.457;"
	 xml:space="preserve">
<g>
	<g>
		<path d="M82.182,49.914c-0.513-0.107-13.104-2.968-12.55-22.599c0.3-10.668-6.333-18.796-19.184-23.505
			C41.31,0.461,32.237,0.02,31.855,0.003C31.81,0.001,31.765,0,31.72,0c-1.013,0-1.96,0.512-2.516,1.366
			c-0.181,0.278-0.311,0.579-0.391,0.891c-1.119,0.195-2.035,1.007-2.359,2.1l-0.552,1.856l-1.738-1.662
			c-0.57-0.546-1.317-0.832-2.074-0.832c-0.442,0-0.887,0.098-1.303,0.298l-1.184,0.572c-1.139,0.551-1.81,1.756-1.678,3.014
			c0.051,0.484,0.079,1,0.107,1.546c0.074,1.391,0.158,2.967,0.678,4.526c0.434,1.301,0.292,2.269-0.502,3.451
			c-2.86,4.256-4.688,8.203-4.312,13.638c0.298,4.311-2.324,8.484-5.274,12.735c-3.399,4.899-1.128,9.039,0.229,11.511
			c1.454,2.649,4.871,4.5,8.309,4.5c0.989,0,1.93-0.156,2.794-0.465c2.057-0.734,4.024-2.855,4.576-4.933
			c0.926-3.493,3.693-5.407,6.896-7.623c0.646-0.447,1.292-0.894,1.922-1.354c0.664-0.483,1.492-0.879,2.511-1.337
			c1.386,10.563-0.184,18.432-4.938,24.752c-4.685,6.229-5.403,13.16-2.134,20.602c0.046,0.105,0.08,0.205,0.115,0.303
			c0.438,1.221,1.594,2.002,2.837,2.002c0.256,0,0.516-0.033,0.774-0.104c14.111-3.805,26.567-13.801,34.547-27.606
			c0.409,0.211,0.909,0.086,1.218-0.214c0.244,0.018,0.489,0.029,0.735,0.029c7.616,0,14.212-7.918,14.938-8.82
			c0.66-0.82,0.842-1.928,0.479-2.915C84.069,50.838,83.216,50.112,82.182,49.914z M31.734,88.459
			c-0.061-0.169-0.121-0.338-0.198-0.513c-2.697-6.14-2.482-11.919,1.785-17.593c6.058-8.053,6.782-17.438,5.497-27.083
			c-0.163-1.22-1.027-2.347-1.526-3.43c-2.28,1.123-4.173,1.752-5.708,2.871c-3.966,2.89-8.521,5.239-9.952,10.631
			c-0.304,1.146-1.563,2.478-2.684,2.877c-0.557,0.199-1.165,0.291-1.787,0.291c-2.269,0-4.734-1.222-5.679-2.943
			c-1.452-2.645-2.643-5.116-0.394-8.358c3.026-4.361,6.177-9.24,5.802-14.653c-0.33-4.772,1.418-8.201,3.809-11.758
			c1.256-1.868,1.621-3.788,0.858-6.074c-0.565-1.696-0.457-3.616-0.647-5.436c0.394-0.19,0.788-0.381,1.182-0.571
			c1.646,1.575,3.293,3.149,5.287,5.056c0.646-2.17,1.162-3.908,1.952-6.564c1.028,1.581,1.897,2.918,2.718,4.181
			c0.449,0.899,0.943,1.768,1.563,2.572c0.092,0.403,0.392,0.751,0.926,0.756c23.138,0.213,22.456,31.906,30.698,48.132
			C57.787,74.529,45.838,84.653,31.734,88.459z M69.015,60.562c-0.603,0-1.205-0.073-1.806-0.223
			c-8.863-16.497-7.811-48.375-31.594-49.55L31.72,3c0,0,35.549,1.594,34.912,24.231c-0.639,22.637,14.984,25.63,14.984,25.63
			S75.414,60.562,69.015,60.562z"/>
		<path d="M20.87,29.889c-1.29,0-1.29,2,0,2S22.16,29.889,20.87,29.889z"/>
		<path d="M12.541,48.191c-1.139-0.604-2.149,1.123-1.009,1.729c0.658,0.348,1.104,0.866,1.004,1.637c-0.07,0.541,0.508,1,1,1
			c0.598,0,0.93-0.461,1-1C14.721,50.133,13.748,48.832,12.541,48.191z"/>
	</g>
</g>
<g>
</g>
<g>
</g>
<g>
</g>
<g>
</g>
<g>
</g>
<g>
</g>
<g>
</g>
<g>
</g>
<g>
</g>
<g>
</g>
<g>
</g>
<g>
</g>
<g>
</g>
<g>
</g>
<g>
</g>
</svg>
