<?xml version="1.0" encoding="iso-8859-1"?>
<!-- Generator: Adobe Illustrator 16.0.0, SVG Export Plug-In . SVG Version: 6.00 Build 0)  -->
<!DOCTYPE svg PUBLIC "-//W3C//DTD SVG 1.1//EN" "http://www.w3.org/Graphics/SVG/1.1/DTD/svg11.dtd">
<svg version="1.1" id="Capa_1" xmlns="http://www.w3.org/2000/svg" xmlns:xlink="http://www.w3.org/1999/xlink" x="0px" y="0px"
	 width="94.102px" height="94.103px" viewBox="0 0 94.102 94.103" style="enable-background:new 0 0 94.102 94.103;"
	 xml:space="preserve">
<g>
	<g>
		<path d="M81.397,30.116c2.378-9.129-0.695-21.377-9.923-25.288c-0.272-0.115-0.533-0.102-0.765-0.021
			c-0.981-1.742-2.179-3.288-3.874-4.422C66.679,0.281,66.507,0.202,66.141,0c0.225,1.727,0.424,3.273,0.623,4.819
			c-0.118,0.077-0.237,0.153-0.356,0.23c-1.922-1.5-3.775-3.146-6.681-3.398c0.559,0.889,1.021,1.537,1.394,2.234
			c1.206,2.256,1.72,2.141-1.106,3.487c-4.121,1.962-8.231,3.949-11.829,6.811c-0.956,0.761-1.864,1.614-2.659,2.541
			c-2.569,3-1.759,6.691,1.833,8.326c2.729,1.243,5.488,1.123,8.163-0.202c1.775-0.88,3.481-1.899,5.258-2.78
			c0.953-0.472,1.96-0.884,2.987-1.144c1.803-0.455,3.008,0.275,3.312,2.103c0.85,5.112-1.206,8.135-6.153,8.586
			c-3.215,0.293-6.495,0.134-9.728-0.086c-4.772-0.325-9.514-0.568-14.149,0.919c-4.9,1.572-8.628,4.634-11.179,9.082
			c-0.568,0.991-1.25,1.454-2.355,1.678c-7.824,1.584-12.52,6.933-13.181,14.886c-0.43,5.184,0.889,10.074,2.544,14.889
			c0.989,2.877,1.891,5.744,1.405,8.826c-0.187,1.184-0.578,2.334-0.98,3.906c1.176-0.771,2.224-1.458,3.329-2.184
			c0.779,2.34-0.761,4.033-1.877,6.144c0.656-0.166,1.058-0.226,1.428-0.366c4.048-1.558,6.226-5.068,6.425-9.807
			c0.202-4.837-1.122-9.332-2.633-13.818c-1.3-3.857-2.31-7.756-1.704-11.896c0.536-3.657,2.387-6.496,5.271-8.72
			c0.112-0.086,0.266-0.118,0.266-0.118c-0.106,1.908-0.392,3.836-0.285,5.741c0.254,4.516,1.909,8.471,5.218,11.653
			c0.629,0.604,1.24,1.228,1.854,1.847c1.68,1.695,2.583,3.75,2.974,6.094c1.074,6.43,1.702,12.894,1.684,19.416
			c-0.004,1.457-0.001,2.916-0.001,4.367c1.367,0.162,1.605-0.162,1.622-1.562c0.108-8.934,0.5-17.844,2.756-26.555
			c0.107-0.416,0.253-0.822,0.665-1.293c0.442,1.287,0.958,2.553,1.313,3.861c1.29,4.748,1.519,9.625,1.606,14.508
			c0.057,3.166,0.011,6.334,0.011,9.545c1.125,0.217,1.579-0.088,1.641-1.156c0.338-5.779,0.542-11.575,1.16-17.326
			c0.395-3.684,1.423-7.298,2.17-10.943c0.163-0.789,0.593-1.148,1.456-1.262c4.01-0.529,8.017-1.096,12.006-1.762
			c1.213-0.203,1.792,0.195,2.277,1.23c1.582,3.363,2.251,6.951,2.455,10.602c0.265,4.711,0.297,9.433,0.436,14.15
			c0.019,0.627,0.067,1.252,0.104,1.899c1.118,0.146,1.385-0.401,1.394-1.308c0.069-7.267,0.434-14.512,1.721-21.682
			c0.276-1.539,0.67-3.058,1.01-4.587c0.167-0.015,0.334-0.028,0.502-0.042c0.558,2.279,1.259,4.534,1.644,6.842
			c0.936,5.616,0.872,11.299,0.815,16.971c-0.004,0.397-0.065,0.808,0.014,1.188c0.094,0.451,0.294,1.241,0.477,1.249
			c0.812,0.037,0.949-0.623,0.979-1.312c0.128-3.131,0.295-6.26,0.405-9.393c0.314-8.854,1.994-17.374,5.758-25.466
			c1.007-2.163,1.489-4.581,2.086-6.914c0.197-0.775,0.127-1.676-0.034-2.476C82.959,37.414,82.151,33.771,81.397,30.116z
			 M61.027,10.708c-0.041-2.711,1.382-4.466,3.486-4.426C63.377,7.724,62.186,9.236,61.027,10.708z M78.735,29.269
			c-0.276,0.584-0.978,0.967-1.486,1.44c1.312-2.78,2.388-5.428,1.384-8.488c-0.576,0.408-0.899,0.944-1.343,1.35
			c-0.446,0.409-1.009,0.689-1.521,1.026c1.67-3.2,1.782-10.133-0.149-11.416c-0.433,1.855-1.226,3.47-2.698,4.561
			c0.204-1.515,0.487-3.018,0.587-4.533c0.1-1.488,0.028-2.994,0.024-4.849c0.25,0.195,0.478,0.414,0.714,0.625
			c0.493,0.533,0.933,1.004,1.279,1.528c3.066,4.636,4.398,9.801,4.313,15.309C79.821,26.984,79.25,28.183,78.735,29.269z"/>
	</g>
</g>
<g>
</g>
<g>
</g>
<g>
</g>
<g>
</g>
<g>
</g>
<g>
</g>
<g>
</g>
<g>
</g>
<g>
</g>
<g>
</g>
<g>
</g>
<g>
</g>
<g>
</g>
<g>
</g>
<g>
</g>
</svg>
