<?xml version="1.0" encoding="iso-8859-1"?>
<!-- Generator: Adobe Illustrator 16.0.0, SVG Export Plug-In . SVG Version: 6.00 Build 0)  -->
<!DOCTYPE svg PUBLIC "-//W3C//DTD SVG 1.1//EN" "http://www.w3.org/Graphics/SVG/1.1/DTD/svg11.dtd">
<svg version="1.1" id="Capa_1" xmlns="http://www.w3.org/2000/svg" xmlns:xlink="http://www.w3.org/1999/xlink" x="0px" y="0px"
	 width="93.311px" height="93.31px" viewBox="0 0 93.311 93.31" style="enable-background:new 0 0 93.311 93.31;"
	 xml:space="preserve">
<g>
	<g>
		<path d="M90.361,34.895c-0.026-0.576-0.243-0.699-0.755-0.434c-0.175,0.09-0.353,0.175-0.527,0.265
			c-0.512,0.265-0.92,0.523-0.998,0.44c-0.078-0.082,0.164-0.505,0.487-0.982c0.18-0.266,0.365-0.526,0.594-0.738
			c0.423-0.391,0.931-0.443,0.943-0.43c0.012,0.013-0.046-0.439-0.146-1.007c-1.271-7.312-4.286-13.922-9.369-19.005
			C65.492-2.096,42.007-4.031,23.287,7.125c-0.495,0.295-0.721,0.978-0.51,1.514c0.647,1.646,1.295,3.278,1.931,4.894
			c0.211,0.536,0.164,1.276-0.103,1.651c-0.159,0.224-0.32,0.452-0.475,0.684c-1.129,1.677-2.03,3.578-3.429,4.984
			c-1.893,1.904-3.716,4.051-6.517,4.79c-0.54,0.143-1.096,0.306-1.577,0.578c-2.15,1.219-4.815,1.196-6.786,2.834
			c-1.469,1.221-2.662,2.534-2.23,4.701c0.103,0.515-0.171,1.176-0.44,1.679c-0.729,1.362-0.592,2.777-0.367,4.192
			c0.15,0.943,0.664,1.12,1.553,0.767c2.559-1.017,4.808-2.502,6.836-4.352c0.53-0.483,1.092-0.95,1.7-1.326
			c1.191-0.737,2.502-0.074,2.697,1.312c0.211,1.508-0.441,2.608-2.041,3.498c-1.031,0.574-2.081,1.126-3.062,1.778
			c-0.375,0.249-0.62,0.548-0.747,0.865c-0.215,0.534-0.048,1.313,0.077,1.636c0.075,0.193,0.19,0.37,0.349,0.515
			c1.996,1.827,4.084,1.722,6.04,0.798c0.521-0.246,1.051-0.532,1.209-0.591c0.095-0.036,0.188-0.076,0.278-0.124
			c1.069-0.568,2.08-1.243,3.118-1.87c1.171-0.708,2.367-1.377,3.506-2.132c0.216-0.143,0.42-0.304,0.621-0.472
			c0.331-0.277,1.057-0.463,1.633-0.449c1.793,0.042,3.524-0.231,5.23-0.735c0.553-0.163,1.461-0.323,2.037-0.326
			c1.51-0.008,3.02-0.008,4.528,0.031c1.525,0.04,3.051,0.122,4.568,0.276c0.546,0.055,1.178,0.246,1.579,0.596
			c2.237,1.948,4.033,4.263,5.338,6.931c1.438,2.934,2.856,5.876,4.22,8.845c1.098,2.385,1.812,4.872,1.915,7.531
			c0.062,1.572,0.387,3.134,0.507,4.705c0.095,1.24-0.059,2.507,0.111,3.732c0.184,1.322-0.049,2.615-0.003,3.912
			c0.075,2.137,0.312,4.27,0.527,6.398c0.141,1.393,0.37,2.774,0.554,4.162c0.422,3.181,1.132,9.397,5.52,7.377
			c3.775-1.737,7.507-4.303,10.333-7.353c6.124-6.612,10.473-15.403,13.587-23.784c1.688-4.542,2.811-9.299,3.297-14.122
			c0.243-2.4,0.336-4.819,0.3-7.231c-0.017-1.12-0.066-2.243-0.139-3.36C90.539,36.761,90.398,35.713,90.361,34.895z M11.771,32.458
			c-0.064,0.86-0.593,1.646-1.208,2.002c-0.499,0.288-0.905-0.309-0.792-0.874c0.07-0.352,0.123-0.701,0.111-1.049
			c-0.037-1.061-1.155-1.646-1.916-1.011c-0.422,0.353-0.673,0.936-0.934,1.449c-0.093,0.183-0.157,0.381-0.213,0.583
			c-0.092,0.331-0.241,0.592-0.334,0.584c-0.094-0.009-0.186-0.269-0.207-0.583c-0.013-0.19-0.032-0.379-0.072-0.563
			c-0.31-1.395,0.011-2.292,1.175-2.987c1.012-0.604,2-0.486,2.994,0.136C11.25,30.693,11.855,31.328,11.771,32.458z M21.258,26.342
			c-1.147,1.36-2.518,2.462-4.364,2.453c-0.576-0.003-0.596-0.277-0.079-0.532c2.162-1.067,3.801-2.759,5.32-4.755
			c0.349-0.459,0.79-0.386,0.759,0.189C22.828,24.916,21.876,25.608,21.258,26.342z M29.349,5.504
			c0.201-0.54,0.917-0.523,1.152,0.003c0.329,0.735,0.321,1.519,0.177,2.356C30.58,8.432,30.2,8.493,29.919,7.989
			C29.285,6.854,29.11,6.144,29.349,5.504z M30.36,11.589c0.575,0.039,0.635,0.657,0.162,0.986c-0.617,0.43-1.283,0.772-2.011,1.096
			c-0.527,0.234-0.74-0.006-0.417-0.484C28.862,12.049,29.583,11.537,30.36,11.589z M27.813,6.737
			c0.555,0.708,0.758,1.526,0.78,2.444c0.014,0.576-0.375,0.715-0.757,0.284c-0.641-0.723-1.117-1.472-1.033-2.447
			C26.853,6.444,27.458,6.285,27.813,6.737z M24.661,8.982c0.193-0.523,0.395-0.675,0.836-0.246c0.439,0.426,0.724,1.32,0.725,2.163
			c0.001,0.576-0.545,0.746-0.96,0.347C24.658,10.665,24.28,10.01,24.661,8.982z M27.86,23.387
			c-0.956,0.087-2.348,0.522-2.348,0.522c1.218-3.913,6.695-4.348,6.695-4.348C31.165,22.952,28.817,23.299,27.86,23.387z
			 M33.333,7.19c-0.241,0.523-0.965,0.475-1.179-0.06c-0.295-0.738-0.259-1.534,0.078-2.123c0.286-0.5,1.014-0.311,1.181,0.24
			C33.624,5.94,33.598,6.617,33.333,7.19z M35.005,8.335c-0.27,0.509-0.775,0.52-0.814-0.055c-0.064-0.926,0.249-2.187,0.847-2.997
			c0.683-0.923,1.469-1.53,2.191-1.713c0.559-0.142,0.731,0.424,0.366,0.87c-0.501,0.612-1,1.221-1.433,1.873
			C35.732,6.961,35.368,7.649,35.005,8.335z M38.592,6.692c-0.179,0.581-0.441,1.097-0.814,1.554
			c-0.365,0.446-1.022,0.301-0.993-0.274c0.039-0.729,0.459-1.502,1.065-1.94C38.317,5.693,38.762,6.142,38.592,6.692z
			 M40.362,8.672c-0.312,0.485-0.612,0.343-0.559-0.23c0.171-1.846,0.339-3.706,0.543-5.562c0.026-0.238,0.11-0.47,0.214-0.726
			c0.159-0.388,0.539-0.308,0.712,0.242C41.874,4.308,41.433,7.004,40.362,8.672z M44.154,5.234
			C44.04,5.799,43.523,5.9,43.245,5.396c-0.528-0.96-0.608-2.043-0.236-2.816c0.25-0.519,0.901-0.344,1.057,0.21
			C44.29,3.585,44.326,4.391,44.154,5.234z M82.752,23.569c0.511-0.268,0.826,0.127,0.495,0.598
			c-0.141,0.201-0.297,0.376-0.477,0.527c-0.441,0.37-0.949-0.019-0.666-0.52C82.249,23.919,82.46,23.723,82.752,23.569z
			 M80.471,22.814c0.281-0.592,0.725-1.066,1.204-1.316c0.512-0.266,0.853,0.286,0.512,0.751c-0.295,0.403-0.664,0.741-1.104,1.04
			C80.606,23.615,80.223,23.335,80.471,22.814z M79.263,20.378c0.063-0.133,0.157-0.242,0.278-0.327
			c0.474-0.33,0.709,0.151,0.347,0.577C79.522,21.055,79.01,20.896,79.263,20.378z M77.49,18.472
			c0.367-0.384,0.832-0.516,0.893-0.473c0.062,0.044-0.116,0.406-0.396,0.808c-0.28,0.403-0.587,0.684-0.686,0.629
			C77.203,19.38,77.124,18.855,77.49,18.472z M72.883,15.18c0.143-0.429,0.45-0.762,0.696-1.103
			c0.061-0.082,0.188-0.114,0.331-0.135c0.2-0.03,0.404,0.124,0.458,0.344c0.041,0.165,0.064,0.316,0,0.398
			c-0.214,0.276-0.458,0.528-0.731,0.795C73.226,15.881,72.702,15.727,72.883,15.18z M71.605,12.483
			c0.154-0.223,0.281-0.523,0.544-0.678c0.417-0.247,0.634,0.386,0.366,0.896c-0.198,0.377-0.396,0.753-0.604,1.145
			c-0.268,0.51-0.825,0.536-0.855-0.039C71.028,13.273,71.334,12.874,71.605,12.483z M70.144,10.273
			c0.41-0.405,0.883-0.058,0.751,0.503c-0.128,0.546-0.354,1.042-0.706,1.493c-0.354,0.454-0.954,0.288-0.888-0.284
			C69.372,11.364,69.691,10.721,70.144,10.273z M67.521,10.715c0.072-0.509,0.272-0.997,0.562-1.391
			c0.341-0.464,0.946-0.229,0.847,0.339c-0.081,0.464-0.299,0.945-0.625,1.369C67.953,11.488,67.438,11.286,67.521,10.715z
			 M66.008,8.253c0.356-0.453,0.938-0.143,0.825,0.422c-0.097,0.491-0.317,0.946-0.567,1.419c-0.271,0.509-0.725,0.503-0.771-0.071
			C65.443,9.369,65.64,8.723,66.008,8.253z M63.327,8.868c0.11-0.442,0.229-0.882,0.375-1.312c0.031-0.091,0.16-0.15,0.31-0.201
			c0.198-0.069,0.405,0.021,0.465,0.205c0.04,0.126,0.065,0.245,0.028,0.34c-0.155,0.392-0.332,0.776-0.514,1.157
			c-0.248,0.52-0.554,0.914-0.683,0.881C63.181,9.905,63.188,9.427,63.327,8.868z M61.197,7.527c0.104-0.396,0.3-0.685,0.436-0.646
			s0.141,0.387,0.012,0.777c-0.129,0.39-0.324,0.679-0.437,0.646C61.097,8.271,61.091,7.923,61.197,7.527z M58.679,6.873
			c0.035-0.244,0.077-0.487,0.136-0.727c0.016-0.068,0.094-0.121,0.184-0.17c0.125-0.069,0.291-0.015,0.374,0.122
			c0.06,0.098,0.104,0.192,0.083,0.269c-0.058,0.227-0.138,0.448-0.223,0.668c-0.142,0.363-0.35,0.636-0.459,0.613
			C58.664,7.623,58.619,7.275,58.679,6.873z M56.405,3.697c0.247-0.521,0.556-0.354,0.461,0.214
			c-0.111,0.669-0.218,1.308-0.33,1.977c-0.094,0.568-0.41,0.613-0.479,0.041C55.968,5.192,56.099,4.345,56.405,3.697z
			 M53.604,2.869c0.228-0.529,0.646-0.358,0.664,0.218c0.023,0.73,0.002,1.444-0.226,2.135c-0.18,0.548-0.722,0.531-0.783-0.042
			C53.182,4.443,53.316,3.537,53.604,2.869z M48.278,2.223c0.238-0.525,0.76-0.322,0.854,0.247c0.095,0.571,0.155,1.136,0.086,1.712
			c-0.067,0.572-0.631,0.689-0.875,0.166C48.019,3.65,47.995,2.849,48.278,2.223z M45.559,1.485
			c0.073-0.114,0.638-0.104,0.672-0.022c0.379,0.892,0.64,1.804,0.592,2.768c-0.028,0.576-0.569,0.758-0.87,0.267
			C45.375,3.553,45.133,2.145,45.559,1.485z M50.737,10.358c-1.557-0.077-3.121-0.155-4.776-0.237
			c-0.576-0.029-0.645-0.313-0.083-0.44c1.418-0.319,3.701-0.188,5.001,0.229C51.429,10.086,51.313,10.387,50.737,10.358z
			 M50.874,4.84c-0.223-0.759-0.178-1.614,0.104-2.288C51.2,2.021,51.749,2.153,51.8,2.728c0.062,0.677-0.04,1.342-0.203,2.034
			C51.464,5.322,51.036,5.394,50.874,4.84z M57.896,49.798c-1.506-2.582-2.922-5.217-4.452-7.785
			c-0.339-0.569-0.799-1.067-1.325-1.652c-0.385-0.428-0.582-0.738-0.453-0.681c0.118,0.052,0.175,0.077,0.231,0.104
			c0.196,0.094,0.395,0.187,0.59,0.284c1.575,0.784,2.512,2.211,3.536,3.541c2.07,2.69,3.617,5.679,4.839,8.829
			c0.843,2.17,1.574,4.386,2.286,6.604c0.39,1.212,0.636,2.472,0.951,3.707c0.221,0.865,0.537,1.718,0.646,2.598
			c0.04,0.314,0.008,0.64-0.042,0.966c-0.081,0.528-0.333,0.898-0.529,0.778c-0.151-0.093-0.237-0.189-0.274-0.302
			c-0.662-1.977-1.297-3.964-1.951-5.943C60.719,57.119,59.906,53.244,57.896,49.798z M68.847,84.633
			c-3.581-1.208-6.788-5.745-7.03-8.49c-0.051-0.574,0.352-0.653,0.682-0.182c1.06,1.515,2.029,2.964,3.125,4.311
			c1.08,1.326,2.288,2.548,3.521,3.849C69.54,84.539,69.393,84.819,68.847,84.633z M69.6,56.498
			c-0.01,0.023-0.019,0.046-0.026,0.069c-0.208,0.538-0.537,0.543-0.758,0.01c-2.994-7.228-7.085-13.833-12.517-19.733
			c-0.39-0.424-0.555-0.733-0.36-0.698c0.128,0.023,0.238,0.045,0.347,0.075c1.739,0.496,2.853,1.833,3.837,3.172
			c1.847,2.506,3.548,5.122,5.242,7.736c1.201,1.853,2.452,3.698,3.39,5.686c0.275,0.583,0.55,1.168,0.814,1.758
			C69.806,55.099,69.808,55.96,69.6,56.498z M83.287,34.824c-6.862-8.418-14.012-16.51-23.85-21.62
			c-0.513-0.266-0.801-0.516-0.634-0.514c0.11,0.002,0.206,0.026,0.294,0.068c1.324,0.626,2.629,1.299,3.971,1.887
			c4.106,1.801,7.437,4.691,10.71,7.645c3.327,3.002,6.295,6.339,8.917,9.978c0.521,0.725,1.108,1.419,1.264,2.326
			C84.058,35.163,83.65,35.271,83.287,34.824z M83.705,25.782c0.186-0.248,0.409-0.465,0.652-0.634
			c0.472-0.33,1.001,0.118,0.714,0.617c-0.183,0.317-0.459,0.573-0.804,0.738C83.747,26.753,83.36,26.245,83.705,25.782z
			 M84.701,28.764c-0.104-0.069-0.125-0.505-0.016-0.62c0.274-0.291,0.565-0.566,0.861-0.836c0.426-0.389,0.868-0.618,0.986-0.515
			s-0.064,0.562-0.41,1.023c-0.244,0.325-0.493,0.646-0.761,0.95C85.258,28.882,84.862,28.87,84.701,28.764z M87.548,29.904
			c-0.176,0.323-0.401,0.495-0.773,0.59c-0.56,0.142-0.896-0.35-0.535-0.799c0.189-0.235,0.405-0.416,0.646-0.544
			C87.396,28.885,87.824,29.398,87.548,29.904z M87.956,31.68c0.382-0.212,0.878,0.194,0.498,0.627
			c-0.055,0.062-0.124,0.095-0.214,0.102C87.666,32.448,87.575,31.892,87.956,31.68z"/>
	</g>
</g>
<g>
</g>
<g>
</g>
<g>
</g>
<g>
</g>
<g>
</g>
<g>
</g>
<g>
</g>
<g>
</g>
<g>
</g>
<g>
</g>
<g>
</g>
<g>
</g>
<g>
</g>
<g>
</g>
<g>
</g>
</svg>
