<?xml version="1.0" encoding="iso-8859-1"?>
<!-- Generator: Adobe Illustrator 16.0.0, SVG Export Plug-In . SVG Version: 6.00 Build 0)  -->
<!DOCTYPE svg PUBLIC "-//W3C//DTD SVG 1.1//EN" "http://www.w3.org/Graphics/SVG/1.1/DTD/svg11.dtd">
<svg version="1.1" id="Capa_1" xmlns="http://www.w3.org/2000/svg" xmlns:xlink="http://www.w3.org/1999/xlink" x="0px" y="0px"
	 width="37.996px" height="37.997px" viewBox="0 0 37.996 37.997" style="enable-background:new 0 0 37.996 37.997;"
	 xml:space="preserve">
<g>
	<path d="M17.088,26.071c0.639,0.611-0.204,0.646-0.391,0.742c-0.696,0.375-1.1,1.272-3.066,0.775
		c-0.629-0.158-2.486-0.775-2.486-0.775c-1.049-0.328-1.028-1.951-0.832-3.25c0.559-0.078,1.252-0.223,1.93-0.483
		c-0.213,0.604-0.354,1.082-0.354,1.082c-0.707,1.771,0.247,1.7,0.711,1.823c2.969,0.791,2.825,0.369,2.825,0.369
		c-0.317-0.317,0.192-0.713,0.192-0.713C15.981,25.489,16.794,25.792,17.088,26.071z M29.35,16.133
		c1.891,1.743,1.829,6.256,8.646,4.827c0,0-1.034-1.495-3.48-2.383c-0.58-0.211-1.412-0.788-1.613-1.869
		c-0.229-1.231-1.547-4.451-4.69-1.76c-0.322,0.276-0.295,0.477-1.648,0.403c0,0-2.69-0.988-6.781,0.366
		c-1.389,0.46-3.922,1.025-5.682-1.394c0,0-1.035-2.059-2.57-3.972c-0.114-0.142-0.229-0.283-0.348-0.421
		c-0.107-0.125-0.216-0.249-0.326-0.371C9.782,8.378,8.53,7.386,7.246,7.175l-1.209-1.54c0,0,0.026,0.755-0.013,0.97
		C5.995,6.767,5.756,7.139,5.756,7.139S4.092,7.626,2.822,8.995c0,0-2.236,0.46-1.957,1.564c0,0,0.285,0.625,0.645,0.927
		c0.283,0.237,0.367,0.372,1.451,0.054c0.882-0.261,1.792,0.144,3.623-0.627c0,0-0.366,4.509,0.99,6.636
		c0,0-0.444,0.888-0.516,1.209c-0.285,1.317-0.146,1.979,0.846,3.739c0,0-6.818,7.623-7.332,8.87c0,0-1.062,0.807-0.293,0.917
		l1.246-0.036c0,0,0.99,0,0.879-0.953c0,0-0.071-0.44-0.256-0.44c0,0,4.489-3.646,6.513-5.384c0.791-0.024,4.563-0.278,5.616-2.907
		c0.062-0.154,0.104-0.291,0.142-0.42c0.053,0.207,0.033,0.494-0.11,0.902c-0.104,0.294-0.253,0.551-0.426,0.788
		c2.051,0.137,5.795,0.187,7.254-1.116c0,0,0.406,2.357,1.725,3.738c0.295,0.312,0.695,0.988-0.479,1.648
		c0,0-3.484,2.42-3.923,3.887c0,0-0.439,0.365,0.695,0.365c0,0,1.577,0.147,1.028-1.137c0,0,2.969-2.31,3.629-2.639
		c0,0,1.869-0.551,0.77-2.385c0,0-0.6-1.637,0.279-2.678c-0.873-0.322-2.105-0.951-3.059-2.479c0,0,1.264,1.812,3.887,1.973
		c0.297-0.047,0.701-0.007,1.201,0.327c0.409,0.273,0.901,0.547,1.448,0.869c0.705,0.414,1.5,0.907,2.326,1.587
		c0.914,0.751,1.749,2.383,2.152,4.215c0,0,0.326,0.746,1.256,0.88c0.133,0.02,0.515,0.146,0.515,0.146s0.91,0.908,0.952,0.072
		c0.025-0.522-0.229-1.494-1.539-1.428l-0.271,0.039c0,0-0.608-1.662-1.23-3.705c0,0-0.381-1.361-2.438-2.654
		c-0.623-0.393-1.041-0.424-1.08-2.844c0,0,0.148-2.495-0.807-4.104C28.024,16.165,28.354,15.218,29.35,16.133z"/>
</g>
<g>
</g>
<g>
</g>
<g>
</g>
<g>
</g>
<g>
</g>
<g>
</g>
<g>
</g>
<g>
</g>
<g>
</g>
<g>
</g>
<g>
</g>
<g>
</g>
<g>
</g>
<g>
</g>
<g>
</g>
</svg>
