<?xml version="1.0" encoding="iso-8859-1"?>
<!-- Generator: Adobe Illustrator 16.0.0, SVG Export Plug-In . SVG Version: 6.00 Build 0)  -->
<!DOCTYPE svg PUBLIC "-//W3C//DTD SVG 1.1//EN" "http://www.w3.org/Graphics/SVG/1.1/DTD/svg11.dtd">
<svg version="1.1" id="Capa_1" xmlns="http://www.w3.org/2000/svg" xmlns:xlink="http://www.w3.org/1999/xlink" x="0px" y="0px"
	 width="95.172px" height="95.171px" viewBox="0 0 95.172 95.171" style="enable-background:new 0 0 95.172 95.171;"
	 xml:space="preserve">
<g>
	<g>
		<path d="M50.918,72.035c-0.013,0.007-0.023,0.015-0.033,0.021c-0.018-0.122-0.021-0.354,0.064-0.713l0.127-0.543
			c0.52-2.22,0.471-2.46,0.016-2.61c-0.103-0.033-0.188-0.092-0.438,0.039c0-0.028,0.001-0.057,0.001-0.087
			c0.013-0.484,0.013-1.005-0.065-1.536c-0.113-0.771-0.283-1.539-0.45-2.254c-0.504-2.154-1.084-2.154-1.275-2.154
			c-0.104,0-0.256,0.05-0.342,0.111c-0.188,0.137-0.337,0.289-0.439,0.455l-0.139,0.235c-0.083,0.146-0.21,0.363-0.344,0.431
			c-0.058,0-0.137-0.021-0.215-0.041c-0.102-0.026-0.217-0.057-0.343-0.057c-0.005-0.17,0.027-0.41,0.159-0.699
			c0.067-0.146,0.144-0.286,0.226-0.42c0.649-1.063,0.732-2.646,0.185-3.524c-0.378-0.607-0.267-2.268-0.225-2.893
			c0.059-0.873,0.015-1.838-0.13-2.865c-0.138-0.981-0.33-1.476-0.514-1.725c0.049-0.238,0.131-0.58,0.256-0.986
			c0.096-0.314,0.152-0.573,0.176-0.815c0.081-0.84-0.246-1.482-0.435-1.839c0.011-0.022,0.021-0.045,0.03-0.068
			c0.118-0.304,0.077-0.722-0.112-1.147c-0.088-0.198-0.183-0.431-0.223-0.653c-0.11-0.614-0.191-1.234-0.271-1.854
			c-0.132-1.013-0.269-2.06-0.531-3.073c-0.221-0.854-0.584-1.662-0.936-2.444c-0.226-0.504-0.454-1.008-0.641-1.524
			c-0.291-0.798-0.554-1.608-0.818-2.417c-0.426-1.306-0.865-2.656-1.417-3.946c-0.564-1.32-1.142-2.594-2.012-3.678
			c-0.544-0.677-1.37-1.115-2.106-1.115c-0.322,0-0.598,0.088-0.799,0.255c-0.212,0.176-0.33,0.43-0.343,0.733
			c-0.024,0.594,0.371,1.35,1.058,2.023c0.543,0.533,1.112,1.116,1.594,1.772c0.88,1.2,1.657,2.585,2.308,4.117
			c0.254,0.599,0.337,1.403,0.232,2.265c-0.077,0.636-0.286,1.124-0.411,1.341c-0.249,0.098-0.43,0.503-0.858,2.147
			c-0.19,0.731-0.392,1.597-0.439,2.477c-0.066,1.227-0.659,2.068-1.488,3.122c-0.077,0.098-0.287,0.243-0.441,0.349
			c-0.336,0.233-0.718,0.497-0.581,0.93c0.104,0.334,0.12,0.585,0.042,0.708c-0.136,0.214-0.725,0.294-0.947,0.324
			c-0.746,0.103-0.986,0.693-1.144,1.086c-0.07,0.172-0.149,0.367-0.23,0.406l-0.659,0.323c-1.053,0.522-2.143,1.062-3.238,1.271
			c-0.261,0.05-0.821,0.081-1.117-0.042c-0.308-0.13-0.609-0.5-0.899-0.859c-0.246-0.303-0.5-0.616-0.794-0.825
			c-0.548-0.387-1.091-0.315-1.569,0.189c-0.146-0.044-0.322-0.115-0.359-0.143c-0.139-0.258-0.225-0.562-0.285-0.798
			c-0.21-0.825-0.528-1.243-0.945-1.243c-0.051,0-0.124,0.011-0.172,0.026c-0.404,0.127-0.605,0.606-0.485,1.07
			c-0.013,0.161-0.314,0.886-0.95,1.824l-3.083,4.548c-1.022,1.508-0.858,1.815-0.76,2c0.096,0.183,0.286,0.296,0.494,0.296
			c0.052,0,0.192-0.03,0.242-0.048c0.276-0.089,0.494-0.158,0.665-0.355c0.51-0.59,1.013-1.188,1.515-1.782
			c0.688-0.818,1.377-1.636,2.086-2.435c0.424-0.479,0.733-0.686,0.77-0.707c0.82,0.184,1.634,0.435,2.604,0.755
			c0.849,0.28,1.193,0.717,1.181,0.834c-0.131,0.253-0.278,0.512-0.47,0.686c-0.329,0.299-0.663,0.577-0.983,0.835
			c0.245-0.439,0.669-1.314,0.35-1.613c-0.461-0.433-1.293-0.854-2.002-0.803c-1.367,0.127-2.957,1.88-3.759,3.466
			c-0.283,0.56-0.295,1.146-0.033,1.573c0.202,0.329,0.537,0.519,0.918,0.52c0.062,0,0.125-0.006,0.189-0.017
			c0.301-0.049,0.582-0.099,0.858-0.15c-0.3,0.104-0.627,0.18-0.986,0.241l-0.122,0.021c-0.182,0.03-0.391,0.004-0.594-0.015
			c-0.12-0.013-0.233-0.018-0.347-0.022c0.002-0.008,0.011-0.015,0.011-0.022c0.004-0.068-0.033-0.175-0.081-0.225
			c-0.047-0.05-0.201-0.09-0.27-0.09c-0.099,0.015-0.208,0.106-0.233,0.203c-0.013,0.051-0.001,0.115,0.024,0.173
			c-0.12,0.03-0.244,0.076-0.361,0.158c-0.227,0.158-0.464,0.308-0.701,0.457c-1.102,0.691-2.351,1.478-2.605,3.23
			c-0.126,0.873-0.354,1.761-0.575,2.617c-0.125,0.486-0.25,0.973-0.359,1.46c-0.041,0.183-0.079,0.337-0.113,0.463
			c0.01-0.263,0.052-0.624,0.151-1.085c0.059-0.274,0.057-0.531-0.006-0.783c-0.165-0.65-0.678-1.056-1.339-1.056
			c-0.237,0-0.476,0.05-0.705,0.142l2.762-3.208c0.485-0.564,0.642-1.014,0.478-1.371c-0.213-0.463-0.806-0.524-1.612,0.012
			c-1.435,0.953-2.49,2.186-3.51,3.377c-0.357,0.418-0.711,0.831-1.076,1.225c-0.733,0.792-1.756,1.308-2.076,1.35
			c-0.409,0.055-0.738,0.27-0.902,0.589c-0.135,0.262-0.145,0.569-0.031,0.863c-0.12,0.046-0.395,0.113-0.781,0.103
			c-0.596-0.017-1.139-0.033-1.681-0.063c-1.231-0.071-1.749-0.501-1.912-1.586c-0.134-0.891-0.625-1.726-1.136-2.493l-0.147-0.222
			c-0.768-1.147-1.493-2.232-1.105-3.499c0.463-1.513,0.546-3.005,0.255-4.562l-0.047-0.248c-0.109-0.568-0.212-1.104-0.21-1.633
			c0.008-3.354,0.761-6.103,2.369-8.646c1.982-3.136,3.463-6.637,4.895-10.022l0.437-1.03c0.572-1.347,0.913-2.821,1.214-4.121
			c0.481-2.076,0.405-2.197,0.29-2.381c-0.07-0.112-0.19-0.198-0.318-0.228c-0.094-0.022-0.185-0.063-0.403,0.059
			c0.042-0.14,0.089-0.288,0.141-0.443c0.333-1.003,0.693-2.069,1.115-3.106c0.184-0.451,0.458-0.875,0.748-1.324
			c0.276-0.426,0.561-0.867,0.776-1.35c0.168-0.377,0.416-0.718,0.678-1.078c0.497-0.683,1.06-1.458,1.11-2.604
			c0.073-1.69,1.412-2.292,2.639-2.292c0.19,0,0.385,0.014,0.583,0.041c0.281,0.039,0.578,0.052,0.856,0.004
			c0.437-0.075,0.872-0.157,1.315-0.243c0.543-0.105,0.922-0.511,0.943-1.011c0.02-0.464-0.281-1.049-1.181-1.303
			c-0.702-0.198-1.215-0.39-1.423-1.066c-0.294-0.955-0.982-1.738-1.722-2.522c-0.045-0.047-0.083-0.091-0.116-0.132
			c0.035,0.013,0.073,0.029,0.115,0.047c1.154,0.51,2.2,1.225,3.211,1.917c0.735,0.502,1.428,0.977,2.159,1.377
			c0.569,0.312,1.251,0.491,1.87,0.491c0.372,0,0.877-0.064,1.175-0.372c0.111-0.115,0.297-0.307,0.362-0.328
			c1.372-0.279,2.786-0.499,4.153-0.712l0.767-0.12c0.211-0.034,0.506-0.037,0.52-0.03c0.932,0.414,2.115,0.268,2.87,0.069
			c1.108-0.293,1.538-0.515,1.605-0.869c0.158,0,0.307,0,0.468,0c0.488,0,0.844,0.012,1.064,0.037
			c-0.017,0.229,0.06,0.437,0.122,0.533c0.091,0.142,0.322,0.426,0.859,0.426c0.001,0,0.002,0,0.002,0
			c0.153,0,0.302-0.058,0.449-0.072l0.27-0.043c0.32-0.021,0.645-0.085,0.969-0.14c0.546-0.093,1.073-0.171,1.464-0.089
			c2.023,0.435,4.024,0.94,6.241,1.51c0.252,0.065,0.519,0.096,0.794,0.096c0.636,0,1.459-0.194,1.857-0.739
			c0.213-0.291,0.271-0.641,0.162-0.987c-0.009-0.028-0.023-0.048-0.033-0.074c-0.01-0.009-0.025-0.017-0.032-0.026
			c-0.045-0.054-0.063-0.122-0.067-0.194c-0.199-0.368-0.486-0.584-0.686-0.721c0.062-0.202,0.044-0.41-0.057-0.594
			c-0.215-0.396-0.755-0.595-1.542-0.545c-1.494,0.095-1.677,0.414-1.755,0.549c-0.084,0.146-0.091,0.375-0.015,0.524
			c0.063,0.125,0.129,0.255,0.244,0.371c0.099,0.1,0.2,0.197,0.308,0.301c-0.103,0.019-0.206,0.032-0.309,0.036
			c-0.666,0.024-1.313,0.003-1.837-0.086l-0.369-0.06c-0.593-0.093-1.207-0.189-1.58-0.47c-0.329-0.248-0.608-0.587-0.927-1.02
			c-0.179-0.244-0.254-0.512-0.2-0.716c0.033-0.127,0.116-0.22,0.244-0.278c0.218-0.098,0.729-0.326,0.628-0.799
			c-0.016-0.073-0.119-0.437-0.622-0.437c-0.213,0-0.526,0.058-0.93,0.172L41.06,5.878c-0.396,0.115-0.792,0.229-1.193,0.329
			c-1.052,0.258-1.95,0.385-2.773,0.387c-0.633,0-1.294-0.058-1.933-0.114c-1.149-0.101-2.395-0.174-3.371-0.016
			c-1.499,0.246-2.942,0.818-4.337,1.373c-0.425,0.168-0.848,0.337-1.273,0.496c-1.664,0.624-2.28,0.511-3.56-0.706l-0.282-0.275
			c-0.819-0.81-1.732-1.723-3.472-1.145c-0.228,0-0.619-0.175-0.807-0.259l-0.785-0.35c-1.677-0.746-3.41-1.518-5.062-2.364
			c-0.413-0.211-0.795-0.493-1.278-0.879c-0.609-0.486-1.182-0.46-1.457-0.042c-0.219,0.331-0.185,0.839,0.1,1.51
			c0.58,1.363,1.286,2.675,2.179,4.039L9.342,5.301C7.925,3.796,7.513,3.796,7.377,3.796c-0.09,0-0.207,0.031-0.284,0.077
			C6.848,4.019,6.478,4.239,7.419,6.519c0.854,2.071,1.907,4.52,3.237,6.973c0.511,0.942,0.666,1.626,0.677,1.703
			c-0.124,0.161-0.256,0.337-0.378,0.52c-0.384,0.568-0.775,1.133-1.165,1.698c-1.006,1.456-2.047,2.961-2.962,4.516
			c-0.119,0.202-0.234,0.406-0.348,0.608c-0.7,1.24-1.304,2.312-2.63,2.812c-0.315,0.119-0.583,0.299-0.804,0.458
			c-0.223,0.162-0.933,0.733-0.717,1.31c0.071,0.192,0.265,0.421,0.785,0.421c0.288,0,0.657-0.062,1.039-0.176
			c0.364-0.108,0.789-0.25,1.185-0.488c0.416-0.249,0.765-0.562,1.052-0.835c0.073-0.069,0.142-0.131,0.208-0.186
			c-0.089,0.277-0.219,0.625-0.397,1.023l-1.785,4c-0.821,1.84-0.687,2.186-0.636,2.316c0.049,0.125,0.167,0.25,0.29,0.303
			c0.062,0.027,0.147,0.043,0.215,0.043c0.22,0,0.427,0,1.97-1.513l0.546-0.53c0.26-0.251,0.522-0.506,0.789-0.77
			c0.244-0.242,0.452-0.328,0.566-0.328c0.204,0,0.218,0.475,0.219,0.529c0.047,2.84-1.099,5.34-2.102,7.201
			c-0.615,1.14-0.746,1.664-0.732,1.941c-0.17,0.153-0.395,0.374-0.62,0.67c-0.253,0.334-0.494,0.713-0.715,1.062l-0.179,0.28
			c-1.603,2.486-2.541,4.999-2.952,7.91l-0.213,1.48c-0.372,2.562-0.723,4.984-0.858,7.549c-0.049,0.928,0.385,1.803,0.804,2.648
			c0.142,0.285,0.284,0.571,0.404,0.856c0.522,1.238,1.003,2.225,1.515,3.103c0.448,0.771,1.01,1.633,1.773,2.323
			c0.958,0.873,2.036,1.314,3.188,1.314c0.001,0,0.002,0,0.002,0c0.212,0,0.431,0.005,0.652-0.005
			c0.281-0.014,0.564-0.017,0.838-0.017c0.423,0,1.02,0.032,1.32,0.271c0.443,0.35,0.966,0.733,1.579,0.837
			c1.465,0.244,2.947,0.121,3.962-0.351c1.549-0.719,3.476-1.613,3.646-4.227c0.171-2.632,1.474-4.366,3.873-5.156
			c1.102-0.362,2.151-0.89,3.165-1.398l0.805-0.4c1.421-0.697,2.668-1.641,3.861-2.605c0.021-0.041,0.043-0.084,0.061-0.117
			c0.156-0.295,0.371-0.694,0.562-1.033c-0.191,0.339-0.405,0.738-0.562,1.033c-0.018,0.034-0.04,0.077-0.061,0.117
			c-0.248,0.479-0.682,1.382-0.586,1.69c0.02,0.064,0.085,0.146,0.145,0.177c0.035,0.019,0.091,0.031,0.13,0.031l0,0
			c0.265,0,0.703-0.527,1.303-1.565c0.298-0.518,0.593-1.035,0.879-1.558c0.047-0.084,0.038-0.161,0.008-0.233
			c0.169-0.099,0.384-0.221,0.646-0.365c0.003,0.146-0.021,0.389-0.122,0.736l-0.773,2.662c-0.481,1.657-0.34,1.847-0.216,2.012
			c0.147,0.195,0.447,0.274,0.715,0.107c0.105,0.091,0.237,0.153,0.357,0.153c0.382,0,0.677-0.282,1.054-1.724
			c0.145-0.556,0.291-1.08,0.463-1.597c0.017-0.007,0.038-0.016,0.066-0.025c0.015,0.087,0.026,0.179,0.022,0.262
			c-0.004,0.093-0.053,0.25-0.096,0.389c-0.109,0.351-0.233,0.746,0.024,1.073c0.724,0.92,0.338,1.493-0.467,2.509
			c-0.367,0.463-0.635,1.102-0.715,1.705c-0.069,0.516-0.083,1.04-0.096,1.548c-0.021,0.81-0.041,1.572-0.27,2.247
			c-0.62,1.829-1.397,3.649-2.15,5.41l-0.141,0.33c-0.991,2.323-0.618,2.49-0.318,2.625c0.064,0.029,0.147,0.047,0.218,0.047
			c0.256,0,0.547,0,1.52-2.032c0.669-1.394,1.36-2.834,1.857-4.332c0.5-1.51,0.816-3.104,1.136-4.721
			c0.152-0.765,0.324-1.256,0.424-1.471c0.438-0.129,0.797-0.716,1.031-1.217c0.249-0.533,0.158-1.286,0.052-2.159
			c-0.043-0.357-0.088-0.728-0.105-1.079c-0.035-0.718,0.153-1.425,0.544-2.043c0.24-0.38,0.518-0.613,0.721-0.738
			c0.225,2.766,0.445,5.531,0.642,8.299c0.022,0.306,0.024,0.611,0.023,0.918c-0.04-0.01-0.075-0.024-0.124-0.026
			c-0.593,0-0.623,1.248-0.623,1.5c0,0.249,0.029,1.506,0.599,1.506c0.004,0,0.017,0,0.021,0c0.408,0,0.57-0.5,0.64-0.799
			c0.093,0.155,0.195,0.326,0.317,0.531c0.22,0.367,0.355,0.649,0.428,0.828c-0.273,0.267-0.594,0.698-0.594,1.011v0.002
			c-0.005,0.012-0.011,0.024-0.015,0.035c-0.122,0.325-0.242,0.651-0.362,0.987c-0.12,0.359,0.176,0.586,0.288,0.672
			c0.001,0,0.002,0.001,0.003,0.001c-0.001,0-0.002-0.001-0.003-0.001c-0.112-0.086-0.408-0.312-0.288-0.672
			c0.119-0.336,0.239-0.662,0.361-0.987c0.005-0.011,0.016-0.024,0.016-0.037v-0.597c0-0.074,0.065-0.158,0.062-0.245
			c-0.013-0.37-0.502-0.605-0.817-0.393c-0.145,0.093-0.245,0.252-0.245,0.427l0,0c0,0.001,0,0.001,0,0.002
			c-0.035,0.189-0.058,0.49-0.096,1.019c-0.02,0.274-0.042,0.581-0.071,0.915c-0.012,0.146-0.036,0.277-0.059,0.426
			c-0.027,0.171-0.053,0.311-0.068,0.481c-0.167,1.96,0.121,2.22,0.215,2.325c0.092,0.104,0.274,0.069,0.412,0.069
			c0.004,0,0.009,0,0.013,0c0.133,0,0.303,0.053,0.397-0.042c0.251-0.252,0.257-0.542,0.257-1.817v-0.833
			c0-0.001-0.004-0.001-0.004-0.002c0.001,0.001,0.003,0.001,0.004,0.002l0,0c0,0.045,0.224,0.082,0.308,0.082
			c0.212,0,0.448-0.072,0.616-0.137c0.161,0.16,0.466,0.614,0.744,1.355c0.509,1.356,1.007,2.685,1.483,4.02
			c0.388,1.086,0.893,2.135,1.381,3.146c0.998,2.072,1.94,4.028,2.01,6.344c0.046,1.54,0.208,3.092,0.365,4.594l0.107,1.035
			c0.131,1.296,0.749,2.166,1.537,2.166c0.115,0,0.229-0.02,0.342-0.058c0.812-0.277,1.359-0.957,1.272-1.58l-0.09-0.675
			c-0.067-0.521-0.14-1.046-0.212-1.545c-0.114-0.787-0.091-1.987,0.05-2.62c0.134-0.604,0.071-1.105-0.177-1.415
			c-0.155-0.192-0.373-0.3-0.615-0.3c-0.042,0-0.171,0.017-0.211,0.027c-0.115,0.028-0.218,0.053-0.314,0.067
			c-0.028-0.076-0.053-0.165-0.06-0.229L48.389,83.6c-0.188-1.818-0.381-3.7-0.495-5.55c-0.045-0.723-0.301-1.368-0.549-1.994
			c-0.34-0.858-0.662-1.669-0.387-2.589c0.143-0.48-0.224-0.919-0.613-1.327c-0.328-0.345-0.802-0.755-1.198-0.755
			c-0.107,0-0.265,0.05-0.351,0.112c-0.111,0.081-0.177,0.173-0.206,0.281c-0.275-0.927-0.507-1.859-0.67-2.81
			c-0.415-2.41-0.264-4.68,0.448-6.743c0.033-0.097,0.065-0.173,0.094-0.232c0.025,0.077,0.051,0.178,0.073,0.304
			c0.837,4.843,2.158,9.349,3.927,13.392c0.359,0.824,1.184,1.4,2.002,1.4c0.524,0,0.993-0.234,1.317-0.661
			c0.654-0.861,0.841-1.862,0.93-2.639c0.08-0.695-0.048-1.271-0.36-1.623C51.996,71.772,51.429,71.711,50.918,72.035z
			 M49.692,9.593c0.192,0.131,0.373,0.255,0.438,0.602l0,0C50.065,9.848,49.885,9.724,49.692,9.593
			c-0.315-0.215-0.48-0.444-0.493-0.684C49.213,9.147,49.378,9.376,49.692,9.593z M48.746,8.64c0.21-0.014,0.384,0.003,0.489,0.025
			v0.001c-0.104-0.022-0.279-0.037-0.489-0.023c-0.216,0.014-0.398,0.034-0.551,0.056c-0.002-0.002-0.004-0.003-0.005-0.005
			C48.344,8.672,48.528,8.654,48.746,8.64z M34.257,8.772c-0.022,0.137,0.023,0.31,0.108,0.42
			C34.28,9.083,34.235,8.911,34.257,8.772L34.257,8.772z M12.446,5.733l0.592,0.527c0.727,0.647,0.986,1.446,0.847,1.702
			c-0.102,0-0.445-0.196-0.803-0.78l-0.789-1.286c-0.128-0.209-0.239-0.401-0.332-0.574C12.108,5.44,12.271,5.577,12.446,5.733z
			 M10.846,9.771c-0.023-0.059-0.042-0.112-0.057-0.159c0.04,0.028,0.084,0.061,0.133,0.1l2.195,1.736
			c0.561,0.444,0.843,0.936,0.873,1.227c0.007,0.063,0,0.116-0.017,0.137c-0.162,0.195-0.374,0.428-0.576,0.492
			c-0.016,0.005-0.065,0.018-0.157,0.018c-0.439,0-0.929-0.234-1.004-0.348C11.702,11.939,11.257,10.825,10.846,9.771z
			 M9.765,20.167c0.162-0.147,0.296-0.087,0.301,0.002c0.009,0.14-0.027,0.267-0.096,0.34c-0.043,0.045-0.081,0.051-0.114,0.051
			H9.855c-0.129-0.005-0.228-0.01-0.303-0.016C9.572,20.382,9.653,20.271,9.765,20.167z M10.33,66.455
			c0.025,0.06,0.021,0.126,0.037,0.189c-0.018-0.054-0.032-0.109-0.058-0.162C10.31,66.48,10.322,66.466,10.33,66.455z
			 M10.707,68.453c-0.002,0.013-0.004,0.023-0.005,0.035c-0.481-0.204-1.048-0.235-1.521-0.235c-0.288,0-0.587,0.013-0.883,0.025
			c0,0,0,0-0.001,0h0.001c0.296-0.014,0.594-0.025,0.883-0.025c0.473,0,1.04,0.03,1.521,0.234
			C10.703,68.476,10.704,68.464,10.707,68.453c0.065-0.321,0.202-0.785,0.488-1.162c0.341-0.446,0.713-0.87,1.085-1.295l4.444-5.155
			c0.007-0.007,0.014-0.014,0.021-0.02l-4.465,5.178c-0.372,0.425-0.744,0.847-1.085,1.294
			C10.908,67.67,10.771,68.132,10.707,68.453z M12.385,68.082c-0.06,0.095-0.368,0.194-0.619,0.268
			c0.06-0.182,0.137-0.336,0.225-0.452c0.327-0.429,0.684-0.835,1.041-1.24l0.615-0.709C13.246,66.649,12.826,67.368,12.385,68.082z
			 M40.857,69.994c-0.22,0.102-0.442,0.16-0.57,0.16C40.416,70.154,40.637,70.095,40.857,69.994c0.037-0.017,0.077-0.02,0.121-0.01
			C40.935,69.974,40.894,69.977,40.857,69.994z M42.562,48.439c-0.001-0.023,0.01-0.164,0.307-0.617
			c0.06-0.091,0.112-0.187,0.157-0.284C42.863,48.039,42.588,48.366,42.562,48.439z M43.517,46.626
			c-0.138,0.208-0.279,0.42-0.387,0.651c0.092-0.268,0.148-0.548,0.193-0.821c0.174-1.05,0.335-2.103,0.495-3.155
			c0.005-0.031,0.01-0.062,0.014-0.093c0.001,0.016,0.003,0.033,0.005,0.049l0.196,1.962C44.088,45.764,43.811,46.183,43.517,46.626
			z M46.391,55.727c0.026-0.396,0.029-0.824,0.008-1.271C46.42,54.903,46.417,55.332,46.391,55.727
			c-0.023,0.339-0.041,0.678-0.048,1.007C46.35,56.405,46.368,56.066,46.391,55.727z M45.72,51.233
			c0.041-0.283,0.136-0.695,0.324-1.307c0.076-0.249,0.12-0.445,0.136-0.618l0,0c-0.017,0.173-0.06,0.369-0.136,0.618
			C45.856,50.538,45.761,50.95,45.72,51.233z M46.575,61.691c-0.102,0.167-0.198,0.342-0.282,0.526
			c-0.181,0.396-0.251,0.778-0.247,1.109c-0.007-0.332,0.062-0.718,0.247-1.121c0.084-0.185,0.18-0.354,0.282-0.521
			c0.306-0.5,0.426-1.141,0.397-1.675C47.002,60.546,46.881,61.19,46.575,61.691z M49.166,64.579
			c-0.114-0.487-0.24-0.854-0.345-1.101l-0.012,0.021c-0.169,0.293-0.33,0.524-0.584,0.695c0.254-0.171,0.414-0.425,0.584-0.718
			l0.012-0.009c0.104,0.245,0.229,0.617,0.345,1.105c0.162,0.693,0.327,1.438,0.435,2.173c0.034,0.229,0.05,0.462,0.058,0.693
			c-0.008-0.23-0.024-0.462-0.058-0.69C49.493,66.015,49.328,65.273,49.166,64.579z M49.656,68.116
			c-0.025,1.064,0.203,1.299,0.289,1.388c0.08,0.081,0.227,0.153,0.352,0.173l0,0c-0.125-0.021-0.271-0.092-0.352-0.173
			C49.859,69.415,49.631,69.181,49.656,68.116C49.656,68.117,49.656,68.117,49.656,68.116z M51.453,72.88
			c-0.511,0.321-1.03,0.268-1.327-0.107c-0.037-0.047-0.061-0.108-0.089-0.163c0.028,0.055,0.052,0.116,0.089,0.163
			C50.422,73.148,50.941,73.202,51.453,72.88c0.088-0.058,0.134-0.059,0.136-0.061C51.587,72.823,51.541,72.824,51.453,72.88z"/>
		<path d="M89.966,39.071c0.092,0,0.18-0.052,0.223-0.133c0.044-0.082,0.032-0.205-0.019-0.282
			c-0.098-0.143-0.361-0.149-0.446,0.002c-0.044,0.078-0.037,0.198,0.01,0.275C89.779,39.009,89.879,39.071,89.966,39.071z"/>
		<path d="M88.884,38.515c0.304,0,0.556-0.136,0.69-0.374c0.19-0.338,0.109-0.792-0.249-1.388l-3.935-6.559
			c-0.751-1.248-0.973-1.337-1.249-1.337c-0.112,0-0.231,0.043-0.325,0.114c-0.095-0.148-0.198-0.304-0.312-0.462
			c-0.847-1.188-1.953-2.105-3.024-2.994c-0.491-0.408-0.98-0.814-1.444-1.246c-0.377-0.352-0.633-0.674-0.78-0.896
			c0.114-0.088,0.208-0.202,0.262-0.342c0.144-0.38,0.083-0.72-2.004-1.633c-0.606-0.266-1.214-0.529-1.825-0.787
			c-0.968-0.408-1.313-0.642-1.104-1.491c0.171-0.69-0.805-1.448-1.075-1.613c-0.467-0.285-0.958-0.528-1.432-0.764
			c-0.592-0.292-1.149-0.569-1.66-0.917c-0.904-0.616-1.777-1.294-2.525-1.881c-1.021-0.801-2.427-1.157-3.189-0.766
			c-0.082,0.042-0.151,0.093-0.224,0.142c0.046-0.063,0.104-0.12,0.137-0.19c0.073-0.155,0.162-0.387,0.064-0.61
			c-0.118-0.271-0.422-0.365-0.841-0.496c-0.146-0.045-0.312-0.097-0.493-0.163c-0.456-0.167-0.744-0.571-0.788-1.112
			c-0.079-0.961-0.635-1.176-1.081-1.35c-0.11-0.043-0.224-0.086-0.334-0.143c-0.143-0.074-0.287-0.163-0.432-0.252
			c-0.406-0.25-0.826-0.507-1.27-0.507c-0.003,0-0.088,0.002-0.091,0.002c-1.01,0.039-2.266,0.087-2.934,0.724
			c-0.541,0.517-0.784,1.159-0.686,1.81c0.088,0.576,0.546,0.933,1.197,0.933c0.507,0,1.033-0.215,1.374-0.562
			c0.383-0.389,0.699-0.666,0.891-0.819c-0.003,0.011-0.007,0.021-0.011,0.033c-0.145,0.389,0.279,0.822,0.773,1.048
			c0.29,0.133,0.497,0.247,0.635,0.404c0.057,0.065,0.031,0.371,0.02,0.502c-0.052,0.599,0.793,1.153,1.655,1.391
			c0.205,0.057,0.417,0.085,0.633,0.085l0,0c0.443,0,0.844-0.128,1.163-0.335c-0.036,0.049-0.068,0.151-0.099,0.241
			c-0.014-0.006-0.025-0.017-0.04-0.021c-0.009-0.002-0.017-0.002-0.026-0.004c-0.018-0.003-0.036-0.008-0.054-0.008
			c-0.045,0.001-0.09,0.011-0.128,0.036c-0.005,0.004-0.016,0.012-0.026,0.021c-0.002,0.002-0.005,0.001-0.007,0.003
			c0,0-0.002,0.002-0.004,0.003c-0.011,0.013-0.006,0.006-0.007,0.006c-0.001,0.001,0,0.002-0.001,0.003
			c-0.003,0.002-0.007,0.005-0.009,0.007c-0.093,0.084-0.096,0.178-0.024,0.281c0.005,0.015,0.019-0.018,0.027-0.018
			c0,0,0.156,0,0.157,0h0.157l0,0h-0.156c0.002,0-0.076,0-0.076,0h-0.039c0.009,0,0.003,0.047,0.013,0.054
			c0.036,0.026,0.062-0.009,0.107-0.004c0.011,0,0.012-0.05,0.021-0.05c-0.001,0-0.003,0-0.004,0c-0.01,0-0.016,0.071-0.027,0.069
			c0.002,0.26,0.098,0.546,0.287,0.743c0.489,0.506,1.347,0.5,1.847-0.032c-0.054,0.763,0.604,1.906,1.332,2.685l0.641,0.692
			c0.791,0.848,1.851,1.212,2.532,0.892c-0.041,0.226-0.013,0.418,0.086,0.576c0.174,0.28,0.602,0.361,0.846,0.227
			c0.062,0.077,0.141,0.199,0.205,0.296c0.083,0.125,0.173,0.262,0.277,0.403c0.374,0.508,0.991,0.699,1.442,0.838
			c0.142,0.043,0.334,0.103,0.387,0.138c0.218,0.163,0.407,0.302,0.603,0.433c0.168,0.113,0.378,0.217,0.587,0.318
			c0.178,0.086,0.477,0.231,0.513,0.247c0.252,1.299,0.972,2.198,2.332,2.914c0.315,0.166,0.476,0.27,0.558,0.33
			c-0.058,0.646,0.029,1.088,0.271,1.383c0.121,0.148,0.345,0.333,0.718,0.363c0.182,0.015,0.347,0.023,0.492,0.031
			c0.038,0.002,0.077,0.004,0.117,0.006c-0.063,0.283,0.014,0.491,0.081,0.605c0.089,0.153,0.312,0.409,0.811,0.409
			c0.12,0,0.25-0.015,0.441-0.052c0.285,0,0.712,0.396,0.895,0.986c0.231,0.75,0.678,1.547,1.265,1.684
			c-0.005,0.148,0.026,0.295,0.094,0.429c0.11,0.215,0.303,0.378,0.548,0.467c0.006,0.046,0.012,0.097,0.016,0.141
			c0.043,0.429,0.108,1.078,0.604,1.69l0.46,0.536c0.571,0.668,1.005,1.128,1.677,0.979c0.152-0.032,0.2,0.004,0.2,0.036
			c0,0.246,0,0.537,0,0.537h0.024c0,0.099,0.019,0.18,0.038,0.26c-0.021-0.046-0.038-0.091-0.038-0.137
			c0,0.774,0.902,1.276,1.884,1.808C88.284,38.411,88.61,38.515,88.884,38.515z M62.927,14.411c0.013-0.004,0.028-0.003,0.041-0.009
			l0,0C62.954,14.409,62.939,14.407,62.927,14.411z M63.015,14.353c0.001-0.001,0.001-0.001,0.002-0.002
			c0.004-0.003,0.008-0.002,0.012-0.005c0,0.001,0,0.002-0.002,0.004C63.023,14.354,63.019,14.35,63.015,14.353z M63.091,14.208
			c0,0.005-0.004,0.007-0.005,0.011C63.086,14.216,63.09,14.213,63.091,14.208L63.091,14.208z M73.1,19.001
			c-0.04,0.162-0.062,0.31-0.07,0.445C73.037,19.312,73.06,19.164,73.1,19.001L73.1,19.001z M77.649,23.096
			c-0.021,0.003-0.035,0.016-0.04,0.04C77.613,23.112,77.627,23.098,77.649,23.096c0.18-0.021,0.357-0.128,0.4-0.24l0,0
			C78.007,22.969,77.828,23.076,77.649,23.096z M84.096,29.552c-0.015-0.064-0.02-0.108-0.019-0.14
			c0.001,0.031,0.006,0.071,0.019,0.125c0.083,0.352,0.146,0.682,0.134,0.847C84.237,30.218,84.178,29.898,84.096,29.552z
			 M88.979,37.408C88.979,37.408,88.979,37.409,88.979,37.408C88.979,37.409,88.979,37.409,88.979,37.408L88.979,37.408z
			 M88.979,37.726c0.021-0.037,0.026-0.085,0.028-0.135c0.008,0.175-0.028,0.301-0.028,0.366V37.726z M88.818,37.012
			c0.045,0.075,0.064,0.138,0.093,0.205c-0.038-0.082-0.078-0.167-0.14-0.268c-0.474-0.788-0.929-1.563-1.387-2.338
			C87.859,35.409,88.335,36.206,88.818,37.012z M87.924,37.694c0.473,0.257,1.056,0.375,1.056,0.263
			c0,0.112-0.583,0.056-1.056-0.201c-0.198-0.107-0.411-0.215-0.621-0.323C87.513,37.507,87.726,37.587,87.924,37.694z"/>
		<path d="M94.252,41.562c-0.344-0.234-0.677-0.423-1.021-0.576c-0.599-0.267-1.129-0.675-1.568-1.04
			c-0.652-0.541-1.214-0.61-1.631-0.61c-0.161,0-0.318,0.012-0.476,0.022l-0.201,0.014c-0.415,0.024-0.492,0.258-0.505,0.357
			c-0.068,0.5,0.871,0.962,1.438,1.156c1.05,0.36,1.963,0.787,2.791,1.306l0.242,0.152c0.874,0.548,1.271,0.791,1.521,0.791
			c0.161,0,0.286-0.097,0.319-0.246C95.248,42.505,94.767,41.912,94.252,41.562z"/>
		<path d="M11.919,54.818c0.123-0.701,0.256-1.402,0.392-2.102c0.43-2.219,0.181-2.296,0.016-2.349
			c-0.024-0.008-0.057-0.013-0.082-0.013c-0.126,0-0.389,0-1.194,1.977l-0.269,0.658c-0.376,0.924-0.312,2.197-0.259,3.22
			c0.01,0.191,0.019,0.371,0.025,0.54c0.009,0.267-0.064,0.48-0.211,0.633c-0.261,0.271-0.754,0.27-1.124,0.007
			c-0.412-0.292-0.907-0.647-1.462-0.88c-0.65-0.273-1.302-0.324-1.914-0.046c-0.211,0.095-0.706,0.22-0.628,0.578
			c0.028,0.13,0.128,0.181,0.286,0.206c0.12,0.11,0.5,0.168,1.073,0.16c0.057-0.001,0.109,0.005,0.162,0.009
			c0.021,0.029,0.043,0.055,0.064,0.058c0.291,0.037,0.394,0.311,0.405,0.324c-0.009,0.071-0.29,0.331-0.875,0.399
			c-0.747,0.088-1.319,0.501-1.699,1.229c-0.158,0.304,0.024,0.677,0.279,1.135c0.152,0.271,0.179,0.535,0.138,0.675
			c-0.012,0.041-0.031,0.072-0.049,0.082c-0.24,0.126-0.403,0.31-0.446,0.5c-0.028,0.123-0.004,0.244,0.068,0.341
			c0.166,0.224,0.592,0.248,0.976,0.076c0.244-0.108,0.508-0.247,0.566-0.505c0.079-0.352,0.088-0.711,0.076-1.177
			c-0.007-0.277,0.086-0.545,0.25-0.715c0.073-0.077,0.196-0.169,0.418-0.172c0.435,0,0.54,0.078,0.565,0.111
			c0.509,0.683,0.961,0.954,1.431,0.858c0.415-0.079,0.655-0.067,0.727,0.025c0.035,0.046,0.1,0.205-0.037,0.691
			c-0.224,0.793-0.695,1.491-1.362,2.019c-0.97,0.771-1.384,1.285-1.385,1.728c0,0.202,0.09,0.382,0.26,0.517
			c0.146,0.116,0.297,0.173,0.462,0.173c0.265,0,0.53-0.146,0.897-0.402c2.007-1.396,3.621-5.545,3.14-8.074
			c-0.104-0.549,0.038-1.185,0.177-1.8C11.827,55.279,11.879,55.046,11.919,54.818z"/>
		<path d="M81.688,61.606c-0.333,0-1.547,0.796-1.912,1.039l-3.567,2.388c-1.005,0.674-1.957,1.213-2.216,1.295
			c-0.363,0.114-0.706,0.224-0.709,0.509c-0.01,0.775-0.326,1.163-0.989,1.688c-0.655,0.521-1.082,1.307-1.495,2.068
			c-0.079,0.146-0.158,0.295-0.238,0.437c-0.274,0.488-0.514,1.003-0.691,1.386c-0.742,1.604-0.631,1.68-0.425,1.781
			c0.035,0.018,0.075,0.067,0.112,0.067h0.001c0.094,0,0.273-0.049,1.562-1.678l0.371-0.513c1.218-1.544,2.478-3.141,3.888-4.525
			c1.389-1.367,2.988-2.578,4.535-3.749l0.45-0.343c1.819-1.383,1.664-1.59,1.553-1.739C81.869,61.653,81.768,61.606,81.688,61.606z
			"/>
		<path d="M71.665,58.413c-0.682,0.796-0.977,1.312-0.875,1.529c0.041,0.089,0.146,0.156,0.244,0.156
			c0.101,0,0.181-0.056,0.238-0.103c0.195-0.155,0.637-0.21,0.894-0.103c0.426,0.18,0.715,0.26,0.914,0.115
			c0.475-0.354,0.811-0.856,1.17-1.433c0.108-0.174,0.144-0.38,0.176-0.562c0.027-0.154,0.054-0.313,0.118-0.383
			c1.015-1.112,2.047-2.209,3.079-3.307c0.638-0.679,1.276-1.356,1.912-2.041c0.128-0.139,0.078-0.324,0.052-0.424
			c-0.029-0.109-0.171-0.204-0.284-0.204c-0.289,0-1.097,0.413-1.839,1.028C75.699,54.151,73.207,56.612,71.665,58.413z"/>
		<path d="M53.717,48.558c-0.181,0-0.354,0.081-0.493,0.219c-0.052-0.218-0.117-0.409-0.197-0.558
			c0.184-0.12,0.231-0.198,0.222-0.316c-0.006-0.073-0.011-0.121-0.654-0.941c-0.167-0.212-0.423-0.466-0.695-0.466
			c-0.172,0-0.386,0.114-0.422,0.434l-0.067,0.608c-0.028,0.248-0.089,0.522-0.146,0.788c-0.142,0.646-0.289,1.313-0.04,1.841
			c0.494,1.046,0.77,1.917,0.616,3.034c-0.061,0.437,0.457,0.841,0.956,1.233l0.185,0.149c0.045,0.036,0.12,0.062,0.177,0.062
			c0.22,0,0.661-0.312,0.8-0.466c0.031-0.037,0.132-0.149,0.113-0.299c-0.073-0.617,0.094-1.275,0.27-1.974
			c0.211-0.832,0.429-1.69,0.21-2.506C54.409,48.873,54.097,48.558,53.717,48.558z M52.882,51.136
			c-0.02-0.055-0.038-0.144-0.057-0.214c-0.021-0.078-0.044-0.141-0.063-0.238c-0.038-0.188-0.071-0.409-0.093-0.664
			c-0.053-0.613-0.082-1.089-0.094-1.532c0.012-0.009,0.03-0.021,0.056-0.038c0.082,0.173,0.209,0.607,0.269,1.337
			c0.022,0.272,0.028,0.508,0.026,0.714C52.923,50.766,52.905,50.983,52.882,51.136z"/>
		<path d="M19.933,20.307c0.008-0.309-0.094-0.479-0.181-0.569c-0.097-0.099-0.224-0.152-0.368-0.152
			c-0.366,0-0.773,0.341-1.117,0.935c-0.691,1.196-0.997,2.491-0.838,3.552c0.14,0.938,1.062,1.357,1.914,1.357l0,0
			c0.343,0,0.663-0.066,0.926-0.19c0.258-0.123,0.502-0.27,0.545-0.517c0.047-0.27-0.151-0.469-0.45-0.77
			c-0.128-0.129-0.281-0.283-0.447-0.473c-0.26-0.298-0.283-0.789-0.09-1.874C19.899,21.207,19.921,20.798,19.933,20.307z"/>
		<path d="M49.508,49.155c0.042,0.084,0.147,0.109,0.242,0.109c0,0,0.001,0,0.002,0c0.156,0,0.37,0.035,0.782-1.82
			c0.14-0.628,0.275-1.218,0.397-1.853c0.034-0.175,0.126-0.78-0.111-1.221c-1.235-2.302-2.525-4.598-3.636-6.569
			c-0.109-0.194-0.256-0.348-0.477-0.58c-0.26-0.273-0.531-0.297-0.688-0.115c-0.101,0.115-0.133,0.295-0.098,0.551
			c0.043,0.319,0.077,0.57,0.187,0.8c0.242,0.504,0.504,0.998,0.766,1.493c0.312,0.591,0.635,1.199,0.916,1.813
			c0.165,0.361,0.34,0.715,0.516,1.074c0.936,1.91,1.818,3.704,1.138,5.898C49.401,48.864,49.423,48.988,49.508,49.155z"/>
		<path d="M57.212,72.155c-0.615,0.945-1.021,1.986-1.208,3.094c-0.083,0.491-0.036,0.847,0.139,1.054
			c0.096,0.113,0.23,0.178,0.377,0.178l0,0c0.303,0,0.625-0.259,0.93-0.747c0.544-0.873,1.086-1.833,1.362-2.926
			c0.114-0.45,0.072-0.833-0.118-1.077C58.358,71.299,57.658,71.467,57.212,72.155z"/>
		<path d="M69.364,43.568c-0.046-0.071-0.171-0.139-0.256-0.139c-0.148,0-0.351,0.085-0.815,0.704l-2.266,3.017
			c-1.372,1.829-1.127,2.013-0.979,2.125c0.043,0.033,0.135,0.062,0.188,0.062c0.338,0,1.201-0.562,1.854-1.311
			c0.761-0.875,1.397-1.921,2.062-3.392C69.496,43.878,69.441,43.687,69.364,43.568z"/>
		<path d="M14.33,34.751c0.088-0.203,0.08-0.424,0.061-0.614c-0.044-0.43-0.46-0.667-0.837-0.462
			c-0.184,0.099-0.383,0.228-0.466,0.437c-0.516,1.292-1.003,2.592-1.457,3.814c-0.199,0.536-0.645,1.818-0.485,2.16
			c0.028,0.061,0.105,0.133,0.168,0.155c0.027,0.01,0.089,0.034,0.097,0.016c0.107,0,0.43-0.007,1.304-1.912
			C13.262,37.152,13.807,35.956,14.33,34.751z"/>
		<path d="M22.032,44.244c0.02,0.005,0.049,0.014,0.068,0.008c0.152,0,0.407-0.01,0.964-2.102l1.42-5.327
			c0.147-0.553,0.469-1.875,0.273-2.194c-0.036-0.059-0.18-0.128-0.247-0.142c-0.135,0-0.45,0-0.992,2.108l-1.367,5.32
			c-0.18,0.702-0.458,1.92-0.292,2.198C21.892,44.17,21.967,44.228,22.032,44.244z"/>
		<path d="M21.196,34.462c0.034,0.016,0.081,0.026,0.119,0.026l0,0c0.349,0,1.369-1.191,1.673-1.556
			c0.625-0.75,1.312-1.665,1.663-2.771c0.26-0.816,0.167-1.466-0.039-1.749c-0.122-0.167-0.266-0.191-0.341-0.191
			c-0.07,0-0.174,0.02-0.274,0.116c-0.182,0.174-0.262,0.501-0.372,0.954c-0.027,0.109-0.06,0.228-0.09,0.344
			c-0.136-0.167-0.319-0.304-0.539-0.409c0.209-0.094,0.236-0.19,0.234-0.301c-0.005-0.267-0.32-0.303-0.423-0.314
			c-0.094-0.011-0.156-0.028-0.193-0.043c0.023-0.026,0.062-0.062,0.124-0.103c0.092-0.062,0.371-0.249,0.293-0.504
			c-0.021-0.069-0.1-0.229-0.377-0.229c-0.212,0-0.492,0.087-0.69,0.16l-0.187,0.069c-0.363,0.136-0.706,0.264-1.06,0.348
			c-0.914,0.217-1.9,0.246-2.77,0.271c-1.802,0.052-2.43,1.479-2.934,2.625l-0.038,0.086c-0.496,1.124,0.344,1.878,1.018,2.484
			c0.101,0.091,0.201,0.181,0.296,0.271c0.121,0.115,0.196,0.237,0.202,0.259c-0.068,0.372-0.03,0.639,0.118,0.816
			c0.104,0.125,0.254,0.192,0.432,0.192c0.295,0,0.565-0.178,0.667-0.255c0.654-0.491,1.296-1.108,1.909-1.834
			c0.368-0.436,0.746-0.745,1.154-0.946c0.129-0.063,0.25-0.12,0.36-0.172c0.407-0.191,0.675-0.324,0.784-0.515
			c0.042,0.007,0.084,0.013,0.128,0.017c-0.014,0.019-0.032,0.035-0.039,0.058c-0.001,0.005,0.002,0.01,0,0.014
			c-0.096,0.163-0.245,0.491-0.554,1.176C20.81,34.276,21.052,34.392,21.196,34.462z M21.772,31.027
			c-0.176-0.14-0.412-0.321-0.666-0.483c-0.257-0.164-0.518-0.298-0.74-0.409c-0.19-0.095-0.338-0.189-0.44-0.266
			c0.015-0.005,0.039-0.01,0.055-0.015c0.21-0.061,0.531-0.135,0.936-0.211c0.204-0.038,0.425-0.076,0.677-0.112l0.11-0.016
			c0.64-0.095,1.277,0.128,1.506,0.49c0.102,0.161,0.109,0.329,0.021,0.513c-0.212,0.448-0.677,0.607-1.042,0.607
			C21.974,31.125,21.83,31.072,21.772,31.027z"/>
		<path d="M63.146,29.272c0.272-1.352-0.077-2.69-0.416-3.985c-0.124-0.475-0.249-0.952-0.342-1.43
			c-0.136-0.698-0.28-1.232-0.78-1.232c-0.628,0-0.628,0.777-0.628,1.344c0,1.69,0,3.372,0,5.026l0,0c0,0.001,0,0.002,0,0.003
			c0,0.145,0.033,0.259,0.058,0.383c0.13,0.673,0.561,1.043,1.007,1.043C62.445,30.425,62.975,30.123,63.146,29.272z"/>
		<path d="M78.779,31.873c0.865,0.998,1.422,1.503,1.653,1.504c0.06,0,0.133-0.026,0.178-0.065c0.08-0.068,0.323-0.274-0.344-1.212
			c-0.179-0.252-0.36-0.503-0.546-0.75c-0.122-0.162-0.275-0.32-0.428-0.477c-0.26-0.267-0.529-0.543-0.55-0.781l-0.009-0.096
			c-0.042-0.512-0.069-0.85-0.601-1.357c-0.187-0.178-0.363-0.264-0.54-0.264c-0.222,0-0.376,0.135-0.472,0.237
			c-0.278,0.295-0.378,0.912,0.716,2.174L78.779,31.873z"/>
		<path d="M72.594,23.662c-0.916-0.938-1.491-1.414-1.708-1.414c-0.067,0-0.146,0.032-0.193,0.08
			c-0.148,0.151-0.29,0.293,1.258,1.962l2.15,2.318c0.389,0.42,1.336,1.396,1.72,1.396l0,0c0.066,0,0.165-0.039,0.213-0.085
			c0.117-0.118,0.361-0.363-1.233-1.998L72.594,23.662z"/>
		<path d="M89.633,44.445c-0.203,0-0.474,0.088-0.807,0.261c-0.376,0.196-0.714,0.421-1.004,0.67
			c-0.419,0.36-0.595,0.705-0.496,0.972c0.063,0.173,0.231,0.277,0.447,0.277l0,0c0.255,0,0.581-0.141,0.919-0.396l0.697-0.526
			c0.524-0.396,0.744-0.733,0.654-1.002C90.022,44.641,89.934,44.445,89.633,44.445z"/>
		<path d="M64.399,25.656c-0.02-0.005-0.047-0.008-0.067-0.008c-0.156,0-0.447,0-0.82,2.156l-0.258,1.491
			c-0.39,2.248-0.134,2.298,0.052,2.333c0.017,0.003,0.038,0.007,0.056,0.005c0.164,0,0.411-0.017,0.812-2.167l0.271-1.463
			C64.861,25.771,64.562,25.696,64.399,25.656z"/>
		<path d="M83.827,36.062c-0.144-0.11-0.522-0.492-1.031-1.147c-1.12-1.441-1.302-1.457-1.414-1.465
			c-0.074,0-0.175,0.049-0.223,0.106c-0.146,0.173-0.111,0.571-0.058,0.875c0.046,0.26,0.12,0.556,0.313,0.776
			c0.343,0.392,0.73,0.739,1.03,0.998c0.187,0.161,0.828,0.687,1.257,0.687c0.164,0,0.297-0.08,0.355-0.215
			c0.097-0.219,0.107-0.375,0.032-0.489C84.039,36.107,83.922,36.055,83.827,36.062z"/>
		<path d="M64.139,65.032c-0.322,0-1.239,0.831-1.757,1.327l-0.243,0.232c-0.434,0.415-0.626,0.828-0.515,1.104
			c0.061,0.152,0.201,0.243,0.375,0.243c0.284,0,0.598-0.245,0.812-0.451c0.115-0.112,0.226-0.229,0.332-0.349
			c1.495-1.688,1.323-1.884,1.209-2.015C64.305,65.072,64.211,65.032,64.139,65.032z"/>
		<path d="M60.738,67.945c-0.075,0.021-0.131,0.08-0.167,0.151c-0.016,0.016-0.035,0.026-0.046,0.048
			c-0.034,0.077-0.03,0.187,0.016,0.258c0.046,0.072,0.13,0.117,0.215,0.117c0.079,0,0.165-0.045,0.212-0.107
			c0.009-0.012,0.01-0.029,0.016-0.045c0.054-0.053,0.091-0.119,0.084-0.192C61.057,68.024,60.886,67.917,60.738,67.945z"/>
		<path d="M59.551,69.33c-0.189,0.229-0.796,1.008-0.663,1.492c0.038,0.138,0.131,0.239,0.264,0.286
			c0.123,0.043,0.285,0.092,0.44,0.092c0.091,0,0.175-0.017,0.25-0.049c0.59-0.258,0.92-0.675,1.041-1.312
			c0.07-0.367,0.028-0.655-0.12-0.835C60.502,68.691,59.993,68.8,59.551,69.33z"/>
		<path d="M14.844,58.422c-0.335,0.393-0.458,0.744-0.344,0.989c0.067,0.146,0.21,0.233,0.381,0.233c0.233,0,0.511-0.16,0.784-0.451
			c0.334-0.355,0.464-0.729,0.348-0.996C15.852,57.828,15.311,57.874,14.844,58.422z"/>
		<path d="M51.065,9.725c0.052,0.049,0.127,0.099,0.257,0.099c0.333,0,0.907-0.345,1.333-0.668c0.851-0.645,1.179-1.109,0.976-1.381
			c-0.036-0.048-0.119-0.128-0.278-0.128c-0.308,0-0.896,0.34-1.345,0.658c-0.232,0.165-0.991,0.731-1.045,1.132
			c-0.003,0.024,0.003,0.046,0.004,0.069c0.004,0.072,0.021,0.14,0.067,0.194C51.041,9.708,51.057,9.716,51.065,9.725z"/>
	</g>
</g>
<g>
</g>
<g>
</g>
<g>
</g>
<g>
</g>
<g>
</g>
<g>
</g>
<g>
</g>
<g>
</g>
<g>
</g>
<g>
</g>
<g>
</g>
<g>
</g>
<g>
</g>
<g>
</g>
<g>
</g>
</svg>
