<?xml version="1.0" encoding="iso-8859-1"?>
<!-- Generator: Adobe Illustrator 16.0.0, SVG Export Plug-In . SVG Version: 6.00 Build 0)  -->
<!DOCTYPE svg PUBLIC "-//W3C//DTD SVG 1.1//EN" "http://www.w3.org/Graphics/SVG/1.1/DTD/svg11.dtd">
<svg version="1.1" id="Capa_1" xmlns="http://www.w3.org/2000/svg" xmlns:xlink="http://www.w3.org/1999/xlink" x="0px" y="0px"
	 width="93.926px" height="93.926px" viewBox="0 0 93.926 93.926" style="enable-background:new 0 0 93.926 93.926;"
	 xml:space="preserve">
<g>
	<g>
		<path d="M91.925,63.862c-0.327,0-0.656,0.08-0.957,0.244c-0.057,0.031-5.98,3.207-11.963,3.207c-5.154,0-8.645-2.289-10.668-6.997
			c-0.036-0.083-0.072-0.164-0.111-0.243l0.408,0.163c0.517,0.205,0.841,0.229,1.038,0.229c0.799,0,1.54-0.349,1.857-1.082
			c0.045-0.103,0.278-1.231,0.083-1.231c0.009,0,0.017,0,0.026,0c0.92,0,1.72-0.708,1.989-1.563c0.257-0.814-0.013-1.739-0.69-2.304
			c-0.045-0.633-0.391-1.329-1.182-1.819l-0.322-0.215c-0.034-0.14-0.083-0.285-0.146-0.418c0.57-0.389,0.947-1.059,0.963-1.83
			c0.021-0.976-0.536-1.811-1.348-2.143c0.582-0.557,0.74-1.303,0.596-1.933c-0.009-0.041-0.022-0.093-0.041-0.152
			c0.015-0.039,0.027-0.079,0.038-0.119c0.156-0.058,0.319-0.125,0.487-0.206c0.91-0.439,1.392-1.368,1.199-2.313
			c-0.193-0.945-1.002-1.612-2.015-1.66l-1.034-0.049c-0.267-0.515-0.774-0.952-1.561-1.088l-0.542-0.094
			c-0.181-0.26-0.423-0.485-0.714-0.655l-0.044-0.026c0.177-0.362,0.246-0.773,0.187-1.195c-0.097-0.694-0.521-1.263-1.134-1.572
			l1.151-0.286c1.27-0.316,1.734-1.377,1.631-2.23c-0.106-0.869-0.785-1.555-1.621-1.723c-0.179-0.569-0.576-1.043-1.088-1.337
			c0.079-0.404,0.03-0.811-0.112-1.161c-0.314-0.774-1.072-1.274-1.93-1.274c-0.41,0-0.775,0.113-1.01,0.208l-0.166,0.067
			c-0.285,0.116-0.555,0.226-0.764,0.275c-0.038,0.009-0.076,0.018-0.114,0.029c-0.201-0.126-0.447-0.232-0.745-0.294l-1.7-0.565
			c-1.646-0.546-3.289-1.093-4.933-1.646c-0.214-0.436-0.581-0.788-1.115-1.069l-0.654-0.344c-0.198-0.408-0.549-0.777-1.086-1.02
			l-1.217-0.55c0.721-0.595,0.837-1.438,0.688-2.048c-0.221-0.91-1.042-1.545-1.997-1.545c-0.136,0-0.272,0.012-0.42,0.037
			l-1.297,0.215l-0.05,0.008c-0.19-0.133-0.402-0.239-0.633-0.31c-0.419-0.56-1.171-0.918-2.249-1.071
			c-1.193-0.169-2.271-0.598-3.495-1.39c-1.28-0.829-2.733-1.297-4.015-1.71l-0.134-0.043c-1.037-0.335-2.081-0.598-3.091-0.852
			c-0.531-0.134-1.062-0.267-1.59-0.411c-0.157-0.043-0.31-0.104-0.464-0.162c-0.414-0.156-0.929-0.351-1.539-0.416
			c-0.373-0.04-0.764-0.058-1.23-0.058c-0.27,0-0.535,0.006-0.793,0.013c-0.303-0.191-0.745-0.399-1.299-0.409
			c-0.543-0.01-1.085-0.016-1.627-0.016c-2.295,0-5.316,0.103-8.344,0.906c-0.501,0.133-0.93,0.324-1.31,0.493
			c-0.044,0.02-0.088,0.039-0.132,0.059c-0.258-0.214-0.518-0.442-0.787-0.678l-0.302-0.264c-0.224-0.195-0.439-0.4-0.656-0.604
			l-0.081-0.076c-0.284-0.269-0.88-0.719-1.674-0.719c-0.363,0-0.751,0.106-1.062,0.294c-0.684,0.412-1.069,1.17-1.062,2.082
			c0.001,0.183,0.014,0.464,0.097,0.781c0.096,0.367,0.201,0.88,0.31,1.244c-0.465,0.177-0.947-0.076-1.387,0.924
			c-0.001,0-0.002,0-0.003,0c-0.012,0-0.023,0-0.034,0c-0.099,0-0.199-0.152-0.302-0.156c-0.105-0.004-0.195-0.08-0.284-0.08
			c-0.277,0-0.557,0.104-0.834,0.122c-0.179,0.012-0.357,0.114-0.535,0.114H7.131c-1.345,0-2.538-0.403-3.647-0.978
			c-0.469-0.243-0.92-0.336-1.068-0.346c-0.046-0.003-0.111-0.036-0.158-0.036c-0.62,0-1.22,0.242-1.644,0.692
			c-0.425,0.451-0.647,1.06-0.609,1.683c0.012,0.176,0.043,0.708,0.385,1.24c0.805,1.258,1.735,2.542,3.464,3.229
			c0.508,0.202,1.042,0.533,1.497,0.831c0.077,0.051,0.128,0.091,0.158,0.118c-0.005,0.058-0.021,0.161-0.065,0.319
			c-0.112,0.393-0.228,0.785-0.342,1.177c-0.419,1.426-0.854,2.901-1.127,4.434c-0.182,1.007,0.02,1.962,0.181,2.728
			c0.05,0.237,0.101,0.473,0.135,0.706c0.041,0.279,0.105,0.523,0.157,0.72C4.47,34.757,4.5,34.875,4.51,34.931
			c-0.053,3.384-0.599,6.891-1.619,10.425c-0.179,0.616-0.309,1.233-0.413,1.729l-0.034,0.164c-0.014,0.062-0.039,0.133-0.057,0.192
			c-0.024,0.077-0.046,0.146-0.059,0.194c-0.065,0.24-0.1,0.486-0.1,0.73c0,0.247,0.031,0.492,0.096,0.729
			c0.095,0.35,0.259,0.662,0.349,0.817l0.034,0.058l0.064,0.111c0.043,0.086,0.102,0.187,0.171,0.288
			c-0.017,0.043-0.031,0.087-0.045,0.132c-0.067,0.209-0.102,0.396-0.121,0.526c-0.041,0.163-0.062,0.33-0.062,0.499
			c-0.001,0.727,0.319,1.759,1.225,2.294c0.31,0.183,0.618,0.356,0.93,0.526c0.1,0.58,0.432,1.108,0.928,1.455
			c0.771,0.539,1.667,0.812,2.668,0.812c0.366,0,0.754-0.209,1.222-0.283c0.021-0.003,0.044-0.178,0.067-0.178
			c0.009,0,0.017,0,0.024,0c0.099,0,0.198-0.007,0.298-0.002c0.163,0.008,0.327,0.002,0.49,0.002c0.008,0,0.058,0,0.065,0
			c0.102,0,0.171,0.194,0.238,0.194c0.862,0,1.399-0.27,1.698-0.573c0.062-0.063,0.494-0.067,0.78-0.101l0.1,0.012
			c1.013-0.12,1.992-0.693,2.688-1.594c0.732-0.945,1.066-2.1,0.92-3.176c-0.093-0.673-0.008-1.182,0.708-1.959
			c0.451-0.49,0.8-1.029,1.095-1.562c0.068,0.329,0.115,0.643,0.122,0.938c0.045,1.907-0.203,3.92-0.443,5.866
			c-0.216,1.755-1.102,3.354-2.367,5.216c-0.456,0.646-6.341,9.338-0.425,18.95c0.376,0.61,1.03,0.952,1.705,0.952
			c0.306,0,0.617-0.07,0.907-0.218c0.098-0.05,10.187-5.087,23.472-5.087c6.981,0,13.631,1.377,19.767,4.093
			c4.485,1.985,8.726,2.993,12.603,2.993c14.806,0,19.587-14.481,19.634-14.627c0.248-0.779-0.003-1.629-0.633-2.149
			C92.832,64.018,92.38,63.862,91.925,63.862z M74.198,79.097c-3.338,0-7.245-0.809-11.794-2.822
			c-7.168-3.173-14.237-4.264-20.576-4.264c-13.972,0-24.38,5.305-24.38,5.305c-5.39-8.758,0.364-16.76,0.364-16.76
			c1.28-1.883,2.427-3.821,2.709-6.113c0.252-2.043,0.505-4.107,0.457-6.157c-0.032-1.368-0.583-2.728-0.919-4.087
			c-0.103-0.414-0.363-0.622-0.691-0.622c-0.114,0-0.235,0.025-0.361,0.075c-0.31,0.123-0.627,0.387-0.799,0.673
			c-0.656,1.088-1.081,2.369-1.918,3.279c-0.999,1.084-1.414,2.161-1.218,3.588c0.149,1.087-0.79,2.401-1.861,2.528
			c-0.775,0.093-1.49,0.154-2.071,0.744c-0.056,0.057-0.158-0.119-0.271-0.119c-0.083,0-0.171-0.194-0.248-0.194
			c-0.005,0-0.009,0-0.014,0c-0.015,0-0.029,0-0.043,0c-0.263,0-0.527,0.162-0.788,0.162c-0.137,0-0.272,0.101-0.406,0.122
			c-0.309,0.049-0.612,0.131-0.909,0.131c-0.526,0-1.036-0.087-1.521-0.428c-0.148-0.103-0.138-0.275,0.01-0.379
			c0.068-0.049,0.133-0.09,0.199-0.138c0.146-0.104,0.136-0.256-0.023-0.34c-0.761-0.405-1.478-0.774-2.172-1.185
			c-0.147-0.088-0.243-0.371-0.243-0.565c0-0.017,0.006-0.036,0.017-0.056c0.015-0.029,0.017-0.197,0.07-0.366
			c0.031-0.099,0.082-0.192,0.154-0.279c0.094-0.11,0.187-0.222,0.274-0.336c0.109-0.142,0.095-0.373-0.025-0.508
			c-0.207-0.231-0.413-0.463-0.594-0.722c-0.026-0.036-0.047-0.073-0.066-0.109c-0.032-0.062-0.097-0.172-0.141-0.248
			c-0.044-0.077-0.119-0.225-0.149-0.337c-0.017-0.063-0.026-0.133-0.026-0.207c0-0.065,0.01-0.133,0.027-0.198
			c0.029-0.106,0.107-0.328,0.145-0.504c0.11-0.523,0.236-1.144,0.412-1.752c1.038-3.591,1.644-7.248,1.698-10.988
			c0.007-0.42-0.18-0.839-0.242-1.264c-0.138-0.932-0.484-1.908-0.326-2.791c0.328-1.832,0.914-3.62,1.425-5.417
			c0.337-1.185,0.105-1.985-0.922-2.658c-0.589-0.385-1.202-0.758-1.854-1.016c-1.194-0.475-1.873-1.442-2.519-2.451
			c-0.05-0.078-0.065,0.017-0.072-0.09c-0.004-0.157,0.11-0.082,0.262-0.082c0.008,0,0.014,0,0.021,0
			c0.103,0,0.202-0.05,0.286-0.007C4,19.889,5.527,20.152,7.131,20.152c0.043,0,0.086,0,0.131,0c0.448,0,0.897-0.185,1.346-0.185
			c0.062,0,0.126-0.061,0.188-0.059c0.136,0.005,0.268-0.02,0.397-0.02c0.441,0,0.854-0.079,1.256-0.428
			c0.394-0.341,0.942-0.544,1.452-0.71c1.183-0.385,1.19-0.366,0.841-1.554c-0.169-0.573-0.346-1.145-0.497-1.722
			c-0.023-0.094-0.03-0.193-0.031-0.293c-0.001-0.163,0.041-0.321,0.094-0.352c0.008-0.005,0.018-0.008,0.03-0.008
			c0.067,0,0.191,0.069,0.302,0.173c0.262,0.248,0.522,0.497,0.795,0.734c0.59,0.514,1.17,1.043,1.801,1.503
			c0.085,0.062,0.214,0.086,0.352,0.086c0.144,0,0.295-0.027,0.414-0.067c0.608-0.203,1.175-0.543,1.79-0.706
			c2.572-0.683,5.196-0.84,7.831-0.84c0.53,0,1.061,0.006,1.591,0.016c0.147,0.003,0.292,0.117,0.445,0.236
			c0.138,0.109,0.397,0.196,0.577,0.196c0.004,0,0.008,0,0.011,0c0.347,0,0.717-0.027,1.095-0.027c0.336,0,0.68,0.007,1.02,0.043
			c0.574,0.061,1.12,0.362,1.688,0.517c1.53,0.417,3.086,0.749,4.594,1.235c1.262,0.407,2.576,0.818,3.675,1.528
			c1.348,0.873,2.708,1.466,4.302,1.692c1.706,0.242,0.522,0.594,0.522,0.594c0.452,0.094,0.907,0.299,1.379,0.397
			c0.176,0.037,0.232,0.18,0.126,0.248c-0.107,0.068-0.179,0.204-0.16,0.268c0.015,0.049,0.113,0.086,0.239,0.086
			c0.037,0,0.075-0.003,0.115-0.01c0.875-0.147,1.749-0.288,2.617-0.434c0.037-0.006,0.066-0.009,0.089-0.009
			c0.087,0,0.07,0.043-0.057,0.108c-0.666,0.344-1.363,0.706-2.132,1.103c-0.16,0.083-0.147,0.182,0.029,0.221
			c0.253,0.056,0.49,0.11,0.783,0.175c0.152,0.034,0.17,0.057,0.058,0.057c-0.019,0-0.039-0.001-0.064-0.002
			c-0.498-0.025-0.903-0.045-1.288-0.064c-0.015-0.001-0.029-0.001-0.045-0.001c-0.16,0-0.293,0.043-0.305,0.102
			c-0.013,0.065,0.108,0.177,0.272,0.252c1.53,0.692,3.053,1.38,4.45,2.012c0.139,0.062,0.151,0.103,0.046,0.103
			c-0.02,0-0.045-0.002-0.072-0.005c-0.048-0.005-0.098-0.011-0.148-0.016c-0.061-0.007-0.119-0.01-0.17-0.01
			c-0.098,0-0.169,0.012-0.177,0.034c-0.014,0.033,0.105,0.127,0.265,0.211c0.63,0.332,1.26,0.663,1.889,0.995
			c0.159,0.084,0.274,0.178,0.258,0.21c-0.015,0.025-0.115,0.041-0.245,0.041c-0.035,0-0.073-0.001-0.111-0.004l-0.187-0.012
			c-0.012-0.001-0.021-0.001-0.031-0.001c-0.152,0-0.174,0.081-0.036,0.179c0.39,0.274,0.803,0.458,1.229,0.602
			c2.425,0.819,4.854,1.622,7.281,2.43c0.074,0.025,0.188,0.021,0.218,0.07c0.202,0.335,0.438,0.438,0.686,0.438
			c0.308,0,0.633-0.159,0.934-0.229c0.419-0.098,0.82-0.272,1.224-0.435c0.101-0.041,0.196-0.062,0.261-0.062
			c0.041,0,0.069,0.009,0.077,0.027c0.019,0.046-0.099,0.145-0.262,0.221c-0.551,0.256-1.101,0.513-1.652,0.769
			c-0.163,0.076-0.229,0.267-0.146,0.426c0.338,0.637,0.493,0.82,0.98,0.82c0.211,0,0.483,0.092,0.861,0.046
			c0.331-0.038,0.666,0.061,0.961,0.061c0.005,0,0.011,0,0.016,0c0.176,0,0.367-0.001,0.394,0.171
			c0.082,0.536-0.262,0.669-0.624,0.842c-0.162,0.077-0.264,0.267-0.138,0.395c0.09,0.091,0.229,0.116,0.52,0.116
			c0.318,0,0.82-0.058,1.641-0.144c0.046-0.005,0.081-0.011,0.103-0.011c0.066,0,0.034,0.017-0.095,0.049
			c-1.33,0.331-2.585,0.642-3.834,0.953c-0.175,0.043-0.308,0.136-0.297,0.207c0.011,0.071,0.096,0.19,0.191,0.266
			c0.095,0.076,0.026,0.159-0.151,0.187c-0.3,0.046-0.6,0.092-0.899,0.138c-0.178,0.027-0.323,0.103-0.325,0.169
			c-0.003,0.066,0.14,0.143,0.317,0.171c0.467,0.074,0.934,0.149,1.4,0.223c0.178,0.028,0.324,0.078,0.326,0.11
			c0.002,0.032-0.142,0.072-0.32,0.088c-0.404,0.037-0.807,0.074-1.211,0.11c-0.179,0.016-0.331,0.086-0.34,0.155
			c-0.01,0.069,0.124,0.168,0.296,0.222c0.529,0.165,1.061,0.33,1.591,0.495c0.172,0.053,0.292,0.132,0.269,0.175
			c-0.022,0.043,0.103,0.104,0.279,0.134c0.357,0.062,0.71,0.122,1.047,0.18c0.177,0.031,0.2,0.138,0.038,0.216
			c-0.395,0.19-0.803,0.254-1.229,0.254c-0.568,0-1.169-0.113-1.814-0.193c-0.025-0.003-0.047-0.005-0.066-0.005
			c-0.114,0-0.109,0.055,0.023,0.133c1.461,0.855,2.753,1.612,4.023,2.355c0.154,0.091,0.139,0.197-0.037,0.237
			c-0.072,0.016-0.145,0.033-0.216,0.049c-0.177,0.04-0.312,0.119-0.306,0.176s0.157,0.128,0.334,0.159
			c0.689,0.12,1.386,0.241,2.148,0.373c0.177,0.031,0.176,0.066-0.004,0.08c-0.468,0.034-0.876,0.064-1.273,0.094
			c-0.18,0.013-0.324,0.061-0.324,0.107s0.145,0.112,0.32,0.149c0.182,0.037,0.364,0.075,0.548,0.112
			c0.176,0.036,0.25,0.105,0.165,0.154c-0.085,0.049-0.148,0.136-0.142,0.195s0.158,0.114,0.338,0.122
			c1.071,0.051,2.142,0.101,3.213,0.152c0.18,0.008,0.203,0.095,0.041,0.173c-0.398,0.192-0.806,0.283-1.198,0.421
			c-0.202,0.071-0.437,0.27-0.492,0.46c-0.019,0.066,0.038,0.153,0.107,0.237c0.095,0.114,0.088,0.318-0.021,0.462
			c-0.173,0.227-0.368,0.485-0.588,0.771c-0.108,0.143-0.052,0.266,0.128,0.274c0.057,0.003,0.108,0.005,0.157,0.007
			c0.18,0.008,0.333,0.048,0.343,0.09s-0.119,0.125-0.289,0.187c-0.688,0.251-1.375,0.501-2.05,0.75
			c-0.169,0.062-0.173,0.17-0.008,0.242c0.031,0.014,0.063,0.027,0.097,0.043c0.151,0.065,0.154,0.112,0.017,0.112
			c-0.014,0-0.027,0.238-0.043,0.238c-0.175-0.009-0.337,0.213-0.495,0.213c-0.008,0-0.016,0-0.024,0
			c-0.021,0-0.032-0.007-0.05-0.011c0.98,0.902,2.147,1.611,3.415,1.664c0.18,0.009,0.18,0.347,0,0.347H68.84
			c-0.039,0-0.07-0.021-0.099-0.047c-0.007,0.022-0.014,0.047-0.029,0.047c-0.003,0-0.006,0-0.009,0
			c-0.002,0-0.003,0.063-0.005,0.019c-0.027-0.047-0.042-0.019-0.046-0.019c-0.001,0-0.002,0-0.002,0
			c-0.008,0-0.018-0.133-0.026-0.128c-0.021,0.011-0.043-0.055-0.063-0.055c-0.074,0-0.146-0.086-0.215-0.094
			c-0.478-0.06-0.949-0.238-1.422-0.334c-0.119-0.023-0.229-0.054-0.287-0.054c-0.028,0-0.045,0-0.048,0.011
			c-0.008,0.035,0.123,0.092,0.294,0.149c0.264,0.088,0.537,0.172,0.85,0.276c0.171,0.057,0.163,0.109-0.017,0.121
			c-0.248,0.018-0.471,0.03-0.711,0.047c-0.18,0.013-0.209,0.11-0.065,0.22c0.09,0.069,0.178,0.135,0.274,0.209
			c0.101,0.075,0.119,0.12,0.063,0.12c-0.024,0-0.062-0.008-0.113-0.025c-0.215-0.07-0.397-0.131-0.569-0.188
			c-0.042-0.014-0.076-0.021-0.103-0.021c-0.081,0-0.082,0.062,0.017,0.154c0.878,0.813,2.203,1.009,2.942,2.062
			c0.084,0.12,0.051,0.202-0.058,0.202c-0.025,0-0.055-0.004-0.086-0.013c-0.184-0.053-0.354-0.1-0.521-0.148
			c-0.098-0.027-0.188-0.041-0.25-0.041c-0.049,0-0.08,0.008-0.086,0.025c-0.013,0.04,0.102,0.15,0.254,0.245
			c0.666,0.411,1.332,0.825,1.997,1.237c0.153,0.095,0.259,0.205,0.236,0.246c-0.008,0.014-0.031,0.021-0.065,0.021
			c-0.064,0-0.168-0.024-0.277-0.069l-1.686-0.683c-0.137-0.056-0.257-0.093-0.299-0.093c-0.009,0-0.015,0.002-0.016,0.006
			c-0.008,0.02,0.105,0.119,0.254,0.223c0.896,0.628,1.8,1.262,2.776,1.946c0.126,0.088,0.125,0.155,0.012,0.155
			c-0.02,0-0.042-0.002-0.068-0.006c-0.775-0.125-1.494-0.473-2.245-0.473c-0.241,0-0.485,0.036-0.735,0.126
			c-0.169,0.062-0.185,0.226-0.046,0.34c0.083,0.068,0.16,0.132,0.237,0.196c0.121,0.1,0.112,0.169-0.011,0.169
			c-0.019,0-0.038-0.001-0.062-0.005c-0.272-0.037-0.528-0.071-0.78-0.105c-0.051-0.007-0.1-0.01-0.144-0.01
			c-0.112,0-0.194,0.021-0.204,0.057c-0.013,0.049,0.089,0.182,0.229,0.295c0.091,0.074,0.182,0.148,0.273,0.223
			c0.141,0.113,0.238,0.238,0.221,0.279c-0.008,0.016-0.034,0.022-0.075,0.022c-0.064,0-0.162-0.019-0.268-0.054
			c-0.366-0.124-0.733-0.247-1.1-0.371c-0.085-0.029-0.167-0.043-0.232-0.043c-0.064,0-0.111,0.015-0.125,0.044
			c-0.026,0.058,0.08,0.174,0.239,0.258c0.895,0.478,1.788,0.957,2.681,1.435c0.159,0.086,0.28,0.172,0.271,0.193
			c-0.002,0.004-0.009,0.006-0.021,0.006c-0.046,0-0.165-0.033-0.3-0.086c-1.039-0.414-2.09-0.832-3.272-1.302
			c-0.043-0.017-0.078-0.024-0.106-0.024c-0.081,0-0.096,0.067-0.024,0.182c0.121,0.197,0.218,0.354,0.303,0.492
			c0.094,0.152,0.142,0.305,0.105,0.338c-0.01,0.009-0.027,0.013-0.052,0.013c-0.069,0-0.188-0.033-0.31-0.087
			c-0.735-0.334-1.471-0.669-2.205-1.003c-0.122-0.056-0.234-0.088-0.291-0.088c-0.021,0-0.033,0.004-0.038,0.012
			c-0.019,0.033,0.055,0.177,0.161,0.322c0.107,0.147,0.218,0.297,0.333,0.454c0.072,0.099,0.074,0.154,0.018,0.154
			c-0.026,0-0.065-0.012-0.117-0.037c-0.471-0.233-0.911-0.451-1.345-0.668c-0.113-0.056-0.228-0.088-0.301-0.088
			c-0.031,0-0.056,0.006-0.068,0.019c-0.043,0.042-0.032,0.214,0.023,0.385c0.038,0.118,0.083,0.228,0.163,0.296
			c1.347,1.163,3.399,1.61,4.151,3.36c2.737,6.368,7.692,8.208,12.506,8.208c6.593,0,12.921-3.451,12.921-3.451
			S87.713,79.097,74.198,79.097z"/>
		<path d="M66.703,48.142c-0.006-0.006-0.013-0.012-0.02-0.018C66.574,48.022,66.593,48.114,66.703,48.142z"/>
		<path d="M68.75,50.023c-0.008,0-0.023-0.156-0.047-0.171c-0.015,0.001-0.033-0.003-0.054,0.005c-0.003,0.013,0,0.032,0.002,0.051
			c0.004-0.006,0.011,0.009,0.021,0.009c0.007,0,0.015,0.076,0.023,0.084c0.001,0,0.002,0.026,0.002,0.047
			c0.012,0.021,0.027,0.041,0.044,0.058C68.755,50.067,68.76,50.023,68.75,50.023z"/>
	</g>
</g>
<g>
</g>
<g>
</g>
<g>
</g>
<g>
</g>
<g>
</g>
<g>
</g>
<g>
</g>
<g>
</g>
<g>
</g>
<g>
</g>
<g>
</g>
<g>
</g>
<g>
</g>
<g>
</g>
<g>
</g>
</svg>
