<?xml version="1.0" encoding="iso-8859-1"?>
<!-- Generator: Adobe Illustrator 16.0.0, SVG Export Plug-In . SVG Version: 6.00 Build 0)  -->
<!DOCTYPE svg PUBLIC "-//W3C//DTD SVG 1.1//EN" "http://www.w3.org/Graphics/SVG/1.1/DTD/svg11.dtd">
<svg version="1.1" id="Capa_1" xmlns="http://www.w3.org/2000/svg" xmlns:xlink="http://www.w3.org/1999/xlink" x="0px" y="0px"
	 width="570.906px" height="570.906px" viewBox="0 0 570.906 570.906" style="enable-background:new 0 0 570.906 570.906;"
	 xml:space="preserve">
<g>
	<g>
		<path d="M535.049,255.143c-0.503-0.677-1.141-1.507-1.129-2.258c0.059-4.459-2.471-6.646-6.283-8.281
			c-5.402-2.317-9.073-6.274-11.591-11.825c-2.052-4.521-7.04-6.289-11.385-8.414c-6.62-3.233-13.553-6.046-19.617-10.134
			c-4.516-3.038-7.956-7.716-11.697-11.83c-3.843-4.232-8.529-6.67-14.127-7.489c-1.164-0.168-2.482-0.041-3.47-0.55
			c-7.359-3.818-12.779-0.381-17.088,5.054c-7.354,9.259-17.183,15.318-26.699,21.844c-0.349,0.242-0.745,0.437-1.135,0.6
			c-0.178,0.074-0.414,0.012-0.815,0.012c-1.602-4.521-3.588-9.031-4.746-13.751c-1.194-4.812-3.394-8.89-7.193-11.846
			c-3.878-3.014-4.842-7.323-6.484-11.487c-4.705-11.925-7.95-24.544-15.469-35.189c-4.551-6.452-9.552-12.596-14.493-18.764
			c-2.229-2.778-4.451-7.693-4.457-11.354c1.738-0.151,3.518-0.31,5.296-0.467c3.411-0.301,6.81-0.677,10.227-0.883
			c1.129-0.065,2.34,0.154,3.422,0.502c6.425,2.089,12.785,4.324,19.7,4.303c1.117,0,2.944,1.345,3.198,2.374
			c0.514,2.078,2.246,4.474-0.195,6.543c-1.135,0.969-2.181,2.101-3.452,2.863c-3.026,1.82-3.416,4.782-2.783,7.596
			c0.655,2.973,2.057,5.846,3.528,8.547c0.627,1.155,2.175,1.912,3.452,2.583c1.731,0.916,3.6,1.563,5.414,2.332
			c-0.023,0.325-0.06,0.659-0.083,0.987c-1.129,0.254-2.246,0.597-3.387,0.742c-2.955,0.372-3.942,1.835-2.736,4.613
			c0.632,1.454,1.737,2.692,2.535,4.087c1.117,1.93,2.56,3.824,0.792,6.191c-0.254,0.343-0.13,1.375,0.189,1.652
			c0.384,0.331,1.212,0.364,1.779,0.237c2.264-0.508,3.919-3.529,2.926-6.289c-1.253-3.494,0.283-4.451,3.286-4.793
			c2.53-0.299,4.782-0.999,5.722-3.863c1.318-3.957,0.018-6.851-4.008-8.408c-3.6-1.392-3.735-2.11-0.862-4.581
			c2.405-2.063,4.244-4.625,3.493-7.832c-0.958-4.105,0.668-7.028,3.209-9.83c0.786-0.866,1.46-1.827,1.927-2.42
			c3.287,0,6.372,0.381,9.316-0.104c3.393-0.55,4.704-3.996,2.63-7.507c-1.726-2.911-0.964-4.259,1.524-5.846
			c2.772-1.773,2.985-4.672,2.075-7.474c-0.91-2.801-0.621-5.012,1.123-7.495c3.429-4.895,1.063-9.682-4.965-10.663
			c-0.722-0.115-1.472-0.334-2.11-0.691c-9.05-5.042-17.939-10.374-27.154-15.076c-5.402-2.754-11.656-3.91-16.881-6.907
			c-5.195-2.979-12.437-5.458-14.239-11.233c-2.465-7.879-30.907-11.881-30.907-11.881c-0.55,0.018-1.129-0.697-1.696-1.072
			c0.608-0.44,1.182-1.168,1.838-1.271c1.028-0.157,2.134,0.168,3.198,0.168c2.34,0,4.061-0.913,5-3.236
			c2.353-5.866,2.27-6.416-3.298-10.267c-2.312-1.596-4.19-2.796-1.501-5.864c1.95-2.228,2.275-5.237,1.436-8.213
			c-0.744-2.639-3.274-4.02-6.709-3.198c1.029,1.374,1.916,2.557,3.27,4.341c-1.525,0.712-2.896,1.744-4.386,1.965
			c-3.854,0.588-5.438,2.822-4.434,6.715c0.627,2.414,1.649,4.927-1.235,7.196c-0.627-0.934-1.229-1.646-1.625-2.465
			c-2.317-4.749-5.787-8.438-10.25-11.198c-2.808-1.729-4.752-3.679-4.055-7.498c0.296-1.64-0.479-3.579-1.093-5.266
			c-0.71-1.96-2.188-2.808-4.593-1.803c0.277,0.718,0.709,1.357,0.744,2.01c0.077,1.457-0.023,2.923-0.076,4.389
			c-0.095,2.231-0.981,4.847-0.118,6.602c1.312,2.663,3.652,4.933,5.898,6.999c2.376,2.184,2.896,4.944,0.846,7.565
			c-0.846,1.082-1.638,2.214-2.637,3.564c-0.727-0.577-1.555-0.946-1.944-1.587c-2.784-4.619-7.253-5.181-11.821-4.459
			c-4.333,0.683-7.317-0.509-10.102-3.863c-1.927-2.317-4.638-4.049-7.185-5.76c-2.326-1.569-5.024-1.46-7.294,0.095
			c-2.172,1.489-4.082,1.641-6.937,0.207c0.174,1.191-0.08,2.887,0.612,3.467c1.191,0.999,2.917,1.581,4.501,1.829
			c1.545,0.242,3.186-0.236,4.782-0.23c1.69,0.012,2.574,0.854,2.24,2.687c-0.174,0.945-0.284,1.927-0.26,2.881
			c0.064,2.893-0.461,4.776-4.014,3.088c-0.745-0.352-1.941-0.127-2.79,0.204c-2.494,0.975-4.988,2.004-7.323,3.292
			c-0.854,0.467-1.259,1.732-1.877,2.627c1.144,0.139,2.293,0.298,3.443,0.405c0.177,0.021,0.387-0.174,0.553-0.313
			c1.936-1.634,3.369-0.786,4.489,0.999c0.86,1.38,1.551,2.87,2.314,4.303c-1.652-0.242-3.39-0.248-4.954-0.768
			c-3.655-1.218-8.145-0.048-11.177,3.576c-1.587,1.895-3.05,2.817-5.462,1.708c-0.591-0.272-1.486-0.189-2.143,0.035
			c-2.94,0.987-6.008,1.768-8.721,3.21c-3.759,1.995-7.203,3.333-10.524-0.825c-0.63,3.293,1.362,8.825,3.245,10.182
			c4.211,3.032,6.741-1.563,9.918-2.217c0,2.276-0.624,4.729,0.171,6.573c0.833,1.933,3.032,3.269,4.661,4.891
			c-0.866,1.555-1.8,3.316-2.816,5.03c-1.259,2.131-4.436,2.731-6.44,1.265c-3.621-2.65-7.785-2.077-10.778,1.502
			c-3.972,4.726-3.972,4.726-9.425,5.618c2.42,1.838,4.413,3.109,7.161,2.394c5.591-1.457,5.591-1.463,9.283,3.591
			c-3.171,1.738-7.855,0.872-9.906,5.66c2.432,0,4.395-0.104,6.33,0.053c0.757,0.062,2.021,0.662,2.069,1.114
			c0.08,0.769-0.458,1.779-1.04,2.402c-3.783,4.055-5.464,3.972-9.286-0.283c-2.843-3.171-5.551-3.05-8.261,0.375
			c-0.334,0.417-0.659,0.842-0.987,1.265c-3.346,4.377-3.987,4.483-8.6,1.508c-3.13-2.021-5.036-1.404-6.204,1.403
			c2.226,1.572,4.327,2.985,6.354,4.504c3.159,2.364,6.774,2.155,10.182,1.307c3.153-0.786,5.042,0.086,7.341,2.234
			c2.155,2.016,5.255,3.026,8.358,4.708c-1.227,2.065-2.231,4.781-4.096,6.617c-2.107,2.062-5.054,2.166-7.743,0.464
			c-4.397-2.79-8.987-2.571-13.447-0.44c-1.294,0.617-2.172,2.347-2.941,3.732c-0.552,0.987-0.57,2.264-0.892,3.396
			c-0.695,2.459-1.658,3.996-4.767,2.604c-1.159-0.52-3.159,0.145-4.469,0.848c-1.744,0.943-3.183,2.45-4.731,4.64
			c1.3,0.189,2.606,0.364,3.91,0.577c1.814,0.295,3.848,0.186,5.391,1.005c4.602,2.432,8.488,1.327,10.943-3.39
			c0.86-1.64,2.016-3.124,3.032-4.678c1.183,1.445,2.397,2.87,3.529,4.347c1.005,1.312,1.918,2.692,3.065,4.303
			c-6.091,2.565-7.731,7.389-8.577,13.128c-0.39,2.625-2.677,4.968-4.134,7.492c2.461,1.611,5.949,1.212,7.752-2.033
			c2.314-4.158,5.394-4.575,9.466-3.591c2.211,0.535,4.551,0.518,6.833,0.745c0.08,0.34,0.166,0.674,0.242,1.011
			c-2.606,0.981-5.187,2.684-7.826,2.778c-3.709,0.136-5.574,2.078-6.748,4.912c-1.259,3.05-1.664,6.458-3.038,9.439
			c-0.957,2.078-2.863,3.736-4.424,5.509c-0.825,0.931-2.252,1.549-2.622,2.589c-0.34,0.952,0.381,2.279,0.635,3.44
			c0.849-0.438,1.815-0.727,2.524-1.333c2.663-2.299,5.151-4.817,7.912-6.989c0.96-0.757,2.888-1.431,3.75-0.976
			c3.694,1.951,7.102,0.03,10.613-0.248c0.375-0.029,0.736-0.115,1.93-0.313c-2.778,2.37-4.799,4.386-7.113,5.997
			c-4.286,2.991-6.053,7.247-5.967,12.144c0.056,3.121-0.786,4.858-3.88,5.518c-0.798,0.171-1.475,0.508-2.208,0.993
			c0.077,0.266,0.163,0.363,0.242,0.363c1.779,0,3.564,0,5.539,0c-0.184,0-2.471,4.389,0.81,6.603
			c0.831-1.1,1.496-2.376,2.646-3.115c1.052-0.68,2.627-0.547,3.978-0.6c0.482-0.018,1.271,0.588,1.404,1.035
			c0.133,0.429-0.254,1.386-0.659,1.593c-3.429,1.699-3.881,4.823-4.215,8.127c-0.127,1.224-0.848,2.385-1.265,3.576
			c-0.919,2.592-2.172,5.134-2.633,7.803c-0.538,3.118-0.839,6.011-4.782,6.501c-0.337,0.042-0.624,0.502-1.33,1.12
			c1.005,0.707,1.729,1.484,2.613,1.791c3.892,1.351,9.268-2.149,10.187-6.138c0.576-2.506,1.652-4.974,2.979-7.185
			c0.435-0.736,2.462-1.052,3.5-0.724c0.712,0.225,1.208,1.856,1.374,2.923c0.272,1.827,0.168,3.703,0.295,5.556
			c0.065,0.955,0.514,1.924,0.405,2.846c-0.508,4.333-0.937,8.695-1.876,12.945c-0.319,1.472-2.107,2.58-3.068,3.96
			c-0.745,1.063-1.241,2.299-1.847,3.455c0.346,0.37,0.691,0.739,1.034,1.102c3.059-1.53,6.646-2.506,9.02-4.758
			c2.312-2.19,3.384-5.695,4.874-8.396c1.844,7.936-2.905,13.039-8.449,17.561c-6.375,5.205-12.85,10.311-19.526,15.117
			c-6.827,4.918-14.132,9.165-20.889,14.177c-6.011,4.451-11.585,9.499-17.274,14.375c-2.917,2.495-5.654,5.196-8.497,7.778
			c-6.635,5.994-12.022,13.069-16.494,20.706c0,0-0.423,0.656-1.114,1.803c-3.65,1.028-7.294,2.068-10.926,3.133
			c-21.184,6.218-38.789,18.104-52.928,34.927c-10.944,13.016-21.229,26.657-39.741,32.272c-1.507,0.449-1.569,1.247-0.074,1.75
			c10.211,3.41,18.974,2.027,26.838-0.083c1.519-0.402,2.125,0.349,1.368,1.726c-3.287,5.976-6.732,12.312-10.302,18.578
			c-4.764,8.357-12.359,8.99-20.451,8.311c-1.569-0.136-2.223,0.839-1.333,2.134c4.702,6.832,11.003,8.89,29.562,10.303
			c1.566,0.123,2.53,1.441,2.069,2.949c-7.196,23.524-23.894,26.717-48.276,9.203c-1.277-0.916-1.883-0.479-1.248,0.957
			c11.101,25.139,49.287,34.95,70.247,16.615c4.717-4.119,8.263-10.74,10.024-16.869c5.272-18.342,9.073-37.096,14.104-55.514
			c2.364-8.666,5.798-17.124,9.513-25.322c2.808-6.2,6.215-11.887,10.234-17.053c-0.381,2.938-0.331,5.71,0.381,8.098
			c0.189,0.308,5.068,19.358,9.673,27.74c5.193,9.451,12.395,17.063,20.883,23.648c2.722,2.11,5.29,4.853,6.931,7.85
			c4.072,7.424,0.635,13.979-3.753,19.878c-4.02,5.396-8.813,10.214-12.892,15.569c-1.957,2.564-3.597,5.639-4.4,8.735
			c-1.17,4.48,1.844,7.761,4.841,10.557c5.601,5.22,10.639,10.953,17.088,15.397c4.17,2.867,6.886,7.832,10.293,11.822
			c3.257,3.812,6.623,7.542,9.824,11.396c0.715,0.857,1.542,2.287,1.294,3.174c-1.498,5.385,1.841,9.156,4.238,13.157
			c0.792,1.318,2.609,2.081,4.055,2.926c1.38,0.805,4.182,1.572,4.117,2.01c-0.284,1.909-0.928,4.25-2.306,5.402
			c-3.064,2.554-4.589,5.51-4.637,9.404c-0.039,3.156,1.451,5.462,4.188,6.668c7.353,3.227,14.688,6.584,22.275,9.19
			c3.183,1.094,6.984,0.598,10.495,0.485c2.016-0.065,2.627-1.703,2.092-3.541c-2.202-7.613-4.368-15.244-6.771-22.786
			c-0.484-1.53-1.767-2.955-3.014-4.049c-4.909-4.285-7.882-9.197-7.917-16.089c-0.029-5.03-3.31-9.221-6.741-12.69
			c-7.554-7.631-15.247-15.226-20.18-24.802c-2.163-4.196-2.926-9.54-2.772-14.31c0.071-2.347,3.484-4.794,5.725-6.821
			c3.724-3.363,7.652-6.508,11.603-9.593c4.066-3.163,8.322-6.053,12.354-9.215c4.268-3.357,8.375-6.91,12.578-10.356
			c0.319-0.271,0.774-0.366,1.155-0.561c2.27-1.171,5.071-2.371,6.797-0.213c1.185,1.489,1.132,4.361,0.884,6.525
			c-0.674,5.81-2.985,11.378-1.968,17.454c0.872,5.184,3.662,7.991,8.922,7.524c10.016-0.887,19.999-2.188,30.021-3.05
			c8.109-0.691,16.26-1.153,24.399-1.365c1.962-0.048,4.492,0.774,5.828,2.116c3.782,3.794,8.423,5.012,13.382,5.325
			c2.471,0.159,3.398,0.939,3.434,3.417c0.131,8.044,4.569,13.198,11.71,16.07c7.081,2.844,14.393,5.061,22.159,4.848
			c5.154-0.148,6.892-3.198,4.841-7.903c-2.554-5.869-4.823-11.868-7.631-17.608c-0.769-1.566-2.884-3.014-4.651-3.463
			c-6.219-1.584-10.262-5.799-14.216-10.409c-2.837-3.315-5.846-6.626-9.298-9.257c-3.883-2.973-8.754-3.227-13.529-2.837
			c-9.611,0.78-19.21,1.791-28.839,2.418c-3.569,0.236-6.933-0.213-10.083-2.968c-3.668-3.209-3.739-6.702-2.252-10.379
			c2.651-6.531,5.798-12.873,8.766-19.281c0.525-1.135,1.176-2.223,2.033-3.83c1.282,1.851,2.228,3.222,3.162,4.563
			c7.312-3.972,9.865-9.937,7.796-17.39c-0.449-1.613-0.745-3.404-0.562-5.048c0.396-3.511-1.046-6.318-3.594-8.146
			c-3.901-2.801-6.531-6.123-7.991-10.769c-1.702-5.385-6.111-8.589-10.882-11.284c-1.005-0.562-1.688-1.685-2.518-2.559
			c1.022-0.828,1.927-2.046,3.094-2.424c5.399-1.732,10.814-3.493,16.323-4.77c11.425-2.654,22.277-6.863,32.887-11.71
			c10.752-4.917,20.428-11.585,29.548-19.073c3.618-2.962,7.424-5.711,10.982-8.742c2.672-2.282,4.971-5.019,7.69-7.247
			c1.271-1.04,3.103-1.489,4.752-1.95c1.218-0.337,2.612-0.042,3.812-0.414c5.237-1.619,10.557-1.448,15.864-0.852
			c11.815,1.342,22.65-1.779,33.337-6.466c3.801-1.673,8.228-2.099,12.425-2.595c2.612-0.308,5.101,0.715,6.324,3.481
			c0.047,0.101,0.106,0.2,0.189,0.26c7.548,5.65,6.874,14.18,7.767,22.159c0.106,0.958,0,1.969,0.254,2.873
			c1.342,4.752-0.414,8.369-3.996,11.372c-0.567,0.473-1.229,0.952-1.565,1.578c-0.898,1.644-0.414,4.345-3.429,4.279
			c-1.915-0.041-3.848-0.248-5.757-0.13c-1.454,0.095-3.051,0.29-4.315,0.952c-6.466,3.351-10.438,9.066-13.624,15.326
			c-0.769,1.507-0.78,3.588-0.615,5.35c0.479,5.071,1.951,5.804,6.939,5.261c4.51-0.497,9.103-0.172,13.648-0.396
			c4.144-0.201,7.27-2.033,10.078-5.355c4.403-5.23,9.61-9.771,16.106-12.377c4.475-1.791,5.745-5.515,6.064-9.676
			c0.195-2.529-0.16-5.154-0.579-7.684c-1.52-9.298-3.417-18.531-4.664-27.863c-0.603-4.498-0.308-9.174,0.071-13.731
			c0.26-3.227,0.124-6.062-1.72-8.875c-1.366-2.089-1.88-4.734-3.258-6.815c-1.259-1.894-2.866-4.049-4.834-4.879
			c-4.41-1.871-9.044-3.239-14.062-1.974c-11.573,2.929-22.963,1.714-34.193-1.882c-0.757-0.242-1.46-0.63-2.755-1.203
			c2.099-1.309,3.919-2.033,5.19-3.313c5.804-5.833,11.934-11.449,17.017-17.877c3.375-4.268,5.385-9.691,7.625-14.762
			c0.999-2.258,2.187-3.186,4.552-3.032c3.842,0.248,7.754,0.006,11.52,0.653c2.991,0.514,6.123,1.566,8.618,3.236
			c6.549,4.376,12.962,8.928,17.762,15.483c1.685,2.302,4.93,3.511,7.56,5.042c1.727,1.004,3.642,1.702,5.462,2.536
			c-0.118,0.248-0.242,0.49-0.36,0.739c1.548-0.381,3.097-0.762,4.64-1.138c-0.142,1.708-0.106,3.446-0.449,5.11
			c-1.129,5.518,1.359,10.154,7.152,12.862c7.436,3.466,15.45,4.442,23.483,4.92c5.432,0.325,7.513-3.564,4.562-8.228
			C539.89,261.152,537.331,258.235,535.049,255.143z M264.245,53.719c-1.9-1.454-3.487-2.66-5.065-3.862
			c1.04-0.564,2.341-1.83,3.073-1.558c1.635,0.611,2.979,1.986,4.442,3.047C266.03,51.981,265.371,52.623,264.245,53.719z"/>
	</g>
</g>
<g>
</g>
<g>
</g>
<g>
</g>
<g>
</g>
<g>
</g>
<g>
</g>
<g>
</g>
<g>
</g>
<g>
</g>
<g>
</g>
<g>
</g>
<g>
</g>
<g>
</g>
<g>
</g>
<g>
</g>
</svg>
