<?xml version="1.0" encoding="iso-8859-1"?>
<!-- Generator: Adobe Illustrator 16.0.0, SVG Export Plug-In . SVG Version: 6.00 Build 0)  -->
<!DOCTYPE svg PUBLIC "-//W3C//DTD SVG 1.1//EN" "http://www.w3.org/Graphics/SVG/1.1/DTD/svg11.dtd">
<svg version="1.1" id="Capa_1" xmlns="http://www.w3.org/2000/svg" xmlns:xlink="http://www.w3.org/1999/xlink" x="0px" y="0px"
	 width="567.889px" height="567.889px" viewBox="0 0 567.889 567.889" style="enable-background:new 0 0 567.889 567.889;"
	 xml:space="preserve">
<g>
	<g>
		<path d="M380.42,287.736c24.188-3.28,33.91-18.497,36.464-41.667c0.372-3.322,0.916-8.763,0.071-11.996
			c-1.354-5.187-5.202-14.479-15.511-30.523c-4.338-6.139-9.906-11.216-11.963-17.46c-7.767-23.563-14.559-47.437-22.136-71.047
			c2.624-5.048,3.357-10.95,1.708-16.609c-0.195-1.995-0.81-4.066-2.039-6.177c-6.537-11.219-16.313-16.938-27.23-21.338
			c-8.305-4.858-16.758-8.426-26.829-12.74c-3.074-1.318-4.238-5.157-4.238-8.497V15.265c0-3.343-2.879-6.647-4.823-7.38
			s-5.958,1.005-7.678,3.869c-6.579,10.956-13.353,21.997-20.354,33.647c-1.72,2.861-4.268,2.698-5.595-0.369
			c-5.787-13.347-11.487-26.427-18.515-42.641c-1.33-3.064-3.739-3.183-5.518-0.357c-4.699,7.444-8.379,11.656-8.107,15.599
			c1.812,26.078-12.359,39.638-32.858,52.729c-11.216,7.161-20.46,22.559-23.829,35.946c-11.562,45.933-20.132,92.61-29.853,139.06
			c0,0-18.134,83.862,41.653,131.923c39.186,31.498,51.193,97.557,54.021,117.771c0.464,3.311,1.336,8.66,1.888,11.958
			c3.201,19.098,2.264,39.005,2.826,57.57c0.109,3.34,2.355,4.327,4.855,2.11c54.64-48.338,91.18-144.465,35.914-224
			c-19.556-28.147-38.293-57.21-53.8-87.692c-8.79-17.286-12.156-37.338-16.772-55.188c-0.836-3.236,0.121-3.733,2.213-1.123
			c27.917,34.776,53.827,71.062,84.441,102.817c50.638,52.518,79.949,108.285,46.612,181.649c-1.383,3.045-0.083,4.434,2.879,2.873
			c30.511-16.024,56.151-55.366,59.952-90.24c4.386-40.234-15.367-71.324-40.122-102.775
			C376.077,290.408,377.099,288.185,380.42,287.736z M367.511,268.911c-0.951,3.204-3.652,4.185-6.241,2.071
			c-12.773-10.417-25.896-22.245-40.702-31.354c-16.904-10.397-36.022-17.147-53.938-25.966
			c-48.947-24.089-57.709-92.149-20.197-130.252c2.35-2.385,6.393-2.305,8.842-0.036c8.396,7.778,16.749,15.519,25.417,23.552
			c2.45,2.27,1.98,5.251-1.055,6.664c-0.487,0.228-0.984,0.458-1.48,0.688c-3.032,1.41-4.522,5.083-3.153,8.137
			c11.978,26.545,31.788,42.439,56.447,56.583c18.129,10.4,34.785,29.666,42.989,48.864
			C379.162,238.928,371.602,255.221,367.511,268.911z"/>
	</g>
</g>
<g>
</g>
<g>
</g>
<g>
</g>
<g>
</g>
<g>
</g>
<g>
</g>
<g>
</g>
<g>
</g>
<g>
</g>
<g>
</g>
<g>
</g>
<g>
</g>
<g>
</g>
<g>
</g>
<g>
</g>
</svg>
