<?xml version="1.0" encoding="iso-8859-1"?>
<!-- Generator: Adobe Illustrator 16.0.0, SVG Export Plug-In . SVG Version: 6.00 Build 0)  -->
<!DOCTYPE svg PUBLIC "-//W3C//DTD SVG 1.1//EN" "http://www.w3.org/Graphics/SVG/1.1/DTD/svg11.dtd">
<svg version="1.1" id="Capa_1" xmlns="http://www.w3.org/2000/svg" xmlns:xlink="http://www.w3.org/1999/xlink" x="0px" y="0px"
	 width="211.86px" height="211.86px" viewBox="0 0 211.86 211.86" style="enable-background:new 0 0 211.86 211.86;"
	 xml:space="preserve">
<g>
	<path d="M98.577,174.728c5.337,5.331-2.556,8.098-2.556,8.098h-4.903c-6.39,0.851-6.39-1.703-6.39-1.703
		c0-4.268,8.946-9.161,8.946-9.161v-6.171c-2.967-1.915-4.256-8.725-4.256-8.725c-7.409-6.029-14.091-20.924-16.384-26.433
		c4.551-2.223,7.941-4.616,10.429-7.034c-0.121,0.828,0.198,1.514,0.198,1.514l14.044,37.061
		C102.395,169.614,98.577,174.728,98.577,174.728z M144.175,116.405c0.124,0.349,0.284,0.633,0.385,1.041
		c0,0,4.905,12.565,10.656,15.977c0,0,0.633,4.894-4.256,9.155c-4.905,4.25-4.905,4.25-4.905,4.25s-9.581,6.81-7.448,14.487
		c0,0-3.848,6.39-0.218,10.22c0,0,2.996,1.489,5.733-3.842c0,0,6.838-4.682,1.501-7.442c0,0,0.432-4.049,4.463-6.814
		c0,0,14.718-13.631,16.402-17.461c0,0-0.633-4.066-2.565-7.637C154.879,124.509,148.496,120.431,144.175,116.405z M211.86,114.893
		c0,0-16.627-48.548-45.359-41.739c0,0-8.725,0.213-11.491-3.194c0,0-23.962-3.857-41.505,2.559
		c-10.63,3.886-28.336,2.35-43.672-11.931c0,0-27.449-27.896-47.271-22.145l-7.664-9.581l1.912,10.436l-6.815-8.095l3.177,11.082
		c-0.411,0.636-3.402,7.028-4.043,13.202c0,0-13.84,15.332-7.439,24.27c0,0,7.876,5.964,12.548-4.472c0,0,12.558-1.489,17.875-8.515
		c0,0,3.635,19.801,19.154,31.508c0,0-2.11,9.161,3.851,15.971c0,0,1.841,6.573-5.526,10.22
		c-5.151,2.554-13.843,8.092-12.359,19.381c0,0-1.483,15.12,2.361,19.802c0,0,1.688,12.342,7.001,11.916
		c0,0,1.726,1.702,1.726-6.177c0,0,1.058-6.39-4.049-7.453c0,0,1.052-6.178-1.708-9.15c0,0-1.07-11.076,6.815-15.758
		c0,0,14.05-4.475,18.104-8.736c0,0,1.404-1.915,2.917-1.555c3.656-0.42,19.544-3.434,18.244-24.015c0,0,4.661,9.232-3.215,18.761
		c1.206-0.474,3.053-0.751,6.109-0.426c0,0,30.656,3.842,46.839-7.873c0,0,1.177-0.55,2.56-0.225
		c-9.409-11.426-4.326-21.353-4.326-21.353c-5.373,14.993,17.437,29.32,24.967,33.564c-0.343-0.331-0.662-0.668-1.04-0.928
		c0,0,1.135,0.744,2.766,1.886c0.379,0.2,0.656,0.349,0.656,0.349l0.143,0.213c3.511,2.5,8.712,6.52,11.531,10.125
		c0,0,9.575,7.873,10.634,15.758l2.571,16.184c0,0-9.156,7.447-8.316,11.922c0,0-0.42,3.198,7.684,1.502c0,0,6.597-0.213,5.952-6.39
		c0,0-1.478-2.353,0.213-3.63c0,0,2.554,0-0.213-12.991c0,0,1.915-21.078-9.794-30.884c0,0-8.523-2.554-7.678-17.029
		c0,0,2.576-24.267-5.74-30.653c0,0-0.419-4.678,3.837-0.428c0,0,6.183,31.72,25.12,33.848c0,0-4.48-7.034-3.197-11.077
		C196.728,102.977,201.421,114.893,211.86,114.893z"/>
</g>
<g>
</g>
<g>
</g>
<g>
</g>
<g>
</g>
<g>
</g>
<g>
</g>
<g>
</g>
<g>
</g>
<g>
</g>
<g>
</g>
<g>
</g>
<g>
</g>
<g>
</g>
<g>
</g>
<g>
</g>
</svg>
