<?xml version="1.0" encoding="iso-8859-1"?>
<!-- Generator: Adobe Illustrator 16.0.0, SVG Export Plug-In . SVG Version: 6.00 Build 0)  -->
<!DOCTYPE svg PUBLIC "-//W3C//DTD SVG 1.1//EN" "http://www.w3.org/Graphics/SVG/1.1/DTD/svg11.dtd">
<svg version="1.1" id="Capa_1" xmlns="http://www.w3.org/2000/svg" xmlns:xlink="http://www.w3.org/1999/xlink" x="0px" y="0px"
	 width="94.783px" height="94.783px" viewBox="0 0 94.783 94.783" style="enable-background:new 0 0 94.783 94.783;"
	 xml:space="preserve">
<g>
	<g>
		<path d="M88.856,26.866c-0.724-1.107-1.771-2.011-2.709-2.969c-1.459-1.488-2.875-3.033-4.455-4.382
			c-1.384-1.181-2.851-2.395-4.49-3.122c-4.233-1.877-8.581-3.495-12.887-5.205c-0.33-0.131-0.692-0.201-1.046-0.249
			c-3.988-0.532-7.978-1.048-11.965-1.584c-0.295-0.04-0.587-0.103-0.909-0.179c-0.499-0.117-0.961,0.685-1.041,1.787
			c-0.069,0.962-0.126,1.889-0.111,2.814c0.015,0.898,0.1,1.796,0.198,2.707c0.117,1.098-0.653,2.044-1.197,2.807
			c-0.319,0.448-0.562,0.999-0.912,1.43c-2.313,2.85-4.513,5.794-6.898,8.582c-2.046,2.392-4.313,4.592-6.425,6.929
			c-0.552,0.612-1.06,1.264-1.577,1.945c-0.668,0.88-0.448,1.123,0.495,0.547c1.876-1.146,3.701-2.261,5.514-3.369
			c0.943-0.576,1.813-0.956,1.943-0.849c0.13,0.107-0.063,1.038-0.432,2.079c-0.026,0.074-0.052,0.148-0.079,0.222
			c-0.369,1.041,0.064,1.368,0.971,0.739c0.777-0.539,1.566-1.047,2.43-1.424c1.012-0.442,1.163-0.072,0.281,0.593
			c-3.837,2.895-6.98,6.523-10.344,10.234c-0.742,0.818-1.053,1.479-0.688,1.497c0.266,0.013,0.474,0.017,0.657-0.05
			c2.172-0.788,4.34-1.59,6.482-2.457c0.465-0.188,0.978-0.569,1.199-0.999c2.472-4.809,5.655-9.06,9.463-12.91
			c2.318-2.344,4.641-4.613,7.521-6.25c0.06-0.033,0.099-0.101,0.166-0.215c0.078-0.13-0.751-0.463-1.838-0.266
			c-0.629,0.114-1.241,0.321-1.864,0.53c-1.048,0.351-1.782-0.37-1.23-1.327c0.729-1.261,1.842-2.18,2.896-3.078
			c1.07-0.913,2.265-1.681,3.496-2.474c0.93-0.598,0.774-1.231-0.321-1.093c-2.179,0.276-4.077,1.393-6.08,2.493
			c-0.968,0.531-1.671,0.455-1.542-0.125c0.086-0.389,0.155-0.721,0.19-1.057c0.222-2.028,0.422-4.059,0.599-6.091
			c0.06-0.693,0.364-1.069,1.061-0.937c0.934,0.176,1.899,0.311,2.764,0.674c0.47,0.198,0.905,0.469,1.135,0.859
			c0.405,0.69,0.736,1.243,1.658,1.059c0.566-0.113,1.116-0.225,1.666-0.345c2.731-0.598,4.896,0.806,7.052,2.079
			c3.29,1.943,4.993,5.059,5.632,8.681c0.427,2.419,0.384,4.922,0.532,7.388c0.007,0.119-0.028,0.241-0.074,0.374
			c-0.069,0.2-0.383,0.292-0.705,0.204c-0.323-0.088-0.458,0.729-0.4,1.832c0.205,3.897-0.584,7.51-2.87,10.723
			c-0.642,0.9-1.192,1.609-1.115,1.675s0.786-0.296,1.581-0.81c0.479-0.31,0.958-0.622,1.431-0.942
			c0.491-0.332,0.979-0.673,1.466-1.018c0.806-0.568,1.201-0.17,0.675,0.801c-1.356,2.507-4.128,6.644-5.413,7.646
			c-2.436,1.899-4.962,3.682-7.444,5.6c-0.874,0.675-0.912,1.036-0.101,0.784c0.49-0.152,0.979-0.306,1.468-0.465
			c4.941-1.613,9.516-4.028,13.757-6.958c1.659-1.146,2.801-3.119,3.992-4.844c2.366-3.426,2.467-7.389,2.163-11.321
			c-0.129-1.656-0.504-3.294-0.868-4.932c-0.24-1.078-0.5-1.962-0.605-1.969c-0.104-0.006-0.445,0.801-0.772,1.802
			c-0.198,0.608-0.415,1.207-0.698,1.773c-0.796,1.593-1.764,3.102-2.706,4.618c-0.414,0.666-0.872,0.632-1.213-0.121
			c-0.098-0.217-0.217-0.433-0.363-0.62c-1.148-1.473-1.103-2.749,0.072-4.343c1.291-1.752,2.038-3.893,3.183-5.766
			c1.316-2.154,1.626-2.185,3.067-0.219c3.439,4.694,4.807,9.922,3.909,15.74c-0.774,5.012-3.377,8.809-7.378,11.766
			c-0.101,0.074-0.175,0.185-0.207,0.348c-0.045,0.224,0.759-0.052,1.704-0.624c2.251-1.363,4.503-2.727,6.754-4.09
			c0.944-0.572,1.769-0.998,1.842-0.952c0.072,0.046-0.065,0.869-0.312,1.835c-0.149,0.585-0.313,1.165-0.532,1.724
			c-1.325,3.384-3.023,6.584-5.933,8.87c-2.032,1.597-4.241,2.987-6.455,4.332c-5.086,3.09-10.624,5.194-16.2,7.192
			c-0.38,0.136-0.782,0.21-1.19,0.267c-0.669,0.094-1.213,0.25-1.213,0.354c0,0.104,0.896,0.187,2,0.185
			c1.823-0.003,3.645-0.007,5.468-0.01c1.105-0.002,1.268,0.52,0.28,1.014c-1.653,0.827-3.397,1.306-5.194,1.638
			c-3.845,0.71-7.714,0.618-11.605,0.533c-4.195-0.092-8.42-0.049-12.592,0.353c-4.844,0.466-9.682,1.204-14.455,2.162
			c-4.218,0.847-8.341,2.159-12.507,3.266c-0.22,0.058-0.44,0.115-0.66,0.171c-0.365,0.093-0.688,0.104-0.722,0.023
			c-0.034-0.08,0.627-0.531,1.478-1.006c0.513-0.285,1.029-0.567,1.552-0.835c4.157-2.118,8.619-3.394,13.063-4.729
			c1.795-0.54,3.567-1.181,5.299-1.898c4.83-1.999,9.869-3.248,14.98-4.221c1.075-0.205,2.229,0.001,3.346,0.03
			c0.173,0.005,0.345,0.02,0.521,0.038c0.287,0.029,0.395-0.883,0.821-1.901c0.457-1.093,1.309-1.965,1.921-2.914
			c2.63-4.078,6.063-7.507,9.241-11.152c2.771-3.178,6.281-5.423,9.216-8.349c0.5-0.499,0.946-1.202,1.092-1.88
			c0.582-2.733-0.52-3.576-2.389-1.739c-1.396,1.372-2.806,2.746-4.338,3.954c-0.818,0.645-1.873,1.093-2.892,1.353
			c-0.908,0.232-1.322,0.692-1.654,1.498c-1.549,3.754-4.121,6.689-7.338,9.121c-1.808,1.367-3.408,3.052-5.326,4.225
			c-3.711,2.27-7.467,4.529-11.417,6.327c-4.021,1.831-8.372,2.928-12.443,4.663c-4.841,2.062-9.651,4.261-14.25,6.805
			c-2.356,1.303-4.23,3.48-6.308,5.28c-0.093,0.08-0.156,0.193-0.213,0.316c-0.089,0.193-0.111,0.411-0.05,0.484
			c0.061,0.073,0.563-0.175,1.122-0.553c0.337-0.229,0.674-0.457,1.012-0.687c0.463-0.313,0.891-0.713,1.398-0.915
			c0.406-0.161,0.908-0.081,1.367-0.109c0.265-0.018,0.54,0.002,0.791-0.066c1.879-0.508,3.724-1.269,5.635-1.509
			c5.87-0.741,11.755-1.42,17.654-1.857c3.664-0.271,7.371,0.095,11.044-0.098c5.431-0.286,10.862-0.697,16.269-1.28
			c4.05-0.437,8.109-1.019,12.076-1.923c4.071-0.928,8.216-1.918,11.606-4.605c4.528-3.588,8.668-7.507,11.394-12.755
			c3.036-5.848,4.072-11.912,2.925-18.425C93.437,35.781,91.642,31.13,88.856,26.866z M49.451,28.062
			c-1.278,1.805-3.3,2.134-5.245,2.508c-0.683,0.131-0.599-0.478-0.263-0.866c1.01-1.168,2.178-1.94,3.592-2.163
			c1.091-0.172,1.976,0.143,1.967,0.28C49.493,27.935,49.488,28.01,49.451,28.062z"/>
		<path d="M59.343,42.61c-1.172,0.946-2.89,1.277-4.408,1.72c-2.457,0.716-4.96,1-7.553,1.048c-2.419,0.045-4.986,0.154-7.124,1.689
			c-0.099,0.071-0.194,0.149-0.279,0.222c-0.15,0.128,0.627,0.238,1.731,0.24c2.3,0.004,4.597,0.005,6.893,0.039
			c0.951,0.014,1.918,0.331,2.848,0.232c1.328-0.14,2.641-0.493,3.94-0.833c1.117-0.293,2.207-0.694,3.31-1.047
			c3.209-1.028,4.897-3.712,6.733-6.221c0.636-0.87,1.138-1.836,1.738-2.734c1.832-2.738,1.706-5.423,0.027-8.215
			c-1.229-2.042-2.357-4.164-3.29-6.353c-0.241-0.565-0.343-1.19-0.41-1.834c-0.106-1.037-0.305-1.747-0.443-1.578
			c-0.078,0.096-0.159,0.205-0.228,0.323c-1.675,2.914-3.278,5.87-5.018,8.744c-2.721,4.493-5.884,8.67-9.547,12.434
			c-1.13,1.163-2.552,2.042-3.839,3.054c-0.135,0.106-0.266,0.217-0.432,0.358c-0.236,0.201,0.465,0.287,1.566,0.193
			c2.3-0.195,4.471-0.378,6.642-0.567c1.151-0.1,2.311-0.159,3.448-0.348c2.61-0.434,4.453-2.261,6.049-4.064
			c0.856-0.969,0.86-2.816,0.967-4.287c0.093-1.283-0.212-2.594-0.337-3.893c-0.022-0.228-0.041-0.456-0.059-0.684
			c-0.03-0.378-0.142-0.72-0.248-0.765c-0.107-0.045-0.711,0.65-1.347,1.553c-0.688,0.979-1.38,1.957-2.098,2.915
			c-0.716,0.954-1.458,1.888-2.203,2.82c-0.688,0.863-1.222,1.653-1.193,1.763c0.029,0.11,0.565,0.174,1.196,0.126
			c0.382-0.029,0.761-0.068,1.136-0.135c0.036-0.006,0.015-0.337-0.015-0.766c-0.029-0.425,0.436-1.03,1.027-1.349
			s1.255,0.381,0.793,1.384c-0.381,0.827-1.169,1.267-2.519,1.604c-1.656,0.414-3.286,0.935-4.933,1.39
			c-0.111,0.031-0.232,0.027-0.367-0.004c-0.2-0.045,0.408-0.605,1.197-1.378c1.825-1.787,2.988-4.083,4.404-6.153
			c1.408-2.059,2.606-4.261,3.889-6.532c0.543-0.962,1.247-1.165,1.559-0.464c0.192,0.433,0.377,0.852,0.559,1.273
			c0.816,1.896,1.705,3.767,2.39,5.709c0.203,0.576-0.069,1.396-0.304,2.038C64.061,38.362,61.794,40.631,59.343,42.61z"/>
		<path d="M82.776,54.26c0.781-0.781,1.377-1.465,1.332-1.526c-0.046-0.062-0.233-0.02-0.417,0.095
			c-0.112,0.07-0.222,0.143-0.32,0.228c-2.9,2.484-6.193,4.238-9.908,5.099c-1.503,0.348-3.096,0.291-4.622,0.564
			c-4.277,0.766-8.543,1.608-12.813,2.418c-0.828,0.156-1.565,0.246-1.795,1.373c-0.157,0.768-0.818,1.442-1.289,2.135
			c-1.213,1.778-2.389,3.588-3.702,5.29c-0.446,0.578-1.211,1.109-1.914,1.255c-3.172,0.649-6.392,1.063-9.558,1.736
			c-2.809,0.596-5.571,1.412-8.348,2.153c-0.165,0.044-0.315,0.143-0.515,0.278c-0.268,0.183-0.296,0.362-0.058,0.422
			c0.194,0.049,0.318,0.08,0.437,0.066c4.87-0.586,9.732-1.251,14.611-1.752c2.221-0.229,4.474-0.156,6.713-0.176
			c0.698-0.006,1.04-0.275,1.521-0.822c1.005-1.143,2.17-2.254,3.488-2.987c4.022-2.239,8.564-2.951,12.939-4.176
			c2.198-0.616,4.28-1.743,6.316-2.825c2.069-1.099,4.02-2.424,6.019-3.655c0.079-0.049,0.153-0.106,0.227-0.167
			c0.12-0.099,0.178-0.265,0.129-0.368c-0.049-0.103-0.905,0.185-1.911,0.641c-0.282,0.128-0.563,0.256-0.847,0.384
			c-1.006,0.457-1.854,0.77-1.895,0.7c-0.04-0.07,0.561-0.761,1.342-1.541C79.549,57.487,81.163,55.873,82.776,54.26z"/>
		<path d="M25.377,52.276c0.413,1.873,2.142,2.334,3.457,3.223c0.488,0.33,1.145,0.407,1.635,0.735
			c2.133,1.426,3.906,0.538,5.684-0.745c2.471-1.783,5.048-3.354,8.189-3.668c0.117-0.012,0.228-0.079,0.338-0.159
			c0.169-0.123,0.283-0.291,0.255-0.375c-0.028-0.084-0.759-0.194-1.632-0.313c-0.484-0.066-0.99-0.073-1.563,0.182
			c-2.089,0.93-4.358,1.457-6.557,2.138c-1.246,0.387-2.506,0.591-3.723-0.087c-1.101-0.612-1.181-1.016-0.525-2.087
			c0.087-0.142,0.153-0.296,0.228-0.482c0.111-0.274-0.399-0.35-1.144-0.168c-0.744,0.181-1.14-0.547-0.745-1.578
			c0.843-2.202,2.101-4.019,3.798-5.529c0.825-0.735,0.657-1.116-0.297-0.559c-1.017,0.594-1.847,1.472-2.748,2.357
			c-0.788,0.774-1.392,0.432-0.957-0.584c0.267-0.624,0.591-1.211,0.878-1.819c0.471-0.999,0.017-1.252-0.765-0.471
			c-1.22,1.22-2.391,2.391-3.548,3.548c-0.781,0.781-1.211,2.286-0.961,3.362C24.912,50.21,25.149,51.242,25.377,52.276z"/>
	</g>
</g>
<g>
</g>
<g>
</g>
<g>
</g>
<g>
</g>
<g>
</g>
<g>
</g>
<g>
</g>
<g>
</g>
<g>
</g>
<g>
</g>
<g>
</g>
<g>
</g>
<g>
</g>
<g>
</g>
<g>
</g>
</svg>
