<?xml version="1.0" encoding="iso-8859-1"?>
<!-- Generator: Adobe Illustrator 16.0.0, SVG Export Plug-In . SVG Version: 6.00 Build 0)  -->
<!DOCTYPE svg PUBLIC "-//W3C//DTD SVG 1.1//EN" "http://www.w3.org/Graphics/SVG/1.1/DTD/svg11.dtd">
<svg version="1.1" id="Capa_1" xmlns="http://www.w3.org/2000/svg" xmlns:xlink="http://www.w3.org/1999/xlink" x="0px" y="0px"
	 width="96.197px" height="96.197px" viewBox="0 0 96.197 96.197" style="enable-background:new 0 0 96.197 96.197;"
	 xml:space="preserve">
<g>
	<g>
		<path d="M31.127,38.992c-1.047-2.26-0.393-3.692,1.78-3.895c1.421-0.132,2.05,0.324,2.004,1.759
			c-0.041,1.258-0.347,2.508-0.543,3.761c-0.056,0.354-0.139,0.705-0.257,1.292c3.253-3.891,7.977-6.889,12.253-8.929
			c3.253-1.552,5.833-2.41,9.321-3.428c2.109-0.616,4.296-0.979,6.459-1.393c1.094-0.209,1.246-0.836,0.783-1.637
			c-0.299-0.518-0.793-0.987-1.307-1.307c-2.361-1.47-5.014-1.005-7.568-0.943c-3.158,0.077-6.112,1.153-8.798,2.707
			c-4.395,2.543-10.512,0.899-13.236-3.225c-0.338,2.311,1.056,5.1,3.427,6.051c2.225,0.892,4.615,1.372,6.891,2.021
			c-0.425,0.837-2.022,1.703-3.395,1.303c-2.012-0.587-4.035-1.273-5.884-2.242c-2.124-1.113-3.077-1.342-4.562-0.283
			c-1.928,1.374-2.417,2.814-1.725,5.081C27.313,37.464,29.194,38.891,31.127,38.992z"/>
		<path d="M19.574,51.855c-1.187-0.563-2.385-1.107-3.597-1.611c-2.923-1.219-6.437,0.072-7.779,2.885
			c2.648-1.792,5.227-1.406,7.665,0.252c1.51,1.027,1.726,1.964,1.301,3.497c-0.425,1.53-1.634,1.89-2.976,2.161
			c-1.611,0.326-3.34,0.467-4.766,1.187c-1.367,0.691-2.703,1.832-3.531,3.112c-1.449,2.24-3.009,3.055-5.586,2.22
			C0.241,65.537,0.161,65.566,0,65.58c1.064,1.791,2.8,2.084,4.519,1.875c1.3-0.157,2.54-0.838,3.794-1.319
			c0.943-0.362,1.835-0.903,2.805-1.14c1.693-0.414,2.892,0.252,2.971,1.469c0.073,1.131-1.526,2.77-2.787,2.6
			c-0.924-0.125-1.79-0.683-2.687-1.051c-0.53,1.305,1.219,3.737,2.992,3.465c1.99-0.308,3.776-0.103,5.552,1.045
			c2.293-11.369,8.958-20.181,8.687-20.082C23.657,53.23,21.597,52.814,19.574,51.855z"/>
		<path d="M93.674,62.119c0.114,0.291,0.133,0.432,0.211,0.518c1.457,1.604,1.803,3.271,0.437,5.139
			c-0.245,0.336-0.32,0.92-0.239,1.344c0.258,1.334-0.402,2.074-1.472,2.636c-1.151,0.604-2.241,1.378-3.456,1.784
			c-0.641,0.214-1.615,0.005-2.225-0.365c-2.227-1.354-3.683-3.395-4.875-5.702c-1.639-3.166-3.428-6.312-6.181-8.631
			c-2.057-1.733-4.423-3.112-6.702-4.569c-2.125-1.359-3.951-2.967-4.738-5.436c-0.327-1.03-0.482-2.146-0.504-3.227
			c-0.01-0.484,0.393-1.174,0.811-1.406c0.332-0.184,1.166,0.021,1.439,0.341c1.049,1.225,1.959,2.566,2.922,3.864
			c-0.19,0.154-0.381,0.309-0.572,0.463c-1-1.104-1.999-2.207-2.957-3.262c-1.186,2.074,1.82,6.021,6.082,7.492
			c0-0.799,0.173-1.579-0.029-2.245c-0.963-3.177-2.082-6.273-4.834-8.458c-1.188-0.943-1.502-0.942-2.725-0.026
			c-2.487,1.862-2.547,7.23-0.872,9.602c2.452,3.475,5.821,5.742,9.327,7.918c2.22,1.379,4.72,2.417,6.224,4.721
			c1.202,1.842,2.372,3.707,3.468,5.613c0.764,1.329,1.444,2.578,3.029,3.232c0.941,0.39,1.51,1.541,2.822,1.39
			c1.972-0.228,3.883-0.636,5.431-1.933c1.253-1.049,2.288-2.266,1.774-4.156c-0.115-0.43,0.037-1.041,0.277-1.441
			C96.84,65.146,96.198,63.138,93.674,62.119z"/>
		<path d="M26.995,50.339c0.241-0.072,0.429-0.383,0.602-0.609c1.122-1.481,2.069-3.141,3.394-4.407
			c1.337-1.278,1.125-3.127,0.102-4.224c-2.317-2.483-4.516-3.909-8.497-2.503c-1.991,0.703-2.815,1.763-2.887,3.847
			c-0.027,0.797,0,1.618,0.163,2.395c0.431,2.058,1.447,2.51,3.279,1.442c1.127-0.657,1.865-1.659,2.143-3.069
			c-0.595,0.428-1.057,0.873-1.608,1.118c-0.362,0.161-1.042,0.211-1.24-0.003c-0.289-0.313-0.424-0.931-0.356-1.378
			c0.147-0.967,1.326-1.78,2.277-1.646c1.082,0.153,1.781,0.752,1.9,1.893c0.224,2.16-1.106,3.592-3.116,4.218
			c-2.082,0.648-4.45-0.667-5.054-2.585c-0.133-0.424-0.237-0.857-0.377-1.368c-1.069,1.35-0.902,3.505,0.375,4.945
			C20.541,51.166,23.982,51.24,26.995,50.339z"/>
		<path d="M59.164,43.818c-0.139-0.031-0.279-0.062-0.418-0.093c-0.357,0.982-0.904,1.941-1.031,2.953
			c-0.222,1.761-0.283,3.565,0.863,5.142c0.137,0.188,0.178,0.576,0.08,0.783c-0.805,1.704-1.654,3.387-2.419,4.934
			c-0.515-1.653-0.956-3.461-1.636-5.174c-0.982-2.474-2.836-3.08-5.362-1.707c2.854,0.402,3.492,2.576,4.167,4.662
			c0.682,2.108,1.172,4.242,0.533,6.492c-0.743,2.612-0.303,3.512,2.096,4.504c2.01-4.627,2.746-9.8,5.952-13.949
			C59.314,50.048,58.676,47.119,59.164,43.818z"/>
		<path d="M72.92,31.409c1.19,1.249,2.479,2.41,3.605,3.712c0.977,1.13,2.042,1.985,3.529,2.326
			c0.634,0.146,1.211,0.538,2.049,0.928c-0.543-0.839-0.979-1.513-1.674-2.586c3.117,0.463,6.029,1.537,8.689-0.389
			c-1.525,0.341-2.847-0.149-4.113-0.909c-0.181-0.109-0.377-0.237-0.576-0.261c-2.569-0.308-3.871-2.128-5.147-4.103
			c-1.065-1.649-2.42-3.08-4.444-3.604c-0.432-0.112-0.883-0.15-1.172-0.198c-0.39,1.526-0.765,2.897-1.07,4.283
			C72.545,30.845,72.73,31.211,72.92,31.409z"/>
		<path d="M83.561,68.085c0.346,0.384,0.809,0.662,1.348,0.904c-2.066-1.731-1.883-3.926-1.729-6.279
			c0.097-1.447-0.297-3.109-0.994-4.391c-1.993-3.664-4.656-6.869-7.635-9.795c-0.175-0.172-0.416-0.273-0.84-0.543
			c-0.148,0.749,3.953,7.777,4.127,6.426c1.235,1.994,2.359,3.812,3.484,5.627c-0.111,0.076,0.464,1.779,0.427,2.277
			C81.586,64.48,82.079,66.445,83.561,68.085z"/>
		<path d="M68.029,30.902c0.46-0.753,0.641-1.678,0.945-2.527c-0.114-0.047-0.228-0.094-0.342-0.142
			c-0.576,0.46-1.154,0.919-1.73,1.379c-0.111-0.1-0.223-0.2-0.333-0.299c1.501-1.895,3.003-3.79,4.696-5.926
			c0.863,2.978-0.227,5.44-0.903,7.94c0.119,0.079,0.239,0.157,0.358,0.236c0.498-0.602,1.19-1.129,1.465-1.82
			c1.104-2.788,0.529-5.522-0.455-8.406c-1.034,1.246-1.946,2.337-2.852,3.434c-1.183,1.436-2.402,2.845-3.521,4.329
			c-0.489,0.648-1.068,1.474-0.15,2.237C66.036,32.024,67.448,31.853,68.029,30.902z"/>
		<path d="M92.665,61.023c-1.972-3.992-3.458-8.16-4.876-12.365c-0.748-2.216-0.691-4.295,0.079-6.452
			c0.642-1.797,0.558-1.851-1.002-2.997c-0.938-0.69-1.81-1.476-2.849-2.333c-0.035,1.822,0.986,2.901,1.908,3.948
			c0.67,0.762,0.899,1.52,0.67,2.429c-0.771,3.044-0.078,5.938,1.121,8.672c1.222,2.784,2.756,5.432,4.172,8.128
			C92.079,60.416,92.381,60.719,92.665,61.023z"/>
		<path d="M80.362,26.898c-0.024-0.109-0.05-0.219-0.075-0.329c-0.312,0.018-0.624,0.036-1.382,0.081
			c0.81-1.164,1.453-2.089,2.097-3.014c0.219,0.075,0.44,0.15,0.66,0.225c-0.213,2.545-0.426,5.089-0.648,7.754
			c1.685-1.435,2.496-8.595,0.715-10.244c-1.381,1.998-2.75,3.978-4.119,5.958c0.102,0.144,0.203,0.287,0.306,0.431
			C78.732,27.473,79.547,27.186,80.362,26.898z"/>
		<path d="M87.82,65.439c0.555,0.479,0.939,1.155,1.572,1.989c-0.076-1.687-1.016-2.421-2.014-3.056
			c-0.223-0.141-0.746-0.02-1.013,0.156c-1.03,0.685-1.551,2.314-1.199,3.512c0.255,0.861,1.87,2.07,2.858,2.041
			c0.314-0.008,0.874-0.299,0.886-0.487c0.039-0.623-0.122-1.259-0.206-1.89c-0.145,0.009-0.288,0.018-0.432,0.027
			c-0.029,0.187-0.047,0.377-0.092,0.561c-0.045,0.195-0.115,0.387-0.17,0.564c-1.83-0.08-2.258-2.086-1.408-3.356
			C86.747,65.285,87.586,65.238,87.82,65.439z"/>
		<path d="M75.035,43.82c-0.878-1.318-2.952-2.38-5.025-0.751c0.844,1.012,1.59,2.029,2.465,2.922
			c0.832,0.851,1.806,0.724,2.799-0.186C76.12,45.03,75.424,44.403,75.035,43.82z M74.327,45.314
			c-0.551-0.055-1.231,0.072-1.624-0.206c-0.589-0.416-0.977-1.117-1.581-1.857c1.317-0.38,2.388-0.355,3.114,0.691
			C74.461,44.265,74.307,44.849,74.327,45.314z"/>
		<path d="M64.086,29.887c-0.014-0.422-0.367-0.764-0.789-0.739c-0.343,0.011-8.502,0.329-18.245,5.814
			c-5.713,3.216-10.771,7.552-15.036,12.887c-5.317,6.652-9.404,14.883-12.148,24.463c-0.116,0.405,0.118,0.828,0.524,0.944
			c0.07,0.021,0.141,0.03,0.211,0.03c0.333,0,0.638-0.219,0.734-0.555c2.688-9.385,6.682-17.435,11.873-23.929
			c4.142-5.181,9.051-9.39,14.592-12.51c9.418-5.303,17.463-5.616,17.543-5.618C63.768,30.662,64.098,30.31,64.086,29.887z"/>
	</g>
</g>
<g>
</g>
<g>
</g>
<g>
</g>
<g>
</g>
<g>
</g>
<g>
</g>
<g>
</g>
<g>
</g>
<g>
</g>
<g>
</g>
<g>
</g>
<g>
</g>
<g>
</g>
<g>
</g>
<g>
</g>
</svg>
