<?xml version="1.0" encoding="iso-8859-1"?>
<!-- Generator: Adobe Illustrator 16.0.0, SVG Export Plug-In . SVG Version: 6.00 Build 0)  -->
<!DOCTYPE svg PUBLIC "-//W3C//DTD SVG 1.1//EN" "http://www.w3.org/Graphics/SVG/1.1/DTD/svg11.dtd">
<svg version="1.1" id="Capa_1" xmlns="http://www.w3.org/2000/svg" xmlns:xlink="http://www.w3.org/1999/xlink" x="0px" y="0px"
	 width="96.551px" height="96.552px" viewBox="0 0 96.551 96.552" style="enable-background:new 0 0 96.551 96.552;"
	 xml:space="preserve">
<g>
	<g>
		<path d="M37.002,38.979c0.117,0.54,0.66,1.078,1.212,1.078c2.221,0,4.389,0,6.601,0c0.552,0,0.913-0.542,0.71-1.056
			c-1.098-2.778-3.912-3.584-7.035-3.06c-0.063,0.01-0.13,0.002-0.197,0.007c-0.009-0.007-0.016-0.017-0.025-0.024
			c-0.905-0.767-2.067-0.941-3.501-0.923c0.424,1.205,1.047,1.873,1.866,2.177C36.76,37.765,36.885,38.441,37.002,38.979z"/>
		<path d="M75.918,52.428c-0.254-0.49-0.105-0.6,0.306-0.23c0.341,0.306,0.661,0.594,0.971,0.872
			c0.411,0.368,0.789,0.62,0.844,0.562s-0.191-0.447-0.549-0.867c-0.829-0.976-1.658-1.951-2.487-2.926
			c-0.358-0.421-0.584-0.836-0.504-0.927s0.533,0.057,1.013,0.33c2.563,1.458,5.123,2.915,7.65,4.353
			c0.479,0.273,1.026,0.051,0.938-0.496c-0.124-0.762-0.747-1.424-2.156-2.627c-3.656-3.12-7.246-6.317-10.949-9.57
			c-0.415-0.364-0.336-0.885-0.035-1.348c0.703-1.079-1.049-1.681-1.258-2.684c-0.113-0.541,0.54-0.585,0.885-0.154
			c0.897,1.124,1.781,2.228,2.661,3.329c0.345,0.431,0.724,0.717,0.846,0.637s-0.03-0.515-0.34-0.972
			c-0.81-1.194-1.618-2.387-2.427-3.581c-0.311-0.457-0.485-0.904-0.392-0.997c0.095-0.093,0.482,0.153,0.867,0.55
			c1.972,2.032,3.95,4.07,5.984,6.166c0.385,0.396,0.471,0.329,0.206-0.155c-0.866-1.578-1.676-3.198-2.75-4.616
			c-1.137-1.498-2.533-2.798-3.809-4.225c-0.368-0.412-0.245-0.573,0.255-0.337c3.243,1.536,6.27,3.355,8.32,6.454
			c0.305,0.461,0.636,0.756,0.777,0.636c0.141-0.12-0.022-0.57-0.345-1.019c-0.852-1.189-1.646-2.451-2.752-3.315
			c-2.878-2.249-6.012-4.169-9.015-6.26c-0.412-0.287-0.784-0.629-1.157-0.982c-0.4-0.38-0.39-0.975-0.026-1.391
			c1.744-2.005,1.957-4.415,2.403-6.726c0.104-0.533,0.104-1.031-0.02-1.135c0.36-2.862,0.383-5.732,0.314-8.618
			c0.29-1.975,0.58-3.95,0.869-5.926c0.08-0.546,0.094-1.033,0.031-1.088c-0.063-0.054-0.324,0.297-0.599,0.777
			c-0.757,1.318-1.579,2.614-2.036,4.028c-0.818,2.531-2.719,3.914-4.617,5.466c-1.567,1.281-2.835,2.922-4.33,4.301
			c-0.476,0.439-1.265,0.792-1.893,0.765c-1.716-0.074-3.421-0.38-5.133-0.573c-0.27-0.03-0.57,0.133-0.827,0.074
			c-2.309-0.532-4.611-1.085-6.915-1.635c-0.537-0.128-1.052-0.097-1.152,0.07c-0.1,0.167-0.251-0.141-0.333-0.687
			c-0.107-0.714-0.216-1.428-0.385-2.127c-0.182-0.755-0.322-1.725-0.846-2.157c-2.258-1.862-2.402-4.429-2.702-7.001
			c-0.135-1.16-0.36-2.31-0.573-3.461C38.648,0.441,38.475,0,38.356,0c-0.098,0-0.358,0.251-0.627,0.589
			c-0.065,0.021-0.13,0.058-0.19,0.113c-1.367,1.261-2.54,2.686-3.578,4.226c-0.077,0.114-0.09,0.225-0.072,0.326
			c-0.286,0.521-0.472,1.089-0.514,1.725c-1.02,3.755-2.015,7.515-2.839,11.318c-0.017,0.076-0.016,0.147-0.003,0.211
			c-0.542,1.051-1.564,1.761-2.526,2.511c-0.554,0.432-1.207,0.763-1.682,1.266c-1.887,2.001-3.864,3.941-5.536,6.113
			c-1.973,2.563-3.891,5.22-5.43,8.054c-2.547,4.688-4.822,9.524-6.831,14.528c-0.206,0.514-0.124,0.557,0.179,0.096
			c6.431-9.795,12.848-19.555,21.075-28.19c0.381-0.4,0.898-0.321,1.15,0.17c0.051,0.1,0.34,0.202,0.395,0.31
			c0.251,0.493,0.691,0.444,0.691-0.109v-4.895c0-2.889,1.122-5.753,1.882-8.608c0.051,1.001-0.066,2.015,0.584,3.116
			c1.019,1.727,0.773,4.217,0.889,6.386c0.017,0.308-0.476,0.642-1.045,1.08c-0.437,0.337-0.644,1.063-0.47,1.587
			c0.052,0.158,0.1,0.325,0.158,0.498c0.174,0.524,0.445,0.52,0.704,0.032c0.243-0.459,0.506-0.851,0.689-1.265
			c1.299-2.935,2.979-5.967,0.679-9.317c-1.642-2.393-1.182-4.938-0.533-7.461c0.599-0.799,1.248-1.554,1.948-2.268
			c0.273,0.022,0.499,0.209,0.564,0.561c0.359,1.931,0.617,3.756,1.192,5.476c0.725,2.17,1.034,4.53,2.637,6.394
			c0.406,0.472,0.36,1.496,0.246,2.223c-0.304,1.94-0.396,4.034-1.233,5.743c-1.486,3.034,0.844,4.18,2.354,5.721
			c1.378,1.406,3.072,2.509,4.407,3.948c0.678,0.731,1.273,1.655,1.737,2.529c0.259,0.487,0.611,0.426,0.611-0.127v-1.078
			c0-0.552,0.255-0.764,0.727-0.475c3.096,1.907,5.919,3.686,8.567,5.319c0.471,0.29,0.543,0.173,0.201-0.261
			c-0.351-0.445-0.768-0.954-1.186-1.484c-0.343-0.434-0.197-0.667,0.338-0.529c2.949,0.758,6.088,1.448,7.074,4.454
			c0.995,3.038,0.711,6.382-0.284,9.637c-0.162,0.527-0.456,0.525-0.632,0.001c-0.021-0.062-0.042-0.124-0.063-0.187
			c-0.177-0.523-0.437-0.898-0.581-0.839c-0.144,0.06-0.16,0.546-0.017,1.078c1.194,4.456,3.3,8.491,5.876,12.354
			c0.306,0.459,0.359,1.228,0.143,1.736c-1.411,3.305-1.209,5.75,0.856,8.047c0.369,0.41,0.751,0.266,0.811-0.283
			c0.022-0.201,0.043-0.395,0.063-0.582c0.06-0.549,0.234-0.98,0.391-0.963c0.156,0.017,0.22,0.473,0.145,1.02
			c-0.072,0.52-0.146,1.037-0.229,1.555c-0.02,0.129-0.044,0.256-0.066,0.383c-0.514,1.153-1.139,2.244-1.832,3.295
			c-0.276,0.217-0.517,0.47-0.732,0.742c-0.006,0.004-0.02,0.014-0.021,0.012c0-0.002,0.008,0.004,0.009,0.004
			c-0.011,0.013-0.019,0.025-0.028,0.037c0.008-0.018,0.02-0.041,0.019-0.043c-0.003-0.006-0.024,0.033-0.055,0.092
			c-0.134,0.179-0.258,0.367-0.368,0.568c-0.047,0.061-0.088,0.119-0.143,0.182c-0.975,1.137-2.291,2.097-1.881,3.943
			c0.067,0.305,0.149,0.607,0.23,0.91c-3.068,0.557-6.167,0.913-9.264,1.283c-4.139-0.605-4.963-1.453-6.272-5.936
			c-0.154-0.529,0.024-0.625,0.392-0.213c0.012,0.013,0.023,0.026,0.036,0.039c0.366,0.414,0.753,0.688,0.861,0.614
			c0.109-0.073-0.048-0.507-0.351-0.969c-0.696-1.062-1.421-2.17-2.289-3.496c-0.303-0.462-0.399-1.261-0.302-1.806
			c0.27-1.521,0.048-3.348-1.392-5.16c-0.343-0.432-0.515-0.323-0.331,0.197c0.266,0.754,0.512,1.451,0.78,2.211
			c0.184,0.521-0.084,0.779-0.598,0.574c-2.089-0.828-3.856-1.545-5.642-2.209c-1.7-0.631-3.421-1.209-5.459-1.912
			c-0.522-0.181-0.57-0.58-0.183-0.974c0.875-0.89,0.656-1.506-0.428-1.937c-4.113-1.637-5.044-4.908-4.848-8.926
			c0.046-0.951-0.73-1.916-0.976-2.912c-0.462-1.871-1.038-3.752-1.156-5.655c-0.066-1.069-0.068-2.142-0.046-3.216
			c0.003-0.018,0.012-0.031,0.013-0.05c0.145-2.835,0.599-5.611,1.246-8.369c0.733-2.326,1.353-4.644,0.944-7.045
			c-0.093-0.544-0.368-0.551-0.546-0.028c-0.845,2.477-1.726,5.061-2.594,7.603c-0.178,0.523-0.047,0.594,0.293,0.159
			c0.07-0.089,0.141-0.18,0.214-0.273c0.277-0.355,0.503-0.34,0.58-0.03c-0.333,1.493-0.601,2.994-0.803,4.505
			c-0.892,1.744-0.477,3.748-0.521,5.665c-0.083,3.633-0.261,7.264-0.282,10.896c-0.026,4.608,0.043,9.217,0.081,13.824
			c0.005,0.553,0.197,1.008,0.43,1.016c0.233,0.01,0.462-0.43,0.516-0.979c0.074-0.769,0.149-1.534,0.182-2.305
			c0.034-0.804,0.025-1.606,0.017-2.435c-0.005-0.553,0.387-1.229,0.92-1.373c1.514-0.414,2.749,0.271,4.117,1.629
			c3.61,3.578,6.55,7.635,9.305,11.851c0.277,0.423,0.286,1.212,0.101,1.714c-1.05,2.857-2.222,5.671-3.294,8.521
			c-0.159,0.422-0.227,0.879-0.3,1.397c-0.076,0.548,0.217,0.733,0.67,0.417c0.216-0.15,0.421-0.293,0.627-0.436
			c0.453-0.316,0.878-0.127,0.948,0.42c0.003,0.021,0.005,0.041,0.008,0.062c0.07,0.547,0.215,1,0.323,1.008
			c0.108,0.01,0.259-0.427,0.337-0.973c0.117-0.818,0.233-1.63,0.345-2.418c0.078-0.547,0.539-0.781,1.005-0.486
			c1.191,0.756,2.448,1.711,4.214,1.971c1.613,0.236,3.121,1.191,4.651,1.996c0.489,0.256,0.559,0.147,0.145-0.219
			c-1.064-0.943-2.13-1.886-3.194-2.828c-0.414-0.367-0.78-0.59-0.82-0.5c-0.023,0.056-0.051,0.108-0.086,0.156
			c-0.025,0.034-0.157,0.04-0.192,0.008c-1.136-1.063-2.304-2.098-3.379-3.221c-0.248-0.259-0.443-0.57-0.624-0.893
			c-0.271-0.481-0.357-0.967-0.193-1.086c0.164-0.117,0.582,0.133,0.934,0.559c0.921,1.116,1.842,2.232,2.763,3.348
			c0.352,0.426,0.759,0.512,0.908,0.191c0.15-0.32-0.024-0.916-0.382-1.337c-1.226-1.445-2.311-2.92-2.595-4.524
			c-0.096-0.543,0.207-0.641,0.547-0.205c1.231,1.578,2.58,3.307,3.944,5.053c0.34,0.436,0.614,0.375,0.614-0.137
			s-0.344-1.213-0.775-1.558c-0.412-0.329-0.81-0.668-1.083-1.087c-0.213-0.326-0.309-0.729-0.38-1.148
			c-0.095-0.543-0.206-1.01-0.246-1.039c-0.04-0.031-0.022-0.058,0.04-0.059c0.062-0.002,0.081,0.023,0.043,0.057
			c-0.038,0.032,0.359,0.203,0.832,0.49c1.089,0.661,1.757,1.669,2.155,3.036c0.155,0.53,0.034,0.827-0.206,0.647
			c-0.239-0.181-0.206,0.06,0.066,0.541c0.239,0.422,0.489,0.832,0.82,1.162c1.457,1.451,2.979,2.836,4.489,4.234
			c0.405,0.375,0.648,0.771,0.546,0.885c-0.104,0.113-0.525-0.091-0.94-0.455c-1.289-1.129-2.577-2.257-3.866-3.386
			c-0.415-0.364-1.1-0.724-1.53-0.802c-0.43-0.079-0.441,0.152-0.028,0.52c1.744,1.543,3.487,3.086,5.231,4.629
			c0.414,0.365,1.157,0.85,1.659,1.08c1.676,0.771,3.354,1.541,5.029,2.311c0.502,0.23,0.924,0.357,0.942,0.283
			c0.02-0.074-0.316-0.412-0.749-0.756c-1.367-1.086-2.735-2.172-4.104-3.26c-0.432-0.344-0.685-0.755-0.564-0.92
			c0.121-0.165,0.599-0.061,1.066,0.232c3.118,1.953,6.236,3.904,9.354,5.857c0.468,0.293,0.91,0.449,0.989,0.35
			s-0.197-0.471-0.62-0.826c-0.926-0.783-1.853-1.566-2.778-2.35c-0.422-0.356-1.151-0.869-1.629-1.145
			c-2.797-1.607-5.595-3.217-7.635-5.846c-0.339-0.436-0.129-0.809,0.404-0.664c0.403,0.107,0.784,0.248,1.177,0.318
			c0.188,0.034,0.396-0.039,0.608-0.14c0.079-0.037,0.14-0.086,0.182-0.144c1.528-0.014,3.037-0.146,4.53-0.416
			c3.096,2.703,6.074,5.302,9.037,7.888c0.416,0.362,0.845,0.558,0.958,0.433c0.113-0.123-0.131-0.521-0.551-0.879
			c-0.948-0.811-1.909-1.607-2.778-2.494c-1.479-1.511-3.662-2.556-4.033-4.845c-0.047-0.292-0.053-0.546-0.047-0.722
			c0.061-0.018,0.12-0.037,0.18-0.057c0.112,0.135,0.273,0.332,0.462,0.562c0.357,0.435,0.715,0.87,1.075,1.302
			c0.865,1.035,1.87,1.498,3.146,1.225c0.54-0.115,0.647-0.65,0.269-1.051c-1.812-1.924-3.752-3.785-3.828-6.341
			c0.39-0.476,0.784-0.948,1.15-1.44c0.155-0.196,0.323-0.383,0.475-0.584c0.993,0.768,2.015,1.556,3.164,2.444
			c0.438,0.339,0.6,0.206,0.363-0.293c-0.711-1.503-1.321-2.792-1.911-4.04c-0.047-0.098-0.089-0.188-0.13-0.275
			c0.633-1.026,1.184-2.094,1.603-3.225c0.186,0,0.373,0.047,0.54,0.186c3.568,2.973,6.302,6.422,8.477,10.846
			c0.244,0.496,0.358,0.461,0.272-0.085c-0.143-0.904-0.25-1.587-0.363-2.269c-0.096-0.57-0.238-1.14-0.338-1.709
			c-0.103-0.539-0.223-0.535-0.223,0.019v0.278c0,0.551-0.183,0.613-0.461,0.136c-1.968-3.38-3.761-6.493-5.763-9.931
			c-0.278-0.478-0.14-0.59,0.297-0.252c0.721,0.56,1.32,1.021,1.873,1.449c0.436,0.34,0.601,0.207,0.366-0.293
			c-0.369-0.783-0.734-1.562-1.095-2.326c-0.234-0.5,0.004-0.773,0.508-0.548c4.18,1.869,8.787,7.351,9.874,11.458
			c0.141,0.534,0.15,0.534,0.075-0.013c-1.185-8.64-6.211-15.235-12.095-21.373c-0.382-0.399-0.568-0.853-0.413-1.019
			c0.156-0.166,0.643-0.033,1.086,0.295c3.828,2.834,7.656,5.668,11.485,8.5c0.444,0.33,0.511,0.258,0.138-0.149
			C83.868,61.727,78.86,58.119,75.918,52.428z M63.241,15.228c1.753-1.291,3.313-2.843,4.853-4.273
			c0.404-0.376,0.806-0.233,0.891,0.313c0.014,0.082,0.026,0.165,0.039,0.251c0.041,0.265,0.113,0.506,0.197,0.688
			c0.015,2.443-0.083,4.878-0.458,7.306c-1.049,1.097-2.104,2.2-3.194,3.34c-0.382,0.399-0.947,0.356-1.274-0.089
			c-0.826-1.126-1.698-2.259-2.387-3.494C60.977,17.6,61.729,16.342,63.241,15.228z M60.246,24.286
			c1.013,0.964,2.024,1.929,3.037,2.893c0.399,0.381,0.601,0.811,0.449,0.961c-0.15,0.15-0.576-0.057-0.951-0.463
			c-0.949-1.028-1.897-2.056-2.847-3.084c-0.375-0.406-0.619-0.793-0.545-0.866C59.462,23.655,59.845,23.905,60.246,24.286z
			 M63.45,30.925c-0.132,0.169-0.598,0.042-1.042-0.284c-0.781-0.573-1.562-1.147-2.343-1.72c-0.444-0.327-0.702-0.736-0.575-0.913
			c0.127-0.178,0.59-0.055,1.034,0.273c0.786,0.581,1.573,1.162,2.359,1.743C63.327,30.353,63.581,30.756,63.45,30.925z
			 M54.63,26.974c-0.186,0.145-0.612-0.088-0.955-0.521c-0.68-0.858-1.359-1.715-2.039-2.573c-0.343-0.433-0.474-0.896-0.291-1.033
			c0.183-0.137,0.61,0.101,0.955,0.532c0.68,0.85,1.36,1.701,2.04,2.551C54.684,26.362,54.814,26.829,54.63,26.974z M57.721,27.538
			c-0.208,0.192-0.678,0.018-1.051-0.389c-0.745-0.814-1.49-1.627-2.235-2.441c-0.373-0.407-0.53-0.878-0.353-1.05
			s0.633,0.011,1.016,0.409c0.77,0.801,1.538,1.602,2.308,2.402C57.788,26.867,57.929,27.346,57.721,27.538z M66.726,38.948
			c-0.398,0.382-1.035,0.317-1.387-0.108c-0.547-0.659-1.093-1.317-1.639-1.974c-0.354-0.425-0.591-0.821-0.531-0.885
			c0.059-0.064,0.475,0.141,0.928,0.457c0.336,0.235,0.673,0.469,1.009,0.704c0.453,0.316,0.917,0.443,1.037,0.284
			c0.12-0.159-0.14-0.557-0.582-0.889c-2.252-1.694-4.504-3.389-6.755-5.083c-0.44-0.332-0.738-0.71-0.663-0.844
			c0.076-0.134,0.505,0.013,0.961,0.324c2.385,1.629,4.806,3.209,7.094,4.962C67.839,37.156,67.986,37.742,66.726,38.948z
			 M74.595,52.432c-0.138,0.121-0.551-0.11-0.922-0.52c-0.691-0.762-1.383-1.523-2.074-2.284c-0.371-0.409-0.56-0.841-0.421-0.966
			c0.139-0.124,0.553,0.107,0.923,0.518c0.691,0.762,1.382,1.525,2.072,2.289C74.545,51.878,74.733,52.309,74.595,52.432z"/>
		<path d="M59.027,71.611c-0.178,0.213-0.458,0.004-0.632-0.111c-0.061-0.041-0.122-0.062-0.181-0.072
			c-0.384-0.408-0.938-0.715-1.382-1.115c-0.41-0.371-0.861-0.432-1.039,0.091c-0.271,0.79-0.052,1.397,0.651,1.894
			c0.508,0.465,1.089,0.814,1.772,0.887c0.077,0.067,0.173,0.119,0.301,0.123c0.908,0.039,1.83-0.164,2.407-0.92
			c0.583-0.762,0.641-1.783,0.593-2.705c-0.01-0.188-0.107-0.315-0.233-0.394c-0.113-1.976-1.152-4.028-2.873-5.101
			c-0.47-0.293-0.773-0.01-0.662,0.531c0.118,0.576,0.208,1.029,0.483,1.252c1.276,1.035,1.16,2.215,1.01,3.645
			c-0.037,0.352,0.005,0.711,0.08,1.083c-0.013,0.034-0.03,0.06-0.036,0.101C59.25,71.072,59.211,71.391,59.027,71.611z"/>
		<path d="M55.79,65.453c-0.847,0.93-0.856,2.214-0.504,3.361c0.188,0.615,1.153,0.353,0.964-0.266
			c-0.24-0.781-0.35-1.734,0.246-2.389C56.93,65.686,56.225,64.977,55.79,65.453z"/>
	</g>
</g>
<g>
</g>
<g>
</g>
<g>
</g>
<g>
</g>
<g>
</g>
<g>
</g>
<g>
</g>
<g>
</g>
<g>
</g>
<g>
</g>
<g>
</g>
<g>
</g>
<g>
</g>
<g>
</g>
<g>
</g>
</svg>
