<?xml version="1.0" encoding="iso-8859-1"?>
<!-- Generator: Adobe Illustrator 16.0.0, SVG Export Plug-In . SVG Version: 6.00 Build 0)  -->
<!DOCTYPE svg PUBLIC "-//W3C//DTD SVG 1.1//EN" "http://www.w3.org/Graphics/SVG/1.1/DTD/svg11.dtd">
<svg version="1.1" id="Capa_1" xmlns="http://www.w3.org/2000/svg" xmlns:xlink="http://www.w3.org/1999/xlink" x="0px" y="0px"
	 width="569.744px" height="569.744px" viewBox="0 0 569.744 569.744" style="enable-background:new 0 0 569.744 569.744;"
	 xml:space="preserve">
<g>
	<g>
		<path d="M359.232,49.953c-0.608-0.381-3.766,0.047-7.04,0.955c-27.81,7.714-55.68,15.199-83.368,23.327
			c-45.743,13.426-83.762,39.1-114.296,75.424c-23.637,28.106-45.85,57.577-85.828,69.694c-3.25,0.987-3.384,2.701-0.156,3.776
			c22.05,7.374,40.977,4.383,57.949-0.162c3.28-0.878,4.593,0.75,2.952,3.727c-7.099,12.906-14.531,26.59-22.242,40.116
			c-10.285,18.055-26.699,19.432-44.168,17.942c-3.39-0.293-4.8,1.82-2.873,4.616c10.155,14.765,23.762,19.198,63.842,22.248
			c3.39,0.248,5.464,3.109,4.472,6.36c-15.548,50.809-51.598,57.701-104.254,19.884c-2.76-1.986-4.058-1.04-2.689,2.068
			c23.968,54.278,106.429,75.469,151.703,35.872c10.187-8.907,17.851-23.182,21.657-36.428
			c11.384-39.613,19.591-80.12,30.458-119.894c5.113-18.714,12.516-36.975,20.54-54.689c14.836-32.764,37.326-58.937,68.302-78.256
			c14.718-9.182,27.786-21.004,41.352-32.036C358.174,52.35,359.846,50.334,359.232,49.953z"/>
		<path d="M500.446,149.942c-7.312-9.245-11.035-21.282-16.621-31.942c-2.778-5.308-4.924-12.093-9.439-15.149
			c-18.271-12.389-37.173-23.853-55.922-35.547c-2.885-1.797-5.857-2.057-6.649-0.567c-0.786,1.489,0.521,4.637,2.979,6.983
			c7.772,7.445,15.781,14.686,22.667,22.881c13.205,15.737,12.714,24.095-2.299,32.272c-2.979,1.629-3.139,4.12-0.201,5.84
			c22.686,13.278,25.553,13.527,37.214-0.756c2.152-2.633,4.978-2.276,6.372,0.831c8.239,18.385,16.385,36.563,24.73,55.168
			c-1.4-0.745-2.754-1.587-4.007-2.622c-6.064-5.018-14.824,3.638-8.707,8.704c5.214,4.312,10.811,6.913,17.035,8.379
			c0.018,0.018,0.047,0.023,0.064,0.041c2.701,2.761,5.208,5.701,7.69,8.668c2.187,2.601,1.342,5.527-1.826,6.759
			c-4.682,1.83-9.393,3.718-13.495,2.84c-7.087-1.514-14.032-6.786-19.528-12.014c-15.256-14.517-33.118-21.853-53.877-24.078
			c-12.129-1.303-24.317-3.794-35.979-7.379c-28.076-8.624-37.936-20.372-39.331-46.985c-0.177-3.396-2.169-4.226-4.249-1.539
			c-11.219,14.478-9.729,30.887,4.899,44.047c16.586,14.925,37.279,20.158,58.694,21.122c29.01,1.3,50.294,12.123,60.674,40.825
			c5.089,14.08,15.87,19.503,30.748,15.853c5.408-1.327,10.911-2.308,16.266-3.827c33.337-9.425,40.578-40.958,15.18-65.707
			C522.339,172.143,510.051,162.101,500.446,149.942z"/>
		<path d="M392.515,358.275c-32.355-33.975-38.97-75.007-34.708-119.415c0.373-3.897,0.639-7.802,0.467-11.718
			c-0.159-3.396-1.708-3.546-2.914-0.369c-16.142,42.466-24.252,85.067,3.026,127.259c11.792,18.24,24.695,35.771,37.415,53.386
			c36.942,51.14,37.788,102.918,3.228,155.494c-1.011,1.543-1.974,3.115-2.914,4.699c-1.572,2.631-0.827,2.873,1.578,0.473
			c54.403-54.308,59.451-115.572,16.568-180.172C407.481,377.699,400.903,367.083,392.515,358.275z"/>
		<path d="M417.795,52.172c-0.438,1.478,1.851,3.458,5.107,4.418c21.805,6.472,43.609,12.948,65.414,19.417
			c3.257,0.969,5.58,2.875,5.195,4.262c-0.39,1.386-3.422,2.054-6.773,1.483c-1.572-0.266-3.162-0.538-4.782-0.812
			c-3.351-0.568-3.978,0.762-1.389,2.967c10.568,9.025,21.161,18.066,34.034,29.051c2.589,2.21,3.795,1.386,2.743-1.844
			c-4.954-15.309-8.275-28.044-13.908-39.652c-7.005-14.44-19.932-22.029-36.594-21.977c-14.038,0.042-28.076,0.018-42.114,0.012
			C421.336,49.503,418.227,50.697,417.795,52.172z"/>
		<path d="M385.618,33.816c1.69-0.225,3.522-0.467,5.609-0.739c3.375-0.443,4.77,1.611,3.127,4.587
			c-2.193,3.966-4.138,7.483-5.917,10.702c-1.638,2.973-0.331,4.551,2.684,2.985c15.817-8.219,28.909-27.819,31.091-48.04
			c0.366-3.378-1.768-4.341-4.321-2.095c-5.733,5.048-11.194,9.945-16.952,14.473c-5.656,4.442-11.591,8.514-17.502,12.631
			c-2.783,1.944-4.781,4.158-4.468,4.927C379.269,34.002,382.254,34.257,385.618,33.816z"/>
	</g>
</g>
<g>
</g>
<g>
</g>
<g>
</g>
<g>
</g>
<g>
</g>
<g>
</g>
<g>
</g>
<g>
</g>
<g>
</g>
<g>
</g>
<g>
</g>
<g>
</g>
<g>
</g>
<g>
</g>
<g>
</g>
</svg>
