<?xml version="1.0" encoding="iso-8859-1"?>
<!-- Generator: Adobe Illustrator 16.0.0, SVG Export Plug-In . SVG Version: 6.00 Build 0)  -->
<!DOCTYPE svg PUBLIC "-//W3C//DTD SVG 1.1//EN" "http://www.w3.org/Graphics/SVG/1.1/DTD/svg11.dtd">
<svg version="1.1" id="Capa_1" xmlns="http://www.w3.org/2000/svg" xmlns:xlink="http://www.w3.org/1999/xlink" x="0px" y="0px"
	 width="546.37px" height="546.37px" viewBox="0 0 546.37 546.37" style="enable-background:new 0 0 546.37 546.37;"
	 xml:space="preserve">
<g>
	<g>
		<path d="M465.897,121.969c-7.583-6.711-15.717-12.637-24.471-17.667c-16.237-9.333-34.205-15.705-51.565-23.028
			c-47.002-19.831-96.203-29.592-147.078-28.854c-21.01,0.302-42.38,2.728-62.802,7.527c-15.046,3.538-30.281,9.298-42.321,20.865
			c-3.795,3.65-10.356,5.302-15.895,6.035c-7.571,0.999-15.386,0.035-23.084,0.295c-14.162,0.485-27.798,2.846-40.231,10.66
			c-2.832,1.779-2.784,5.083-0.163,7.155c8.109,6.384,15.912,13.048,24.701,17.934c9.98,5.55,11.316,13.728,11.481,23.131
			c0.198,11.278-1.079,22.704,0.272,33.816c4.096,33.617,16.068,64.654,33.266,93.724c12.557,21.231,27.999,40.82,34.371,65.468
			c4.468,17.277,16.175,28.626,31.256,38.585c17.082,11.29,41.426,0.887,47.821-18.027c1.72-5.089,5.068-6.738,9.152-8.86
			c10.944-5.675,19.908-13.353,25.062-25.114c3.435-7.826,0.816-13.418-4.58-18.768c-7.631-7.548-14.955-15.433-22.854-22.68
			c-5.284-4.853-4.915-9.055-0.502-13.931c6.605-7.288,13.746-14.198,19.532-22.097c11.969-16.361,16.539-31.008,6.331-48.844
			c-1.445-2.53-2.733-5.157-3.999-7.791c-1.448-3.014-2.264-5.757-1.818-6.132c0.455-0.381,2.252,0.177,4.002,1.253
			c1.12,0.683,2.143,1.428,2.778,2.42c7.583,11.701,15.16,23.43,22.129,35.506c8.618,14.918,17.804,29.846,19.021,47.617
			c1.123,16.354,0.987,32.793,1.98,49.159c0.91,15.138,1.613,30.394,4.143,45.307c3.6,21.208,7.962,42.368,13.519,63.139
			c7.11,26.587,15.911,52.824,30.292,76.485c7.98,13.127,17.378,25.381,26.197,38c1.909,2.742,5.089,2.837,7.087,0.154
			c88.064-118.251,112.009-270.802,73.068-412.527C471.11,128.666,468.403,124.18,465.897,121.969z M167.658,154.824
			c-2.548,11.239-5.095,22.479-7.646,33.718c-0.736,3.263-1.894,5.811-2.583,5.704c-0.689-0.109-1.877-2.84-2.681-6.085
			c-1.818-7.306-3.688-14.603-4.874-22.018c-0.387-2.441,2.184-5.949,4.303-8.062c2.441-2.42,5.145-4.578,7.882-6.694
			c2.639-2.054,5.246-3.452,5.846-3.1C168.512,148.639,168.403,151.562,167.658,154.824z"/>
		<path d="M83.787,81.055c10.557-0.594,19.249-0.981,27.896-1.841c4.347-0.429,9.448-1.076,12.688-3.582
			c23.265-18.025,49.455-28.951,78.285-34.132c23.114-4.158,46.361-6.439,69.711-3.328c20.972,2.795,42.498,4.459,62.536,10.651
			c28.62,8.854,56.3,20.785,85.428,32.104c3.115,1.209,5.077,0.393,4.327-1.797c-0.479-1.398-1.076-2.719-2.062-3.597
			c-11.793-10.477-23.076-21.861-36.15-30.488c-23.2-15.306-48.533-26.551-75.528-33.919c-42.688-11.65-85.638-15.069-129.248-5.833
			c-31.995,6.779-60.798,19.641-82.544,44.833c-6.593,7.631-11.75,16.5-18.037,26.231C79.26,79.16,80.444,81.241,83.787,81.055z"/>
		<path d="M87.611,139.746c-2.432-7.025-6.384-11.154-14.75-9.573c-3.612,0.683-7.33,0.828-11.044,0.949
			c-3.342,0.104-3.621,1.451-0.629,2.94c7.752,3.869,15.838,7.906,24.361,12.155c2.991,1.493,4.66,0.653,3.721-1.876
			C88.667,142.719,88.125,141.235,87.611,139.746z"/>
	</g>
</g>
<g>
</g>
<g>
</g>
<g>
</g>
<g>
</g>
<g>
</g>
<g>
</g>
<g>
</g>
<g>
</g>
<g>
</g>
<g>
</g>
<g>
</g>
<g>
</g>
<g>
</g>
<g>
</g>
<g>
</g>
</svg>
