<?xml version="1.0" encoding="iso-8859-1"?>
<!-- Generator: Adobe Illustrator 16.0.0, SVG Export Plug-In . SVG Version: 6.00 Build 0)  -->
<!DOCTYPE svg PUBLIC "-//W3C//DTD SVG 1.1//EN" "http://www.w3.org/Graphics/SVG/1.1/DTD/svg11.dtd">
<svg version="1.1" id="Capa_1" xmlns="http://www.w3.org/2000/svg" xmlns:xlink="http://www.w3.org/1999/xlink" x="0px" y="0px"
	 width="94.492px" height="94.492px" viewBox="0 0 94.492 94.492" style="enable-background:new 0 0 94.492 94.492;"
	 xml:space="preserve">
<g>
	<g>
		<path d="M90.42,62.35c-0.596-1.195-0.958-2.505-1.503-3.728c-0.246-0.551-0.639-1.054-1.04-1.513
			c-0.858-0.984-2.059-1.787-2.605-2.913c-2.511-5.17-4.862-10.418-7.238-15.652c-0.83-1.829-1.542-3.714-2.368-5.545
			c-0.937-2.075-1.582-4.183-1.237-6.497c0.4-2.696-1.254-4.293-3.248-5.557c-1.104-0.699-1.281-1.31-0.85-2.534
			c0.522-1.48,0.726-3.101,0.781-4.672c0.028-0.79-0.362-1.592-0.71-2.525c-0.193-0.517-0.587-0.596-0.871-0.122
			c-1.048,1.75-1.558,3.629-3.438,4.999c-0.444,0.323-0.946,0.077-0.946-0.476v-4.919c0-0.036,0.113-0.073,0.09-0.109
			c-0.034-0.052-0.274,0.209-0.489,0.593c-0.124,0.22-0.212,0.447-0.363,0.697c-1.416,2.346-2.729,4.747-4.196,7.06
			c-0.362,0.57-1.062,1.08-1.713,1.282c-3.713,1.149-7.425,1.184-11.163-0.049c-3.856-1.272-7.503-0.411-10.939,1.501
			c-2.489,1.384-4.945,2.53-7.918,1.525c-0.997-0.337-1.468,0.305-0.883,1.216c0.977,1.523,0.357,2.654-0.542,3.842
			C22.446,34.31,16.412,37.936,8.886,38.94c-1.407,0.188-2.887-0.236-4.335-0.275c-0.313-0.008-0.629,0.05-0.945,0.126
			c-0.514,0.124-0.758,0.642-0.551,1.155c0.153,0.38,0.328,0.735,0.605,0.966c0.724,0.602,1.558,1.072,2.422,1.573
			c0.478,0.277,0.483,0.755,0.02,1.055c-0.336,0.217-0.666,0.431-1.006,0.651c-0.463,0.3-0.49,0.823-0.059,1.168
			c0.031,0.024,0.061,0.048,0.091,0.073c0.432,0.345,0.464,0.945,0.005,1.251c-1.344,0.898-2.856,1.05-4.379,1.222
			c-0.549,0.062-0.555,0.223-0.017,0.345c0.919,0.209,1.875,0.426,2.972,0.675c0.539,0.122,0.589,0.449,0.114,0.73
			c-1.361,0.807-2.532,1.503-3.723,2.165c-0.025,0.015-0.056,0.022-0.09,0.027c-0.051,0.007,0.112,0.401,0.375,0.886
			c3.172,5.865,7.467,11.236,12.657,15.936c0.409,0.371,0.755,0.653,0.783,0.612c1.062-1.48,1.812-2.46,2.678-2.928
			c0.486-0.263,1.333-0.076,1.812,0.201c6.22,3.595,13.087,7.136,20.208,9.73c0.519,0.189,0.937,0.35,0.934,0.364
			c-0.001,0.008-0.003,0.018-0.008,0.028c-0.752,1.796-1.499,3.595-2.243,5.394c-0.211,0.511,0.036,1.084,0.555,1.273
			c0.481,0.175,0.966,0.347,1.453,0.514c0.522,0.179,1.114-0.097,1.327-0.605c0.742-1.776,1.55-3.534,2.391-5.281
			c0.017-0.034,0.033-0.065,0.05-0.093c0.03-0.051,0.484,0.039,1.016,0.189c3.148,0.895,6.325,1.562,9.498,1.933
			c0.309,0.048,0.616,0.098,0.925,0.132c3.783,0.425,7.667,0.2,11.487-0.045c1.954-0.125,3.754-0.75,5.495-1.61
			c0.495-0.245,1.309-0.616,1.821-0.822c0.297-0.12,0.594-0.244,0.89-0.373c0.506-0.221,1.038-0.353,1.149-0.228
			c0.062,0.072,0.115,0.158,0.151,0.261c0.289,0.813,0.568,1.612,0.988,2.328c0.338,0.576,1.053,1.06,1.703,1.295
			c1.194,0.432,2.475,0.626,3.707,0.962c2.921,0.797,7.853-0.804,9.61-3.271c0.535-0.75,0.715-1.75,1.074-2.629
			c0.583-1.427,1.224-2.83,1.748-4.277c0.193-0.534,0.363-1.276,0.143-1.727C93.124,67.416,91.702,64.918,90.42,62.35z
			 M40.918,73.746c-0.337,0.665-0.726,0.8-1.422,0.529C32.417,71.521,25.68,68.068,18.8,64.32c-0.485-0.264-0.621-0.811-0.302-1.221
			c0.202-0.259,0.387-0.504,0.554-0.76c0.897-1.372,1.774-2.758,2.648-4.146c1.624-2.577,3.037-5.317,4.903-7.705
			c3.331-4.26,7.358-7.861,11.646-11.159c0.17-0.131,0.335-0.271,0.498-0.411c0.27-0.233,0.46-0.516,0.425-0.632
			c-0.035-0.115-0.509-0.158-1.06-0.107c-0.493,0.046-0.979,0.108-1.415,0.29c-0.954,0.398-1.916,0.935-2.669,1.634
			c-3.648,3.38-7.218,6.843-10.84,10.25c-0.515,0.484-1.154,0.841-1.753,1.231c-0.896,0.584-1.896,1.044-2.69,1.739
			c-0.956,0.839-1.736,1.874-2.603,2.814c-0.998,1.082-1.779,1.055-2.309-0.303c-0.271-0.693-0.188-1.75,0.168-2.409
			c0.527-0.978,1.398-1.788,2.196-2.596c2.117-2.145,4.194-4.337,6.435-6.347c2.813-2.523,5.703-4.972,8.693-7.281
			c2.09-1.615,4.43-2.902,6.608-4.409c2.599-1.798,5.417-3.078,8.542-3.493c1.21-0.161,2.486,0.187,3.732,0.278
			c0.607,0.044,1.314,0.232,1.811,0c1.104-0.517,1.806-0.265,2.412,0.71c0.661,1.065,1.597,1.237,2.733,0.795
			c0.634-0.246,1.312-0.529,1.966-0.524c0.5,0.004,1.235,0.317,1.429,0.708c0.2,0.406-0.036,1.11-0.251,1.612
			c-0.146,0.341-0.565,0.583-0.896,0.824c-1.202,0.879-1.893,1.949-1.506,3.521c0.095,0.386,0.037,0.82-0.005,1.227
			c-0.178,1.725,0.265,3.306,0.944,5.02c0.202,0.513,0.518,0.534,0.677,0.049c0.106-0.33,0.211-0.608,0.383-0.835
			c0.837-1.104,1.726-2.176,2.688-3.171c0.205-0.212,0.897-0.203,1.205-0.023c1.896,1.109,3.408,2.546,4.074,4.763
			c0.353,1.172,0.987,2.255,1.441,3.399c0.075,0.188,0.105,0.395,0.125,0.604c0.032,0.34-0.179,0.597-0.446,0.499
			c-0.216-0.079-0.342-0.185-0.386-0.316c-0.508-1.512-1.458-1.23-2.628-0.833c-1.415,0.481-2.897,0.785-4.37,1.062
			c-0.44,0.083-1.093-0.021-1.397-0.307c-2.808-2.634-5.074-5.566-4.464-9.757c0.213-1.46-0.399-2.556-1.467-3.31
			c-0.477-0.337-1.405-0.292-2.011-0.082c-0.321,0.111-0.432,0.936-0.566,1.457c-0.326,1.257-0.332,2.695-0.974,3.752
			c-1.225,2.016-2.693,3.913-4.259,5.684c-2.237,2.53-4.667,4.89-6.981,7.353c-0.653,0.694-1.264,1.453-1.762,2.263
			c-0.539,0.878-0.09,1.569,0.924,1.466c0.476-0.048,1.015-0.234,1.375-0.538c1.288-1.081,2.545-2.204,3.75-3.377
			c0.947-0.922,1.756-1.984,2.71-2.898c0.604-0.579,1.324-1.315,2.26-0.548c0.918,0.755,0.391,1.566-0.059,2.32
			c-0.679,1.137-1.379,2.261-2.079,3.386c-1.159,1.864-1.275,3.739-0.233,5.719c0.232,0.441,0.282,1.188,0.068,1.623
			C44.646,66.521,42.755,70.119,40.918,73.746z M73.395,75.414c-5.328,2.364-10.92,3.179-16.574,2.9
			c-4.578-0.31-8.773-1.244-11.212-2.775c-0.468-0.295-0.536-0.939-0.196-1.375c2.667-3.428,5.339-6.862,8.088-10.396
			c0.339-0.436,0.944-0.485,1.379-0.146c2.962,2.311,6.455,3.059,9.904,4.007c4.083,1.121,6.833,4.036,9.454,7.241
			c0.016,0.019,0.025,0.039,0.035,0.06C74.288,74.967,73.899,75.188,73.395,75.414z M75.402,39.598
			c-1.331,0.439-2.512,0.368-3.505-0.721c-0.372-0.408-0.41-1.06-0.188-1.375c0.126-0.18,0.264-0.376,0.399-0.571
			c0.167-0.241,0.334-0.482,0.5-0.724c0.275-0.4,0.155-0.846-0.271-0.991c-0.259-0.088-0.52-0.167-0.786-0.213
			c-0.59-0.101-1.287-0.179-0.759-0.942c0.48-0.693,1.072-1.307,1.693-1.964c0.379-0.401,0.958-0.383,1.258,0.081
			c1.259,1.942,1.79,4.028,2.328,6.082C76.212,38.795,75.926,39.425,75.402,39.598z M83.562,59.104
			c-0.49,0.255-1.121,0.006-1.375-0.483c-1.861-3.59-3.734-7.202-5.592-10.786c-0.255-0.49-0.104-1.164,0.386-1.42
			c1.392-0.728,2.364-0.419,3.036,0.824c0.323,0.599,0.514,1.268,0.819,1.877c1.118,2.233,2.163,4.511,3.42,6.662
			C85.184,57.365,85.145,58.282,83.562,59.104z"/>
	</g>
</g>
<g>
</g>
<g>
</g>
<g>
</g>
<g>
</g>
<g>
</g>
<g>
</g>
<g>
</g>
<g>
</g>
<g>
</g>
<g>
</g>
<g>
</g>
<g>
</g>
<g>
</g>
<g>
</g>
<g>
</g>
</svg>
