<?xml version="1.0" encoding="iso-8859-1"?>
<!-- Generator: Adobe Illustrator 16.0.0, SVG Export Plug-In . SVG Version: 6.00 Build 0)  -->
<!DOCTYPE svg PUBLIC "-//W3C//DTD SVG 1.1//EN" "http://www.w3.org/Graphics/SVG/1.1/DTD/svg11.dtd">
<svg version="1.1" id="Capa_1" xmlns="http://www.w3.org/2000/svg" xmlns:xlink="http://www.w3.org/1999/xlink" x="0px" y="0px"
	 width="95.129px" height="95.129px" viewBox="0 0 95.129 95.129" style="enable-background:new 0 0 95.129 95.129;"
	 xml:space="preserve">
<g>
	<g>
		<path d="M36.362,77.047c0,0.002,0,0.008,0,0.01c0.004-0.006,0.01-0.019,0.011-0.012C36.379,77.024,36.356,77.065,36.362,77.047z"
			/>
		<path d="M36.89,72.435c0,0.004-0.014,0.008-0.02,0.012c0.001-0.002,0.04-0.004,0.078-0.006
			C36.919,72.438,36.889,72.437,36.89,72.435z"/>
		<path d="M36.849,72.487c-0.001,0.002-0.043,0.004-0.061,0.006c0.029,0.002,0.054,0.002,0.054,0.002
			c0.007-0.018,0.12-0.033,0.154-0.051c0.003,0,0.015,0.002,0.015,0.002c0-0.004,0-0.006,0-0.01h-0.002h0.002
			c0-0.004,0-0.004,0-0.006c0,0.002-0.008,0.004-0.011,0.008c-0.008,0-0.026,0.002-0.052,0.002c0.021,0.002,0.029,0.002,0.041,0.004
			C36.946,72.459,36.855,72.472,36.849,72.487z"/>
		<polygon points="36.775,72.495 36.788,72.493 36.778,72.493 		"/>
		<path d="M36.662,72.995c0.021-0.159,0.043-0.303,0.056-0.465c0.001-0.016,0.003-0.021,0.005-0.037c0.014,0,0.035,0,0.055,0
			c0.006-0.016,0.065-0.03,0.092-0.047h-0.001c-0.028,0.017-0.132,0.031-0.166,0.045c-0.014,0.146-0.03,0.375-0.046,0.5
			C36.658,72.981,36.66,73.006,36.662,72.995z"/>
		<path d="M37.978,78.362c-0.046,0-0.126,0-0.167,0c-0.013,0-0.026,0-0.026,0c0.003,0,0.016,0.004,0.026,0.006
			C37.851,78.379,37.931,78.397,37.978,78.362z"/>
		<path d="M95.034,62.269c-0.164-0.342-0.457-0.617-0.67-0.939c-0.58-0.868-1.052-1.832-1.737-2.604
			c-1.269-1.422-2.662-2.732-3.998-4.094c-0.099-0.102-0.158-0.244-0.222-0.375c-0.549-1.129-1.381-1.773-2.701-1.801
			c-0.946-0.02-1.887-0.26-2.834-0.293c-1.758-0.059-3.521-0.086-5.276-0.035c-1.875,0.055-3.746,0.211-5.617,0.328
			c-1.033,0.064-2.066,0.143-3.1,0.221c-0.66,0.051-1.328,0.061-1.978,0.176c-0.981,0.176-2.045,0.246-2.902,0.691
			c-0.973,0.506-1.813,1.318-2.616,2.096c-1.558,1.508-3.037,3.096-4.57,4.627c-1.178,1.176-2.389,2.318-3.76,3.643
			c-0.15-0.766-0.258-1.287-0.354-1.811c-0.205-1.109-0.092-2.428-0.668-3.285c-1.188-1.77-2.715-3.316-4.16-4.9
			c-0.438-0.479-1.031-0.852-1.612-1.161c-2.521-1.341-4.814-2.904-6.184-5.537c-0.763-1.468-1.58-2.911-2.444-4.32
			c-1.027-1.677-1.766-3.473-2.231-5.365c-0.208-0.848-0.203-1.775-0.143-2.655c0.059-0.861,0.592-1.206,1.184-1.117
			c1.056,0.158,2.125,0.277,3.191,0.314c0.814,0.028,1.634-0.152,2.45-0.145c1.866,0.016,3.735,0.035,5.595,0.163
			c0.983,0.068,2.041,0.186,2.899,0.615c0.83,0.416,1.522,1.195,2.144,1.929c1.062,1.258,2.463,1.554,3.86,0.693
			c0.679-0.418,1.334-0.916,2.072-1.179c0.892-0.318,1.416-0.892,1.642-1.737c0.407-1.532,0.629-3.081,0.358-4.681
			c-0.146-0.862-0.399-1.559-1.285-1.894c-0.295-0.111-0.567-0.294-0.821-0.484c-1.343-1.005-2.65-2.059-4.019-3.026
			c-1.185-0.836-2.509-1.483-3.64-2.379c-2.66-2.106-5.243-4.309-7.849-6.482c-0.171-0.143-0.283-0.356-0.423-0.536
			c0.045-0.038,0.091-0.076,0.136-0.114c0.24,0.134,0.48,0.267,0.907,0.505c-0.345-0.466-0.547-0.738-0.838-1.13
			c1.33,0.857,2.528,1.629,3.727,2.401c0.053-0.064,0.107-0.128,0.16-0.191c-0.223-0.363-0.447-0.727-0.691-1.124
			c0.194,0.029,0.332,0.049,0.526,0.078c-0.133-0.175-0.241-0.317-0.397-0.522c0.451,0.039,0.805,0.07,1.159,0.102
			c-1.314-0.705-2.664-1.305-3.364-2.808c0.633,0.18,1.213,0.346,1.794,0.512c0.024-0.068,0.048-0.136,0.071-0.204
			c-1.596-0.797-3.179-1.622-4.795-2.375c-0.492-0.229-1.074-0.265-1.615-0.389c-0.582-0.25-1.167-0.488-1.771-0.554
			c-0.644-0.07-1.307,0.023-1.864,0.042c-0.253-1.315-0.467-2.556-0.75-3.782c-0.054-0.235-0.377-0.407-0.576-0.609
			c-0.045,0.285-0.093,0.569-0.134,0.854c-0.057,0.407-0.06,0.83-0.177,1.219c-0.098,0.324-0.402,0.589-0.485,0.913
			c-0.27,1.049-1.537,1.88-2.584,1.51c-0.502-0.178-0.85-0.166-1.293,0.073c-0.884,0.475-1.791,0.911-2.703,1.332
			c-0.222,0.103-0.527,0.173-0.747,0.106c-0.787-0.24-1.151-0.099-0.873,0.618c-0.676,0.416-1.336,0.714-1.864,1.166
			c-1.698,1.454-3.37,2.911-5.487,3.777c-0.893,0.365-1.676,1-2.51,1.512c0.043,0.07,0.086,0.14,0.129,0.21
			c1.929-1.088,1.929-1.088,2.407-0.705c-1.929,1.186-3.909,2.297-4.927,4.433c0.528-0.252,1.051-0.502,1.573-0.751
			c0.027,0.069,0.054,0.137,0.08,0.206c-1.603,1.221-3.325,2.318-4.776,3.699c-1.465,1.395-2.662,3.071-4.121,4.795
			c1.732-1.409,3.423-2.522,4.549-4.274c0.862-1.342,1.697-1.861,2.905-2.001c-0.297,0.325-0.56,0.632-0.845,0.918
			c-0.833,0.836-1.761,1.596-2.484,2.518c-0.501,0.638-1.041,1.518-0.986,2.247c0.061,0.802-0.283,1.131-0.703,1.567
			c-0.161,0.167-0.34,0.323-0.472,0.512c-0.999,1.431-2.04,2.838-2.961,4.318c-0.496,0.798-0.811,1.717-1.147,2.604
			c-0.112,0.295-0.034,0.661-0.042,0.995c0.538-2.837,2.368-4.75,4.251-6.675c0.253,0.341,0.424,0.571,0.633,0.853
			c-1.107,1.153-1.989,2.47-2.072,4.171c0.122-0.021,0.258-0.044,0.46-0.079c-0.561,1.571-1.094,3.061-1.649,4.614
			c0.217-0.118,0.368-0.2,0.443-0.241c0.633,1.328-0.105,2.347-0.641,3.412c-0.052,0.104-0.09,0.214-0.134,0.321
			c-0.765,1.844-1.604,3.66-2.272,5.537c-0.649,1.821-1.129,3.707-1.667,5.569c-0.078,0.271-0.062,0.566-0.089,0.851
			c0.101,0.015,0.203,0.028,0.304,0.043c0.124-0.696,0.248-1.394,0.418-2.349c0.129,0.488,0.192,0.724,0.295,1.115
			c0.516-2.812,0.868-3.647,1.596-4.045c0.109,0.449,0.226,0.926,0.342,1.402c0.086-0.014,0.171-0.025,0.257-0.039
			c0.09-0.686,0.143-1.377,0.283-2.053c0.077-0.371,0.251-0.75,0.472-1.061c0.238-0.334,0.604-0.572,0.875-0.886
			c0.616-0.713,1.208-1.448,1.809-2.174c0.073,0.061,0.146,0.121,0.219,0.183c-0.138,0.235-0.276,0.47-0.413,0.705
			c0.032,0.024,0.065,0.051,0.097,0.075c0.258-0.293,0.517-0.586,0.775-0.877c0.097,0.05,0.193,0.1,0.29,0.149
			c-0.741,2.042-1.482,4.081-2.209,6.081c0.08-0.041,0.212-0.11,0.432-0.229c-1.583,3.037-4.225,5.546-3.508,9.434
			c0.393-1.188,0.744-2.248,1.095-3.309c0.082,0.021,0.164,0.047,0.247,0.07c-0.001,0.326-0.002,0.652-0.003,1.232
			c0.312-0.752,0.524-1.269,0.788-1.904c0.278,0.25,0.484,0.438,0.689,0.623c-0.104,0.113-0.236,0.211-0.289,0.342
			c-0.176,0.438-0.231,0.947-0.492,1.318c-0.457,0.651-1.164,1.168-1.586,1.838c-0.996,1.582-1.791,2.871-3.791,3.992v3.031
			c0-0.018,0.108-0.033,0.138-0.051c0.034-0.02,0.085-0.012,0.142,0.004c0.044,0.014,0.091,0.029,0.141,0.053
			c0.085,0.035,0.171,0.119,0.239,0.145c0.003-0.004,0.005,0.025,0.008,0.029l-0.001,0.002h0.001l0,0
			c0.048-0.074,0.095-0.139,0.142-0.203c0.476-0.479,0.941-0.95,1.408-1.422c0.122-0.106,0.243-0.217,0.365-0.34
			c0.002,0.004,0.003-0.018,0.005-0.016c-0.001,0.002-0.001-0.01-0.002-0.008c0.323,0.447,0.498,0.447,0.959,0.025
			c0.533-0.486,1.131-0.881,1.458-1.556c0.011-0.022,0.05-0.058,0.068-0.054c1.385,0.332,1.269-1.062,1.861-1.639
			c0.085-0.082,0.158-0.201,0.228-0.33c0.005-0.008,0.01-0.021,0.015-0.028c0.14-0.177,0.274-0.382,0.477-0.703
			c-0.019,0.856-0.033,2.272-0.049,2.272c0.081,0,0.162,0,0.244,0c0.028,0,0.274-0.225,0.302-0.244
			c0.173-0.123-0.072-0.68,0.561-1.116C8.723,65,8.726,64.997,8.728,64.997c0.044-0.03,0.101-0.059,0.154-0.088
			c0.166,0.316,0.243,0.605,0.386,0.851c0.004,0.006,0.007-0.188,0.011-0.183c0.014-0.006,0.02-0.164,0.026-0.2
			c-0.095-0.328-0.207-0.617-0.274-0.972c-0.014-0.074-0.02-0.055-0.02-0.133c0-0.004,0-0.006,0-0.008
			c0-0.012,0.011-0.021,0.012-0.033c0.01,0.006,0.026,0.016,0.041-0.027c0.008-0.024,0.126,0.16,0.211,0.16c0.001,0,0.001,0,0.002,0
			h0.001c0.138,0,0.358-0.188,0.366-0.17c0.06,0.147,0.367,0.127,0.367,0.287v0.002c0,0.199-0.249,0.406-0.297,0.734
			c0,0.018-0.01,0.031-0.019,0.045c-0.007,0.012-0.014,0.021-0.014,0.035c0.353-0.215,0.598-0.479,0.796-0.768
			c0.098-0.144,0.187-0.289,0.265-0.443c0.008-0.018,0.008-0.033,0.016-0.051c0.061-0.125,0.114-0.254,0.169-0.381
			c0.119-0.283,0.23-0.57,0.355-0.854c-0.182,0.412-0.336,0.836-0.533,1.235c0.348-0.705,0.545-1.647,1.045-2.307
			c0.019-0.072,0.035-0.367,0.054-0.367c0,0,0.017,0,0.026,0c-0.015,0-0.014,0.183-0.028,0.238c-0.007,0.01-0.009,0.043-0.012,0.074
			c0-0.001,0.001-0.003,0.002-0.004c-0.002,0.01-0.003,0.018-0.005,0.025c0.001-0.008,0.002-0.013,0.003-0.021
			c0,0.002-0.001,0.004-0.001,0.004c-0.001,0.004-0.002,0.016-0.003,0.023c-0.001,0.006-0.003,0.014-0.004,0.018
			c-0.002,0.018-0.004,0.035-0.005,0.057c-0.009,0.037-0.019,0.072-0.029,0.109c-0.069,0.094-0.122,0.189-0.181,0.287
			c0.057-0.094,0.111-0.188,0.178-0.275c0.002-0.002,0.003-0.004,0.004-0.008c0.003,0,0.007,0.02,0.01,0.051
			c0.001-0.006,0.002-0.01,0.004-0.016c-0.001,0.012-0.002,0.023-0.004,0.027c0.012,0.091,0.021,0.41,0.03,0.41
			c-0.02,0-0.039,0.229-0.059,0.308c0.045-0.063,0.092-0.13,0.141-0.175l0.034-0.098c0.007-0.002,0.03-0.006,0.037-0.008
			l-0.739,2.33l-0.042,0.145c0.017-0.047,0.038-0.09,0.055-0.137c0.009,0.006,0.018,0.02,0.026,0.023
			c0.293-0.827,0.588-1.389,0.882-2.389h0.003h0.02c-0.065,0-0.121-0.174-0.18-0.113v-0.196c0,0.004,0,0.022,1,0.026v0.009
			c-0.843,1.039-0.631,2.08-0.601,3.121c0.006,0.194,0.007,0.389-0.008,0.584c0.032,0.014-0.097,0.37-0.065,0.385
			c0.142-0.385,0.18-0.815,0.322-0.815h-0.027h-0.014c0.05,0,0.099-0.061,0.148-0.121c0.054-0.065,0.108-0.131,0.164-0.112
			c-0.385,1.114-0.774,2.06-1.16,3.174c0.095,0.039,0.188-0.008,0.284,0.031c0.656-1.533,1.312-3.106,1.969-4.642
			c0.034,0.008,0.068-0.006,0.102,0c-0.067,0.646-0.134,1.277-0.223,2.125c0.249-0.459,0.406-0.75,0.641-1.184
			c0.122,0.971,0.389,1.818,0.287,2.625c-0.102,0.811-0.573,1.57-0.885,2.361c-0.85-0.182-0.85-0.182-0.94,0.385
			c0.621,0.109,1.242,0.219,1.944,0.342c-0.326,0.904-0.644,1.787-0.96,2.664c0.599,0.055,0.522,0.029,0.675-0.48
			c0.164-0.543,0.494-1.037,0.891-1.49c0.707,1.773-0.819,2.781-1.158,4.138c-0.216-0.004-0.277,0.009-0.329-0.008
			c-0.284-0.093-0.566-0.188-0.849-0.283c0.186,0.246,0.327,0.556,0.567,0.726c0.457,0.321,0.985,0.541,1.454,0.847
			c0.294,0.192,0.534,0.468,0.848,0.75c-0.296,0.257-0.525,0.456-0.764,0.663c-0.325-0.215-0.653-0.432-1.12-0.74
			c0.078,0.383,0.123,0.607,0.181,0.893c-0.468-0.332-0.883-0.627-1.299-0.924c-0.072,0.08-0.145,0.162-0.217,0.242
			c0.413,0.369,0.767,0.895,1.25,1.074c0.957,0.357,1.036,0.908,0.688,1.721c-0.121,0.285-0.185,0.594-0.275,0.891
			c-0.097,0.015-0.195,0.027-0.292,0.043c-0.113-0.479-0.227-0.961-0.352-1.494c-0.306-0.119-0.776-0.301-1.316-0.512
			c0.061,0.234,0.052,0.566,0.213,0.748c0.514,0.574,0.388,1.156,0.147,1.773c-0.565,1.447-1.123,2.9-1.692,4.348
			c-0.036,0.092-0.143,0.154-0.408,0.158c0.465-1.492,0.93-2.986,1.442-4.629c-0.383,0.125-0.583,0.189-0.788,0.256
			c-0.26-0.568-0.516-1.131-0.772-1.691c-0.095,0.031-0.19,0.062-0.285,0.096c0.297,0.949,0.594,1.9,0.935,2.99
			c-0.627-0.332-1.049-0.555-1.622-0.858c0.72,0.808,0.669,1.612,0,2.138c-0.048-0.162-0.14-0.339-0.1-0.479
			c0.33-1.12-0.699-1.758-0.927-2.69c-0.555,0.968,0.945,2.024-0.251,2.978c-0.308-0.25-0.658-0.534-1.008-0.818
			c0.003,0.207,0.009,0.412,0.014,0.619c-0.055,0.012-0.109,0.025-0.164,0.037c-0.165-0.555-0.33-1.109-0.495-1.663
			c-0.088,0.017-0.176,0.032-0.265,0.05c0.178,0.988,0.356,1.979,0.533,2.967c-0.127,0.057-0.255,0.113-0.382,0.168
			c-0.296-0.385-0.592-0.771-0.929-1.209c-0.167,0.334-0.359,0.721-0.551,1.105c-0.075,0.008-0.15,0.014-0.225,0.021
			c-0.165-0.765-0.331-1.527-0.496-2.291c-0.094,0.014-0.189,0.026-0.283,0.039c0.134,0.922,0.267,1.844,0.401,2.764
			c-0.062,0.006-0.125,0.011-0.187,0.016c-0.023-0.223-0.046-0.445-0.069-0.668c-0.052-0.02-0.104-0.039-0.156-0.059
			c-0.11,0.315-0.201,0.641-0.334,0.944c-0.31,0.71-0.633,1.414-0.973,2.111c-0.039,0.079-0.292,0.155-0.311,0.131
			c-0.209-0.271-0.5-0.537-0.56-0.847c-0.311-1.598-0.563-3.205-0.963-4.797c-0.314,1.14,0.038,2.248,0.263,3.359
			c-0.077,0.02-0.155,0.039-0.232,0.061c-0.133-0.34-0.312-0.678-0.557-1.307c-0.187,0.723-0.524,1.299-0.524,1.846v0.229
			c0-0.299,0.404-0.599,0.584-0.896c0-0.002,0.001-0.002,0.002-0.002c0.079,0.021,0.181,0.043,0.259,0.065
			c-0.205,0.787-0.444,1.574-0.701,2.562c-0.002,0.006-0.003,0.014-0.005,0.02c-0.039-0.205-0.139-0.377-0.139-0.541v2.143h1.261
			c0.272-0.5,0.575-0.912,0.885-1.117c-0.128,0.379-0.253,0.748-0.377,1.117h0.727c0.047-0.391,0.095-0.789,0.141-1.172
			c0.482-0.014,0.796-0.021,1.17-0.031c-0.091,0.386,0.164,0.916-0.557,1.154c-0.02,0.006-0.031,0.035-0.047,0.049h1.275
			c-0.014-0.055-0.031-0.11-0.045-0.168c-0.037-0.154,0.129-0.358,0.222-0.592c0.483,0.194,0.789,0.399,0.818,0.76h2.603
			c0.068-0.426,0.141-0.895,0.23-1.457c0.956,0.39,1.302,0.685,0.82,1.353c-0.019,0.026-0.016,0.069-0.023,0.104h0.235
			c0.126-0.182,0.25-0.358,0.381-0.551c0.363,0.115,0.595,0.271,0.693,0.551h5.12c0.058-0.127,0.115-0.254,0.173-0.383
			c0.105,0.055,0.209,0.107,0.314,0.16c-0.038,0.074-0.076,0.148-0.114,0.223h15.168c0.277-0.219,0.551-0.44,0.829-0.658
			c0.684-0.532,1.493-0.905,2.164-1.452c1.683-1.367,3.332-2.779,4.967-4.205c0.344-0.3,0.604-0.388,1.062-0.252
			c1.014,0.299,1.983,0.168,2.901-0.449c1.127-0.756,2.318-1.414,3.461-2.147c0.732-0.469,1.421-1.004,2.143-1.49
			c2.387-1.607,4.73-3.289,7.186-4.785c2.101-1.281,4.496-2.064,6.34-3.787c0.209-0.195,0.482-0.322,0.738-0.463
			c1.146-0.621,2.365-1.137,3.428-1.875c1.301-0.904,2.479-0.748,3.722-0.002c0.196,0.117,0.422,0.238,0.643,0.256
			c1.029,0.084,2.062,0.121,3.091,0.197c0.28,0.021,0.588,0.061,0.834,0.189c1.311,0.69,2.598,1.422,3.903,2.118
			c0.949,0.509,1.675,1.111,1.947,2.277c0.243,1.043,0.627,2.176,1.817,2.594c0.732,0.257,0.785,0.785,0.717,1.382
			c-0.049,0.43-0.17,0.855-0.297,1.271c-0.266,0.875-1.082,1.199-1.938,0.851c-0.236-0.098-0.551-0.008-0.83-0.006
			c-0.002,0.147-0.004,0.293-0.006,0.44c0.701,0.107,1.4,0.218,2.342,0.361c-0.449,0.166-0.715,0.264-0.795,0.293
			c-0.197,0.521-0.352,0.922-0.541,1.416c1.27-0.666,0.859,0.902,1.615,1.133c-0.209,0.23-0.367,0.404-0.523,0.58
			c1.135-0.199,1.752,0.48,2.387,1.188c0.318,0.354,0.75,0.604,1.119,0.918c1.461,1.241,3.354,1.362,5.07,1.935
			c0.215,0.069,0.752-0.203,0.811-0.412c0.207-0.728,0.332-1.492,0.371-2.25c0.039-0.771-0.217-1.586-0.061-2.322
			c0.346-1.609-0.031-3.023-0.754-4.432c-0.867-1.697-1.762-3.392-2.471-5.154c-0.361-0.896-0.82-1.59-1.625-2.059
			c-2.549-1.484-5.104-2.957-7.666-4.421c-0.982-0.562-2.053-0.987-2.967-1.639c-1.933-1.377-3.787-2.856-5.672-4.3
			c-0.713-0.545-1.486-0.827-2.343-0.399c-1.221,0.608-2.414,1.271-3.625,1.899c-0.465,0.242-0.946,0.457-1.646,0.791
			c0.774-1.129,1.396-2.016,2-2.918c0.957-1.432,2.261-2.483,3.929-2.785c1.862-0.338,3.774-0.456,5.67-0.524
			c1.638-0.057,3.289,0.021,4.92,0.179c0.834,0.08,1.576,0.641,1.692,1.528c0.191,1.438,0.951,2.509,1.896,3.486
			c-0.202-0.679-0.557-1.384,0.084-2.142c0.345,0.742,0.65,1.355,0.916,1.986c0.308,0.727,1.386,1.291,2.166,1.158
			c0.261-0.043,0.601-0.014,0.813,0.123c1.074,0.688,2.228,0.92,3.48,0.762c0.889-0.109,1.809-0.096,2.662-0.324
			c0.68-0.184,1.299-0.623,1.896-1.021C95.172,62.927,95.137,62.478,95.034,62.269z M3.562,51.644
			c-0.111-0.035-0.221-0.07-0.332-0.105c0.231-0.615,0.463-1.234,0.694-1.852c0.122,0.049,0.245,0.098,0.367,0.146
			C4.048,50.437,3.805,51.04,3.562,51.644z M5.679,47.116c-0.09-0.048-0.181-0.096-0.271-0.144c0.422-0.805,0.844-1.61,1.266-2.416
			c0.099,0.052,0.198,0.105,0.297,0.157C6.54,45.515,6.109,46.316,5.679,47.116z M0.868,70.092c0.431-0.586,0.857-0.92,1.283-1.287
			C1.726,69.231,1.299,69.657,0.868,70.092z M7.486,64.19c-0.031,0.057-0.061,0.109-0.089,0.166
			c-0.003,0.006-0.006,0.012-0.009,0.018c-0.149,0.287-0.272,0.535-0.44,0.701c-0.001,0-0.002,0.002-0.003,0.004
			c-0.518,0.502-0.493,1.662-1.407,1.722c-0.13,0.008-0.28-0.004-0.452-0.047c-0.018-0.004-0.055,0.047-0.066,0.069
			c-0.327,0.674-0.923,1.076-1.455,1.562c-0.234,0.213-0.392,0.316-0.534,0.312c0.141,0,0.299-0.104,0.528-0.312
			c0.533-0.486,1.131-1.086,1.458-1.758c0.003-0.006,0.008-0.029,0.014-0.057c0.048,0.047,0.351,0.139,0.471,0.131
			c0.914-0.059,0.908-1.17,1.425-1.674c0.001,0,0.011,0.022,0.013,0.021c0.259-0.254,0.411-0.688,0.721-1.184
			C7.592,63.974,7.541,64.081,7.486,64.19z M8.219,56.663c-0.155,0.082-0.151,0.441-0.25,0.658c-0.302,0.66-0.612,1.316-0.945,1.961
			c-0.027,0.054-0.251,0.002-0.438-0.004c0.017,0.262,0.033,0.508,0.056,0.871c-0.2-0.229-0.324-0.369-0.449-0.504
			c0.509-1.199,0.967-2.424,1.552-3.582c0.293-0.582,0.822-1.045,1.323-1.504C9.029,55.379,9.097,56.2,8.219,56.663z M8.955,32.838
			c-0.098-0.075-0.196-0.149-0.294-0.224c0.446-0.567,0.892-1.134,1.338-1.701c0.081,0.062,0.162,0.124,0.244,0.185
			C9.814,31.678,9.385,32.258,8.955,32.838z M11.816,61.858c-0.005,0.006-0.01,0.014-0.016,0.021
			c0.007-0.029,0.014-0.056,0.021-0.082C11.819,61.817,11.817,61.838,11.816,61.858z M11.822,61.782
			c-0.009,0.033-0.018,0.066-0.027,0.104h-0.001c0.01-0.037,0.019-0.072,0.028-0.107C11.822,61.778,11.822,61.78,11.822,61.782z
			 M11.839,61.663c0.02-0.108,0.05-0.301,0.065-0.301c0.025,0,0.046,0,0.049,0C11.909,61.362,11.878,61.591,11.839,61.663z
			 M11.72,58.94c0.125-0.014,0.251-0.025,0.376-0.039c0.017,0.426,0.033,0.853,0.057,1.467C11.192,59.868,11.62,59.383,11.72,58.94z
			 M5.606,87.592c-0.11-0.062-0.219-0.125-0.329-0.188c0.218-0.709,0.436-1.42,0.732-2.383c0.278,0.451,0.688,0.848,0.608,1.041
			C6.386,86.614,5.957,87.088,5.606,87.592z M7.284,87.718c-0.129-0.029-0.258-0.061-0.388-0.09c0.01-0.291-0.1-0.709,0.051-0.854
			c0.699-0.66,0.863-1.484,0.795-2.416c0.097-0.029,0.194-0.06,0.291-0.088c0.127,0.205,0.406,0.465,0.356,0.608
			C8.061,85.84,7.661,86.774,7.284,87.718z M8.704,85.11c0.084,0.058,0.168,0.111,0.251,0.17c0.258-0.278,0.517-0.557,0.775-0.836
			c0.304,0.89-0.008,1.431-1.263,2.002C8.557,85.94,8.631,85.526,8.704,85.11z M9.876,89.235c-0.451-0.375-0.709-0.59-1.029-0.856
			c0.383-0.185,0.645-0.31,1.085-0.521C9.913,88.315,9.9,88.651,9.876,89.235z M90.482,82.813c0.109,0.002,0.221,0.006,0.33,0.008
			c0.133,1.347,0.264,2.693,0.402,4.117c-1.175-0.014-1.537-0.391-1.584-1.459c-0.004-0.104,0.092-0.26,0.051-0.305
			c-0.662-0.711-1.34-1.41-2.033-2.131c0.354-0.631,0.354-0.631,2.631,0.523C90.348,83.31,90.413,83.062,90.482,82.813z
			 M88.57,77.842c0.006,0.185-0.139,0.371-0.215,0.558c-0.199-0.08-0.453-0.113-0.582-0.259c-0.113-0.127-0.133-0.385-0.109-0.575
			c0.082-0.625,0.201-1.246,0.307-1.869c-0.086-0.023-0.172-0.051-0.256-0.076c0.176-0.062,0.353-0.125,0.707-0.25
			C88.48,76.261,88.547,77.051,88.57,77.842z M86.84,73.106c0.325,0.588,0.646,1.18,1.021,1.863
			c-0.551-0.277-1.24-0.188-1.293-1.049c-0.014-0.199-0.371-0.373-0.57-0.562c-0.221-0.209-0.441-0.418-0.656-0.636
			c-0.08-0.079-0.172-0.272-0.199-0.262c-0.752,0.295-0.827-0.509-1.227-0.769c-0.42-0.277-0.768-0.666-1.154-1.012
			c-0.897,0.303-1.688-0.289-2.014-1.514C83.021,70.106,85.51,70.711,86.84,73.106z M71.215,63.22
			c0.387,0.16,0.811,0.266,1.155,0.49c1.625,1.062,3.218,2.176,4.845,3.234c0.848,0.553,1.75,1.022,2.616,1.549
			c0.302,0.184,0.57,0.416,0.853,0.629c-0.188-0.01-0.387-0.047-0.555,0.008c-0.175,0.057-0.312,0.227-0.562,0.42
			c-0.283-0.461-0.572-0.932-0.861-1.402c-0.051,0.059-0.103,0.121-0.153,0.182c-1.232-0.561-2.56-0.967-3.306-2.321
			c-0.09,0.006-0.182,0.013-0.272,0.021c0.022,0.24,0.045,0.481,0.068,0.723c-0.048,0.004-0.095,0.006-0.142,0.008
			c-0.166-0.3-0.312-0.613-0.507-0.893c-0.104-0.148-0.379-0.363-0.438-0.326c-0.715,0.443-0.889-0.125-1.174-0.559
			c-0.121-0.185-0.34-0.31-0.523-0.445c-0.416-0.312-0.84-0.613-1.264-0.922C71.07,63.483,71.143,63.353,71.215,63.22z
			 M46.391,57.509c0.483,1.182,0.926,2.381,1.379,3.576c-0.332-0.533-0.686-1.057-0.977-1.611c-0.374-0.713-0.686-1.459-0.943-2.34
			C46.036,57.258,46.321,57.34,46.391,57.509z M36.487,45.099c0.504,0.861,1.138,1.647,1.744,2.511
			c0.005-0.021-0.004,0.081-0.022,0.083c-0.984,0.091-0.737,0.712-0.611,1.33c0.07,0.342,0.006,0.711,0.003,0.947
			c-0.436-0.238-0.851-0.4-1.177-0.668c-0.278-0.229-0.656-0.598-0.635-0.877c0.063-0.822-0.549-1.701,0.171-2.498
			c0.065-0.071-0.188-0.539-0.386-0.724c-0.695-0.648-1.431-1.253-2.151-1.874c-0.145-0.125-0.29-0.251-0.375-0.468
			c0.323,0.142,0.645,0.284,0.968,0.425c0.037-0.037,0.073-0.075,0.11-0.112c-0.403-0.491-0.806-0.982-1.142-1.391
			c-0.395-0.225-0.793-0.36-1.057-0.628c-0.249-0.252-0.525-0.589,0.028-0.971c0.179-0.123,0.025-0.73,0.022-1.274
			c-0.185,0.336-0.301,0.548-0.435,0.792c-0.672-0.211-1.111-0.484-1.147-1.383c-0.025-0.632-0.558-1.244-0.896-1.929
			c0.538,0.06,1.094,0.266,0.764-0.566c-0.169-0.427-0.261-0.884-0.387-1.328c0.079-0.035,0.159-0.07,0.238-0.104
			c0.176,0.374,0.352,0.748,0.555,1.179c0.119-0.193,0.24-0.391,0.36-0.586c0.411,0.185,0.822,0.371,1.241,0.56
			c0.034-0.114,0.067-0.197,0.059-0.201c-0.91-0.466-1.209-1.136-1.172-2.211c0.039-1.131-0.337-2.276-0.497-3.214
			c0.455-0.211,0.786-0.365,1.198-0.557c0.453,0.794,0.817,1.646,0.274,2.677c-0.116,0.221-0.026,0.623,0.097,0.881
			c0.237,0.497,0.565,0.951,0.855,1.423c-0.097,0.066-0.193,0.131-0.29,0.197c-0.245-0.327-0.49-0.655-0.735-0.982
			c-0.019,0.015-0.039,0.029-0.058,0.044c0.531,1.046,1.063,2.093,1.72,3.388c-0.44-0.407-0.696-0.643-1.052-0.972
			c-0.034,0.252-0.122,0.444-0.07,0.583c0.34,0.902,0.702,1.795,1.072,2.685c0.331,0.797,0.653,1.599,1.031,2.374
			C35.268,42.822,35.835,43.986,36.487,45.099z M28.019,38.248c0.665,0.617,1.331,1.234,1.996,1.852
			c-0.056,0.061-0.111,0.122-0.167,0.184c-0.677-0.612-1.353-1.224-2.03-1.835C27.886,38.381,27.952,38.314,28.019,38.248z
			 M25.838,31.46c0.73,1.708,2.963,2.522,2.721,4.811C27.211,34.925,26.329,33.306,25.838,31.46z M32.162,43.918
			c-0.785-0.698-2.304-0.552-2.454-2.226C30.523,42.601,31.881,42.639,32.162,43.918z M31.34,46.875
			c-0.076-0.164,0.014-0.404,0.028-0.609c0.182,0.08,0.435,0.111,0.532,0.252c0.27,0.389,0.461,0.83,0.712,1.234
			c0.095,0.153,0.261,0.267,0.405,0.387c0.154,0.13,0.319,0.244,0.598,0.457c-0.027-0.342-0.044-0.556-0.061-0.769
			c0.043-0.034,0.086-0.071,0.129-0.106c0.132,0.192,0.294,0.371,0.387,0.582c0.077,0.172,0.071,0.384,0.208,0.572
			c0.01-0.24,0.02-0.479,0.03-0.722c0.074-0.002,0.148-0.006,0.221-0.01c0,0.414,0.038,0.834-0.022,1.24
			c-0.021,0.141-0.382,0.377-0.424,0.348c-0.625-0.461-0.811,0.211-1.124,0.455C32.401,49.058,31.853,47.974,31.34,46.875z
			 M32.337,54.829c-1.094,0.193-1.392-0.188-1.412-1.774C31.441,53.702,31.849,54.215,32.337,54.829z M33.858,44.374
			c0.758,0.531,1.493,0.884,1.441,1.869C34.9,45.616,33.733,45.588,33.858,44.374z M35.373,46.48
			c0.007,1.132,0.013,2.029,0.019,3.078C34.845,48.644,34.773,47.156,35.373,46.48z M33.941,52.769
			c0.273,0.102,0.684,0.127,0.791,0.32c0.26,0.467,0.378,1.014,0.546,1.506c-0.491,0.031-0.892,0.059-1.31,0.084
			c-0.088-0.402-0.216-0.791-0.239-1.186C33.715,53.259,33.865,53.011,33.941,52.769z M35.093,52.401
			c1.323,0.389,1.323,0.389,1.508,1.576C36.078,53.431,35.672,53.008,35.093,52.401z M31.276,21.817
			c-0.092,0.025-0.183,0.049-0.275,0.074c-0.138-0.515-0.275-1.031-0.425-1.594c0.31-0.107,0.547-0.19,0.848-0.294
			C31.371,20.653,31.323,21.235,31.276,21.817z M31.743,26.239c-1.016-0.908-0.96-1.829-0.578-2.813
			C31.342,24.289,31.52,25.152,31.743,26.239z M30.021,31.884c0.101-0.039,0.202-0.079,0.303-0.119
			c0.222,0.548,0.444,1.097,0.666,1.645c-0.114,0.045-0.229,0.09-0.343,0.135C30.438,32.992,30.23,32.438,30.021,31.884z
			 M37.434,29.007c0.024-0.828,0.047-1.656,0.071-2.485c0.112,0.821,0.223,1.642,0.335,2.463C37.704,28.992,37.569,29,37.434,29.007
			z M46.169,31.134c-0.089,0.222-0.177,0.441-0.176,0.437c-0.486,0.076-0.84,0.187-1.187,0.169c-0.318-0.017-0.648-0.139-0.93-0.292
			c-0.089-0.048-0.042-0.347-0.068-0.662c0.33,0.221,0.507,0.341,0.719,0.483c0.299-0.326,0.58-0.63,0.788-0.857
			c0.939,0.279,1.836,0.546,2.73,0.812C47.679,31.847,47.679,31.847,46.169,31.134z M49.368,31.557
			c-0.426-0.084-0.812-0.11-0.836-0.745c-0.01-0.26-0.478-0.502-0.733-0.75c0.784-0.704,1.958-0.454,2.392,0.545
			c0.102,0.235,0.373,0.39,0.529,0.609c0.151,0.211,0.254,0.456,0.391,0.708C50.459,31.786,49.915,31.665,49.368,31.557z
			 M36.862,13.786c-0.139,0.086-0.232,0.153-0.333,0.202s-0.211,0.081-0.336,0.128c-0.218-0.354-0.425-0.691-0.636-1.035
			C36.305,12.826,36.305,12.826,36.862,13.786z M31.847,11.836c0.304,0.209,0.633,0.437,0.999,0.69
			c-0.108-0.237-0.196-0.432-0.312-0.687c0.343-0.058,0.642-0.164,0.934-0.147c1.178,0.069,2.193,2.081,2.451,3.477
			c0.303,0.054,0.611,0.109,0.997,0.178c-0.031-0.219-0.066-0.462-0.101-0.704c0.147,0.019,0.294,0.039,0.441,0.058
			c-0.002,0.574-0.003,1.149-0.005,1.723c0.056,0.009,0.112,0.018,0.168,0.026c0.057-0.188,0.115-0.376,0.193-0.632
			c0.16,0.391,0.294,0.717,0.428,1.044c0.067-0.016,0.135-0.032,0.202-0.047c0.042-0.296,0.085-0.592,0.129-0.904
			c0.382,0.361,0.732,0.699,1.092,1.027c0.083,0.076,0.209,0.177,0.298,0.162c1.068-0.185,1.601,0.426,1.981,1.277
			c0.785-0.606-0.119-0.958-0.275-1.392c-0.187-0.519-0.539-0.979-0.82-1.464c0.094-0.068,0.188-0.136,0.281-0.204
			c0.515,0.443,1.031,0.887,1.546,1.33c-0.049,0.067-0.098,0.134-0.146,0.201c-0.225-0.141-0.451-0.282-0.691-0.432
			c-0.063,0.955,0.643,1.777,1.877,2.049c-0.174-0.283-0.278-0.451-0.381-0.619c-0.109-0.178-0.219-0.355-0.328-0.533
			c0.062-0.045,0.123-0.089,0.185-0.134c0.256,0.368,0.513,0.737,0.814,1.17c-0.028-0.192-0.044-0.297-0.059-0.399
			c0.065-0.023,0.13-0.07,0.165-0.054c2.316,1.097,4.231,2.739,6.119,4.434c0.656,0.59,1.479,1.003,2.229,1.484
			c1.705,1.091,3.42,2.169,5.121,3.266c0.559,0.36,1.127,0.722,1.616,1.165c0.295,0.267,0.449,0.692,0.666,1.046
			c-0.058,0.052-0.112,0.104-0.17,0.156c-0.272-0.252-0.549-0.503-0.769-0.705c-0.403,0.018-0.782-0.029-1.123,0.065
			c-0.463,0.127-1.014,0.252-1.311,0.576c-0.43,0.469-0.648,1.114-0.197,1.761c0.215,0.308,0.433,0.616,0.615,0.942
			c0.436,0.771,1.053,0.482,1.816,0.177c-0.131,0.672-0.365,1.049-0.916,0.83c-1.004-0.397-1.771-1.119-2.524-1.962
			c0.337,0.701,0.671,1.403,1.063,2.224c-0.859-0.23-1.398-1.397-2.416-0.577c0.539,0.466,1.066,0.922,1.596,1.378
			c-0.029,0.071-0.059,0.141-0.086,0.212c-0.809-0.18-1.744-0.163-2.389-0.589c-0.836-0.553-1.359-1.5-1.387-2.533
			c0.291,0.05,0.59,0.063,0.862,0.157c0.308,0.107,0.589,0.286,1.022,0.505c-0.162-0.433-0.272-0.728-0.383-1.024
			c0.043-0.026,0.084-0.052,0.127-0.079c0.174,0.249,0.349,0.498,0.537,0.768c0.523-0.884,0.043-2.065-1.08-2.544
			c0.064,0.297,0.113,0.522,0.162,0.746c-0.025-0.01-0.082-0.014-0.102-0.042c-0.227-0.339-0.498-0.661-0.645-1.032
			c-0.072-0.184,0.045-0.495,0.178-0.679c0.049-0.069,0.397,0.02,0.572,0.11c0.338,0.175,0.649,0.402,1.063,0.665
			c0.062-0.346,0.095-0.531,0.146-0.817c0.391,0.727,0.5,1.617,1.592,1.667c-0.1-1.301-0.971-1.989-1.898-2.631
			c-0.562-0.388-1.281-0.504-1.668-1.209c-0.148-0.273-0.729-0.285-1.074-0.481c-0.566-0.319-1.104-0.691-1.719-1.081
			c-0.644,0.874-0.991-0.393-1.757-0.587c0.343,0.927,0.616,1.664,0.933,2.52c0.22-0.242,0.349-0.384,0.496-0.544
			c0.229,0.336,0.439,0.648,0.529,0.782c0.787,0.241,1.404,0.43,2.039,0.624c-0.189,0.443,0.73,0.987-0.006,1.364
			c-0.437,0.224-1.053,0.549-1.506-0.451c-0.101,0.518-0.14,0.72-0.181,0.934c-0.618-0.423-1.274-1.233-1.795,0.184
			c-0.109-0.234-0.207-0.445-0.305-0.655c-0.076-0.001-0.149-0.001-0.225-0.002c-0.123,0.554-0.246,1.108-0.369,1.662
			c-0.084,0.033-0.168,0.066-0.252,0.099c-0.197-0.395-0.327-0.848-0.608-1.171c-0.387-0.445-0.229-0.679,0-1.163
			c0.332-0.705,1.058-1.61-0.148-2.342c-0.197-0.12-0.141-0.657-0.384-1.001c-0.125,0.37-0.25,0.739-0.384,1.136
			c-0.753-0.591-1.469-1.152-2.349-1.842c0.085,0.437,0.149,0.768,0.216,1.111c-0.26-0.335-0.516-0.664-0.842-1.084
			c-0.045,0.26-0.065,0.382-0.093,0.539c-0.249-0.168-0.48-0.324-0.677-0.457c0.1,0.233,0.294,0.49,0.311,0.758
			c0.056,0.874,1.047,0.893,1.361,1.539c0.052,0.108,0.557,0.142,0.713,0.025c0.389-0.291,0.625-0.393,0.734,0.197
			c0.171-0.032,0.342-0.064,0.513-0.096c0.055,0.063,0.11,0.127,0.165,0.19c-0.241,0.248-0.482,0.495-0.724,0.743
			c-0.016-0.02-0.031-0.039-0.047-0.059c-0.354,0.471-0.693,0.955-1.081,1.397c-0.048,0.055-0.422-0.066-0.526-0.198
			c-0.115-0.148-0.094-0.403-0.32-0.63c-0.154,0.399-0.309,0.798-0.463,1.196c-0.104,0.008-0.208,0.016-0.312,0.024
			c-0.128-0.574-0.257-1.147-0.397-1.771c-1.101,0.244-0.104,1.896-1.326,2.274c0.031-0.902,0.061-1.769,0.092-2.661
			c-0.547-0.188-0.547-0.188-0.865,0.677c-0.007-0.404-0.015-0.808-0.022-1.211c-0.526,0.144-0.518,0.144-0.542,1.655
			c-0.011,0.644-0.064,1.287-0.097,1.931c-0.101,0.003-0.201,0.007-0.302,0.01c-0.078-1.196-0.156-2.391-0.239-3.652
			c-0.207,0.018-0.413,0.036-0.619,0.055c-0.329-0.535-0.336-0.531-1.152,0.228c-0.049-0.665-0.092-1.254-0.139-1.895
			c-0.708,0.262-0.007,1.483-1.056,1.414c-0.277-1.085,0.34-2.407-0.991-3.268c0.088,0.728,0.17,1.411,0.256,2.123
			c-0.305-0.018-0.524-0.031-0.75-0.045c-0.153-2.372-0.306-4.734-0.463-7.159c-0.257,0.868-0.49,1.655-0.723,2.443
			c-0.088-0.002-0.176-0.005-0.264-0.007c-0.239-0.886-0.478-1.772-0.717-2.658c0.079-0.048,0.157-0.097,0.236-0.145
			c0.197,0.206,0.394,0.412,0.591,0.618c0.061-0.032,0.122-0.064,0.183-0.096c-0.442-0.796-0.884-1.592-1.384-2.492
			c0.651-0.106,1.127-0.183,1.624-0.264c0.209-0.669,0.418-1.339,0.647-2.075c-0.819-0.154-1.651-0.311-2.663-0.502
			C31.212,12.226,31.525,12.034,31.847,11.836z M25.514,22.184c0.107-0.917,0.561-1.792,1.052-2.705
			c0.124,1.805,0.621,3.43,1.706,4.898c0.041-0.151,0.081-0.298,0.129-0.475c0.206,0.222,0.402,0.432,0.597,0.643
			c0.058-0.033,0.116-0.067,0.174-0.1c-0.081-0.218-0.144-0.444-0.245-0.653c-0.403-0.835-0.803-1.672-1.232-2.494
			c-0.459-0.881-0.15-1.679,0.183-2.453c0.369,0.779,0.744,1.569,1.118,2.359c0.093-0.02,0.186-0.039,0.279-0.059
			c0.029-0.164,0.128-0.358,0.074-0.488c-0.297-0.722-0.658-1.419-0.939-2.147c-0.129-0.333-0.125-0.717,0.023-1.118
			c0.354,0.725,0.708,1.45,1.063,2.175c0.101-0.039,0.201-0.079,0.302-0.118c-0.553-1.578-1.817-3.153-0.141-4.754
			c1.416,0.531,1.488,0.668,0.678,1.34c-0.041-0.257-0.078-0.491-0.117-0.739c-1.155,1.256,0.204,2.071,0.623,3.273
			c-0.399-0.238-0.587-0.35-0.896-0.535c0.869,2.045-0.219,3.806-0.489,5.656c-0.004,0.028-0.002,0.061,0.009,0.086
			c0.521,1.124-0.489,2.149-0.215,3.26c0.024,0.099,0.003,0.279-0.06,0.318c-0.958,0.584-0.582,1.413-0.391,2.183
			c0.321,1.292,0.683,2.573,1.029,3.858c-0.09,0.034-0.18,0.069-0.27,0.103c-0.207-0.475-0.335-1.014-0.647-1.406
			c-0.246-0.309-0.852-0.345-1.071-0.66C25.905,28.652,25.123,25.541,25.514,22.184z M20.201,71.047
			c-0.006,0.034-0.011,0.063-0.017,0.092c-0.008,0.021-0.015,0.041-0.021,0.06c-0.096,0.492-0.276,0.41-1.11,0.553
			c-0.004,0.001-0.042,0.003-0.042,0.003s0,0,0-0.002c0,0,0.037,0,0.041-0.002c0.386-0.142,0.931-0.062,1.1-0.552
			c0.009-0.049,0.029-0.094,0.038-0.151c0.041-0.271,0.086-0.543,0.128-0.815c0.023-0.185,0.051-0.367,0.075-0.55
			c0.001-0.006,0.003-0.012,0.004-0.017c-0.135-0.024-0.269-0.049-0.404-0.073c0-0.002,0.001-0.002,0.001-0.004
			c0.007,0,0.003,0.002,0.01,0.004c0-0.002-0.005-0.002-0.004-0.004c0.142,0.024,0.27,0.051,0.412,0.077
			c-0.025,0.189-0.058,0.378-0.086,0.566c-0.034,0.271-0.066,0.543-0.108,0.814c0.041-0.271,0.073-0.543,0.107-0.814
			C20.282,70.504,20.242,70.774,20.201,71.047z M19.011,71.323c0-0.004,0-0.01,0-0.016c0-0.037,0.099-0.076,0.119-0.109
			c0.058-0.1,0.298-0.09,0.389-0.112c0.146-0.486,0.299-0.99,0.451-1.494c0.123,0.022,0.187,0.049,0.32,0.071
			c-0.06,0.461-0.196,0.923-0.266,1.382c-0.012,0.079-0.027,0.147-0.045,0.207c-0.007,0.021-0.015,0.038-0.023,0.057
			c-0.013,0.033-0.026,0.065-0.041,0.093c-0.011,0.02-0.024,0.035-0.036,0.051c-0.016,0.02-0.033,0.039-0.052,0.055
			c-0.015,0.014-0.032,0.025-0.049,0.037c-0.022,0.014-0.046,0.023-0.071,0.035c-0.019,0.008-0.037,0.016-0.059,0.023
			c-0.034,0.01-0.073,0.02-0.113,0.026c-0.017,0.004-0.031,0.008-0.048,0.012c-0.071,0.013-0.26,0.024-0.351,0.037
			C19.136,71.558,19.011,71.431,19.011,71.323z M20.245,63.217c-0.01,0.981-0.02,1.963-0.03,3.028
			C19.666,65.97,19.71,64.674,20.245,63.217z M14.98,68.655c0.087,0.447,0.175,0.896,0.272,1.392
			C14.158,69.892,14.139,69.815,14.98,68.655z M14.748,61.524c0.025-0.899,0.051-1.801,0.076-2.699
			C15.584,59.743,15.353,60.634,14.748,61.524z M16.043,73.698c-0.231,0.467-0.498,0.916-0.751,1.371
			c-0.096-0.045-0.192-0.09-0.288-0.135c0.182-0.494,0.342-0.998,0.562-1.477c0.051-0.111,0.304-0.129,0.464-0.189
			C16.037,73.413,16.099,73.586,16.043,73.698z M16.074,67.717c-0.018,0.03-0.49-0.082-0.524-0.194
			c-0.088-0.293-0.124-0.646-0.046-0.938c0.268-1,0.593-1.984,0.992-2.972c-0.422,1.103,1.005,2.189-0.365,3.297
			c0.137,0.047,0.274,0.097,0.411,0.146c0.365-0.25,0.73-0.5,1.179-0.808c0.039,0.021,0.232,0.127,0.499,0.275
			c0.325-0.697,0.634-1.359,0.983-2.109c0.547,0.779-0.718,1.777,0.455,2.484c-0.477,0.121-0.954,0.24-1.524,0.387
			c0.125,0.256,0.223,0.459,0.354,0.728c-0.437-0.166-0.826-0.278-1.182-0.457C16.845,67.319,16.425,67.099,16.074,67.717z
			 M16.684,80.04c0.124-0.77,0.226-1.403,0.332-2.061C17.79,78.381,17.735,78.731,16.684,80.04z M11.275,89.399
			c-0.364,0.025-0.728,0.049-1.092,0.074c0.057-0.322,0.115-0.645,0.213-1.197c0.466,0.439,0.701,0.662,0.936,0.883
			C11.313,89.239,11.294,89.319,11.275,89.399z M11.033,87.504c0.11-0.166,0.379-0.228,0.575-0.336
			c0.04,0.405,0.08,0.813,0.137,1.391C11.073,88.241,10.68,88.036,11.033,87.504z M13.918,83.72
			c-0.359-0.021-0.72-0.043-1.302-0.076c0.352-0.938,0.678-1.801,1.021-2.711C14.506,81.728,14.546,82.282,13.918,83.72z
			 M15.115,88.002c-0.276-0.156-0.494-0.277-0.757-0.425c0.108-0.291,0.203-0.549,0.297-0.803
			C15.578,87.054,15.628,87.175,15.115,88.002z M15.482,83.616c-0.909-0.352-0.905-0.44-0.148-2.037
			c-0.207,0.021-0.386,0.037-0.627,0.062c0.29-0.987,0.568-1.937,0.857-2.92c0.493,0.072,0.809,0.166,0.692,0.746
			C15.981,80.829,15.743,82.2,15.482,83.616z M17.217,88.987c-0.088,0.109-0.398,0.176-0.495,0.105
			c-0.113-0.082-0.201-0.416-0.132-0.496c0.269-0.311,0.604-0.562,0.914-0.838c0.092,0.1,0.185,0.197,0.277,0.297
			C17.598,88.372,17.443,88.709,17.217,88.987z M17.866,82.313c-0.19,0.541-0.7,0.938-0.738,1.588
			c-0.006,0.096-0.514,0.164-0.79,0.246c-0.047-0.26-0.149-0.521-0.131-0.775c0.062-0.858,0.575-1.448,1.469-1.991
			C17.751,81.702,17.956,82.06,17.866,82.313z M18.638,68.474c0.682,0.084,0.78,0.357,0.466,0.891
			c-0.216,0.365-0.34,0.785-0.505,1.179C17.765,69.985,17.765,69.985,18.638,68.474z M18.534,88.097
			c0.219-0.221,0.504-0.51,0.789-0.799c0.063,0.504,0.126,1.008,0.199,1.598C19.101,88.554,18.882,88.379,18.534,88.097z
			 M18.887,73.071c-0.001,0.002-0.001,0.002-0.002,0.002c-0.026,0.033-0.367-0.106-0.366-0.16c0.008-0.312,0.064-0.631,0.156-0.928
			c0.023-0.076,0.155-0.119,0.27-0.166c-0.002-0.002,0.001-0.002,0-0.002c0.002,0,0.004,0,0.006,0.002
			c0.193,0.072,0.426,0.146,0.599,0.219C19.318,72.386,19.144,72.743,18.887,73.071z M20.22,73.776
			c-0.078-0.021-0.157-0.043-0.235-0.063c0.258-0.858,0.516-1.718,0.774-2.576c0.099,0.024,0.198,0.054,0.298,0.08
			C20.778,72.069,20.499,72.924,20.22,73.776z M21.423,72.72c0.053-0.725,0.1-1.363,0.152-2.061
			C22.179,71.444,22.143,72.138,21.423,72.72z M27.069,70.694c0.056,0.012,0.138,0.023,0.228,0.035
			c0.106,0.014,0.205,0.027,0.212,0.043c0,0,0.007,0.002,0.009,0.002c0.012,0.086,0.024,0.172,0.035,0.258
			c-0.113,0.031-0.226,0.062-0.34,0.095C27.165,70.981,27.117,70.838,27.069,70.694z M28.87,75.655
			c-0.514-1.092-1.028-2.186-1.542-3.278c0.094-0.044,0.189-0.089,0.283-0.134c0.549,1.072,1.098,2.146,1.647,3.22
			C29.129,75.528,29,75.592,28.87,75.655z M33.2,78.394c-0.042,0.008-0.085-0.031-0.127-0.031h-0.001h-0.059
			c-0.037-0.037-0.08-0.061-0.118-0.094c0.039,0.035,0.078,0.068,0.116,0.107c0,0.035,0,0.357,0,0.357v0.047c0,0,0,0.004,0,0.008
			c0,0.002,0,0.004,0,0.006c0,0.006,0,0.012,0,0.012v0.014v0.006c-1-0.428-1.191-0.854-1.569-1.119
			c-0.731-0.149-1.204-0.247-1.711-0.352c0.853-0.98,0.2-1.889-0.158-2.787c-0.177-0.445-0.361-0.885-0.548-1.324
			c-0.392-0.75-0.837-1.508-1.2-2.262c-0.009-0.021,0.013-0.041,0.042-0.062c0,0,0,0,0.001,0c-0.028,0.02-0.05,0.041-0.041,0.061
			c0.362,0.756,0.81,1.514,1.201,2.262c0.001,0.002,0.002,0.004,0.003,0.006c0.033,0.064,0.07,0.127,0.102,0.191
			c0.307,0.602,0.891,1.146,1.018,1.777c0.293,1.461,1.258,2.252,2.484,2.859c0.047,0.022,0.09,0.059,0.134,0.09
			c-0.036-0.025-0.065-0.062-0.104-0.084c0.218,0.105,0.389,0.105,0.578,0.275C33.228,78.381,33.214,78.39,33.2,78.394z
			 M33.963,76.806c-0.001-0.033,0.012-0.07,0.026-0.109c0.006,0.037,0.013,0.074,0.015,0.107h0.001
			C33.995,76.804,33.964,76.806,33.963,76.806z M34.011,76.806c0,0,0,0,0-0.002c0,0,0,0,0.001,0s0.001,0.002,0.002,0.002H34.011z
			 M34.015,76.806c0-0.006,0.003-0.01,0.003-0.018c0,0.006,0.001,0.012,0.002,0.016C34.019,76.804,34.016,76.804,34.015,76.806z
			 M35.18,76.097c0.481-0.59-0.559-1.508,0.584-1.855h0.002c-1.142,0.349-0.105,1.263-0.581,1.853
			C35.183,76.095,35.182,76.097,35.18,76.097z M36.655,76.172c0,0,0,0,0-0.002c0.031-0.211,0.057-0.42,0.083-0.627
			C36.712,75.752,36.686,75.961,36.655,76.172z M36.803,75.103L36.803,75.103c0.002-0.017,0.005-0.029,0.008-0.043
			C36.808,75.073,36.805,75.089,36.803,75.103z M38.446,79.088c-0.003-0.007-0.007-0.011-0.01-0.017
			c-0.01-0.018-0.013-0.035-0.018-0.053c0.001,0,0.002,0.002,0.002,0.004c0.005,0.016,0.008,0.031,0.017,0.049
			c0.003,0.006,0.008,0.01,0.012,0.017c0.006,0.01,0.018,0.021,0.024,0.03c0.015,0.025,0.033,0.047,0.05,0.072
			C38.498,79.157,38.466,79.122,38.446,79.088z M38.605,79.301c0.014,0.017,0.028,0.033,0.042,0.052
			c0.06,0.067,0.117,0.139,0.171,0.209c-0.012-0.014-0.024-0.027-0.036-0.039C38.725,79.446,38.667,79.372,38.605,79.301z
			 M38.89,79.646c0,0-0.001-0.002-0.002-0.004c0-0.002,0.001-0.002,0.002-0.004c0.001,0.002,0.003,0.006,0.005,0.008
			C38.893,79.646,38.89,79.646,38.89,79.646z M38.896,79.644c0-0.002,0.001-0.004,0.002-0.006c0.002,0,0.006,0,0.011,0.002
			C38.906,79.64,38.902,79.642,38.896,79.644z M38.95,79.642c0,0-0.005,0-0.007-0.002C38.946,79.64,38.951,79.64,38.95,79.642
			C38.952,79.642,38.95,79.642,38.95,79.642z M39.011,79.633c0,0.002,0,0.002,0,0.002c0,0.002-0.035,0.004-0.05,0.009
			c0.009-0.007,0.05-0.011,0.05-0.015v0.002c0,0.002,0.004,0.004,0.003,0.006C39.013,79.634,39.011,79.634,39.011,79.633z
			 M40.015,80.92c-0.63-0.481-0.63-0.481-0.106-1.793c0.101,0.004,0.201,0.008,0.302,0.014C40.15,79.69,40.09,80.239,40.015,80.92z
			 M40.609,81.963c-0.384-1.058,0.071-1.748,0.668-2.494C41.766,80.506,40.978,81.106,40.609,81.963z M48.79,76.536
			c0.771-0.758,1.369-1.346,2.027-1.996C50.831,75.655,50.029,76.526,48.79,76.536z M51.512,74.478
			c0.701-0.789,1.287-1.447,2.022-2.271C53.336,73.597,52.512,74.599,51.512,74.478z M56.064,71.592
			c-0.055-0.996,0.561-1.427,1.268-1.81C57.777,70.668,57.708,70.767,56.064,71.592z M68.534,65.677
			c-0.524-0.189-0.524-0.189-0.33-2.023c0.408,0.279,0.722,0.494,1.035,0.709C68.018,64.249,68.402,65.067,68.534,65.677z
			 M64.689,63.088c0.352-0.125,0.65-0.404,1.004-0.522c0.869-0.295,1.74-0.666,2.639-0.769c0.924-0.106,1.23,0.664,1.449,1.69
			c-0.652-0.35-1.152-0.617-1.674-0.896c-0.199,1.197-0.926,1.662-2.148,1.797c-0.611,0.066-1.771,0.156-1.471,1.463
			c0.029,0.133-0.398,0.422-0.658,0.561c-0.461,0.25-0.959,0.437-1.438,0.658c-0.437,0.205-0.863,0.424-1.519,0.746
			c0.232-0.272,0.3-0.352,0.365-0.43c-0.024-0.057-0.049-0.109-0.074-0.164c-0.896,0.441-1.78,0.904-2.692,1.312
			c-0.31,0.141-0.691,0.106-1.014,0.227c-0.308,0.115-0.604,0.297-0.859,0.504c-1.129,0.924-2.24,1.867-3.359,2.803
			c-0.051-0.053-0.1-0.102-0.148-0.152c0.148-0.168,0.299-0.336,0.523-0.588c-0.188,0.004-0.297-0.024-0.371,0.015
			c-1.635,0.856-2.967,2.024-3.873,3.668c-0.523,0.951-1.133,1.854-1.758,2.761c0.199-1.396,0.91-2.578,1.602-3.732
			c-0.581,0.035-0.973,0.546-1.678,2.143c-0.399,0.906-0.865,1.785-1.301,2.678c-0.101-0.041-0.201-0.082-0.302-0.123
			c0.428-1.062,0.855-2.125,1.363-3.387c-0.083,0.078-0.167,0.146-0.247,0.213c-0.24,0.195-0.45,0.35-0.551,0.555
			c-0.429,0.883-0.623,1.933-1.217,2.664c-0.556,0.687-0.897,1.756-2.166,1.863c0.339-1.021,0.659-1.984,0.98-2.947
			c-0.043-0.028-0.087-0.057-0.13-0.086c-0.419,0.719-0.839,1.437-1.292,2.215c-0.185-0.25-0.245-0.475-0.218-0.692
			c0.001-0.009,0.005-0.015,0.006-0.021c0.054-0.356,0.337-0.699,0.701-1.108l0.001-0.002c0.001-0.001,0.002-0.003,0.004-0.005
			c-0.001,0-0.001,0.002-0.002,0.002c-0.404,0.188-0.56,0.261-0.791,0.367c-0.07-0.215-0.137-0.422-0.203-0.629
			c-0.059-0.002-0.118-0.004-0.177-0.008c-0.088,0.297-0.175,0.594-0.306,1.039c-0.073-0.387-0.119-0.627-0.164-0.865
			c-0.032-0.008-0.065,0.033-0.097,0.078c-0.036-0.014-0.073-0.027-0.109-0.035c-0.16,0.439-0.317,0.416-0.473,1.416
			c-0.077,0-0.154,0-0.232,0c-0.012-0.141-0.034-0.266-0.061-0.383c-0.014-0.131-0.027-0.25-0.041-0.365
			c0.013,0.086,0.027,0.185,0.04,0.312c0.027,0.117,0.049,0.27,0.061,0.41c-0.079-0.928-0.157-1.268-0.243-1.854
			c0.003,0.037,0.006,0.073,0.009,0.106c-0.006-0.041-0.011-0.08-0.017-0.123c0,0,0,0-0.001,0c-0.004,0.004-0.008,0.006-0.012,0.013
			c-0.001-0.005-0.001-0.009-0.002-0.013c-0.052,0.063-0.133,0.114-0.181,0.168c-0.028,0.026-0.079,0.052-0.116,0.074
			c0.002-0.003,0.002-0.003,0.004-0.005l0,0c-0.02,0.014-0.043,0.025-0.043,0.037c0-0.01,0.02-0.021,0.038-0.03
			c-0.047,0.055-0.096,0.112-0.145,0.17c-0.001,0.002-0.003,0.004-0.004,0.006c-0.018,0.021-0.037,0.043-0.055,0.063
			c-0.089,0.105-0.183,0.218-0.296,0.354c-0.001-0.01-0.002,0.015-0.003,0.004c-0.001,0-0.002,0.003-0.002,0.005
			c-0.008,0.012-0.014,0.028-0.022,0.039c-0.077-0.787-0.133-1.398-0.188-1.964c-0.003-0.002-0.016-0.004-0.022-0.004
			c-0.005-0.002-0.029-0.002-0.051-0.004c0.001-0.002,0-0.004,0.001-0.006c0.002-0.005,0.001-0.011,0.003-0.017
			c-0.002,0-0.004-0.002-0.006-0.002c-0.002,0.006-0.001,0.012-0.003,0.018c-0.001,0.003,0,0.005-0.001,0.007
			c-0.034-0.002-0.07-0.004-0.083-0.004c-0.048,0.131-0.161,0.261-0.161,0.392c0-0.008,0.003-0.014,0.004-0.021
			c0,0.006-0.006,0.01-0.006,0.012c0-0.004,0.002-0.008,0.002-0.014v0.002c0-0.119,0.112-0.246,0.153-0.375
			c-0.003,0-0.001,0-0.004-0.002c0.002-0.006,0.006-0.01,0.008-0.016c-0.029-0.019-0.014-0.037-0.043-0.048
			c-0.07,0.158-0.267,0.308-0.259,0.46c0.051,0.662,0.145,1.319,0.145,1.98c0,0.002,0,0.005,0,0.005s0,0.002,0,0.004
			c0,0.254-0.052,0.513-0.157,0.771c0.127-0.261,0.302-0.519,0.296-0.773c-0.014-0.465-0.066-0.926-0.102-1.389
			c0.05,0.463,0.134,0.924,0.147,1.389c0.003,0.105-0.03,0.213-0.074,0.32c-0.002,0.004-0.004,0.011-0.006,0.016
			c-0.061,0.146-0.078,0.293-0.15,0.438c-0.013,0.029,0.046,0.063,0.046,0.096c0,0,0,0.002,0,0.003c0-0.003-0.072-0.007-0.074-0.009
			c-0.001-0.002-0.035-0.002-0.035-0.002c-0.056-0.076-0.138-0.149-0.204-0.225c-0.072-0.082-0.144-0.166-0.201-0.248
			c-0.012-0.018-0.024-0.035-0.035-0.053c-0.038-0.062-0.068-0.125-0.079-0.189c-0.001-0.008-0.007-0.018-0.008-0.025
			c-0.102-1.188-0.123-2.387-0.176-3.688c-0.001,0.002-0.001,0.002-0.002,0.004c0.053,1.299,0.071,2.496,0.173,3.686
			c0.002,0.025,0.014,0.049,0.024,0.072c0.001,0.004,0.002,0.008,0.004,0.014c-0.011-0.029-0.026-0.057-0.028-0.086
			c-0.102-1.188-0.172-2.387-0.225-3.686c-0.034,0.053-0.134,0.11-0.134,0.164v0.002c0,0.51-0.183,1.045-0.18,1.586
			c0.003,0.447,0.18,0.898,0.18,1.34c0,0.002,0,0.006,0,0.008c0,0.037-0.013,0.06-0.032,0.072c0.018,0,0.032,0,0.032,0v0.185v0.092
			v0.045v0.022c0,0-0.119,0.011-0.123,0.011c-0.032-0.006-0.067-0.011-0.101-0.017c0.014-0.108,0.02-0.219,0.024-0.332
			c-0.005,0.111-0.012,0.224-0.025,0.332c-0.116-0.02-0.235-0.035-0.31-0.053c-0.015-0.004-0.068-0.004-0.082-0.008
			c-0.016-0.004-0.035-0.01-0.05-0.014c-0.066-0.02-0.129-0.041-0.173-0.064c-0.018-0.012-0.044-0.021-0.059-0.033
			c-0.048-0.039-0.086-0.084-0.104-0.147c-0.021-0.072-0.027-0.164-0.024-0.285c0.002-0.069,0.002-0.147,0.008-0.237
			s0.019-0.184,0.019-0.272c0-0.002,0-0.005,0-0.007c0-0.465-0.021-0.932,0.024-1.403c0.021-0.228-0.013-0.457-0.02-0.688
			c0,0.018-0.004,0.035-0.004,0.053c0,0.004,0,0.006,0,0.006c0,0.006-0.001,0.01-0.001,0.018c-0.003-0.516-0.017-1.035-0.008-1.57
			c-0.001-0.002,0.009,0,0.009,0.002c0-0.002,0-0.002,0-0.002c0-0.002,0.072-0.002,0.073-0.004c0.019-0.035,0.047-0.069,0.072-0.104
			c0,0.018-0.002,0.036-0.002,0.053c-0.003,0.018-0.005,0.033-0.007,0.051c0,0,0.001-0.002,0.002-0.002v0.002
			c-0.001,0.002-0.002,0.002-0.002,0.002c-0.061,0.482-0.136,0.957-0.136,1.424v0.003c0,0.022,0.003,0.047,0.004,0.069
			c0.005-0.49,0.074-0.987,0.135-1.496h0.001v-0.008H37.15c0.001-0.006,0.001-0.013,0.002-0.018c0,0.004-0.001,0.012-0.001,0.016
			c0.064-0.117,0.127-0.234,0.216-0.348h-0.018c-0.062,0.078-0.127,0.158-0.186,0.24c0.009-0.08,0.02-0.158,0.028-0.24
			c-0.008,0.082-0.02,0.162-0.03,0.242c-0.002,0.004-0.003,0.006-0.005,0.008c0.002-0.068,0.003-0.139,0.009-0.207
			c0.001-0.016,0.001-0.027,0.003-0.043c-0.671,0.854-0.33,1.875-0.806,2.91c-0.032,0.07-0.07,0.141-0.11,0.211
			c0.035,0.1,0.073,0.197,0.094,0.299c0.004,0.021,0.05-0.094,0.055-0.072c0.006-0.02,0.01,0.082,0.016,0.062
			c0.01,0.066,0.013,0.318,0.027,0.318h-0.085c0.002,0,0.004-0.17,0.003-0.186c-0.011,0.016-0.027-0.016-0.03-0.029
			c-0.021-0.102-0.052-0.125-0.087-0.225c-0.07,0.122-0.135,0.439-0.233,0.439h-0.001v-0.121c0,0,0-0.061,0.001-0.061l-0.001-0.061
			v-0.219v-0.537h0.154h0.072c0.003,0.025,0.002,0.049,0.005,0.076c-0.002-0.025-0.001-0.051-0.002-0.076h0.02h0.087h0.001h0.005
			c-0.005-0.002-0.342-0.01-0.342-0.01v-0.002c0-0.012,0.139-0.086,0.121-0.293c-0.023-0.191,0.048-0.365,0.033-0.543
			c-0.011-0.133,0.036-0.254,0.03-0.385c0.099-0.699,0.306-1.453,0.409-2.143c0.016-0.117,0.039-0.324,0.06-0.469
			c-0.056,0.098-0.203,0.196-0.24,0.295c-0.001,0.002-0.026,0.004-0.027,0.008c-0.008,0.018-0.037,0.037-0.053,0.055
			c-0.015,0.02-0.032,0.037-0.052,0.057c-0.046,0.043-0.099,0.086-0.148,0.129c-0.021,0.018-0.044,0.1-0.061,0.117
			c-0.01,0.012-0.018,0.037-0.026,0.061c0.019,0,0.036,0.002,0.036,0.004c-0.098,0.306-0.082,0.611-0.082,0.918
			c0,0.021,0,0.043,0,0.064c0,0.002,0,0.002,0,0.004c0,0-0.019,0.002-0.031,0.002c-0.018,0.002-0.027,0.004-0.05,0.004
			c-0.019,0.002-0.042,0.004-0.045,0.004c0.001,0.004,0.001,0.006,0.002,0.013c0.274,0.957,0.089,1.565-0.536,1.793
			c-0.001,0-0.002,0.002-0.003,0.002c-0.006,0.002-0.011,0.008-0.017,0.01c-0.012,0.005-0.019,0.013-0.03,0.017
			c0.011-0.019,0.021-0.035,0.031-0.053c0.004-0.002,0.007-0.004,0.011-0.007c0.328-0.577-0.557-1.399,0.43-1.75
			c0.021-0.008,0.031-0.019,0.054-0.024c-0.001-0.002-0.007-0.004-0.014-0.006c0.031-0.002,0.063-0.004,0.062-0.008
			c0.007-0.023,0.136-0.045,0.136-0.064c0-0.016,0-0.032,0-0.049c0,0.004-0.115,0.01-0.117,0.015c0-0.041-0.051-0.08-0.051-0.121
			c-0.002-0.181-0.027-0.356-0.019-0.535c0.001-0.026-0.001-0.055-0.004-0.082c0.014-0.034,0.028-0.069,0.032-0.104
			c0.042-0.438,0.159-0.873,0.159-1.314c0-0.002,0-0.006,0-0.008c0-0.23,0.006-0.463,0.001-0.695
			c-0.008,0.01-0.001,0.018-0.001,0.028v0.002c0,0.004-0.064,0.01-0.069,0.017c0.006,0.192-0.011,0.387-0.017,0.578
			c0.005-0.191-0.02-0.384-0.026-0.578c-0.072,0.084-0.129,0.17-0.19,0.258c0.06-0.086,0.104-0.176,0.175-0.258
			c0.005-0.007,0.053-0.013,0.057-0.019c0.008-0.011,0.069-0.021,0.069-0.028v-0.003v-0.003v-0.002c0-0.043,0-0.088,0-0.131v-0.002
			c0,0.004-0.048,0.006-0.05,0.01c-0.014,0.018-0.045,0.035-0.058,0.053c-0.261,0.336-0.471,0.689-0.601,1.066
			c-0.007,0.02-0.024,0.039-0.031,0.059c-0.004,0.014-0.008,0.027-0.012,0.039c-0.331,1.033-0.328,2.166-0.545,3.215
			c-0.002,0.012-0.006,0.025-0.009,0.039c-0.002,0.008-0.004,0.016-0.005,0.021s-0.002,0.01-0.003,0.016
			c-0.024,0.111-0.038,0.227-0.069,0.334c0.208-0.57,0.269-1.176,0.328-1.783c0.039-0.403,0.077-0.811,0.157-1.207
			c0.03-0.147,0.065-0.293,0.108-0.438c0.028-0.095,0.076-0.183,0.111-0.274c-0.091,0.233-0.163,0.471-0.212,0.713
			c-0.08,0.397-0.121,0.805-0.16,1.209c-0.059,0.606-0.122,1.213-0.33,1.783c-0.022,0.077-0.049,0.157-0.076,0.235
			c0.027-0.078,0.053-0.155,0.075-0.235c-0.001,0.004-0.008,0.006-0.01,0.01l-0.001,0.002c-0.035,0.074-0.186,0.15-0.211,0.225
			c-0.042,0.129-0.189,0.258-0.291,0.383c0,0,0,0.002,0.001,0.002c0.021,0.062,0.037,0.127,0.043,0.186
			c-0.025,0.007-0.113,0.013-0.137,0.019c0-0.006-0.002-0.014-0.002-0.021c0-0.002,0-0.002,0.001-0.004
			c0.008-0.057,0.041-0.117,0.021-0.18c-0.027-0.049-0.044-0.094-0.06-0.139c-0.005-0.072-0.002-0.137,0.032-0.174
			c-0.054,0.061,0.031,0.184,0.101,0.311c-0.041-0.127-0.086-0.25-0.032-0.311c0.384-0.43,0.344-0.686,0.056-1.281
			c-0.292-0.605-0.037-1.52,0.089-2.279c0.098-0.596,0.33-1.17,0.363-1.824c0.094-0.037,0.218-0.074,0.416-0.106
			c-0.011-0.007-0.207-0.015-0.203-0.021c-0.001,0.029-0.158,0.062-0.21,0.092c0,0.013-0.003,0.021-0.004,0.033
			c-0.003,0.002-0.006,0.002-0.008,0.004c-0.034,0.654-0.273,1.228-0.371,1.822c-0.126,0.762-0.399,1.674-0.107,2.279
			c0.288,0.596,0.293,0.854-0.091,1.281c-0.033,0.037-0.037,0.102-0.032,0.172c-0.002-0.006-0.005-0.012-0.007-0.016
			c-0.002-0.064,0.004-0.123,0.034-0.156c0.384-0.43,0.382-0.686,0.093-1.281c-0.292-0.605-0.018-1.52,0.108-2.279
			c0.088-0.529,0.279-1.207,0.345-1.809c0.002-0.002,0.003-0.004,0.005-0.006c-0.333,0.146-0.04,0.307-0.135,0.391
			c-0.042,0.036-0.304,0.057-0.344,0.057h-0.002c-0.001,0-0.067,0-0.067,0v0.103v0.054v0.024c0,0,0,0,0.001,0v0.014v0.07
			c0-0.024-0.096-0.08-0.16-0.104c0.197-0.486,0.411-0.988,0.628-1.522c-0.111-0.005-0.228-0.003-0.343,0.007
			c-0.382,0.033-0.746,0.182-0.844,0.66c-0.146,0.717-0.246,1.404-0.79,2.086c-0.046,0.057-0.088,0.113-0.14,0.172
			c-0.196-0.934,0.125-2.062,0.309-3.031c0.089-0.473,0.163-0.98,0.084-1.479c-0.001-0.008-0.001-0.018-0.003-0.025
			c-0.192,0.248-0.336,0.488-0.467,0.75c-0.393,0.781-0.5,1.609-0.339,2.51c0.086,0.48,0.109,0.978,0.248,1.439
			c-0.06,0.059-0.114,0.115-0.183,0.174v0.1h0.34c0.121,0.144,0.279,0.271,0.394,0.404c0.245,0.398,0.528,0.766,0.702,1.18
			c0.078,0.187-0.059,0.461-0.1,0.697c-0.222-0.043-0.509-0.014-0.65-0.143c-0.229-0.209-0.319-0.568-0.547-0.779
			c-0.19-0.176-0.493-0.229-0.746-0.338c-0.058,0.072-0.115,0.146-0.173,0.221c-0.003-0.006-0.005-0.012-0.008-0.016
			c0.001-0.002,0.002-0.004,0.003-0.006c-0.212-0.436-0.425-0.865-0.635-1.305c-0.027-0.056-0.043-0.127-0.063-0.191
			c-0.016-0.053-0.035-0.094-0.065-0.107c-0.002-0.002-0.003-0.01-0.005-0.01c-1.168-0.445-0.619-1.414-0.69-2.193
			c0-0.004-0.002-0.006-0.002-0.01c-0.029-0.311-0.091-0.613-0.138-0.92c-0.058,0.004-0.117,0.01-0.175,0.014
			c-0.001-0.006-0.004-0.012-0.005-0.018c-0.086,0.008-0.438,0.016-0.438,0.021c0,0,0,0.002,0,0.004
			c0-0.006,0.352-0.014,0.437-0.021c0.001,0.006-0.178,0.01-0.177,0.016c-0.026,0.002-0.26,0.004-0.26,0.006
			c0,0.408-0.024,0.824-0.119,1.341c-0.023,0.122,0.045,0.247,0.035,0.385c-0.126-0.379-0.568-0.642-0.996-0.793
			c-0.004-0.008,0.014-0.019,0.01-0.026c-0.008-0.021-0.013-0.039-0.018-0.058c0.008,0.017,0.017,0.032,0.025,0.049
			c-0.008-0.021-0.018-0.171-0.026-0.204c0.086-0.002,0.167-0.07,0.24-0.06c-0.06,0.004-0.12-0.14-0.182-0.14
			c-0.003,0-0.005,0-0.008,0c-0.016,0-0.032,0.152-0.05,0.158c-0.001,0-0.001,0.014-0.002,0.021
			c-0.001-0.02-0.003-0.105-0.006-0.152c0.002,0.012,0.004,0.02,0.006,0c0.013-1.139-0.206-2.127-0.523-3.191
			c-0.11,0.019-0.219,0.084-0.329,0.103c0.145,1.054,0.29,2.101,0.436,3.062c-0.001,0-0.002,0-0.003,0
			c-0.039,0-0.181,0.154-0.301,0.154c-0.05,0-0.111-0.033-0.15-0.055c0,0.029,0,0.056,0,0.056c-0.014,0-0.039-0.077-0.039-0.077
			v-0.078h0.001c0-1-0.654-1.883-0.994-2.901c-0.086,0.022-0.159,0.123-0.244,0.146c0.231,1.108,0.469,2.256,0.7,3.362
			c-0.001,0.001-0.001,0.002-0.001,0.003s0,0.002,0,0.003c-0.034,0.019-0.067,0.05-0.101,0.063
			c-0.431-1.235-0.863-2.461-1.294-3.694c-0.087,0.019-0.174,0.041-0.261,0.062c0.257,1.125,0.514,2.254,0.771,3.379
			c-0.116,0.035-0.232,0.07-0.348,0.104c-0.13-0.406-0.169-0.885-0.416-1.203c-0.237-0.305-0.688-0.445-1.118-0.701
			c-0.1,0.285-0.181,0.521-0.31,0.891c-0.166-0.271-0.423-0.493-0.4-0.682c0.177-1.453-1.034-2.238-1.76-3.059
			c-0.674-0.764-0.41-1.145-0.23-1.818c0.211-0.799,0.245-1.641,0.342-2.367c0.221-0.239,0.55-0.432,0.602-0.682
			c0.199-0.949,0.308-1.918,0.446-2.848c0.517,1.021,0.456,3.469-0.165,4.723c0.161-0.021,0.286-0.037,0.679-0.09
			c-0.504,1.055-0.946,1.979-1.352,2.828c1.676-1.453,2.434-1.195,3.261-7.938c0.39,0.889,0.781,1.776,1.184,2.694
			c0.142-0.108,0.261-0.198,0.445-0.338c0.324,1.444,0.635,2.832,0.982,4.379c0.54-1.888,0.385-4.457-0.322-7.205
			c0.967,1.949,1.413,4.024,1.404,6.211c0.079-0.002,0.157-0.004,0.236-0.006c0.002-2.013,0.003-4.022,0.005-6.11
			c0.725,1.123,1.27,2.227,1.147,3.285c0.421,0.684,0.725,1.178,1.034,1.682c0.055-1.635,0.11-3.291,0.165-4.943
			c0.027-0.01,0.053-0.02,0.08-0.027c0.153,0.998,0.305,1.996,0.458,2.994c0.587-1.727,0.09-3.369-0.327-5.224
			c0.346,0.261,0.513,0.388,0.676,0.509c-0.056-0.139-0.12-0.297-0.285-0.705c0.469,0.199,0.744,0.321,1.022,0.436
			c1.573,0.64,1.041,2.244,1.344,3.357c0.345,1.27-0.072,2.738-0.095,4.119c-0.009,0.52,0.158,1.043,0.338,1.535
			c0.077-3.094,0.632-6.174-0.181-9.213c0.517,0.572,1.034,1.145,1.551,1.717c0.073-0.066,0.147-0.137,0.22-0.203
			c-0.404-0.576-0.807-1.152-1.211-1.729c0.032-0.024,0.064-0.051,0.097-0.076c0.583,0.662,1.166,1.322,1.749,1.984
			c0.097-0.074,0.195-0.148,0.292-0.225c-0.395-0.535-0.791-1.07-1.332-1.807c0.702-0.053,1.231-0.092,1.849-0.139
			c0.188,0.305,0.416,0.676,0.645,1.049c0.197-0.121,0.393-0.242,0.613-0.377c0.163,0.19,0.34,0.397,0.621,0.727
			c0.006-0.455,0.01-0.746,0.017-1.197c0.964,0.893,1.818,1.682,2.625,2.428c-0.098-0.281-0.236-0.678-0.374-1.074
			c0.059-0.03,0.117-0.062,0.176-0.094c0.485,0.914,0.969,1.826,1.454,2.738c0.088-0.047,0.175-0.096,0.263-0.145
			c-0.46-1.094-0.92-2.187-1.38-3.279c0.089-0.049,0.179-0.098,0.268-0.145c0.381,0.711,0.77,1.416,1.141,2.133
			c0.384,0.74,0.749,1.49,1.123,2.238c0.093-0.041,0.187-0.082,0.28-0.121c-0.469-1.104-0.938-2.209-1.407-3.312
			c1.28,1.041,1.276,2.805,2.421,3.953c-0.098-0.393-0.195-0.783-0.302-1.215c1.368,0.49,1.201,1.906,1.746,2.846
			c0.188-0.281,0.367-0.549,0.547-0.816c0.162,0.494,0.314,0.988,0.467,1.48c0.1-0.027,0.199-0.055,0.299-0.082
			c0.056-1.404-0.942-2.586-1.11-3.941c0.121-0.037,0.243-0.074,0.364-0.111c0.511,1.474,1.077,2.931,1.504,4.427
			c0.156,0.551-0.162,1.241,0.004,1.787c0.219,0.719,0.705,1.354,1.07,2.028c0.166,0.305,0.315,0.615,0.473,0.924
			c-0.084,0.045-0.166,0.093-0.25,0.14c-0.449-0.545-0.898-1.09-1.35-1.634c-0.064,0.015-0.13,0.031-0.193,0.046
			c0.062,0.293,0.082,0.603,0.195,0.873c0.122,0.297,0.329,0.56,0.5,0.836c-0.099,0.065-0.195,0.131-0.293,0.196
			c-0.24-0.346-0.479-0.69-0.718-1.037c-0.058,0-0.116,0-0.173,0c0.104,0.439,0.07,1.011,0.34,1.285
			c0.631,0.644,0.209,1.189,0.041,1.783c-0.047,0.168-0.076,0.342-0.114,0.512c0.178,0.009,0.385,0.084,0.53,0.019
			c1-0.461,2.004-0.918,2.975-1.438c1.512-0.812,2.912-1.943,4.515-2.455C59.699,65.972,61.961,64.065,64.689,63.088z
			 M86.727,55.026c-0.195-0.25-0.346-0.438-0.596-0.754c-0.021,0.396-0.035,0.654-0.05,0.928c-0.266-0.188-0.5-0.362-0.752-0.504
			c-0.017-0.008-0.256,0.244-0.262,0.381c-0.019,0.412,0.028,0.828,0.049,1.242c-0.071,0.006-0.144,0.01-0.215,0.017
			c-0.041-0.574-0.08-1.147-0.123-1.772c-0.455,0.28-0.849,0.521-1.229,0.756c-0.556-0.65-1.16-0.705-1.9-0.285
			c-0.16,0.091-0.451,0.09-0.615,0.004c-0.84-0.438-1.615-1.002-2.65-0.934c-0.268,0.018-0.553-0.263-0.945-0.242
			c0.123,0.199,0.244,0.397,0.367,0.6c-0.035,0.049-0.071,0.098-0.108,0.146c-0.302-0.209-0.582-0.506-0.914-0.588
			c-0.185-0.046-0.457,0.27-0.64,0.538c-0.405,0.298-0.912-1.204-1.289-0.084c-0.569,0.185-1.014,0.365-1.479,0.459
			c-0.189,0.037-0.416-0.141-0.633-0.174c-0.777-0.114-1.547-0.701-2.324,0.196c-0.223,0.257-0.975,0.056-1.484,0.064
			c-0.028-0.039-0.057-0.076-0.084-0.115c-0.871,0.072-1.744,0.133-2.614,0.224c-0.226,0.022-0.447,0.12-0.66,0.211
			c-0.097,0.041-0.16,0.198-0.248,0.209c-1.428,0.147-1.647,1.2-1.772,2.332c-0.006,0.045-0.06,0.082-0.277,0.101
			c0.076-0.615,0.154-1.229,0.246-1.957c-0.17-0.107-0.477-0.304-0.783-0.498c-0.023-0.09-0.045-0.181-0.068-0.271
			c0.766-0.258,1.535-0.508,2.297-0.779c0.275-0.098,0.74-0.229,0.758-0.385c0.082-0.75,0.535-0.541,0.937-0.43
			c0.841,0.234,1.597,0.207,2.394-0.269c0.514-0.305,1.227-0.519,1.801-0.437c2.33,0.332,4.607-0.137,6.908-0.256
			c1.869-0.098,3.754,0.074,5.631,0.133c0.605,0.02,1.209,0.066,1.814,0.078C86.459,52.933,87.018,53.651,86.727,55.026z
			 M92.197,61.864c-0.74-0.789-0.68-1.174,0.416-1.557c0.195,0.361,0.363,0.678,0.525,0.979
			C92.777,61.508,92.499,61.679,92.197,61.864z"/>
		<path d="M38.011,78.29c0,0.025-0.199,0.05-0.2,0.072C37.813,78.34,38.011,78.315,38.011,78.29z"/>
		<path d="M36.703,72.491c0.007-0.071,0.014-0.129,0.019-0.129c-0.009,0-0.028,0-0.028,0c-0.007,0-0.019,0.07-0.031,0.158
			c0.004-0.008,0.016-0.015,0.019-0.021C36.683,72.497,36.699,72.495,36.703,72.491z"/>
		<path d="M33.884,71.493c0.198-0.487,0.394-0.973,0.612-1.51C34.279,70.519,34.081,71.006,33.884,71.493z"/>
		<path d="M32.745,69.84c-0.183,0.965-0.447,1.924-0.242,2.912C32.299,71.763,32.563,70.804,32.745,69.84z"/>
		<path d="M34.011,71.543L34.011,71.543c-0.042-0.017-0.084-0.033-0.127-0.05C33.926,71.509,33.969,71.526,34.011,71.543z"/>
		<path d="M26.47,70.974c0.001-0.001,0.002-0.002,0.002-0.003c-0.229-1.097-0.458-2.192-0.688-3.288
			C26.014,68.78,26.241,69.877,26.47,70.974z"/>
		<path d="M27.012,70.362v0.078c0,0,0.023,0.014,0.038,0.021c0-0.045,0-0.1,0.001-0.1C27.036,70.362,27.013,70.362,27.012,70.362z"
			/>
		<path d="M34.572,70.884c0,0.004-0.001,0.01-0.002,0.014c-0.004,0.006-0.008,0.012-0.012,0.016
			c0.006-0.002,0.016-0.006,0.023-0.008c0-0.008,0.003-0.018,0.003-0.026l0.006-0.009l-0.005,0.004
			C34.582,70.877,34.572,70.881,34.572,70.884z"/>
		<path d="M36.011,73.245c0-0.004,0,0.117,0,0.117h0.004c0.003,0,0.019-0.065,0.041-0.121c-0.018-0.002-0.037-0.004-0.041-0.004
			C36.015,73.239,36.011,73.243,36.011,73.245z"/>
		<polygon points="35.011,70.795 35.007,70.797 35.011,70.797 		"/>
		<polygon points="34.594,70.866 34.595,70.864 34.59,70.87 		"/>
		<path d="M27.047,67.343c0.007,0,0.013-0.002,0.02-0.004c-0.006-0.041-0.011-0.08-0.017-0.121
			C27.049,67.211,27.048,67.353,27.047,67.343z"/>
		<path d="M9.325,65.44c0.008,0.055,0.018,0.117,0.033,0.111C9.348,65.511,9.335,65.479,9.325,65.44z"/>
		<path d="M11.045,64.569c0.008,0.008,0.018,0.019,0.015,0.029c0.043,0.014,0.118,0.08,0.16,0.121l-0.085-0.152h0.014
			c-0.005-0.002,0.059-0.004,0.054-0.004l0.542-1.576c-0.189,0.484-0.391,0.92-0.543,1.422c-0.014,0.056-0.029-0.02-0.044,0.013
			c0.043,0.015-0.053-0.06-0.009-0.06h-0.138c0,0,0,0.199,0,0.205h0.002c0.002-0.006,0.013-0.014,0.02-0.02
			C11.038,64.554,11.038,64.56,11.045,64.569l-0.032-0.002c0,0.002-0.002,0.002-0.002,0.002S11.031,64.569,11.045,64.569z
			 M11.065,64.567c-0.01,0-0.012,0.002-0.019,0.002v-0.002H11.065z"/>
		<path d="M40.341,77.427c0,0-0.002-0.004-0.003-0.004c0.003-0.006,0.01-0.035,0.014-0.051c-0.001-0.01-0.001-0.02-0.003-0.031
			c-0.015,0.02-0.028,0.049-0.043,0.066c-0.085,0.102-0.164,0.195-0.243,0.287c-0.003,0.004-0.006,0.008-0.008,0.012
			c0.037-0.022,0.084-0.045,0.111-0.07c0.048-0.055,0.113-0.105,0.165-0.17C40.332,77.47,40.341,77.424,40.341,77.427z"/>
		<path d="M11.929,62.478c-0.005,0.004-0.01,0.014-0.014,0.018l-0.169,0.492C11.809,62.825,11.87,62.655,11.929,62.478z"/>
		<polygon points="37.147,73.991 37.147,73.989 37.146,73.991 		"/>
		<path d="M9.308,65.362c-0.001,0-0.002,0.01-0.002,0.015c0.006,0.022,0.013,0.043,0.019,0.063
			C9.319,65.399,9.314,65.362,9.308,65.362L9.308,65.362z"/>
		<path d="M40.359,77.362h-0.002c-0.001,0-0.002,0.008-0.003,0.013c0.005,0.038,0.011,0.073,0.016,0.108
			C40.367,77.442,40.364,77.409,40.359,77.362C40.361,77.362,40.36,77.362,40.359,77.362z"/>
		<path d="M31.335,74.424c-0.036,0.049-0.073,0.112-0.108,0.16c0.002,0.004,0.003,0.008,0.005,0.01
			C31.267,74.549,31.301,74.476,31.335,74.424z"/>
		<polygon points="31.394,74.368 31.402,74.362 31.399,74.362 		"/>
		<path d="M0.104,87.011v-0.229c-0.031,0.121-0.062,0.242-0.093,0.361C0.007,87.157,0.004,87.171,0,87.185
			c0.004-0.006,0.007-0.011,0.011-0.017C0.042,87.114,0.073,87.063,0.104,87.011z"/>
		<path d="M35.924,71.048c-0.002-0.039,0.003-0.075,0.001-0.114c-0.002,0.003-0.003,0.003-0.004,0.005
			C35.923,70.974,35.922,71.01,35.924,71.048L35.924,71.048c0,0.027-0.003,0.055-0.002,0.081c0.02-0.024,0.038-0.05,0.055-0.074
			c0.026-0.039,0.05-0.077,0.084-0.114c0.001,0.018-0.033,0.034-0.066,0.053C35.96,71.009,35.925,71.028,35.924,71.048z"/>
		<path d="M9.63,65.313c0.007-0.006,0.011-0.01,0.018-0.014c0.001-0.029-0.001-0.055-0.001-0.08
			C9.641,65.252,9.631,65.278,9.63,65.313z"/>
		<path d="M37.992,55.944c-0.003,0.002-0.005,0.004-0.008,0.006l0.018,0.013C37.998,55.956,37.995,55.95,37.992,55.944z"/>
		<path d="M3.235,87.052c-0.242-1.227-0.485-2.449-0.727-3.676c-0.22,1.262-0.299,2.555,0.39,3.73
			C3.01,87.09,3.123,87.071,3.235,87.052z"/>
		<path d="M44.978,66.028c-0.069-0.024-0.1-0.199-0.124-0.309c-0.129-0.596-0.244-1.191-0.377-1.787
			c-0.144-0.645-0.302-1.283-0.453-1.926c-0.082,0.021-0.165,0.041-0.247,0.062c-0.263,1.83,0.852,3.4,0.966,5.187
			c-0.515-0.892-0.985-1.808-1.298-2.774c-0.313-0.966-0.469-1.98-0.693-2.976c-0.114,0.024-0.227,0.047-0.341,0.071
			c0.354,1.617,0.708,3.234,1.068,4.873c-1.921-1.146-1.148-3.326-1.991-4.86c-0.342,1.483,0.814,5.603,1.731,6.142
			c-0.015-0.129-0.029-0.252-0.034-0.3c0.315,0.279,0.661,0.589,1.008,0.896c0.14-0.217,0.28-0.434,0.492-0.764
			c0.597,0.561,1.171,1.1,1.937,1.816c-0.078-0.553-0.008-0.979-0.188-1.164C45.809,67.571,46.018,66.384,44.978,66.028z"/>
		<path d="M37.133,65.614c-0.177-1.172-0.387-2.565-0.597-3.961c-0.106,0.015-0.212,0.029-0.319,0.043
			c0.122,1.14,0.244,2.275,0.366,3.414c-0.107,0.023-0.214,0.049-0.32,0.072c-0.209-0.826-0.418-1.652-0.627-2.48
			c-0.094,0.021-0.188,0.045-0.282,0.068c0.279,1.244,0.395,2.557,0.877,3.715c0.67,1.613,2.242,2.162,3.902,2.648
			c-0.718-1.033-1.351-1.988-2.038-2.902C37.915,65.991,37.564,65.883,37.133,65.614z"/>
		<path d="M39.919,65.427c0.003,0.002,0.052,0.002,0.055,0.004c-0.002-0.007,0.037-0.016,0.037-0.023c0-0.002,0-0.004,0-0.006
			l-0.053,0.023c-0.033-0.143-0.093-0.281-0.129-0.422c-0.013-0.051-0.035-0.102-0.047-0.15c-0.041-0.164-0.085-0.33-0.109-0.498
			c-0.142-0.965-0.262-1.934-0.389-2.898c-0.086,0.011-0.174,0.021-0.26,0.031c0.117,1.34,0.233,2.683,0.352,4.037
			c-1.189-0.102-0.9-1.057-1.001-1.736c-0.115-0.768-0.133-1.553-0.193-2.329c-0.085,0.014-0.17,0.024-0.255,0.038
			c0.277,1.736-0.144,3.586,1.087,5.357c-0.101-0.426-0.158-0.67-0.216-0.912c0.809,1.057,1.127,2.437,2.649,3.189
			c-0.338-0.549-0.527-0.934-0.785-1.262C40.09,67.146,39.77,66.36,39.919,65.427z"/>
		<path d="M42.009,66.718c-0.426-0.895-1.314-0.904-2.021-1.26c-0.019-0.01-0.04-0.018-0.059-0.027
			c0.563,1.729,1.56,3.039,3.422,3.664c0.043,0.014,0.081,0.033,0.125,0.047c-0.003-0.006-0.006-0.01-0.01-0.016
			C42.936,68.267,42.396,67.528,42.009,66.718z"/>
		<path d="M44.962,61.563c-0.023,0.252-0.117,0.523-0.052,0.752c0.111,0.391,0.356,0.742,0.483,1.133
			c0.5,1.533,0.962,3.078,1.471,4.605c0.107,0.322,0.353,0.596,0.534,0.891c0.043-0.031,0.086-0.062,0.128-0.092
			c-0.771-2.439-1.542-4.875-2.312-7.314C45.13,61.549,45.046,61.556,44.962,61.563z"/>
		<path d="M45.976,61.39c-0.204,1.277,0.423,3.285,1.2,3.945C46.75,63.933,46.363,62.661,45.976,61.39z"/>
		<path d="M37.983,55.95c-0.181-0.127-0.353-0.26-0.537-0.371c-0.166-0.1-0.347-0.176-0.521-0.262
			c-0.048,0.072-0.096,0.146-0.144,0.221c0.572,0.591,1.144,1.183,1.828,1.89C38.351,56.819,38.167,56.384,37.983,55.95z"/>
		<path d="M41.757,18.412c-0.005-0.012-0.011-0.023-0.017-0.034c-0.011,0.008-0.014,0.015-0.026,0.024
			c0.006,0.006,0.01,0.014,0.014,0.022C41.738,18.42,41.748,18.416,41.757,18.412z"/>
		<path d="M43.219,21.257c-0.518-0.984-1.005-1.909-1.492-2.833c-1.222,0.513-2.443,1.026-3.628,1.524
			C39.504,21.883,41.243,21.795,43.219,21.257z"/>
		<path d="M48.831,23.443c0.006-0.383,0.008-0.549,0.011-0.715c0.108-0.016,0.216-0.032,0.323-0.049
			c-0.567-0.597-1.137-1.194-1.92-2.018c-0.04,0.539-0.185,0.911-0.062,1.14C47.534,22.457,47.997,23.05,48.831,23.443z"/>
		<path d="M46.085,21.789c-0.658-0.696-0.367-2.181-1.82-2.209C44.201,20.817,45.238,21.227,46.085,21.789z"/>
		<path d="M51.928,24.929c0.09-0.334,0.17-0.627,0.237-0.883c-0.856-0.332-1.551-0.6-2.309-0.893
			C49.958,24.526,51.127,24.384,51.928,24.929z"/>
		<path d="M35.554,19.611c-1.305,0.024-0.772-1.084-1.314-1.732c-0.085,0.813-0.155,1.473-0.209,1.988
			c0.532,0.225,0.932,0.395,1.424,0.603C35.49,20.169,35.525,19.863,35.554,19.611z"/>
		<path d="M56.764,28.172c-0.019-0.077-0.035-0.153-0.053-0.23c-0.41-0.19-0.822-0.38-1.443-0.668
			c0.106,0.422,0.135,0.992,0.285,1.028C55.924,28.389,56.355,28.231,56.764,28.172z"/>
	</g>
</g>
<g>
</g>
<g>
</g>
<g>
</g>
<g>
</g>
<g>
</g>
<g>
</g>
<g>
</g>
<g>
</g>
<g>
</g>
<g>
</g>
<g>
</g>
<g>
</g>
<g>
</g>
<g>
</g>
<g>
</g>
</svg>
