<?xml version="1.0" encoding="iso-8859-1"?>
<!-- Generator: Adobe Illustrator 16.0.0, SVG Export Plug-In . SVG Version: 6.00 Build 0)  -->
<!DOCTYPE svg PUBLIC "-//W3C//DTD SVG 1.1//EN" "http://www.w3.org/Graphics/SVG/1.1/DTD/svg11.dtd">
<svg version="1.1" id="Capa_1" xmlns="http://www.w3.org/2000/svg" xmlns:xlink="http://www.w3.org/1999/xlink" x="0px" y="0px"
	 width="95px" height="95px" viewBox="0 0 95 95" style="enable-background:new 0 0 95 95;" xml:space="preserve">
<g>
	<g>
		<path d="M33.681,60.398c-0.508-0.368-1.819-0.396-2.691-0.787c-0.661-0.297-1.317-0.625-1.503-0.84
			c-0.084-0.096-0.191-0.137-0.31-0.137c-0.46,0-1.089,0.616-1.163,1.016c-0.087,0.459-0.278,5.752,1.014,5.752
			c0.119,0,0.251-0.045,0.396-0.144c0.406-0.274,0.759-0.385,1.061-0.385c0.273,0,0.505,0.092,0.695,0.237
			c0.424,0.32,0.728,0.553,0.99,0.553c0.213,0,0.4-0.15,0.604-0.529c0.646-1.191,1.403-2.803,1.349-3.729
			C34.093,60.869,33.909,60.566,33.681,60.398z"/>
		<path d="M91.717,89.827c-1.567-3.149-3.802-4.724-6.168-6.39c-2.17-1.529-4.629-3.262-7.809-6.84
			c-6.456-7.262-6.938-13.348-7.225-16.982c-0.067-0.861-0.127-1.607-0.254-2.289c0.783-0.229,1.478-0.696,1.987-1.357
			c0.477-0.617,1.197-1.955,0.667-3.986c-0.173-0.662-0.268-1.733,0.917-3.349c2.206-3.006,1.885-6.19,1.372-8.28
			c0.738-0.856,1.088-1.933,0.969-3.018c-0.208-1.882-1.602-2.86-2.511-3.414c-0.055-0.177-0.139-0.575-0.121-1.307
			c0.083-3.555-1.646-7.144-3.095-9.812c0.888-0.916,1.183-2.052,1.125-2.974c-0.041-0.647-0.396-2.832-3.233-3.765
			c-0.633-0.208-1.115-0.648-1.476-1.345c-1.117-2.156-3.428-4.34-6.879-6.506c0.867-1.928,1.973-4.843,0.924-6.68
			C60.288,0.446,59.108,0,57.854,0c-0.002,0-0.004,0-0.007,0c-1.127,0-2.17,0.284-2.862,1.207c-0.547,0.689-2.076,2.007-3.029,2.506
			c-0.144-0.034-0.306-0.138-0.433-0.171c-0.663-0.174-1.414-0.403-2.259-0.404c-1.452,0-2.719,0.38-3.728,0.757
			c-0.014-0.019-0.026-0.236-0.039-0.253C44.764,2.611,43.756,1,41.791,1c-0.002,0-0.003,0-0.004,0
			c-1.653,0-3.484,1.441-3.623,3.758c-0.036,0.637,0.02,1.438,0.17,2.237c-3.39,1.913-9.007,5.418-10.876,6.914
			c-0.943,0.753-1.648,1.636-2.092,2.574c-0.67,1.416-0.719,3.293-0.148,5.711c0.646,2.745,2.521,4.106,3.529,4.834l0.212,0.158
			c1.527,1.125,3.04,2.137,4.742,2.137c1.184,0,2.232-0.492,2.956-1.305c1.346,1.105,3.241,1.745,4.686,1.961
			c-0.626,2.086-1.759,5.211-3.276,8.789c-0.415,0.981-0.963,2.08-1.274,2.557c-0.993,1.523-1.865,2.261-2.156,2.397
			c-1.293,0.324-2.537,1.015-3.635,2.016c-0.446-0.272-0.945-0.589-1.495-0.949c-2.004-1.316-3.581-1.903-5.11-1.903
			c-2.05,0-3.395,1.059-4.284,1.761c-0.278,0.22-0.542,0.428-0.819,0.605c-1.972,1.259-3.03,3.359-3.163,6.262
			c-3.516,0.731-6.873,4.319-7.145,7.105c-0.243,1.24-2.455,6.122-3.238,7.295c-0.912,1.368-2.607,3.911-1.409,7.24l0.066,0.185
			c-0.072,0.289-0.162,0.622-0.244,0.933c-0.146,0.543-0.298,1.106-0.407,1.606C2.949,79.53,1.6,85.646,6.066,86.834
			c0.399,0.105,0.825,0.158,1.3,0.158c1.897,0,5.548-0.995,7.592-2.326c2.468-1.607,1.981-4.359,1.798-5.395
			c-0.019-0.104-0.044-0.25-0.058-0.345c0.007-0.059,0.015-0.116,0.021-0.176c0.052-0.414,0.123-0.981,0.073-1.64
			c-0.089-1.195-0.648-2.114-1.175-2.781c0.33-0.635,0.652-1.448,0.652-2.42l-0.002-0.301c-0.007-0.563-0.015-1.233,0.432-2.725
			c0.468,0.615,1.053,1.148,1.771,1.555c0.176,0.221,0.471,0.733,0.673,1.084c0.728,1.266,1.724,2.998,3.598,3.901
			c0.207,0.126,0.786,0.706,1.17,1.091c1.27,1.271,2.849,2.853,5.088,2.853c0.648,0,1.274-0.138,1.862-0.406
			c1.167-0.534,1.881-1.457,2.311-2.5c0.337,0.062,0.677,0.093,1.019,0.093c0.146,0,0.292-0.007,0.437-0.019
			c0.681,1.016,1.801,3.394,2.902,7.226c0.809,2.815,3.766,7.062,7.193,10.246C45.37,94.609,46.221,95,47.104,95h41.479
			c1.212,0,2.338-0.684,2.976-1.714C92.197,92.256,92.257,90.912,91.717,89.827z M47.104,91c-3.017-2-5.609-6.302-6.211-8.398
			c-1.3-4.521-3.445-9.845-5.596-9.845c-0.15,0-0.302,0.075-0.452,0.13c-0.218,0.08-0.437,0.141-0.655,0.141
			c-1.157,0-2.297-1.004-3.084-1.913c-0.273-0.316-0.484-0.47-0.631-0.47c-0.19,0-0.271,0.271-0.236,0.813
			c0.103,1.636,0.072,3.901-0.838,4.319c-0.131,0.06-0.265,0.088-0.402,0.088c-1.395,0-3.142-2.824-4.737-3.596
			c-1.755-0.847-2.358-3.99-3.992-4.838c-1.228-0.637-1.771-2.539-1.658-4.343c0.056-0.86-0.335-1.958-1.075-1.958
			c-0.085,0-0.174,0.014-0.268,0.045c-0.574,0.188-1.239,0.672-1.902,1.738c-0.509,0.816-1.083,2.273-1.416,3.175
			c-1.319,3.567-1.181,4.81-1.181,5.819c0,0.742-0.96,1.688-1.117,2.607c-0.159,0.947,1.578,1.9,1.649,2.858
			c0.034,0.453-0.067,0.924-0.105,1.39c-0.078,0.959,0.656,2.443-0.149,2.969c-1.431,0.932-4.389,1.759-5.682,1.759
			c-0.162,0-0.298-0.013-0.401-0.04c-1.051-0.279-0.366-4.223,0.207-6.823c0.206-0.938,0.64-2.346,0.794-3.18
			c0.073-0.396-0.021-0.601-0.335-1.479c-0.544-1.512,0.06-2.661,1.027-4.112c0.969-1.451,3.689-7.318,3.81-8.891
			c0.104-1.318,2.801-4.086,4.917-4.085c0.407,0,0.792,0.103,1.133,0.336c0.658,0.451,1.041,0.628,1.254,0.628
			c0.47,0,0.1-0.867,0.017-1.535c-0.125-0.97-0.79-4.72,1.389-6.11c1.347-0.861,1.999-1.814,3.218-1.814
			c0.751,0,1.717,0.362,3.191,1.33c1.233,0.81,2.122,1.343,2.762,1.692c0.23,0.126,0.482,0.182,0.74,0.182
			c0.688,0,1.419-0.395,1.9-0.902c0.606-0.642,1.462-1.318,2.521-1.577c1.604-0.39,3.21-2.337,4.213-3.875
			c0.525-0.806,1.19-2.218,1.565-3.103c1.548-3.65,4.853-12.003,3.958-13.344c-0.493-0.74-0.874-0.983-1.205-0.983
			c-0.4,0-0.729,0.355-1.093,0.62c-0.127,0.093-0.337,0.134-0.598,0.134c-1.102,0-3.12-0.743-3.757-1.525
			c-0.36-0.443-1.292-0.671-2.207-0.671c-1.082,0-2.142,0.318-2.207,0.973c-0.035,0.347-0.215,0.485-0.479,0.485
			c-0.659,0-1.847-0.849-2.666-1.453c-0.884-0.651-2.03-1.35-2.411-2.968c-0.221-0.936-0.503-2.534-0.093-3.4
			c0.188-0.399,0.528-0.846,1.113-1.313c1.691-1.354,7.928-5.207,11.272-7.03c0.844-0.46,1.269-1.522,1.028-2.453
			c-0.177-0.686-0.321-1.457-0.287-2.048c0.012-0.193,0.057-0.276,0.129-0.276c0.434,0,1.845,2.942,2.943,2.942
			c0.024,0,0.049,0.195,0.073,0.192C45.78,7.895,47.495,7,49.251,7c0.003,0,0.005,0,0.008,0c0.813,0,2.001,0.342,2.905,0.342
			c0.165,0,0.32-0.116,0.464-0.159c2.19-0.656,4.781-3.568,5.159-4.072c0.025-0.035,0.047-0.076,0.062-0.076
			c0.212,0-0.54,3.082-1.709,5.071c-0.485,0.829-0.396,1.682,0.438,2.157c2.141,1.216,5.902,3.611,7.176,6.068
			c0.967,1.87,2.382,2.696,3.492,3.061c0.913,0.3,1.159,0.826,0.316,1.226c-0.842,0.4-1.797,0.907-1.347,1.756
			c1.175,2.21,3.911,6.539,3.826,10.163c-0.061,2.606,0.76,3.754,1.593,4.251c0.826,0.493,1.377,0.854,0.86,1.343
			c-0.33,0.311-0.727,0.574-1.122,0.574c-0.968,0,2.299,4.232-0.364,7.861c-1.87,2.551-1.887,4.743-1.479,6.303
			c0.177,0.677,0.026,1.115-0.388,1.115c-0.154,0-0.347-0.061-0.572-0.194c-0.657-0.39-1.377-0.974-1.854-1.795
			c-0.169-0.29-0.296-0.419-0.389-0.419c-0.509,0,0.013,3.85,0.488,6.372c0.564,2.983-0.402,10.985,8.307,20.782
			C82.085,86.562,86.259,87,88.583,91H47.104z"/>
	</g>
</g>
<g>
</g>
<g>
</g>
<g>
</g>
<g>
</g>
<g>
</g>
<g>
</g>
<g>
</g>
<g>
</g>
<g>
</g>
<g>
</g>
<g>
</g>
<g>
</g>
<g>
</g>
<g>
</g>
<g>
</g>
</svg>
