<?xml version="1.0" encoding="iso-8859-1"?>
<!-- Generator: Adobe Illustrator 16.0.0, SVG Export Plug-In . SVG Version: 6.00 Build 0)  -->
<!DOCTYPE svg PUBLIC "-//W3C//DTD SVG 1.1//EN" "http://www.w3.org/Graphics/SVG/1.1/DTD/svg11.dtd">
<svg version="1.1" id="Capa_1" xmlns="http://www.w3.org/2000/svg" xmlns:xlink="http://www.w3.org/1999/xlink" x="0px" y="0px"
	 width="97.97px" height="97.97px" viewBox="0 0 97.97 97.97" style="enable-background:new 0 0 97.97 97.97;" xml:space="preserve"
	>
<g>
	<g>
		<path d="M81.108,36.97c-0.237-0.206-0.62-0.244-1.082-0.272c-0.025-0.002-0.05-0.002-0.074-0.002c-0.481,0-0.663,0.315-0.4,0.758
			c0.609,1.037,1.146,1.946,1.687,2.865c0.135,0.228,0.318,0.347,0.488,0.347c0.176,0,0.338-0.127,0.417-0.389
			C82.499,39.097,82.147,37.874,81.108,36.97z"/>
		<path d="M67.852,55.99c-0.091-0.338-0.336-0.533-0.608-0.533c-0.146,0-0.303,0.058-0.446,0.181
			c-2.894,2.503-3.484,7.153-1.447,10.024c0.168,0.236,0.433,0.352,0.704,0.352c0.233,0,0.474-0.085,0.66-0.249
			c0.315-0.276,0.634-0.55,0.964-0.81c2.021-1.596,2.79-3.357,1.274-5.825C68.398,58.226,68.159,57.131,67.852,55.99z
			 M66.705,62.492c-0.111-0.684-0.082-1.411,0.079-2.116c0.013,0.02,0.024,0.04,0.037,0.061
			C67.318,61.246,67.525,61.683,66.705,62.492z"/>
		<path d="M96.785,37.036c0.026-0.149,0.04-0.301,0.039-0.454c-0.005-1.094-0.649-2.012-1.918-2.728l-0.644-0.364
			c-0.159-0.909-0.885-1.848-2.983-2.221l-2.26-0.401l-0.189-0.034c-0.329-0.486-0.813-0.864-1.401-1.071
			c-0.271-0.096-0.697-0.226-1.222-0.226c-0.082,0-0.165,0.003-0.248,0.01c-1.812,0.144-3.62,0.31-5.395,0.472l-0.083,0.008
			l-0.063-0.077l-1.227-0.013c-0.637,0-1.256,0.222-2.07,0.743c-0.194,0.125-0.408,0.268-0.624,0.436
			c-2.101-1.482-4.576-2.3-7.37-2.433c-0.082-0.004-0.168-0.006-0.258-0.006c-0.828,0-1.828,0.177-2.45,0.352
			c-2.771,0.781-12.3,3.327-18.769,3.327c-0.646,0-1.654-0.026-1.654-0.069c0-0.022,0-0.043,0-0.065c0-1.718-1.639-2.831-2.334-3.23
			c-0.896-0.513-2.456-1.125-4.75-1.125c-0.607,0-0.759-0.222-0.855-0.45c-0.231-0.538-0.087-1.278,0.199-1.58
			c1.339-1.412,0.887-2.97,0.716-3.366c-0.436-1.011-1.438-1.796-2.612-1.796c-0.005,0-0.01,0-0.015,0
			c-0.353,0-0.994-1.162-1.815-1.442c-0.095-1.065-0.773-2.197-3.312-2.353l-1.209-0.036l-0.32-0.797
			c-0.229-0.572-0.583-0.937-0.98-1.182c-0.347-0.719-1.181-1.652-3.176-1.652l-0.142,0.004l-0.708,0.015
			c-1.411,0.025-2.869,0.052-4.363,0.33c-0.084,0.015-0.137,0.019-0.166,0.019c-0.048-0.009-0.167-0.063-0.527-0.376l-0.058-0.053
			c-0.128-0.12-0.259-0.237-0.397-0.344c-0.729-0.564-1.452-0.84-2.204-0.84c-0.786,0-1.72,0.342-2.353,1.214
			c-0.052-0.003-0.104-0.005-0.155-0.005c-0.191,0-0.562,0.026-0.976,0.192c-0.681-0.528-1.361-0.62-1.754-0.62
			c-0.718,0-1.394,0.28-1.901,0.79c-0.387,0.388-0.848,1.084-0.846,2.199l0.016,0.993c0.003,1.726-0.002,3.355-0.002,4.948v0.086
			c-2,1.466-2.442,3.354-2.694,5.63c-1.789,1.857-2.83,4.072-3.746,6.036c-0.371,0.794-0.725,1.544-1.112,2.258
			c-2.068,3.814-2.156,5.501,1.339,8.624c1.003,0.896,2.566,2.088,4.566,2.088c2.163,0,3.739-1.362,4.737-2.386
			c0.976-0.999,2.524-1.771,4.162-2.538c0.608-0.286,1.322-0.486,2.133-0.689c0.449,3.417,0.902,7.03,1.21,10.642
			c0.027,0.336,0.04,0.672,0.054,1.006c0.049,1.251,0.106,2.771,0.859,4.3c-0.271,0.162-0.543,0.323-0.812,0.485
			c-0.929,0.556-1.806,1.081-2.706,1.563c-0.342,0.183-0.756,0.349-1.193,0.525c-0.586,0.235-1.25,0.502-1.903,0.876
			c-2.397,1.37-4.896,4.025-3.186,8.896c0.395,1.12,0.612,2.407,0.785,3.526c0.139,0.891,0.212,1.811,0.289,2.785
			c0.034,0.432,0.068,0.862,0.108,1.292c0.3,3.231,2.408,4.232,3.764,4.539c1.514,2.308,3.715,3.349,5.663,4.271l0.328,0.154
			c0.488,0.233,1.053,0.352,1.674,0.352c0.56,0,1.958-0.113,2.864-1.162c1.379-1.594,1.715-4,0.874-6.275
			c-0.843-2.279-2.66-3.892-4.746-4.207c-1.446-0.218-1.543-0.761-1.621-1.197c-0.276-1.543-0.468-3.15-0.57-4.787
			c1.405-0.021,2.776-0.12,4.06-0.225c1.846-0.152,3.744-0.346,5.804-0.591l0.126-0.015c0.349-0.041,0.755-0.088,1.185-0.186
			c-1.068,1.385-2.168,2.817-3.175,4.321c-1.038,1.549-1.294,3.358-0.703,4.964c0.631,1.715,2.135,3.02,4.126,3.582
			c0.405,0.114,1.096,0.693,1.354,0.911c1.082,0.908,2.385,1.875,4.155,1.875c1.219,0,2.323-0.463,3.339-0.964
			c0.071-0.035,0.298-0.096,0.463-0.139c0.315-0.086,0.711-0.19,1.127-0.367l0.586-0.247c1.279-0.539,2.603-1.097,3.89-1.813
			c0.194-0.109,0.376-0.244,0.542-0.399c-0.129,0.247-0.255,0.495-0.378,0.741c-0.262,0.525-1.059,2.125-0.193,3.721
			c0.871,1.605,2.7,1.816,3.303,1.886c0.413,0.048,0.816,0.072,1.204,0.072c1.834,0,4.794-0.57,6.341-3.917
			c0.476,0.113,0.969,0.171,1.47,0.171c2.337,0,4.467-1.252,5.558-3.269c0.55-1.013,1.051-2.043,1.534-3.039
			c0.465-0.955,0.904-1.855,1.38-2.742c0.276-0.516,0.562-0.832,0.736-0.959c1.186-0.848,2.437-1.682,3.645-2.488
			c1.051-0.701,2.138-1.427,3.2-2.173c2.939-2.063,3.477-3.657,2.389-7.104c-0.392-1.24-0.264-1.587-0.111-1.812
			c0.26-0.389,0.523-0.844,0.792-1.227c0.577,0.629,1.266,0.733,1.85,0.733h0.146c1.51,2,3.298,3.032,5.621,3.032
			c1.456,0,2.767-0.452,4.034-0.924c0.921-0.342,1.478-0.877,1.771-1.472c1.388-0.393,2.025-1.434,2.158-2.309
			c0.138-0.911-0.189-2.158-1.523-2.94l-0.055-0.029c-0.506-0.297-1.021-0.598-1.537-0.902c0.146-0.071,0.296-0.141,0.446-0.211
			c0.854-0.398,1.918-0.896,2.75-1.838c1.404-1.589,3.133-3.89,3.604-6.9c0.92-0.738,1.085-1.972,0.499-3.683L96.785,37.036z
			 M47.896,74.73c-1.032-2.147-3.65-3.176-5.932-3.287c2.086-1.764,4-3.631,5.763-5.361c2.418-0.328,5.458-0.734,8.562-1.12
			c0.435,1.069,0.631,1.789,0.387,2.519c-0.725,2.15-1.969,3.727-3.806,4.819c-2.146,1.276-3.632,3.021-4.805,4.894
			C48.278,76.355,48.245,75.458,47.896,74.73z M95.488,41.675c-0.002,0-0.003,0-0.005,0c-0.059,0-0.284-0.532-0.515-0.957
			c-0.104-0.192-0.182-0.386-0.229-0.386c-0.061,0-0.074,0.104-0.041,0.406c0.344,3.084-1.122,5.529-3.052,7.712
			c-0.884,1-2.525,1.28-3.598,2.165c-0.545,0.449-0.619,1.486-0.831,2.28c-0.038,0.144,0.256,0.442,0.46,0.566
			c0.992,0.604,1.997,1.19,2.973,1.762c0.465,0.272,0.415,0.593-0.109,0.716c-0.561,0.131-1.132,0.264-1.707,0.397
			c-0.524,0.123-0.939,0.295-0.929,0.386c0.013,0.092,0.387,0.221,0.836,0.289c0.449,0.069,0.401,0.273-0.104,0.462
			c-1.179,0.438-2.184,0.802-3.163,0.802c-1.691,0-3.313-1.08-5.641-4.724c-0.132-0.207-0.23-0.31-0.289-0.31
			c-0.068,0-0.078,0.146-0.016,0.434c0.05,0.23,0.097,0.621,0.141,0.82c0.116,0.529,0.138,1.18,0.046,1.18c-0.004,0-0.006,0-0.009,0
			c-0.094,0-0.257-0.579-0.373-1.09c-0.138-0.611-0.277-1.321-0.425-1.969c-0.065-0.295-0.206-0.492-0.372-0.492
			c-0.13,0-0.274,0.07-0.414,0.263c-1.076,1.486-2.143,2.915-3.137,4.404c-0.828,1.239-0.622,2.589-0.193,3.948
			c0.757,2.396,0.618,2.857-1.439,4.303c-2.267,1.59-4.612,3.062-6.863,4.674c-0.615,0.439-1.12,1.129-1.482,1.807
			c-1.021,1.898-1.886,3.881-2.91,5.774c-0.703,1.298-2.041,1.958-3.359,1.958c-0.872,0-1.734-0.289-2.397-0.874
			c-0.172-0.151-0.316-0.229-0.436-0.229c-0.16,0-0.271,0.146-0.325,0.453c-0.527,2.948-2.062,4.396-4.651,4.396
			c-0.293,0-0.6-0.018-0.918-0.055c-1.472-0.17-1.815-0.686-1.156-2.008c1.271-2.555,2.73-4.967,5.296-6.492
			c2.402-1.43,4.002-3.513,4.896-6.172c0.706-2.097-0.303-3.858-1.025-5.67c-0.065-0.164-0.516-0.259-0.86-0.259
			c-0.062,0-0.124,0.003-0.178,0.011c-3.312,0.404-6.616,0.842-9.921,1.291c-0.271,0.037-0.583,0.157-0.772,0.344
			c-2.815,2.768-5.637,5.522-8.862,7.836c-0.875,0.627-1.646,1.4-2.463,2.185c-0.39,0.373-0.336,0.894,0.143,1.144
			c0.78,0.41,1.354,0.615,1.883,0.615c0.747,0,1.401-0.41,2.418-1.234c0.513-0.416,1.3-0.604,2.148-0.604
			c1.647,0,3.53,0.716,4.09,1.878c0.176,0.367-0.079,1.303-0.408,1.486c-1.354,0.754-2.805,1.336-4.236,1.945
			c-0.554,0.234-1.185,0.301-1.72,0.564c-0.938,0.464-1.615,0.706-2.229,0.706c-0.807,0-1.506-0.415-2.55-1.29
			c-0.681-0.57-1.452-1.168-2.281-1.402c-2.331-0.658-3.368-2.744-2.025-4.748c1.488-2.224,3.198-4.297,4.804-6.443
			c0.361-0.483,0.708-0.975,1.147-1.596c0.312-0.439,0.129-0.787-0.409-0.828c-0.752-0.059-1.446-0.166-2.111-0.166
			c-0.709,0-1.385,0.123-2.062,0.563c-0.514,0.333-1.235,0.398-1.875,0.474c-1.901,0.227-3.806,0.425-5.714,0.582
			c-1.457,0.119-2.921,0.22-4.382,0.221c-1.6,0.001-2.083,0.294-2.009,1.902c0.092,1.947,0.303,3.902,0.646,5.82
			c0.354,1.986,1.759,2.936,3.709,3.23c2.55,0.385,4.057,4.406,2.353,6.377c-0.166,0.193-0.582,0.296-0.972,0.296
			c-0.228,0-0.446-0.035-0.601-0.109c-1.904-0.905-3.87-1.75-5.066-3.684c-0.263-0.425-0.847-0.804-1.341-0.899
			c-1.356-0.262-1.818-1.134-1.933-2.354c-0.131-1.411-0.197-2.833-0.416-4.23c-0.208-1.34-0.449-2.697-0.896-3.971
			c-0.938-2.668-0.393-4.492,2.066-5.896c0.96-0.549,2.062-0.846,3.037-1.369c1.457-0.781,2.856-1.668,4.287-2.498
			c1.076-0.625,1.089-1.553,0.528-2.442c-0.957-1.519-0.759-3.173-0.899-4.83c-0.323-3.822-0.809-7.631-1.312-11.435
			c-0.051-0.388-0.201-0.763-0.363-1.106c-0.191-0.405-0.646-0.66-1.096-0.66c-0.092,0-0.184,0.011-0.272,0.033
			c-1.388,0.349-2.686,0.616-3.852,1.163c-1.737,0.814-3.582,1.715-4.891,3.057c-1.076,1.104-2.011,1.631-2.949,1.631
			c-0.915,0-1.836-0.5-2.901-1.452c-2.49-2.225-2.419-2.6-0.809-5.568c1.464-2.7,2.371-5.721,4.647-7.952
			c0.238-0.233,0.434-0.615,0.457-0.942c0.146-1.956,0.853-3.579,2.435-4.834c0.297-0.235,0.286-0.947,0.292-1.44
			c0.024-1.91,0.017-3.82,0.014-5.978c-0.001-0.317,0.097-0.484,0.247-0.484c0.106,0,0.238,0.082,0.382,0.252
			c0.361,0.428,0.709,0.839,1.062,1.258c0.146,0.174,0.303,0.259,0.442,0.259c0.191,0,0.356-0.157,0.437-0.458
			c0.029-0.112,0.06-0.224,0.09-0.338c0.093-0.35,0.214-0.546,0.315-0.546c0.051,0,0.097,0.047,0.133,0.146
			c0.054,0.149,0.167,0.223,0.305,0.223c0.142,0,0.311-0.077,0.473-0.231c0.146-0.139,0.269-0.207,0.351-0.207
			c0.099,0,0.142,0.097,0.104,0.286c-0.068,0.348-0.066,0.652,0.005,0.679c0.003,0.001,0.007,0.002,0.011,0.002
			c0.076,0,0.244-0.272,0.382-0.63c0.087-0.228,0.164-0.458,0.204-0.695c0.092-0.543,0.273-0.781,0.543-0.781
			c0.186,0,0.413,0.114,0.68,0.32c0.12,0.093,0.226,0.204,0.34,0.303c0.658,0.572,1.271,0.99,2.168,0.99
			c0.193,0,0.4-0.042,0.623-0.083c1.518-0.287,3.097-0.328,4.666-0.328c0.028,0,0.056,0,0.083,0c0.502,0,0.913,0.129,0.937,0.281
			c0.022,0.161-0.238,0.382-0.586,0.481c-0.349,0.099-0.63,0.13-0.63,0.209c0,0.079,0.438,0.029,0.978,0.029
			c0.091,0,0.183,0,0.272,0c0.539,0,0.924,0.16,0.857,0.223c-0.036,0.035-0.076,0.134-0.113,0.177
			c-0.065,0.077-0.127,0.188-0.188,0.275c-0.102,0.139,0.066,0.498,0.373,0.783s0.246,0.549-0.138,0.581
			c-0.383,0.032-0.698,0.15-0.707,0.26c-0.007,0.109,0.423,0.227,0.961,0.26c1.172,0.072,2.344,0.146,3.516,0.218
			c0.538,0.033,0.976,0.121,0.978,0.196c0.002,0.075-0.426,0.227-0.953,0.339c-0.295,0.063-0.591,0.126-0.886,0.189
			c-0.526,0.112-0.95,0.302-0.944,0.423s0.448,0.218,0.979,0.31c1.087,0.188,2.18,0.619,3.299,0.801
			c0.532,0.087,0.748,0.459,0.441,0.903c-0.072,0.105-0.146,0.214-0.219,0.32c-0.281,0.418-0.079,0.845,0.385,0.845
			c0.033,0,0.066-0.002,0.103-0.007c0.611-0.076,1.373-0.22,1.998-0.279c0.041-0.004,0.08-0.006,0.115-0.006
			c0.423,0,0.422,0.269,0.079,0.631c-1.83,1.932-1.234,6.25,2.465,6.25c3.689,0,4.871,1.929,4.487,1.929
			c-0.048,0-0.12-0.03-0.215-0.098c-0.145-0.103-0.293-0.146-0.44-0.146c-0.272,0-0.541,0.145-0.771,0.327
			c-0.423,0.335-0.382,1.061,0.07,1.356c1.237,0.807,3.239,1.12,5.597,1.12c6.758,0,16.441-2.57,19.465-3.421
			c0.477-0.134,1.234-0.259,1.772-0.259c0.048,0,0.095,0.001,0.141,0.003c2.35,0.112,4.524,0.786,6.426,2.258
			c0.442,0.344,0.823,0.543,1.19,0.543c0.355,0,0.702-0.185,1.087-0.602c0.21-0.228,0.471-0.411,0.757-0.594
			c0.339-0.217,0.617-0.349,0.723-0.349c0.034,0,0.05,0.014,0.044,0.042c-0.016,0.078,0.162,0.112,0.439,0.112
			c0.144,0,0.312-0.009,0.495-0.026c1.965-0.179,3.975-0.366,5.986-0.526c0.018-0.001,0.033-0.002,0.05-0.002
			c0.128,0,0.258,0.036,0.39,0.083c0.234,0.083,0.268,0.299,0.073,0.48c-0.193,0.181,0.079,0.404,0.609,0.498
			c1.172,0.208,2.365,0.42,3.563,0.633c0.53,0.094,0.955,0.22,0.947,0.281c-0.007,0.061-0.344,0.11-0.752,0.11
			c-0.407,0-0.356,0.215,0.111,0.481c0.902,0.51,1.725,0.975,2.525,1.428c0.47,0.265,0.745,0.542,0.615,0.617
			c-0.13,0.075-0.094,0.549,0.08,1.059c0.297,0.867,0.593,1.937,0.89,2.804C95.436,41.02,95.537,41.675,95.488,41.675z"/>
	</g>
</g>
<g>
</g>
<g>
</g>
<g>
</g>
<g>
</g>
<g>
</g>
<g>
</g>
<g>
</g>
<g>
</g>
<g>
</g>
<g>
</g>
<g>
</g>
<g>
</g>
<g>
</g>
<g>
</g>
<g>
</g>
</svg>
