<?xml version="1.0" encoding="iso-8859-1"?>
<!-- Generator: Adobe Illustrator 16.0.0, SVG Export Plug-In . SVG Version: 6.00 Build 0)  -->
<!DOCTYPE svg PUBLIC "-//W3C//DTD SVG 1.1//EN" "http://www.w3.org/Graphics/SVG/1.1/DTD/svg11.dtd">
<svg version="1.1" id="Capa_1" xmlns="http://www.w3.org/2000/svg" xmlns:xlink="http://www.w3.org/1999/xlink" x="0px" y="0px"
	 width="576.447px" height="576.447px" viewBox="0 0 576.447 576.447" style="enable-background:new 0 0 576.447 576.447;"
	 xml:space="preserve">
<g>
	<g>
		<path d="M252.177,230.375c0.606-1.469-3.999-4.513-10.293-6.771c-5.042-1.812-10.031-3.729-14.685-6.253
			c-6.07-3.292-15.9-10.229-15.132-13.382c1.623-6.699,7.906-14.502,14.31-17.431c27.352-12.524,73.01-5.931,100.022,12.475
			c5.526,3.766,9.486,2.11,7.72-4.335c-6.874-25.106-33.544-34.162-52.21-52.898c-4.72-4.735-2.427-9.88,4.214-10.672
			c7.734-0.931,14.605-1.756,21.155-2.542c6.644-0.798,6.98-3.493,0.49-5.122c-27.846-6.984-54.657-0.295-80.708,10.314
			c-31.165,12.693-61.856,26.625-92.374,40.838c-36.038,16.777-72.064,30.13-110.771,13.769c-6.156-2.601-7.867-0.786-3.334,4.128
			c17.65,19.127,41.219,25.626,66.662,29.507c4.92,0.75,9.581,3.201,14.194,5.943c5.751,3.413,7.335,10.518,3.68,16.112
			c-3.352,5.128-6.851,10.01-11.562,12.983c-21.013,13.261-43.905,19.505-69.097,16.414c-6.632-0.815-8.127,1.773-2.988,6.047
			c6.174,5.133,12.625,9.304,19.677,11.774c6.995,2.452,14.543,3.327,22.127,4.102c6.652,0.674,12.947,2.92,14.08,4.841
			c1.132,1.921-2.045,7.017-6.966,11.55c-9.614,8.86-19.08,17.975-30.059,24.548c-10.956,6.555-23.427,10.58-35.751,14.848
			c-6.319,2.187-6.07,5.29,0.585,5.904c21.772,2.016,41.727-3.15,57.562-18.27c22.594-21.58,45.504-43.764,63.352-69.145
			c25.369-36.067,56.897-51.545,99.924-43.604c4.557,0.842,9.035,2.113,13.497,3.476
			C245.896,231.465,251.574,231.846,252.177,230.375z"/>
		<path d="M367.572,399.777c-18.068-8.872-32.189-21.941-42.055-42.422c-2.902-6.017-0.035-8.358,5.687-4.906
			c12.95,7.797,24.488,14.741,35.694,21.492c5.729,3.451,7.637,1.554,3.86-3.96c-21.516-31.41-51.347-56.135-58.269-95.288
			c-1.158-6.584-3.487-7.046-5.668-0.727C292.984,314,295,353.094,307.254,392.548c1.985,6.384-1.467,10.427-8.062,9.298
			c-36.765-6.343-55.195-5.296-68.512,4.433c-5.4,3.949-3.36,7.702,3.292,7.034c34.342-3.41,39.972,0.118,74.576,28.945
			c6.909,5.757,13.471,12.141,21.06,16.828c16.066,9.906,32.812,17.814,51.772,17.437c6.686-0.136,7.726-4.693,1.732-7.654
			c-9.67-4.782-20.191-8.678-24.021-19.854c-2.169-6.324,3.983-12.685,10.622-11.881c21.627,2.637,33.732,19.033,46.83,33.851
			c4.428,5.013,7.354,3.459,5.615-3.002C414.085,437.878,397.422,414.436,367.572,399.777z"/>
		<path d="M463.227,322.665c-13.902-6.442-27.06-14.487-41.003-22.65c-5.769-3.375-7.855-1.306-4.61,4.534
			c2.258,4.061,4.593,8.263,6.963,12.524c3.239,5.846,4.74,12.076,3.352,13.92c-1.396,1.845-7.294,0.769-13.169-2.411
			c-11.284-6.101-22.579-12.206-33.893-18.317c-5.882-3.18-11.544-4.232-12.832-2.039c-1.289,2.187-5.373-0.515-9.228-5.982
			c-3.664-5.195-6.986-10.054-9.475-15.306c-2.353-4.974-3.996-10.285-5.515-15.651c-1.82-6.434-5.567-11.5-8.311-11.331
			c-2.736,0.168-3.7,5.58-2.134,12.082c1.141,4.731,2.252,9.478,3.203,14.253c9.511,47.996,40.028,73.684,88.857,74.7
			c23.459,0.491,47.593-1.572,69.498,14.83c5.35,4.008,8.949,2.577,7.867-4.019C498.632,346.509,484.506,332.519,463.227,322.665z"
			/>
		<path d="M552.408,323.085c-2.258-3.564-3.688-1.011-3.145,5.65c0.06,0.745,0.118,1.46,0.178,2.158
			c0.544,6.661-0.604,12.548-2.554,13.156c-1.956,0.598-5.344-4.024-7.542-10.332c-1.572-4.498-3.086-9.014-4.321-13.6
			c-1.247-4.6,0.929-11.532-1.69-14.115c-9.043-8.943-18.755-17.2-28.437-25.487c-5.077-4.345-10.024-7.288-11.07-6.537
			c-1.047,0.75,0.496,6.203,3.439,12.185c1.986,4.034,4.197,7.622,7.406,9.266c35.229,17.998,5.201,52.931,20.587,75.657
			c0.024,0.036-3.9,1.88-4.781,3.522c-3.582,6.656-7.022,13.395-10.38,20.015c-3.026,5.964-0.076,10.367,6.603,10.001
			c8.583-0.473,15.238-0.774,21.616-2.281c7.914-1.88,18.217-4.416,22.242-10.262c22.059-32.048,21.491-32.408-3.86-62.689
			C555.417,327.849,554.347,326.141,552.408,323.085z"/>
		<path d="M391.588,183.939c5.863,21.231,27.408,45.551,43.557,42.552c22-4.087,21.024,10.107,25.789,20.383
			c5.627,12.144,9.67,25.112,13.316,38.03c0.703,2.518,0.538,5.287,0.148,8.272c-0.586,4.562,3.859,10.586,9.9,13.459
			c3.753,1.784,7.666,3.652,11.655,5.544c6.035,2.878,7.348,1.135,3.157-4.079c-11.474-14.268-20.393-28.868-21.35-47.638
			c-0.344-6.676,5.609-10.772,11.963-9.17c6.354,1.61,8.322-1.484,4.599-7.034c-9.41-14.041-16.609-26.25-26.705-35.169
			c-10.172-8.99-23.418-14.517-40.223-22.972c-5.976-3-8.233-1.064-5.148,4.522c3.092,5.588,3.795,10.66,1.572,11.313
			c-2.229,0.653-8.162-1.035-13.204-3.851c-3.109-1.734-6.07-3.623-8.477-6.059c-2.583-2.601-4.486-5.875-6.508-9.714
			C392.61,176.599,389.803,177.494,391.588,183.939z"/>
		<path d="M372.112,200.972c1.011-13.341,1.927-25.535,2.902-38.379c0.502-6.664,3.369-8.904,6.401-4.995s8.564,2.574,11.236-3.558
			c6.59-15.138,6.146-29.737,0.798-45.194c-2.188-6.322-6.975-6.295-10.326-0.517c-17.229,29.713-41.624,56.459-18.767,94.737
			C367.768,208.803,371.598,207.636,372.112,200.972z"/>
		<path d="M347.465,148.368c6.768-15.415,8.677-30.032-2.43-45.291c-3.931-5.405-7.69-3.558-8.736,3.044
			c-2.441,15.404-9.315,29.809-1.785,43.713C337.712,155.71,344.775,154.495,347.465,148.368z"/>
		<path d="M441.635,254.49c3.883,2.214,7.033,1.803,7.052-0.934c0.018-2.737-5.344-5.654-11.97-6.525
			c-13.854-1.821-27.71-3.635-41.564-5.459c-6.626-0.872-12.437-0.792-12.968,0.178c-0.526,0.966,3.906,4.152,9.9,7.116
			c12.164,6.018,24.322,12.025,36.487,18.043c5.993,2.967,11.39,4.648,12.034,3.765c0.655-0.883-0.786-4.134-3.21-7.258
			c-2.423-3.121-4.031-7.285-3.588-9.301C434.252,252.105,437.757,252.268,441.635,254.49z"/>
	</g>
</g>
<g>
</g>
<g>
</g>
<g>
</g>
<g>
</g>
<g>
</g>
<g>
</g>
<g>
</g>
<g>
</g>
<g>
</g>
<g>
</g>
<g>
</g>
<g>
</g>
<g>
</g>
<g>
</g>
<g>
</g>
</svg>
