<?xml version="1.0" encoding="iso-8859-1"?>
<!-- Generator: Adobe Illustrator 16.0.0, SVG Export Plug-In . SVG Version: 6.00 Build 0)  -->
<!DOCTYPE svg PUBLIC "-//W3C//DTD SVG 1.1//EN" "http://www.w3.org/Graphics/SVG/1.1/DTD/svg11.dtd">
<svg version="1.1" id="Capa_1" xmlns="http://www.w3.org/2000/svg" xmlns:xlink="http://www.w3.org/1999/xlink" x="0px" y="0px"
	 width="574.294px" height="574.294px" viewBox="0 0 574.294 574.294" style="enable-background:new 0 0 574.294 574.294;"
	 xml:space="preserve">
<g>
	<g>
		<path d="M556.238,157.713c-3.191-1.132-7.395-3.269-9.776-4.982c-0.52-0.37-0.898-0.89-1.1-1.496
			c-6.944-20.596-25.191-29.299-32.71-32.089c-0.467-0.175-0.887-0.461-1.218-0.843c-0.662-0.75-1.371-1.616-1.867-2.281
			c-0.426-0.594-0.857-1.132-1.301-1.652c-3.274-3.783-6.514-7.137-9.629-9.974c-0.543-0.497-0.893-1.176-0.975-1.906
			c-1.655-14.969-3.783-19.254-4.941-21.554c-4.327-8.662-12.986-14.044-22.597-14.05c-3.849,0-7.253,0.686-10.433,2.101
			c-0.532,0.243-1.142,1.708-1.738,1.605c-1.224-0.212-2.477,1.029-3.753,1.029c0,0-0.006,0-0.012,0
			c-12.33,0-22.503,7.057-24.689,18.689l-2.997,15.247c-0.159,0.872-0.691,1.276-1.46,1.72l-6.703,3.68
			c-0.479,0.277-1.004,0.363-1.584,0.313c-0.992-0.024-2.045-0.083-3.145-0.083c-19.18,0-32.987,4.241-42.202,13.019
			c-13.855,13.195-49.166,40.291-61.059,42.69c-24.902,4.022-27.852,21.093-28.159,26.232c-0.039,0.626-0.056,1.238-0.056,1.85
			c0,1.392-0.949,2.604-2.299,2.938c-13.134,3.254-25.644,3.012-37.031-0.715c-21.013-6.877-41.574-10.356-61.112-10.356
			c-10.338,0-20.433,1.046-29.205,3.032c-0.768,0.168-1.566,0.036-2.24-0.37c-8.81-5.358-22.387-11.747-37.028-11.747
			c-16.656,0-31.02,7.97-40.444,22.449c-19.266,29.607-27.843,83.646-19.943,125.71c0.204,1.1-0.207,2.217-1.079,2.914
			c-6.724,5.408-10.962,11.939-12.939,19.984c-2.524,10.237-5.098,24.352-6.41,31.858c-0.085,0.474-0.278,0.923-0.576,1.312
			l-7.306,9.587c-0.186,0.248-0.411,0.461-0.659,0.639c-5.405,3.818-12.312,10.533-14.52,20.865
			c-0.328,1.549-0.538,3.121-0.624,4.669c-0.029,0.597-0.236,1.159-0.588,1.638C2.051,427.673,0,432.72,0,439.394
			c0,10.367,5.515,16.881,14.6,26.392c8.866,9.292,16.015,15.87,27.231,15.87c7.075,0,13.828-2.932,19.021-8.251
			c0.576-0.585,1.356-0.91,2.169-0.91c0.127,0,0.254,0.012,0.381,0.023c0.943,0.13,1.773,0.686,2.243,1.501
			c0.68,1.194,1.466,2.37,2.379,3.547c0.432,0.562,0.647,1.253,0.624,1.95l-0.059,1.685c-0.23,6.649,2.288,13.554,6.898,18.329
			c4.619,4.776,11.077,7.88,17.724,7.88h24.379c6.658,0,13.122-3.115,17.741-7.903c4.619-4.8,7.125-11.538,6.877-18.193
			c-0.171-4.386-1.108-15.723-6.224-25.594c-0.18-0.354-0.295-0.78-0.325-1.182c-0.662-7.565-0.642-26.149,0.041-47.321
			c0.03-1.064,0.624-2.046,1.555-2.565c19.195-10.651,45.941-27.857,64.348-49.325c0.919-1.082,2.462-1.378,3.715-0.71
			c26.82,14.228,62.19,19.14,104.62,14.28c0.786-0.1,1.591,0.137,2.223,0.633c5.036,3.996,10.261,7.188,15.51,9.48
			c0.639,0.278,1.165,0.769,1.483,1.384c4.279,8.334,9.032,18.146,10.02,21.319c1.779,7.265,5.414,12.384,8.34,16.491
			c4.545,6.378,11.39,15.978,15.403,44.626c0.467,3.293,1.561,6.402,3.274,9.245c1.028,1.708,2.258,3.387,3.659,4.959
			c0.432,0.497,0.697,1.117,0.744,1.773c0.456,5.863,2.927,11.461,6.97,15.758c4.935,5.261,13.109,10.64,36.268,10.64
			c1.59,0,2.855-0.047,3.659-0.101c9.823-0.662,18.282-6.768,22.053-15.953c7.501-18.259-7.891-39.466-9.676-41.818
			c-0.236-0.313-0.407-0.668-0.508-1.047l-0.373-1.483c-1.152-4.415-2.902-11.07-7.046-18.902c-1.542-2.92-2.961-7.087-4.326-11.118
			c-0.833-2.453-1.702-4.989-2.689-7.548c-0.402-1.035-0.201-2.211,0.521-3.057c0.721-0.851,1.844-1.205,2.938-0.992
			c4.031,0.868,7.873,1.643,11.308,2.287c0.567,0.101,1.093,0.366,1.513,0.763c8.051,7.519,15.982,18.288,15.569,24.299
			c-0.143,2.169,0,4.356,0.419,6.496c0.81,4.031,2.606,7.879,5.214,11.124c0.396,0.49,0.632,1.1,0.656,1.726
			c0.26,4.753,1.891,9.304,4.692,13.151c4.622,6.343,12.059,10.125,19.901,10.125l0.94-0.018l23.069-0.881
			c12.82-0.473,23.224-10.898,23.69-23.713c0.124-3.299-0.006-20.83-14.145-42.759c-2.719-4.209-4.805-7.838-6.826-11.349
			c-5.102-8.849-10.374-17.992-21.208-26.416c-0.509-0.396-0.881-0.939-1.059-1.566c-1.72-6.088-6.301-22.26-27.958-30.439
			c-5.048-1.91-13.766-7.685-27.426-18.158c-1.063-0.815-1.466-2.223-0.987-3.476c5.503-14.375,7.501-31.295,5.929-50.312
			c-1.276-15.427,17.448-39.186,35.388-56.271c0.952-0.907,2.383-1.097,3.529-0.473c1.406,0.763,2.771,1.466,4.055,2.062
			c7.85,3.665,17.626,5.329,26.161,6.605c0.537,0.08,1.04,0.302,1.466,0.642c1.129,0.913,2.471,2.107,3.445,3.067
			c4.664,4.667,10.853,7.229,17.432,7.229c4.479,0,27.438-0.884,39.613-18.418c0.958-1.389,1.868-2.524,2.643-3.487
			c16.739-20.924,5.704-35.97,0.195-41.485C563.071,161.029,559.737,158.945,556.238,157.713z M548.737,191.31
			c-1.069,1.339-2.346,2.923-3.718,4.909c-6.277,9.032-21.226,9.132-21.857,9.132c-0.804,0-1.578-0.319-2.146-0.88
			c-3.518-3.511-9.795-8.68-12.727-9.17c-0.934-0.151-2.074-0.322-3.369-0.515c-6.129-0.901-15.392-2.27-21.148-4.95
			c-5.178-2.417-13.411-7.834-17.082-10.308c-9.918,8.006-59.545,50.061-56.554,86.338c2.742,33.29-8.039,49.898-13.584,56.104
			c2.383,1.68,5.663,4.221,10.19,7.756c11.36,8.865,28.531,22.271,39.756,26.516c11.526,4.355,13.382,10.994,15.02,16.857
			c1.129,4.031,2.11,7.512,6.33,10.485c8.926,6.289,12.649,12.731,17.792,21.663c2.045,3.541,4.368,7.565,7.394,12.265
			c11.048,17.142,10.729,29.731,10.717,30.263c-0.06,1.585-1.33,2.861-2.908,2.914l-23.075,0.869
			c-1.029,0.023-1.963-0.426-2.56-1.241c-0.591-0.815-0.739-1.874-0.396-2.813c1.572-4.338,2.778-9.002,3.067-11.633
			c-5.337,2.17-8.983-0.437-9.51-3.073c-0.054-0.266-0.071-0.532-0.054-0.798c1.484-21.863-24.086-43.261-28.442-46.736
			c-12.524-1.596-45.489-9.824-56.867-12.708l0.325,15.911c8.47,6.78,8.222,11.048,5.184,15.298
			c-0.101,0.142-0.225,0.313-0.325,0.467c0.065,0.071,0.147,0.147,0.248,0.236c4.025,3.576,6.188,9.931,8.695,17.289
			c1.643,4.835,3.346,9.835,5.686,14.245c2.979,5.627,4.232,10.414,5.237,14.269c1.046,3.995,1.803,6.897,3.937,9.304
			c4.303,4.87,9.498,16.621,7.542,21.367c-0.632,1.525-1.944,2.494-3.522,2.595c-0.473,0.035-1.241,0.06-2.199,0.06
			c-5.095,0-17.271-0.379-20.521-3.818c-0.828-0.887-1.254-1.998-1.177-3.145c0.124-2.069-0.29-6.975-0.62-10.25
			c-4.28-1.3-6.674-5.225-6.798-5.426c-0.213-0.354-0.343-0.732-0.396-1.141c-4.758-33.887-13.795-46.56-19.192-54.137
			c-2.328-3.263-4.166-5.84-4.917-8.92c-1.614-6.638-11.922-26.604-16.621-35.357c-11.716-1.897-21.805-11.834-25.145-15.451
			c-13.736,2.074-26.823,3.127-38.94,3.127c-50.708,0-73.89-17.975-82.156-26.711c-13.409,33.798-71.875,64.315-82.704,69.735
			c-1.466,32.036-1.64,66.922,0.612,70.988c4.737,6.153,5.302,17.549,5.349,18.831c0.03,0.822-0.272,0.681-0.839,1.266
			c-0.57,0.585-1.333,0.018-2.157,0.018H93.21c-0.822,0-1.611,0.615-2.178,0.018c-0.57-0.591-0.878-1.696-0.848-2.523l0.538-15.652
			c-0.157,0-0.313,0-0.464,0c-0.831,0-3.36,0.786-4.971-1.253c-2.56-3.245-1.617-8.009,4.321-32.899
			c5.352-22.401,1.69-36.635-0.272-44.39c-1.156-4.563-1.918-7.472,0.292-9.517c1.67-1.549,8.733-8.748,14.023-14.197
			c-8.881,1.395-17.056,3.228-18.557,4.504c-1.049,1.129-3.735,7.861-5.89,13.275c-4.037,10.119-8.606,21.586-13.128,26.658
			c-6.088,6.832-13.642,26.043-15.078,29.766c0.774,10.25-2.772,18.206-5.405,21.102c-1.179,1.301-2.444,1.957-3.762,1.957
			c-4.17,0-20.224-17.632-20.224-20.658c0-1.046,0-2.459,10.095-15.107c-1.578-2.654-1.584-5.037-1.235-6.686
			c1.091-5.102,6.455-8.287,8.518-9.345l13.692-17.993c0.677-4.055,3.993-23.619,7.11-36.268
			c1.998-8.122,10.563-12.336,19.878-15.439c-0.738-0.366-1.374-0.993-1.672-1.702c-12.401-35.062-6.106-95.669,12.888-124.862
			c5.453-8.375,12.968-12.625,22.334-12.625c14.724,0,29.571,10.787,34.383,14.611c6.073-2.73,17.862-5.532,34.09-5.532
			c17.262,0,35.559,3.124,54.394,9.292c8.242,2.698,16.934,4.067,25.827,4.067c25.256,0,46.704-11.027,56.161-16.772
			c-14.647-5.116-14.398-9.17-14.316-10.604c0.284-4.631,7.046-5.722,9.931-6.186c19.979-3.233,62.405-38.671,72.631-48.403
			c4.93-4.696,14.115-7.075,27.296-7.075c4.161,0,7.561,0.254,9.174,0.393l22.857-13.14l5.089-27.092
			c0.271-1.454,1.507-2.438,3.032-2.471c1.478,0.033,2.719,1.126,2.938,2.586c0.526,3.57,1.253,7.566,1.95,10.675
			c7.466-15.214,9.576-15.214,11.461-15.214c1.39,0,2.607,0.774,3.275,2.075c2.074,4.152,3.28,18.705,3.682,24.464
			c6.064,3.44,13.891,12.365,14.849,13.468c2.789,3.818,7.678,9.236,10.261,9.945c1.95,0.532,19.139,5.647,23.253,21.542
			c2.341,9.061,17.921,16.166,23.726,18.14c0.438,0.15,0.84,0.399,1.165,0.724C554.985,183.502,551.812,187.474,548.737,191.31z"/>
		<path d="M119.879,256.745c-15.731,11.665-26.876,42.368-30.452,60.591c-2.402,12.253-3.945,17.556-5.388,19.837
			c1.315-0.391,2.622-0.774,3.91-1.146c6.496-1.892,12.634-3.677,15.513-6.064c6.75-5.604,16.036-8.051,21.078-9.032
			C119.661,303.091,119.661,269.935,119.879,256.745z"/>
	</g>
</g>
<g>
</g>
<g>
</g>
<g>
</g>
<g>
</g>
<g>
</g>
<g>
</g>
<g>
</g>
<g>
</g>
<g>
</g>
<g>
</g>
<g>
</g>
<g>
</g>
<g>
</g>
<g>
</g>
<g>
</g>
</svg>
