<?xml version="1.0" encoding="iso-8859-1"?>
<!-- Generator: Adobe Illustrator 16.0.0, SVG Export Plug-In . SVG Version: 6.00 Build 0)  -->
<!DOCTYPE svg PUBLIC "-//W3C//DTD SVG 1.1//EN" "http://www.w3.org/Graphics/SVG/1.1/DTD/svg11.dtd">
<svg version="1.1" id="Capa_1" xmlns="http://www.w3.org/2000/svg" xmlns:xlink="http://www.w3.org/1999/xlink" x="0px" y="0px"
	 width="97.007px" height="97.008px" viewBox="0 0 97.007 97.008" style="enable-background:new 0 0 97.007 97.008;"
	 xml:space="preserve">
<g>
	<g>
		<path d="M43.554,95.715c-0.006,0.004-0.014,0.008-0.02,0.012c-0.009,0.006-0.016,0.011-0.024,0.017L43.554,95.715z"/>
		<path d="M82.606,22.476c-0.371-0.502-0.832-1.126-1.457-1.688c-0.932-0.836-2.126-1.296-3.364-1.296
			c-1.087,0-2.151,0.343-3.079,0.992c-0.391,0.273-0.771,0.563-1.15,0.853c-0.511,0.391-0.992,0.761-1.45,1.033
			c-0.541,0.321-1.168,0.599-1.837,0.877c-1.031-0.438-2.072-0.897-3.085-1.344l-0.349-0.153c-0.279-0.3-0.557-0.601-0.835-0.903
			c-0.799-0.867-1.625-1.764-2.502-2.631c-0.737-0.728-1.655-1.383-2.655-1.896c-0.154-0.08-0.312-0.157-0.469-0.233
			c0.73-0.455,1.418-1.014,2.017-1.74c0.22-0.034,0.427-0.06,0.623-0.079c1.94-0.19,3.567-1.187,4.837-2.961
			c1.032-1.447,1.312-2.948,0.834-4.464C68.5,6.264,68.281,5.72,68.085,5.241L67.92,4.832c-0.124-0.306-0.265-0.537-0.391-0.716
			c-0.828-1.565-2.075-3.1-4.83-3.1c-0.479,0-1.001,0.04-1.506,0.078c-0.313,0.024-0.628,0.052-0.941,0.081
			c-0.701,0.063-1.362,0.123-1.976,0.123c-0.609,0-1.093-0.059-1.521-0.187c-0.561-0.167-1.117-0.35-1.675-0.533
			c-0.395-0.13-0.789-0.259-1.185-0.384C53.486,0.065,53.073,0,52.667,0c-0.211,0-0.422,0.018-0.626,0.053
			c-0.368,0.064-0.736,0.125-1.104,0.186c-0.844,0.14-1.706,0.282-2.578,0.458c-0.604-0.231-1.253-0.35-1.93-0.35
			c-2.173,0-4.193,1.324-5.389,2.254C41,2.6,40.959,2.664,40.919,2.664h-0.208l-0.506-0.067c-0.187-0.002-0.374-0.035-0.561-0.035
			c-0.529,0-1.161-0.005-1.841,0.078c-1.879,0.229-2.764,1.302-3.123,1.926c-0.366,0.634-0.863,1.964-0.088,3.78
			c0.094,0.22,0.203,0.46,0.334,0.716c-2.305,1.607-3.781,3.689-4.711,5.155c-0.248,0.39-0.665,0.83-1.105,1.296
			c-0.138,0.146-0.275,0.291-0.41,0.437c-0.697,0.752-1.028,1.689-0.938,2.646c-0.847,0.758-1.278,1.804-1.136,2.874
			c0.057,0.442,0.206,0.88,0.429,1.284c-1.229,2.24-1.887,4.764-2.004,7.688l-0.009,0.117c-0.029,0.342-0.079,0.915,0.079,1.584
			c0.129,0.541,0.326,0.981,0.471,1.302c0.034,0.076,0.069,0.152,0.101,0.229c0.354,0.868,1.077,1.492,1.929,1.744
			c0.138,0.239,0.287,0.472,0.446,0.698c-0.693,0.406-1.195,1.028-1.426,1.805c-0.298,0.989-0.122,2.169,0.465,3.065
			c0.915,1.401,2.106,2.389,3.519,2.931c-0.008,0.008-0.016,0.016-0.022,0.023c-0.755,0.781-1.263,1.725-1.518,2.819
			c-1.877,0.385-3.709,0.904-5.473,1.974c-0.594,0.359-1.177,0.733-1.761,1.108c-0.511,0.328-1.021,0.657-1.539,0.974
			c-2.25,1.371-3.887,3.492-4.609,5.973c-0.752,2.581-1.459,5.674-1.011,9.054c0.015,0.112,0.015,0.255,0.001,0.4
			c-0.15,1.581,0.34,2.87,0.697,3.812c0.081,0.213,0.163,0.424,0.232,0.639c0.096,0.3,0.098,0.472,0.093,0.541
			c-0.043,0.029-0.13,0.08-0.271,0.13c-0.889,0.313-1.433,0.905-1.694,1.19L13.7,72.607c-0.586,0.547-0.929,1.306-0.952,2.108
			c-0.022,0.818,0.289,1.61,0.864,2.193c-0.083,2.848,0.72,5.463,2.396,7.784c0.626,0.869,1.361,1.525,2.009,2.105l0.204,0.184
			c0.658,0.593,1.103,1.047,1.312,1.488c-0.016,0.205-0.026,0.471-0.004,0.771c0.181,2.486,1.487,3.281,2.552,3.507
			c0.338,0.072,0.704,0.11,1.058,0.11c1.594,0,2.483-0.77,2.872-1.228c1.362-1.6,2.064-3.518,2.072-5.623
			c0.259,2.224,1.54,3.941,3.488,4.69c-0.125,2.835,1.424,5.197,3.973,6.058c0.295,0.108,0.591,0.169,0.899,0.185
			c0.622,0.035,1.225,0.066,1.854,0.066c1.271,0,3.176-0.121,5.055-1.172c0.052-0.029,0.127-0.076,0.183-0.111
			c1.115-0.701,1.692-1.146,2.158-1.912c0.761-0.323,1.481-0.629,2.217-1.002c1.966-0.996,2.874-3.099,2.259-5.234
			c-0.664-2.301-1.911-4.034-3.712-5.166c-0.035-0.096-0.07-0.193-0.105-0.29c-0.212-0.58-0.432-1.181-0.721-1.806
			c-0.831-1.793-1.436-3.676-1.847-5.756c-0.024-0.121-0.051-0.236-0.079-0.35c1.062-0.72,2.147-1.477,3.173-2.396
			c1.639-1.471,3.16-3.08,4.561-4.602c1.884-2.047,3.059-4.025,3.696-6.223c0.478-1.641,0.729-3.42,0.774-5.438l0.004-0.175
			c0.004-0.17,0.007-0.338,0.012-0.502c0.187-0.104,0.371-0.205,0.559-0.309c1.029-0.567,2.095-1.153,3.138-1.871
			c1.357-0.936,2.607-1.961,3.815-2.954c0.345-0.283,0.688-0.566,1.036-0.847c0.036-0.03,0.073-0.061,0.111-0.092
			c0.671,0.672,1.46,0.961,1.783,1.078c0.946,0.346,1.887,0.521,2.796,0.521c1.159,0,2.27-0.279,3.296-0.831
			c0.896-0.481,1.766-0.988,2.605-1.479c0.32-0.187,0.643-0.375,0.965-0.56c0.134-0.077,0.265-0.163,0.393-0.252
			c3.273-1.135,3.94-4.167,4.197-5.332c0.058-0.262,0.104-0.395,0.127-0.452c1.583-1.979,2.314-4.239,2.173-6.72
			c-0.029-0.542-0.075-1.086-0.12-1.631c-0.027-0.342-0.057-0.683-0.081-1.025c0.169-0.425,0.329-0.827,0.496-1.125
			c0.878-1.569,1.017-3.116,1.044-4.142c0.038-1.485-0.386-2.783-1.261-3.863C82.861,22.824,82.733,22.65,82.606,22.476z
			 M80.596,29.531c-0.311,0.554-0.534,1.158-0.771,1.75c-0.083,0.209-0.137,0.453-0.123,0.676c0.06,0.998,0.167,1.994,0.223,2.993
			c0.103,1.779-0.431,3.337-1.565,4.731c-0.355,0.436-0.543,1.058-0.668,1.625c-0.322,1.464-0.831,2.737-2.448,3.205
			c-0.256,0.074-0.47,0.286-0.709,0.424c-1.162,0.669-2.312,1.36-3.492,1.995c-0.613,0.33-1.242,0.475-1.877,0.475
			c-0.584,0-1.174-0.123-1.764-0.339c-0.873-0.32-1.062-0.646-0.737-1.503c0.528-1.391,1.104-2.763,1.681-4.135
			c0.491-1.172,0.748-1.514,1.57-1.514c0.247,0,0.544,0.031,0.914,0.079c0.016,0.002,0.032,0.003,0.049,0.003
			c0.174,0,0.441-0.093,0.459-0.178c0.16-0.768,0.267-1.548,0.389-2.324c-0.062-0.022-0.125-0.043-0.188-0.065
			c-0.859,0.885-1.915,1.406-3.077,1.744c-0.117,0.034-0.232,0.173-0.295,0.291c-0.55,1.074-1.035,2.186-1.646,3.222
			c-0.372,0.63-0.89,1.194-1.422,1.704c-0.798,0.764-1.648,1.477-2.509,2.172c-1.538,1.244-3.041,2.543-4.667,3.663
			c-1.432,0.985-3.017,1.748-4.518,2.637c-0.188,0.109-0.37,0.375-0.395,0.586c-0.072,0.675-0.082,1.357-0.097,2.037
			c-0.035,1.582-0.211,3.135-0.656,4.669c-0.567,1.956-1.681,3.569-3.023,5.028c-1.397,1.518-2.822,3.023-4.355,4.398
			c-1.162,1.042-2.495,1.898-3.791,2.781c-0.56,0.381-0.842,0.912-0.621,1.562c0.137,0.403,0.296,0.804,0.378,1.218
			c0.44,2.227,1.111,4.373,2.067,6.436c0.398,0.859,0.676,1.775,1.036,2.656c0.072,0.175,0.242,0.353,0.413,0.437
			c1.576,0.781,2.458,2.108,2.929,3.738c0.216,0.749-0.036,1.375-0.732,1.728c-0.945,0.479-1.938,0.865-3.076,1.363
			c-0.379,0.962-0.379,0.962-1.534,1.686c-0.019,0.012-0.036,0.024-0.055,0.034c-1.145,0.64-2.357,0.79-3.59,0.79
			c-0.562,0-1.128-0.031-1.694-0.062c-0.021-0.001-0.04-0.013-0.061-0.019c-1.277-0.414-2.063-1.517-1.972-3.148
			c0.08-1.422-0.257-2.36-1.744-2.82c-1.101-0.34-1.683-1.268-1.777-2.436c-0.131-1.633-0.244-3.268-0.36-4.901
			c-0.08-1.131-0.162-2.265-0.984-3.154c-0.098-0.104-0.311-0.188-0.472-0.188c-0.042,0-0.08,0.005-0.111,0.017
			c-1.706,0.641-2.665,2.171-2.544,3.945c0.014,0.193-0.139,0.398-0.215,0.598c-0.193-0.078-0.422-0.117-0.574-0.246
			c-0.458-0.385-0.887-0.806-1.372-1.253c-0.301,0.683-0.378,1.259-0.164,1.888c0.267,0.785,0.55,1.576,0.701,2.389
			c0.346,1.859,0.019,3.602-1.231,5.07c-0.104,0.123-0.341,0.168-0.584,0.168c-0.152,0-0.307-0.019-0.433-0.045
			c-0.116-0.024-0.165-0.515-0.186-0.795c-0.027-0.367,0.09-0.761-0.004-1.102c-0.367-1.329-1.294-2.27-2.288-3.164
			c-0.631-0.568-1.297-1.134-1.788-1.814c-1.495-2.072-2.055-4.41-1.754-6.957c0.019-0.158-0.16-0.362-0.287-0.513
			c-0.2-0.237-0.434-0.446-0.652-0.668c0.231-0.209,0.428-0.515,0.699-0.61c1.955-0.692,2.697-2.345,2.033-4.416
			c-0.339-1.056-0.912-2.069-0.8-3.248c0.034-0.356,0.033-0.725-0.014-1.08c-0.355-2.685,0.183-5.297,0.917-7.819
			c0.509-1.745,1.649-3.25,3.292-4.252c1.107-0.676,2.183-1.405,3.292-2.078c1.748-1.06,3.72-1.464,5.689-1.823
			c0.731-0.134,1.014-0.455,1.039-1.166c0.031-0.846,0.254-1.653,0.862-2.282c0.562-0.581,1.153-1.136,1.746-1.686
			c0.967-0.898,1.962-1.767,2.914-2.679c0.519-0.496,0.695-1.134,0.545-1.945c-0.292,0.169-0.539,0.281-0.752,0.44
			c-0.762,0.569-1.578,0.937-2.536,1.116c-0.456,0.085-0.894,0.131-1.312,0.131c-1.523,0-2.792-0.6-3.746-2.061
			c-0.101-0.154-0.148-0.402-0.098-0.571c0.029-0.099,0.296-0.16,0.463-0.176C30,38.59,30.016,38.59,30.031,38.59
			c0.148,0,0.304,0.063,0.456,0.073c0.109,0.007,0.217,0.011,0.324,0.011c0.911,0,1.718-0.28,2.162-1.174
			c0.322-0.649,0.577-1.379,0.645-2.094c0.066-0.716-0.026-1.489-0.615-2.118c-0.258,0.667-0.404,1.34-0.56,2.011
			c-0.045,0.193-0.116,0.381-0.175,0.571c-0.19-0.064-0.422-0.078-0.563-0.199c-1.048-0.892-1.771-2-2.142-3.332
			c-0.082-0.296-0.17-0.59-0.289-1c-0.233,0.46-0.41,0.807-0.586,1.154c-0.072,0.014-0.144,0.029-0.216,0.043
			c-0.147-0.361-0.34-0.712-0.429-1.088c-0.066-0.281-0.004-0.594,0.008-0.892c0.1-2.49,0.661-4.848,1.999-6.982
			c0.312-0.496,0.65-0.976,1.002-1.501c-0.384-0.149-0.744-0.237-1.044-0.423c-0.191-0.119-0.379-0.37-0.406-0.583
			c-0.017-0.125,0.263-0.338,0.449-0.429c0.764-0.37,1.394-0.856,1.734-1.709c-0.288-0.106-0.546-0.157-0.753-0.289
			c-0.235-0.151-0.431-0.333-0.127-0.66c0.644-0.696,1.342-1.371,1.846-2.164c1.143-1.802,2.459-3.406,4.283-4.561
			c0.746-0.473,1.445-1.02,2.248-1.592c-0.979-0.696-1.52-1.545-1.929-2.505c-0.375-0.879-0.147-1.445,0.814-1.562
			c0.488-0.059,0.983-0.008,1.479-0.008c0.355,0,0.712,0.07,1.066,0.07c0.061,0,0.121,0,0.182,0c0.009,0,0.018,0,0.026,0
			c0.328,0,0.658-0.022,0.985-0.022c0.067,0,0.134-0.034,0.201-0.038c0,0,2.285-2.242,4.321-2.242c0.524,0,1.033,0.14,1.481,0.511
			C49.437,3.502,51,3.275,52.55,3.007c0.037-0.006,0.076-0.011,0.115-0.011c0.11,0,0.226,0.022,0.327,0.054
			c0.971,0.306,1.933,0.642,2.907,0.932c0.789,0.235,1.582,0.311,2.376,0.311c1.046,0,2.095-0.133,3.145-0.213
			c0.51-0.039,0.927-0.069,1.278-0.069c1.118,0,1.574,0.31,2.257,1.655c0.048,0.094,0.136,0.17,0.175,0.267
			c0.238,0.601,0.497,1.196,0.691,1.811c0.212,0.669,0.01,1.22-0.414,1.814c-0.688,0.962-1.492,1.602-2.688,1.72
			c-0.571,0.056-1.143,0.151-1.706,0.264c-0.188,0.038-0.431,0.144-0.521,0.295c-0.854,1.435-2.244,2.085-3.721,2.647
			c-0.748,0.285-1.468,0.653-2.175,1.031c-0.12,0.064-0.224,0.449-0.15,0.542c0.589,0.755,1.19,1.474,2.188,1.778
			c0.975,0.297,1.933,0.686,2.837,1.151c0.691,0.354,1.363,0.815,1.915,1.36c1.224,1.209,2.362,2.502,3.542,3.756
			c0.099,0.104,0.23,0.185,0.362,0.243c1.478,0.651,2.95,1.308,4.439,1.928c0.169,0.07,0.383,0.119,0.581,0.119
			c0.113,0,0.223-0.016,0.313-0.054c1.023-0.418,2.062-0.831,3.009-1.393c0.98-0.582,1.851-1.35,2.789-2.008
			c0.422-0.295,0.896-0.45,1.359-0.45c0.485,0,0.961,0.17,1.358,0.527c0.589,0.53,1.018,1.238,1.522,1.862
			c0.449,0.555,0.611,1.173,0.593,1.894C81.233,27.75,81.081,28.665,80.596,29.531z"/>
	</g>
</g>
<g>
</g>
<g>
</g>
<g>
</g>
<g>
</g>
<g>
</g>
<g>
</g>
<g>
</g>
<g>
</g>
<g>
</g>
<g>
</g>
<g>
</g>
<g>
</g>
<g>
</g>
<g>
</g>
<g>
</g>
</svg>
