<?xml version="1.0" encoding="iso-8859-1"?>
<!-- Generator: Adobe Illustrator 16.0.0, SVG Export Plug-In . SVG Version: 6.00 Build 0)  -->
<!DOCTYPE svg PUBLIC "-//W3C//DTD SVG 1.1//EN" "http://www.w3.org/Graphics/SVG/1.1/DTD/svg11.dtd">
<svg version="1.1" id="Capa_1" xmlns="http://www.w3.org/2000/svg" xmlns:xlink="http://www.w3.org/1999/xlink" x="0px" y="0px"
	 width="95.45px" height="95.451px" viewBox="0 0 95.45 95.451" style="enable-background:new 0 0 95.45 95.451;"
	 xml:space="preserve">
<g>
	<g>
		<path d="M95.213,54.316c-1.729,0.919-8.376-0.378-6.161-0.54c1.304-0.095,2.158-0.938,2.642-1.617
			c0.32-0.45,0.043-0.856-0.507-0.911c-7.638-0.767-10.009-11.365-8.687-10.54c0.892,0.557,2.548,0.372,3.604,0.172
			c0.543-0.102,0.527-0.136-0.019-0.218c-1.106-0.167-3.219-0.873-6.747-3.408c-5.756-4.134-10.335,0.473-12.064-1.905
			c-1.729-2.378-6.863-6.323-9.023-5.674c-1.454,0.436-3.568,0.237-4.798,0.059c-0.546-0.079-0.642-0.461-0.346-0.927
			c0.19-0.299,0.371-0.636,0.522-0.939c0.246-0.494,0.086-0.605-0.365-0.287c-2.966,2.088-7.813,2.946-8.295-0.054
			c-0.338-2.103,0.889-2.194,1.813-1.987c0.538,0.12,0.693-0.054,0.287-0.427c-2.133-1.958-5.376-1.041-7.531-4.111
			c-1.757-2.5,1.012-2.88,2.606-2.906c0.553-0.009,0.597-0.167,0.077-0.356c-1.179-0.428-3.285-0.987-5.116-0.386
			c-2.715,0.892-6.687,3.445-8.633-1.175c-1.404-3.337,1.08-4.01,2.568-4.127c0.551-0.043,0.679-0.325,0.211-0.619
			c-0.904-0.569-2.514-1.206-4.44-0.321c-2.999,1.378-0.365,2.108-6.323,0.284c-5.957-1.824-4.134,1.459-6.605,1.337
			c-2.473-0.122-2.513,1.135-3.283,0.122c-0.77-1.013-1.419-1.216-1.459,0.648c-0.041,1.864,0.176,1.77,0.716,3.769
			c0.54,1.999-0.405,1.918-2.188,3.648c-1.783,1.73,0.757,1.351-2.054,4.755c-2.81,3.404-3.675,3.783-5.026,5.836
			c-1.352,2.053,0.055,0.432,0.001,3.08s2.81,2.648,3.675,2.918c0.864,0.27,2.216,0.811,3.729-0.919
			c1.513-1.729,5.566-2.432,6.431-2.107c0.402,0.151,0.945,0.115,1.41,0.033c0.544-0.096,1.156,0.157,1.352,0.674
			c0.605,1.603,1.601,4.981,0.467,7.575c-1.138,2.605-0.992,6.293-0.839,8.043c0.049,0.55-0.508,0.895-0.737,1.397
			c-0.194,0.427-0.206,1.185-1.585,2.231c-2.188,1.662-3.283-1.459-4.377,6.566c-0.762,5.588-0.875,7.028-0.683,7.799
			c0.134,0.537,0.597,1.318,0.767,1.844c0.307,0.945,0.496,2.139,0.889,4.703c0.527,3.445,2.432,1.095,3.729-0.607
			s-0.405-1.904-0.121-3.08c0.244-1.014-0.325-0.912-1.007-2.583c-0.209-0.511-0.462-1.374-0.537-1.921
			c-0.396-2.874,0.545-7.367,2.962-7.331c2.716,0.041,4.621,2.999,7.822,0.812c2.258-1.543,4.737-0.608,6.003,0.078
			c0.485,0.263,0.648,0.931,0.391,1.418c-2.584,4.895-3.696,4.627-3.716,6.262c-0.006,0.552,0.108,1.455,0.338,1.959
			c0.8,1.756,2.987,1.029,4.929,3.252c2.229,2.553,5.593-1.055,7.011-2.148c1.419-1.094,2.189-2.148,0-2.513
			c-2.188-0.365-3.444-2.026-3.647-0.933c-0.066,0.36-0.199,0.65-0.347,0.877c-0.286,0.439-1.103,0.789-1.655,0.795
			c-2.405,0.022-0.761-2.885,0.948-3.211c1.905-0.365,0.852-1.379,2.392-2.107c1.54-0.73,2.026-2.553,3.404-2.675
			c0.641-0.058,1.106-0.411,1.421-0.774c0.361-0.417,0.965-0.765,1.514-0.826c0.057-0.008,0.114-0.015,0.172-0.021
			c0.547-0.071,0.941,0.285,0.912,0.836c-0.201,3.734,0.776,3.945,0.439,4.92c-0.364,1.055-0.648,2.189-0.607,3.202
			c0.04,1.013,0.202,4.053-2.756,6.524c-2.959,2.473-1.135,1.5-3.405,4.377c-1.213,1.539-1.87,2.66-2.22,3.371
			c-0.243,0.496,0.014,1.164,0.546,1.312c2.149,0.605,4.37-0.65,4.795-0.792c0.486-0.162,1.054,0.243,0.852-0.446
			c-0.203-0.689,2.147-8.064,3.485-7.902c1.337,0.162,3.932-0.243,4.499-1.986c0.566-1.743,4.296-6.282,7.942-5.836
			c3.13,0.382,2.681-2.574,2.847-4.729c0.043-0.551,0.269-1.42,0.457-1.938c0.426-1.167,0.995-2.193,1.546-2.923
			c0.332-0.441,1.009-1.037,1.356-1.465c0.398-0.489,0.653-0.988,0.928-1.672c0.261-0.652,1.248-1.901,1.919-2.711
			c0.354-0.425,0.723-0.302,1.049,0.145c0.717,0.976,2.201,1.798,3.169,2.259c0.499,0.238,0.663,0.031,0.39-0.449
			c-3.427-6.02,3.543-5.459,3.336-2.77c-0.216,2.81,3.566,9.942,5.514,9.942c1.247,0,2.205,1.244,2.731,2.137
			c0.281,0.477,0.691,0.504,0.852-0.025c0.306-1.011,0.157-1.988-0.341-3.029c-0.271-0.564-0.278-1.074-0.193-1.474
			c0.113-0.54,0.769-0.63,1.269-0.396C89.663,61.013,96.851,53.446,95.213,54.316z M57.169,56.515
			c-0.112,0.42-0.3,0.869-0.608,1.123c-0.688,0.567-0.526,6.485-3.646,7.984c-3.12,1.5-3.201,0.77-3.201,0.77
			s-0.081-5.146,3.81-7.375c0,0,2.059-1.471,3.2-2.695C57.099,55.917,57.312,55.983,57.169,56.515z"/>
	</g>
</g>
<g>
</g>
<g>
</g>
<g>
</g>
<g>
</g>
<g>
</g>
<g>
</g>
<g>
</g>
<g>
</g>
<g>
</g>
<g>
</g>
<g>
</g>
<g>
</g>
<g>
</g>
<g>
</g>
<g>
</g>
</svg>
