<?xml version="1.0" encoding="iso-8859-1"?>
<!-- Generator: Adobe Illustrator 16.0.0, SVG Export Plug-In . SVG Version: 6.00 Build 0)  -->
<!DOCTYPE svg PUBLIC "-//W3C//DTD SVG 1.1//EN" "http://www.w3.org/Graphics/SVG/1.1/DTD/svg11.dtd">
<svg version="1.1" id="Capa_1" xmlns="http://www.w3.org/2000/svg" xmlns:xlink="http://www.w3.org/1999/xlink" x="0px" y="0px"
	 width="94.861px" height="94.861px" viewBox="0 0 94.861 94.861" style="enable-background:new 0 0 94.861 94.861;"
	 xml:space="preserve">
<g>
	<g>
		<path d="M80.061,40.453c-0.042-0.227,0.012-0.345,0.191-0.849c0.312-0.868-0.034-1.529-0.59-2.362
			c-0.557-0.833-2.119-4.203-2.188-5.106c-0.068-0.903-2.258-2.987-3.474-2.154c-1.216,0.834-0.8,0.035-0.729-0.521
			c0.069-0.556,0.451-2.71-0.8-3.508c-1.25-0.799-1.459-1.737-3.682-0.278c-0.708,0.464-1.219,0.771-1.586,0.972
			c-0.484,0.266-1.138-0.012-1.518-0.414c-0.349-0.369-0.84-0.758-1.447-0.906c-0.923-0.224-1.845-1.342-2.421-2.225
			c-0.302-0.463-0.684-1.274-0.898-1.782c-0.889-2.096-2.787-6.894-2.273-7.664c0.625-0.938,0.938-0.486,1.32-0.208
			c0.382,0.278,2.049-0.243,2.501-0.799c0.451-0.556,2.466-0.521,2.536,0.174c0.069,0.695,1.146-0.07,1.806-0.556
			c0.508-0.374,1.166-0.775,1.386-1.705c0.127-0.538,0.288-1.456,0.054-1.953c-0.108-0.229-0.304-0.486-0.641-0.754
			c-0.972-0.778-4.554-2.991-6.474-4.038c-0.485-0.264-0.729-0.874-0.592-1.409c0.102-0.394,0.185-0.837,0.165-1.176
			c-0.047-0.787-1.065,1.621-1.808,1.529c-0.562-0.07-1.549-0.699-2.559-0.697c-0.552,0.001-1.406,0.433-1.935,0.275
			c-1.261-0.377-2.747-2.021-2.965-2.31c-0.22-0.292,0.226,1.665,0.945,2.89c0.279,0.476,0.229,0.969-0.252,1.242
			c-1.229,0.698-3.391,2.076-4.121,3.487c-0.556,1.074-1.368,1.549-2.005,1.759c-0.525,0.172-0.666,0.475-0.184,0.705
			c0.483,0.23,1.032,0.521,0.773,1.009c-0.675,1.269-2.246,3.756-2.197,5.837c0.035,1.497-0.437,2.156-0.915,2.442
			c-0.474,0.283-0.791,0.49-0.493,0.771c0.189,0.179,0.416,0.33,0.644,0.33c0.556,0-1.319,2.432,0.209,4.516
			c1.074,1.465,1.084,2.725,0.851,3.621c-0.14,0.534,0.075,0.813,0.551,0.532c0.378-0.224,0.791-0.555,1.064-1.026
			c0.626-1.077,0.267,1.714-0.058,3.427c-0.324,1.714,0.231,6.438-4.771,12.066c-5.002,5.627-7.504,4.168-8.546,9.865
			s-3.265,5.002-4.377,4.724c-1.111-0.277-4.933,2.987-4.933,5.142c0,2.153-3.404,6.044-5.002,5.628
			c-0.649-0.169-0.771-0.155-0.687-0.079c0.317,0.288,0.709,0.7,1.04,0.797c0.33,0.097,0.77,0.307,0.391,0.709
			c-0.724,0.767-2.051,2.129-1.786,3.714c0.329,1.979-1.645,2.87-3.104,3.088c-0.546,0.081-0.748,0.416-0.359,0.809
			c0.771,0.776,2.228,1.813,4.297,1.454c3.195-0.557,5.905-1.876,5.21-5.767c-0.694-3.891,1.598-3.092,2.258-5.904
			c0.483-2.061,2.605-4.698,3.708-5.964c0.362-0.416,0.62-0.296,0.609,0.257c-0.035,1.773,0.234,5.483,2.839,7.547
			c3.509,2.778-0.764,8.232-1.841,9.518s0.347,3.161,0.66,4.03c0.312,0.868,2.604,7.225,2.604,9.205c0,1.639,1.833,2.54,3.469,2.446
			c0.551-0.03,1.172-0.542,0.937-0.923c-0.104-0.169-0.267-0.374-0.515-0.621c-0.92-0.92-2.625-5.085-3.125-7.383
			c-0.117-0.54-0.145-1.437-0.095-1.986c0.184-2.034,0.896-5.193,1.657-5.984c0.903-0.938,3.265-6.322,3.369-8.129
			c0.09-1.546,2.52,0.293,2.564,2.227c0.014,0.553-0.396,1.374-0.671,1.853c-1.206,2.098-3.195,4.663-2.831,5.3
			c0.417,0.729,1.285,1.876,3.369,3.021c2.084,1.146,6.531,5.489,6.809,6.636c0.094,0.381,0.242,0.691,0.401,0.938
			c0.299,0.464,1.096,0.885,1.618,1.065c0.448,0.155,0.986,0.332,1.448,0.462c0.531,0.148,1.058-0.24,0.86-0.756
			c-0.38-0.997-1.171-2.53-1.376-3.238c-0.312-1.077-1.425-1.494-2.293-2.397c-0.868-0.902-6.947-3.438-3.926-8.129
			c3.022-4.689,3.891-5.176,4.308-6.913c0.417-1.736,2.711-4.654,1.563-6.635c-1.147-1.979-2.432-4.272-0.486-6.287
			s8.823-8.337,9.622-11.115c0.799-2.779,2.154-6.183,3.475-5.697c0.787,0.29,1.609-0.419,2.146-1.04
			c0.361-0.418,0.533-0.359,0.498,0.192c-0.059,0.94-0.041,2.241,0.481,2.48c0.833,0.382,1.944-1.528,2.952-2.015
			c1.008-0.486,1.354-2.293,2.293-2.779c0.704-0.366,1.018-1.458,0.951-2.495c-0.034-0.551,0.247-1.271,0.771-1.099
			c0.33,0.108,0.712,0.386,1.094,0.998c0.291,0.469,0.621,1.305,0.813,1.823c0.757,2.049,0.677,2.762,0.677,3.342
			c0,0.427,0.552,0.97,0.642,1.497c0.093,0.544-0.905,1.092-0.946,1.642c-0.021,0.26,0.039,0.531,0.062,0.798
			c0.045,0.55-0.378,1.403,0.085,1.705c0.925,0.602,2.961,1.128,3.494,0.987c0.604-0.16,0.21-2.426-0.119-3.919
			C80.397,41.74,80.148,40.932,80.061,40.453z M67.734,35.75c-0.444-0.3-0.777-0.26-1.009-0.085
			c-0.439,0.334-0.651,0.499-0.916,0.014c-0.371-0.684-0.806-1.61-0.773-2.142c0.018-0.307,0.123-0.482,0.254-0.577
			c0.292-0.212,1.045-0.228,1.546-0.452c0.38-0.17,0.758-0.36,0.863-0.482c0.233-0.27,0.792,0.216,0.847,0.504
			C68.599,32.816,68.725,36.416,67.734,35.75z"/>
	</g>
</g>
<g>
</g>
<g>
</g>
<g>
</g>
<g>
</g>
<g>
</g>
<g>
</g>
<g>
</g>
<g>
</g>
<g>
</g>
<g>
</g>
<g>
</g>
<g>
</g>
<g>
</g>
<g>
</g>
<g>
</g>
</svg>
