<?xml version="1.0" encoding="iso-8859-1"?>
<!-- Generator: Adobe Illustrator 16.0.0, SVG Export Plug-In . SVG Version: 6.00 Build 0)  -->
<!DOCTYPE svg PUBLIC "-//W3C//DTD SVG 1.1//EN" "http://www.w3.org/Graphics/SVG/1.1/DTD/svg11.dtd">
<svg version="1.1" id="Capa_1" xmlns="http://www.w3.org/2000/svg" xmlns:xlink="http://www.w3.org/1999/xlink" x="0px" y="0px"
	 width="93.17px" height="93.17px" viewBox="0 0 93.17 93.17" style="enable-background:new 0 0 93.17 93.17;" xml:space="preserve"
	>
<g>
	<g>
		<path d="M36.43,45.532c0.076,0.234,0.201,0.453,0.339,0.667c0.225,0.349,0.507,0.587,0.628,0.535
			c0.121-0.053,0.146-0.433,0.056-0.85c-0.055-0.252-0.112-0.503-0.181-0.751c-1.13-4.08,0.441-8.443,4.064-10.55
			c1.542-0.897,3.383-1.266,5.048-1.969c1.555-0.657,2.959-0.529,4.312,0.462c0.178,0.13,0.368,0.239,0.63,0.385
			c0.356,0.199,0.576,0.136,0.513-0.151c-0.061-0.272-0.088-0.422-0.179-0.492c-1.815-1.412-2.633-3.401-3.389-5.486
			c-0.604-1.666-1.773-2.19-3.449-1.656c-3.619,1.153-7.208,2.399-10.813,3.594c0,0-0.679,0.227-1.054,0.496
			c-1.086,0.759-2.099,1.661-3.269,2.251c-5.979,3.019-10.98,7.297-15.699,11.96c-3.902,3.854-8.152,7.395-10.646,12.468
			C2.233,58.7,0.717,60.782,0.107,63.29c-0.261,1.073-0.005,2.035,0.319,2.1c0.2,0.04,0.401,0.067,0.595,0.045
			c2.762-0.328,5.545-0.574,8.265-1.124c0.834-0.17,1.738-1.067,2.187-1.869c1.52-2.713,2.741-5.595,4.286-8.291
			c1.233-2.154,2.32-2.248,4.498-0.925c0.552,0.335,1.118,0.647,1.704,0.965c0.952,0.514,1.667,0.033,1.735-1.069
			c0.237-3.843,1.738-7.14,4.321-9.615C31.055,40.594,35.153,41.591,36.43,45.532z"/>
		<path d="M54.612,30.084c0.958,0.55,1.708,1.062,1.799,0.959c0.092-0.103-0.293-0.957-0.856-1.907
			c-0.834-1.403-1.667-2.807-2.501-4.21c-0.564-0.95-0.926-1.773-0.809-1.839c0.118-0.065,0.812,0.37,1.549,0.975
			c0.444,0.366,0.882,0.739,1.293,1.14c1.663,1.621,3.272,3.296,4.895,4.959c1.037,1.063,2.031,2.169,3.106,3.19
			c0.106,0.102,0.317,0.095,0.566,0.07c0.323-0.032,0.782,0.584,1.018,1.364c0.14,0.464,0.276,0.94,0.396,1.421
			c0.069,0.275,0.021,0.724-0.159,0.872c-0.158,0.132-0.599,0.02-0.866-0.094c-0.767-0.326-1.511-0.706-2.261-1.07
			c-1.072-0.52-2.163-1.011-3.211-1.578c-0.425-0.23-0.837-0.483-1.245-0.743c-0.676-0.43-1.272-0.723-1.336-0.652
			c-0.062,0.071,0.306,0.833,0.824,1.702c0.52,0.869,0.878,1.638,0.804,1.717c-0.073,0.079-1.013-0.031-2.096-0.246
			c-2.079-0.413-4.158-0.826-6.237-1.238c-1.083-0.215-2.002-0.301-2.05-0.192c-0.048,0.109,0.628,0.734,1.525,1.379
			c4.797,3.452,9.854,6.645,13.812,11.448c0.702,0.854,0.347,1.384-0.703,1.038c-0.468-0.153-0.918-0.304-1.362-0.418
			c-1.07-0.274-1.207,0.279-0.268,0.859c3.976,2.453,7.721,5.212,11.061,8.365c3.321,3.136,6.552,6.512,8.384,10.853
			c0.43,1.019,0.789,1.833,0.918,1.775c0.129-0.059-0.022-0.962-0.338-2.021c-0.747-2.502-1.493-5.004-2.24-7.507
			c-0.315-1.058-0.491-1.956-0.391-2.006c0.099-0.05,0.707,0.545,1.355,1.328c0.65,0.783,1.284,1.359,1.416,1.288
			c0.132-0.072-0.115-0.952-0.555-1.966c-0.137-0.317-0.275-0.635-0.412-0.951c-0.438-1.015-0.71-1.892-0.606-1.961
			c0.104-0.07,0.982,0.293,1.862,0.961c1.479,1.124,2.752,2.51,4.119,3.793c0.805,0.756,1.167,0.482,0.835-0.57
			c-0.664-2.112-1.203-4.261-2.919-5.861c-0.748-0.696-1.612-1.29-2.263-2.063c-3.173-3.774-6.266-7.615-9.438-11.389
			c-2.399-2.854-3.552-6.625-6.632-8.974c-0.138-0.106-0.2-0.311-0.298-0.47c-1.486-2.399-2.939-4.724-5.148-6.673
			c-3.612-3.189-6.804-6.856-10.18-10.314c-0.043-0.044-0.115-0.06-0.2-0.075c-0.118-0.02-0.385,0.84-0.527,1.936
			c-0.468,3.578-0.257,7.021,1.953,10.249C51.174,28.461,52.975,29.144,54.612,30.084z M66.231,43.04
			c1.854-0.252,2.603,0.646,3.16,1.829c0.471,0.999-0.135,1.962-1.189,1.632c-1.254-0.394-2.199-1.255-3.142-2.192
			c-0.783-0.779-1.211-1.454-0.944-1.535c0.194-0.058,0.351-0.099,0.497-0.078C65.16,42.771,65.719,43.11,66.231,43.04z"/>
		<path d="M43.021,40.287c0.047-1.104-0.084-1.126-0.348-0.054c-1.2,4.877-2.3,9.768-2.097,14.895
			c0.044,1.104-0.649,1.579-1.559,0.953c-3.668-2.523-5.758-6.087-7.606-10.021c-0.47-1-0.57-0.931-0.57,0.174
			c0,3.903,0,7.809,0,11.713c0,1.104,0.132,1.646,0.492,1.123c0.223-0.324,0.294-0.65,0.515-0.955
			c1.015-1.403,1.235-1.432,2.594-0.443c3.922,2.852,8.176,4.953,12.738,6.472c1.048,0.349,1.473-0.195,0.989-1.188
			C44.689,55.81,42.678,48.321,43.021,40.287z"/>
		<path d="M70.484,63.217c-2.777-2.935-5.588-5.84-8.326-8.812c-2.457-2.668-4.896-5.358-7.219-8.14
			c-1.136-1.36-1.978-2.965-2.982-4.438c-0.352-0.514-0.715-1.019-1.081-1.522c-0.608-0.833-1.264-1.355-1.405-1.127
			c-0.117,0.188-0.141,0.324-0.131,0.459c0.173,2.586,0.25,5.184,0.563,7.753c0.442,3.62,1.375,7.116,3.391,10.229
			c0.947,1.464,1.966,2.86,3.403,3.943c0.882,0.664,1.622,0.116,1.161-0.888c-0.997-2.169-2.964-3.686-3.738-5.878
			c-0.75-2.126-1.491-4.235-1.796-6.462c-0.148-1.094,0.386-1.386,0.949-0.567c0.345,0.5,0.681,0.996,1.076,1.439
			c3.391,3.8,6.852,7.537,10.282,11.302c1.437,1.577,2.863,3.163,4.286,4.753c0.762,0.853,0.889,1.624-0.322,2.208
			c-0.125,0.061-0.23,0.162-0.437,0.354c-0.228,0.212,0.23,0.579,1.03,0.828c0.515,0.16,0.985,0.298,1.462,0.403
			c0.452,0.102,1.072,0.186,1.396-0.041c0.554-0.387,1.011-0.978,1.354-1.571c0.167-0.29,0.137-0.913-0.071-1.161
			C72.435,65.215,71.442,64.231,70.484,63.217z"/>
		<path d="M89.241,62.884c-0.704-0.851-1.209-0.649-1.128,0.452c0.073,0.994,0.146,1.985,0.223,3.014
			c0.081,1.102-0.539,1.417-1.385,0.705c-0.184-0.153-0.361-0.305-0.536-0.451c-0.846-0.711-1.63-1.247-1.75-1.196
			c-0.121,0.051-0.214,0.339-0.203,0.641c0.006,0.187,0.021,0.369,0.07,0.542c0.336,1.19,0.803,2.349,1.066,3.553
			c0.464,2.115-0.519,3.012-2.622,2.519c-0.381-0.089-1.001-0.274-1.136-0.109c-0.747,0.916-1.429,0.312-2.109,0.007
			c-0.311-0.141-0.61-0.308-0.968-0.516c-0.525-0.304-0.519,0.213,0.018,1.15c0.536,0.937,0.354,1.749-0.406,1.815
			c-0.761,0.067-1.404,0.21-1.438,0.321s0.594,0.702,1.409,1.308c0.504,0.375,1.021,0.713,1.589,0.909
			c1.511,0.524,3.164,0.657,4.764,0.904c2.888,0.446,3.562,0.12,4.89-2.455c1.106-2.145,2.083-4.36,3.233-6.479
			c0.503-0.926,0.463-1.688-0.138-2.436C91.561,65.685,90.416,64.303,89.241,62.884z"/>
		<path d="M58.3,65.728c-2.413-2.441-5.02-4.704-7.295-7.263c-1.587-1.784-3.021-3.82-3.023-6.432
			c-0.001-1.521-0.122-3.058,0.048-4.561c0.397-3.509-0.942-6.619-1.893-9.817c-0.315-1.059-0.617-1.927-0.753-1.918
			c-0.136,0.009-0.221,0.397-0.19,0.866c0.019,0.283,0.038,0.566,0.061,0.849c0.119,1.477,0.452,2.973,0.322,4.427
			c-0.297,3.336-0.674,6.576,0.291,9.944c1.886,6.583,5.032,12.072,11.379,15.257c0.333,0.167,0.664,0.34,0.993,0.514
			c0.546,0.288,1.08,0.437,1.193,0.328c0.113-0.106-0.071-0.659-0.416-1.229C58.804,66.344,58.578,66.009,58.3,65.728z"/>
		<path d="M23.318,59.405c-0.928-0.52-1.836-1.027-2.738-1.531c-0.964-0.539-2.291-0.267-2.964,0.61
			c-0.412,0.536-0.838,1.091-1.289,1.678c-0.673,0.876-0.33,1.464,0.764,1.314c2.03-0.279,3.985-0.548,5.991-0.822
			C24.176,60.502,24.282,59.944,23.318,59.405z"/>
	</g>
</g>
<g>
</g>
<g>
</g>
<g>
</g>
<g>
</g>
<g>
</g>
<g>
</g>
<g>
</g>
<g>
</g>
<g>
</g>
<g>
</g>
<g>
</g>
<g>
</g>
<g>
</g>
<g>
</g>
<g>
</g>
</svg>
